%TF.GenerationSoftware,KiCad,Pcbnew,8.0.6*%
%TF.CreationDate,2025-05-19T21:14:35+02:00*%
%TF.ProjectId,szkoleniexd,737a6b6f-6c65-46e6-9965-78642e6b6963,1.0*%
%TF.SameCoordinates,Original*%
%TF.FileFunction,Plated,1,2,PTH,Drill*%
%TF.FilePolarity,Positive*%
%FSLAX46Y46*%
G04 Gerber Fmt 4.6, Leading zero omitted, Abs format (unit mm)*
G04 Created by KiCad (PCBNEW 8.0.6) date 2025-05-19 21:14:35*
%MOMM*%
%LPD*%
G01*
G04 APERTURE LIST*
%TA.AperFunction,ViaDrill*%
%ADD10C,0.300000*%
%TD*%
%TA.AperFunction,ComponentDrill*%
%ADD11C,1.000000*%
%TD*%
%TA.AperFunction,ComponentDrill*%
%ADD12C,1.300000*%
%TD*%
G04 APERTURE END LIST*
D10*
X137000000Y-112000000D03*
X137000000Y-116000000D03*
X138000000Y-90000000D03*
X138000000Y-92000000D03*
X138000000Y-108000000D03*
X139000000Y-103000000D03*
X143000000Y-119000000D03*
X145000000Y-85000000D03*
X145000000Y-91000000D03*
X145000000Y-112000000D03*
X145000000Y-116000000D03*
X145000000Y-121000000D03*
X145000000Y-126000000D03*
X146000000Y-101000000D03*
X146000000Y-104000000D03*
X147000000Y-113000000D03*
X148000000Y-101000000D03*
X148000000Y-116000000D03*
X148590000Y-99314000D03*
X149000000Y-89000000D03*
X149000000Y-103000000D03*
X149000000Y-117000000D03*
X150000000Y-112000000D03*
X150876000Y-95504000D03*
X151000000Y-90000000D03*
X151000000Y-105000000D03*
X152000000Y-102000000D03*
X152000000Y-104000000D03*
X152400000Y-93472000D03*
X153000000Y-107000000D03*
X153000000Y-109000000D03*
X154000000Y-85000000D03*
X154000000Y-89000000D03*
X155000000Y-121000000D03*
X159000000Y-85000000D03*
X160000000Y-88000000D03*
X160000000Y-109000000D03*
X160968524Y-90093201D03*
X161000000Y-121000000D03*
X164000000Y-113000000D03*
X165000000Y-88000000D03*
X168000000Y-119000000D03*
X169000000Y-100000000D03*
X169000000Y-104000000D03*
X170000000Y-88000000D03*
X170000000Y-91000000D03*
X171000000Y-110000000D03*
X172000000Y-98000000D03*
X172000000Y-112000000D03*
X172000000Y-118000000D03*
X173000000Y-105000000D03*
X174000000Y-100000000D03*
X174000000Y-108000000D03*
X175000000Y-109000000D03*
X176000000Y-107000000D03*
X176000000Y-114000000D03*
X178000000Y-122000000D03*
X179000000Y-98000000D03*
X180000000Y-100000000D03*
X180000000Y-104000000D03*
X182000000Y-100000000D03*
X183000000Y-114000000D03*
X184000000Y-102000000D03*
X184000000Y-124000000D03*
X185000000Y-120000000D03*
D11*
%TO.C,J19*%
X134000000Y-86920000D03*
X134000000Y-89460000D03*
X134000000Y-92000000D03*
X134000000Y-94540000D03*
%TO.C,J11*%
X134000000Y-98920000D03*
X134000000Y-101460000D03*
X134000000Y-104000000D03*
X134000000Y-106540000D03*
%TO.C,J14*%
X134000000Y-111380000D03*
X134000000Y-113920000D03*
X134000000Y-116460000D03*
X134000000Y-119000000D03*
%TO.C,J5*%
X143000000Y-93460000D03*
X143000000Y-96000000D03*
%TO.C,J20*%
X147000000Y-80000000D03*
X149540000Y-80000000D03*
%TO.C,J15*%
X150000000Y-120475000D03*
X150000000Y-123015000D03*
X150000000Y-125555000D03*
%TO.C,J20*%
X152080000Y-80000000D03*
X154620000Y-80000000D03*
%TO.C,J16*%
X155000000Y-126000000D03*
%TO.C,J2*%
X157000000Y-103460000D03*
X157000000Y-106000000D03*
%TO.C,J16*%
X157540000Y-126000000D03*
X160080000Y-126000000D03*
%TO.C,J17*%
X161000000Y-103460000D03*
X161000000Y-106000000D03*
%TO.C,J6*%
X162000000Y-80460000D03*
X162000000Y-83000000D03*
%TO.C,J16*%
X162620000Y-126000000D03*
%TO.C,J18*%
X166000000Y-98200000D03*
X166000000Y-100740000D03*
X166000000Y-103280000D03*
X166000000Y-105820000D03*
%TO.C,J9*%
X185000000Y-96000000D03*
X185000000Y-98540000D03*
%TO.C,J1*%
X186000000Y-109920000D03*
X186000000Y-112460000D03*
X186000000Y-115000000D03*
%TO.C,J8*%
X189000000Y-96000000D03*
X189000000Y-98540000D03*
%TO.C,J3*%
X190000000Y-109920000D03*
X190000000Y-112460000D03*
X190000000Y-115000000D03*
D12*
%TO.C,RV1*%
X167000000Y-81000000D03*
X167000000Y-91000000D03*
X179500000Y-86000000D03*
M02*
