%TF.GenerationSoftware,KiCad,Pcbnew,8.0.6*%
%TF.CreationDate,2025-05-19T21:14:28+02:00*%
%TF.ProjectId,szkoleniexd,737a6b6f-6c65-46e6-9965-78642e6b6963,1.0*%
%TF.SameCoordinates,Original*%
%TF.FileFunction,Paste,Bot*%
%TF.FilePolarity,Positive*%
%FSLAX46Y46*%
G04 Gerber Fmt 4.6, Leading zero omitted, Abs format (unit mm)*
G04 Created by KiCad (PCBNEW 8.0.6) date 2025-05-19 21:14:28*
%MOMM*%
%LPD*%
G01*
G04 APERTURE LIST*
G04 Aperture macros list*
%AMRoundRect*
0 Rectangle with rounded corners*
0 $1 Rounding radius*
0 $2 $3 $4 $5 $6 $7 $8 $9 X,Y pos of 4 corners*
0 Add a 4 corners polygon primitive as box body*
4,1,4,$2,$3,$4,$5,$6,$7,$8,$9,$2,$3,0*
0 Add four circle primitives for the rounded corners*
1,1,$1+$1,$2,$3*
1,1,$1+$1,$4,$5*
1,1,$1+$1,$6,$7*
1,1,$1+$1,$8,$9*
0 Add four rect primitives between the rounded corners*
20,1,$1+$1,$2,$3,$4,$5,0*
20,1,$1+$1,$4,$5,$6,$7,0*
20,1,$1+$1,$6,$7,$8,$9,0*
20,1,$1+$1,$8,$9,$2,$3,0*%
G04 Aperture macros list end*
%ADD10RoundRect,0.200000X0.275000X-0.200000X0.275000X0.200000X-0.275000X0.200000X-0.275000X-0.200000X0*%
%ADD11RoundRect,0.200000X-0.200000X-0.275000X0.200000X-0.275000X0.200000X0.275000X-0.200000X0.275000X0*%
%ADD12RoundRect,0.225000X-0.250000X0.225000X-0.250000X-0.225000X0.250000X-0.225000X0.250000X0.225000X0*%
%ADD13RoundRect,0.225000X-0.225000X-0.250000X0.225000X-0.250000X0.225000X0.250000X-0.225000X0.250000X0*%
%ADD14RoundRect,0.150000X-0.587500X-0.150000X0.587500X-0.150000X0.587500X0.150000X-0.587500X0.150000X0*%
%ADD15RoundRect,0.200000X0.200000X0.275000X-0.200000X0.275000X-0.200000X-0.275000X0.200000X-0.275000X0*%
%ADD16RoundRect,0.237500X-0.287500X-0.237500X0.287500X-0.237500X0.287500X0.237500X-0.287500X0.237500X0*%
%ADD17RoundRect,0.150000X0.150000X-0.825000X0.150000X0.825000X-0.150000X0.825000X-0.150000X-0.825000X0*%
%ADD18RoundRect,0.200000X-0.275000X0.200000X-0.275000X-0.200000X0.275000X-0.200000X0.275000X0.200000X0*%
%ADD19RoundRect,0.237500X0.287500X0.237500X-0.287500X0.237500X-0.287500X-0.237500X0.287500X-0.237500X0*%
%ADD20RoundRect,0.150000X-0.150000X0.825000X-0.150000X-0.825000X0.150000X-0.825000X0.150000X0.825000X0*%
%ADD21RoundRect,0.225000X0.225000X0.250000X-0.225000X0.250000X-0.225000X-0.250000X0.225000X-0.250000X0*%
G04 APERTURE END LIST*
D10*
%TO.C,R2*%
X159000000Y-112000000D03*
X159000000Y-110350000D03*
%TD*%
D11*
%TO.C,R3*%
X146175000Y-84000000D03*
X147825000Y-84000000D03*
%TD*%
D12*
%TO.C,C6*%
X182000000Y-124087500D03*
X182000000Y-125637500D03*
%TD*%
D13*
%TO.C,C12*%
X161087500Y-123000000D03*
X162637500Y-123000000D03*
%TD*%
D12*
%TO.C,C5*%
X174000000Y-124087500D03*
X174000000Y-125637500D03*
%TD*%
D14*
%TO.C,Q3*%
X168125000Y-116000000D03*
X168125000Y-114100000D03*
X170000000Y-115050000D03*
%TD*%
%TO.C,Q5*%
X171000000Y-103000000D03*
X171000000Y-101100000D03*
X172875000Y-102050000D03*
%TD*%
D15*
%TO.C,R9*%
X163000000Y-88000000D03*
X161350000Y-88000000D03*
%TD*%
D16*
%TO.C,D4*%
X178250000Y-107000000D03*
X180000000Y-107000000D03*
%TD*%
D15*
%TO.C,R10*%
X181000000Y-116000000D03*
X179350000Y-116000000D03*
%TD*%
D16*
%TO.C,D2*%
X170250000Y-97000000D03*
X172000000Y-97000000D03*
%TD*%
D10*
%TO.C,R6*%
X152000000Y-98825000D03*
X152000000Y-97175000D03*
%TD*%
D11*
%TO.C,R14*%
X174943000Y-97028000D03*
X176593000Y-97028000D03*
%TD*%
%TO.C,R13*%
X174350000Y-111000000D03*
X176000000Y-111000000D03*
%TD*%
D15*
%TO.C,R11*%
X176339000Y-119126000D03*
X174689000Y-119126000D03*
%TD*%
D17*
%TO.C,U1*%
X157000000Y-92000000D03*
X155730000Y-92000000D03*
X154460000Y-92000000D03*
X153190000Y-92000000D03*
X151920000Y-92000000D03*
X150650000Y-92000000D03*
X149380000Y-92000000D03*
X149380000Y-87050000D03*
X150650000Y-87050000D03*
X151920000Y-87050000D03*
X153190000Y-87050000D03*
X154460000Y-87050000D03*
X155730000Y-87050000D03*
X157000000Y-87050000D03*
%TD*%
D18*
%TO.C,R15*%
X185000000Y-103175000D03*
X185000000Y-104825000D03*
%TD*%
D12*
%TO.C,C8*%
X170000000Y-124087500D03*
X170000000Y-125637500D03*
%TD*%
D18*
%TO.C,R12*%
X168148000Y-109665000D03*
X168148000Y-111315000D03*
%TD*%
D19*
%TO.C,D3*%
X173000000Y-107000000D03*
X171250000Y-107000000D03*
%TD*%
D12*
%TO.C,C4*%
X178000000Y-124087500D03*
X178000000Y-125637500D03*
%TD*%
D15*
%TO.C,R7*%
X150114000Y-97536000D03*
X148464000Y-97536000D03*
%TD*%
%TO.C,R1*%
X164000000Y-111000000D03*
X162350000Y-111000000D03*
%TD*%
D20*
%TO.C,U2*%
X143190000Y-109525000D03*
X144460000Y-109525000D03*
X145730000Y-109525000D03*
X147000000Y-109525000D03*
X148270000Y-109525000D03*
X149540000Y-109525000D03*
X150810000Y-109525000D03*
X150810000Y-114475000D03*
X149540000Y-114475000D03*
X148270000Y-114475000D03*
X147000000Y-114475000D03*
X145730000Y-114475000D03*
X144460000Y-114475000D03*
X143190000Y-114475000D03*
%TD*%
D10*
%TO.C,R5*%
X155194000Y-98424000D03*
X155194000Y-96774000D03*
%TD*%
D12*
%TO.C,C7*%
X172000000Y-124087500D03*
X172000000Y-125637500D03*
%TD*%
D21*
%TO.C,C3*%
X144912500Y-124000000D03*
X143362500Y-124000000D03*
%TD*%
%TO.C,C2*%
X151912500Y-84000000D03*
X150362500Y-84000000D03*
%TD*%
D12*
%TO.C,C11*%
X141000000Y-119087500D03*
X141000000Y-120637500D03*
%TD*%
D11*
%TO.C,R4*%
X155576000Y-94996000D03*
X157226000Y-94996000D03*
%TD*%
D12*
%TO.C,C10*%
X162000000Y-91087500D03*
X162000000Y-92637500D03*
%TD*%
D14*
%TO.C,Q4*%
X162125000Y-116000000D03*
X162125000Y-114100000D03*
X164000000Y-115050000D03*
%TD*%
%TO.C,Q2*%
X174000000Y-115900000D03*
X174000000Y-114000000D03*
X175875000Y-114950000D03*
%TD*%
D15*
%TO.C,R16*%
X152000000Y-106000000D03*
X150350000Y-106000000D03*
%TD*%
D14*
%TO.C,Q1*%
X177125000Y-103000000D03*
X177125000Y-101100000D03*
X179000000Y-102050000D03*
%TD*%
D19*
%TO.C,D1*%
X181000000Y-97000000D03*
X179250000Y-97000000D03*
%TD*%
D15*
%TO.C,R8*%
X158000000Y-84000000D03*
X156350000Y-84000000D03*
%TD*%
D12*
%TO.C,C1*%
X181000000Y-111087500D03*
X181000000Y-112637500D03*
%TD*%
%TO.C,C9*%
X180000000Y-124087500D03*
X180000000Y-125637500D03*
%TD*%
M02*
