%TF.GenerationSoftware,KiCad,Pcbnew,8.0.6*%
%TF.CreationDate,2025-05-19T21:14:39+02:00*%
%TF.ProjectId,szkoleniexd,737a6b6f-6c65-46e6-9965-78642e6b6963,1.0*%
%TF.SameCoordinates,Original*%
%TF.FileFunction,Drillmap*%
%TF.FilePolarity,Positive*%
%FSLAX45Y45*%
G04 Gerber Fmt 4.5, Leading zero omitted, Abs format (unit mm)*
G04 Created by KiCad (PCBNEW 8.0.6) date 2025-05-19 21:14:39*
%MOMM*%
%LPD*%
G01*
G04 APERTURE LIST*
%ADD10C,0.050000*%
%ADD11C,0.200000*%
%ADD12C,0.100000*%
%ADD13C,0.130000*%
G04 APERTURE END LIST*
D10*
X13200000Y-7800000D02*
X19200000Y-7800000D01*
X19200000Y-12800000D02*
X13200000Y-12800000D01*
X19200000Y-7800000D02*
X19200000Y-12800000D01*
X13200000Y-12800000D02*
X13200000Y-7800000D01*
D11*
D12*
X13685000Y-11185000D02*
X13715000Y-11215000D01*
X13715000Y-11185000D02*
X13685000Y-11215000D01*
X13685000Y-11585000D02*
X13715000Y-11615000D01*
X13715000Y-11585000D02*
X13685000Y-11615000D01*
X13785000Y-8985000D02*
X13815000Y-9015000D01*
X13815000Y-8985000D02*
X13785000Y-9015000D01*
X13785000Y-9185000D02*
X13815000Y-9215000D01*
X13815000Y-9185000D02*
X13785000Y-9215000D01*
X13785000Y-10785000D02*
X13815000Y-10815000D01*
X13815000Y-10785000D02*
X13785000Y-10815000D01*
X13885000Y-10285000D02*
X13915000Y-10315000D01*
X13915000Y-10285000D02*
X13885000Y-10315000D01*
X14285000Y-11885000D02*
X14315000Y-11915000D01*
X14315000Y-11885000D02*
X14285000Y-11915000D01*
X14485000Y-8485000D02*
X14515000Y-8515000D01*
X14515000Y-8485000D02*
X14485000Y-8515000D01*
X14485000Y-9085000D02*
X14515000Y-9115000D01*
X14515000Y-9085000D02*
X14485000Y-9115000D01*
X14485000Y-11185000D02*
X14515000Y-11215000D01*
X14515000Y-11185000D02*
X14485000Y-11215000D01*
X14485000Y-11585000D02*
X14515000Y-11615000D01*
X14515000Y-11585000D02*
X14485000Y-11615000D01*
X14485000Y-12085000D02*
X14515000Y-12115000D01*
X14515000Y-12085000D02*
X14485000Y-12115000D01*
X14485000Y-12585000D02*
X14515000Y-12615000D01*
X14515000Y-12585000D02*
X14485000Y-12615000D01*
X14585000Y-10085000D02*
X14615000Y-10115000D01*
X14615000Y-10085000D02*
X14585000Y-10115000D01*
X14585000Y-10385000D02*
X14615000Y-10415000D01*
X14615000Y-10385000D02*
X14585000Y-10415000D01*
X14685000Y-11285000D02*
X14715000Y-11315000D01*
X14715000Y-11285000D02*
X14685000Y-11315000D01*
X14785000Y-10085000D02*
X14815000Y-10115000D01*
X14815000Y-10085000D02*
X14785000Y-10115000D01*
X14785000Y-11585000D02*
X14815000Y-11615000D01*
X14815000Y-11585000D02*
X14785000Y-11615000D01*
X14844000Y-9916400D02*
X14874000Y-9946400D01*
X14874000Y-9916400D02*
X14844000Y-9946400D01*
X14885000Y-8885000D02*
X14915000Y-8915000D01*
X14915000Y-8885000D02*
X14885000Y-8915000D01*
X14885000Y-10285000D02*
X14915000Y-10315000D01*
X14915000Y-10285000D02*
X14885000Y-10315000D01*
X14885000Y-11685000D02*
X14915000Y-11715000D01*
X14915000Y-11685000D02*
X14885000Y-11715000D01*
X14985000Y-11185000D02*
X15015000Y-11215000D01*
X15015000Y-11185000D02*
X14985000Y-11215000D01*
X15072600Y-9535400D02*
X15102600Y-9565400D01*
X15102600Y-9535400D02*
X15072600Y-9565400D01*
X15085000Y-8985000D02*
X15115000Y-9015000D01*
X15115000Y-8985000D02*
X15085000Y-9015000D01*
X15085000Y-10485000D02*
X15115000Y-10515000D01*
X15115000Y-10485000D02*
X15085000Y-10515000D01*
X15185000Y-10185000D02*
X15215000Y-10215000D01*
X15215000Y-10185000D02*
X15185000Y-10215000D01*
X15185000Y-10385000D02*
X15215000Y-10415000D01*
X15215000Y-10385000D02*
X15185000Y-10415000D01*
X15225000Y-9332200D02*
X15255000Y-9362200D01*
X15255000Y-9332200D02*
X15225000Y-9362200D01*
X15285000Y-10685000D02*
X15315000Y-10715000D01*
X15315000Y-10685000D02*
X15285000Y-10715000D01*
X15285000Y-10885000D02*
X15315000Y-10915000D01*
X15315000Y-10885000D02*
X15285000Y-10915000D01*
X15385000Y-8485000D02*
X15415000Y-8515000D01*
X15415000Y-8485000D02*
X15385000Y-8515000D01*
X15385000Y-8885000D02*
X15415000Y-8915000D01*
X15415000Y-8885000D02*
X15385000Y-8915000D01*
X15485000Y-12085000D02*
X15515000Y-12115000D01*
X15515000Y-12085000D02*
X15485000Y-12115000D01*
X15885000Y-8485000D02*
X15915000Y-8515000D01*
X15915000Y-8485000D02*
X15885000Y-8515000D01*
X15985000Y-8785000D02*
X16015000Y-8815000D01*
X16015000Y-8785000D02*
X15985000Y-8815000D01*
X15985000Y-10885000D02*
X16015000Y-10915000D01*
X16015000Y-10885000D02*
X15985000Y-10915000D01*
X16081852Y-8994320D02*
X16111852Y-9024320D01*
X16111852Y-8994320D02*
X16081852Y-9024320D01*
X16085000Y-12085000D02*
X16115000Y-12115000D01*
X16115000Y-12085000D02*
X16085000Y-12115000D01*
X16385000Y-11285000D02*
X16415000Y-11315000D01*
X16415000Y-11285000D02*
X16385000Y-11315000D01*
X16485000Y-8785000D02*
X16515000Y-8815000D01*
X16515000Y-8785000D02*
X16485000Y-8815000D01*
X16785000Y-11885000D02*
X16815000Y-11915000D01*
X16815000Y-11885000D02*
X16785000Y-11915000D01*
X16885000Y-9985000D02*
X16915000Y-10015000D01*
X16915000Y-9985000D02*
X16885000Y-10015000D01*
X16885000Y-10385000D02*
X16915000Y-10415000D01*
X16915000Y-10385000D02*
X16885000Y-10415000D01*
X16985000Y-8785000D02*
X17015000Y-8815000D01*
X17015000Y-8785000D02*
X16985000Y-8815000D01*
X16985000Y-9085000D02*
X17015000Y-9115000D01*
X17015000Y-9085000D02*
X16985000Y-9115000D01*
X17085000Y-10985000D02*
X17115000Y-11015000D01*
X17115000Y-10985000D02*
X17085000Y-11015000D01*
X17185000Y-9785000D02*
X17215000Y-9815000D01*
X17215000Y-9785000D02*
X17185000Y-9815000D01*
X17185000Y-11185000D02*
X17215000Y-11215000D01*
X17215000Y-11185000D02*
X17185000Y-11215000D01*
X17185000Y-11785000D02*
X17215000Y-11815000D01*
X17215000Y-11785000D02*
X17185000Y-11815000D01*
X17285000Y-10485000D02*
X17315000Y-10515000D01*
X17315000Y-10485000D02*
X17285000Y-10515000D01*
X17385000Y-9985000D02*
X17415000Y-10015000D01*
X17415000Y-9985000D02*
X17385000Y-10015000D01*
X17385000Y-10785000D02*
X17415000Y-10815000D01*
X17415000Y-10785000D02*
X17385000Y-10815000D01*
X17485000Y-10885000D02*
X17515000Y-10915000D01*
X17515000Y-10885000D02*
X17485000Y-10915000D01*
X17585000Y-10685000D02*
X17615000Y-10715000D01*
X17615000Y-10685000D02*
X17585000Y-10715000D01*
X17585000Y-11385000D02*
X17615000Y-11415000D01*
X17615000Y-11385000D02*
X17585000Y-11415000D01*
X17785000Y-12185000D02*
X17815000Y-12215000D01*
X17815000Y-12185000D02*
X17785000Y-12215000D01*
X17885000Y-9785000D02*
X17915000Y-9815000D01*
X17915000Y-9785000D02*
X17885000Y-9815000D01*
X17985000Y-9985000D02*
X18015000Y-10015000D01*
X18015000Y-9985000D02*
X17985000Y-10015000D01*
X17985000Y-10385000D02*
X18015000Y-10415000D01*
X18015000Y-10385000D02*
X17985000Y-10415000D01*
X18185000Y-9985000D02*
X18215000Y-10015000D01*
X18215000Y-9985000D02*
X18185000Y-10015000D01*
X18285000Y-11385000D02*
X18315000Y-11415000D01*
X18315000Y-11385000D02*
X18285000Y-11415000D01*
X18385000Y-10185000D02*
X18415000Y-10215000D01*
X18415000Y-10185000D02*
X18385000Y-10215000D01*
X18385000Y-12385000D02*
X18415000Y-12415000D01*
X18415000Y-12385000D02*
X18385000Y-12415000D01*
X18485000Y-11985000D02*
X18515000Y-12015000D01*
X18515000Y-11985000D02*
X18485000Y-12015000D01*
X13450000Y-8692000D02*
G75*
G02*
X13350000Y-8692000I-50000J0D01*
G01*
X13350000Y-8692000D02*
G75*
G02*
X13450000Y-8692000I50000J0D01*
G01*
X13450000Y-8946000D02*
G75*
G02*
X13350000Y-8946000I-50000J0D01*
G01*
X13350000Y-8946000D02*
G75*
G02*
X13450000Y-8946000I50000J0D01*
G01*
X13450000Y-9200000D02*
G75*
G02*
X13350000Y-9200000I-50000J0D01*
G01*
X13350000Y-9200000D02*
G75*
G02*
X13450000Y-9200000I50000J0D01*
G01*
X13450000Y-9454000D02*
G75*
G02*
X13350000Y-9454000I-50000J0D01*
G01*
X13350000Y-9454000D02*
G75*
G02*
X13450000Y-9454000I50000J0D01*
G01*
X13450000Y-9892000D02*
G75*
G02*
X13350000Y-9892000I-50000J0D01*
G01*
X13350000Y-9892000D02*
G75*
G02*
X13450000Y-9892000I50000J0D01*
G01*
X13450000Y-10146000D02*
G75*
G02*
X13350000Y-10146000I-50000J0D01*
G01*
X13350000Y-10146000D02*
G75*
G02*
X13450000Y-10146000I50000J0D01*
G01*
X13450000Y-10400000D02*
G75*
G02*
X13350000Y-10400000I-50000J0D01*
G01*
X13350000Y-10400000D02*
G75*
G02*
X13450000Y-10400000I50000J0D01*
G01*
X13450000Y-10654000D02*
G75*
G02*
X13350000Y-10654000I-50000J0D01*
G01*
X13350000Y-10654000D02*
G75*
G02*
X13450000Y-10654000I50000J0D01*
G01*
X13450000Y-11138000D02*
G75*
G02*
X13350000Y-11138000I-50000J0D01*
G01*
X13350000Y-11138000D02*
G75*
G02*
X13450000Y-11138000I50000J0D01*
G01*
X13450000Y-11392000D02*
G75*
G02*
X13350000Y-11392000I-50000J0D01*
G01*
X13350000Y-11392000D02*
G75*
G02*
X13450000Y-11392000I50000J0D01*
G01*
X13450000Y-11646000D02*
G75*
G02*
X13350000Y-11646000I-50000J0D01*
G01*
X13350000Y-11646000D02*
G75*
G02*
X13450000Y-11646000I50000J0D01*
G01*
X13450000Y-11900000D02*
G75*
G02*
X13350000Y-11900000I-50000J0D01*
G01*
X13350000Y-11900000D02*
G75*
G02*
X13450000Y-11900000I50000J0D01*
G01*
X14350000Y-9346000D02*
G75*
G02*
X14250000Y-9346000I-50000J0D01*
G01*
X14250000Y-9346000D02*
G75*
G02*
X14350000Y-9346000I50000J0D01*
G01*
X14350000Y-9600000D02*
G75*
G02*
X14250000Y-9600000I-50000J0D01*
G01*
X14250000Y-9600000D02*
G75*
G02*
X14350000Y-9600000I50000J0D01*
G01*
X14750000Y-8000000D02*
G75*
G02*
X14650000Y-8000000I-50000J0D01*
G01*
X14650000Y-8000000D02*
G75*
G02*
X14750000Y-8000000I50000J0D01*
G01*
X15004000Y-8000000D02*
G75*
G02*
X14904000Y-8000000I-50000J0D01*
G01*
X14904000Y-8000000D02*
G75*
G02*
X15004000Y-8000000I50000J0D01*
G01*
X15050000Y-12047500D02*
G75*
G02*
X14950000Y-12047500I-50000J0D01*
G01*
X14950000Y-12047500D02*
G75*
G02*
X15050000Y-12047500I50000J0D01*
G01*
X15050000Y-12301500D02*
G75*
G02*
X14950000Y-12301500I-50000J0D01*
G01*
X14950000Y-12301500D02*
G75*
G02*
X15050000Y-12301500I50000J0D01*
G01*
X15050000Y-12555500D02*
G75*
G02*
X14950000Y-12555500I-50000J0D01*
G01*
X14950000Y-12555500D02*
G75*
G02*
X15050000Y-12555500I50000J0D01*
G01*
X15258000Y-8000000D02*
G75*
G02*
X15158000Y-8000000I-50000J0D01*
G01*
X15158000Y-8000000D02*
G75*
G02*
X15258000Y-8000000I50000J0D01*
G01*
X15512000Y-8000000D02*
G75*
G02*
X15412000Y-8000000I-50000J0D01*
G01*
X15412000Y-8000000D02*
G75*
G02*
X15512000Y-8000000I50000J0D01*
G01*
X15550000Y-12600000D02*
G75*
G02*
X15450000Y-12600000I-50000J0D01*
G01*
X15450000Y-12600000D02*
G75*
G02*
X15550000Y-12600000I50000J0D01*
G01*
X15750000Y-10346000D02*
G75*
G02*
X15650000Y-10346000I-50000J0D01*
G01*
X15650000Y-10346000D02*
G75*
G02*
X15750000Y-10346000I50000J0D01*
G01*
X15750000Y-10600000D02*
G75*
G02*
X15650000Y-10600000I-50000J0D01*
G01*
X15650000Y-10600000D02*
G75*
G02*
X15750000Y-10600000I50000J0D01*
G01*
X15804000Y-12600000D02*
G75*
G02*
X15704000Y-12600000I-50000J0D01*
G01*
X15704000Y-12600000D02*
G75*
G02*
X15804000Y-12600000I50000J0D01*
G01*
X16058000Y-12600000D02*
G75*
G02*
X15958000Y-12600000I-50000J0D01*
G01*
X15958000Y-12600000D02*
G75*
G02*
X16058000Y-12600000I50000J0D01*
G01*
X16150000Y-10346000D02*
G75*
G02*
X16050000Y-10346000I-50000J0D01*
G01*
X16050000Y-10346000D02*
G75*
G02*
X16150000Y-10346000I50000J0D01*
G01*
X16150000Y-10600000D02*
G75*
G02*
X16050000Y-10600000I-50000J0D01*
G01*
X16050000Y-10600000D02*
G75*
G02*
X16150000Y-10600000I50000J0D01*
G01*
X16250000Y-8046000D02*
G75*
G02*
X16150000Y-8046000I-50000J0D01*
G01*
X16150000Y-8046000D02*
G75*
G02*
X16250000Y-8046000I50000J0D01*
G01*
X16250000Y-8300000D02*
G75*
G02*
X16150000Y-8300000I-50000J0D01*
G01*
X16150000Y-8300000D02*
G75*
G02*
X16250000Y-8300000I50000J0D01*
G01*
X16312000Y-12600000D02*
G75*
G02*
X16212000Y-12600000I-50000J0D01*
G01*
X16212000Y-12600000D02*
G75*
G02*
X16312000Y-12600000I50000J0D01*
G01*
X16650000Y-9820000D02*
G75*
G02*
X16550000Y-9820000I-50000J0D01*
G01*
X16550000Y-9820000D02*
G75*
G02*
X16650000Y-9820000I50000J0D01*
G01*
X16650000Y-10074000D02*
G75*
G02*
X16550000Y-10074000I-50000J0D01*
G01*
X16550000Y-10074000D02*
G75*
G02*
X16650000Y-10074000I50000J0D01*
G01*
X16650000Y-10328000D02*
G75*
G02*
X16550000Y-10328000I-50000J0D01*
G01*
X16550000Y-10328000D02*
G75*
G02*
X16650000Y-10328000I50000J0D01*
G01*
X16650000Y-10582000D02*
G75*
G02*
X16550000Y-10582000I-50000J0D01*
G01*
X16550000Y-10582000D02*
G75*
G02*
X16650000Y-10582000I50000J0D01*
G01*
X18550000Y-9600000D02*
G75*
G02*
X18450000Y-9600000I-50000J0D01*
G01*
X18450000Y-9600000D02*
G75*
G02*
X18550000Y-9600000I50000J0D01*
G01*
X18550000Y-9854000D02*
G75*
G02*
X18450000Y-9854000I-50000J0D01*
G01*
X18450000Y-9854000D02*
G75*
G02*
X18550000Y-9854000I50000J0D01*
G01*
X18650000Y-10992000D02*
G75*
G02*
X18550000Y-10992000I-50000J0D01*
G01*
X18550000Y-10992000D02*
G75*
G02*
X18650000Y-10992000I50000J0D01*
G01*
X18650000Y-11246000D02*
G75*
G02*
X18550000Y-11246000I-50000J0D01*
G01*
X18550000Y-11246000D02*
G75*
G02*
X18650000Y-11246000I50000J0D01*
G01*
X18650000Y-11500000D02*
G75*
G02*
X18550000Y-11500000I-50000J0D01*
G01*
X18550000Y-11500000D02*
G75*
G02*
X18650000Y-11500000I50000J0D01*
G01*
X18950000Y-9600000D02*
G75*
G02*
X18850000Y-9600000I-50000J0D01*
G01*
X18850000Y-9600000D02*
G75*
G02*
X18950000Y-9600000I50000J0D01*
G01*
X18950000Y-9854000D02*
G75*
G02*
X18850000Y-9854000I-50000J0D01*
G01*
X18850000Y-9854000D02*
G75*
G02*
X18950000Y-9854000I50000J0D01*
G01*
X19050000Y-10992000D02*
G75*
G02*
X18950000Y-10992000I-50000J0D01*
G01*
X18950000Y-10992000D02*
G75*
G02*
X19050000Y-10992000I50000J0D01*
G01*
X19050000Y-11246000D02*
G75*
G02*
X18950000Y-11246000I-50000J0D01*
G01*
X18950000Y-11246000D02*
G75*
G02*
X19050000Y-11246000I50000J0D01*
G01*
X19050000Y-11500000D02*
G75*
G02*
X18950000Y-11500000I-50000J0D01*
G01*
X18950000Y-11500000D02*
G75*
G02*
X19050000Y-11500000I50000J0D01*
G01*
D13*
X16700000Y-8035000D02*
X16700000Y-8165000D01*
X16635000Y-8100000D02*
X16765000Y-8100000D01*
X16700000Y-9035000D02*
X16700000Y-9165000D01*
X16635000Y-9100000D02*
X16765000Y-9100000D01*
X17950000Y-8535000D02*
X17950000Y-8665000D01*
X17885000Y-8600000D02*
X18015000Y-8600000D01*
D11*
X13458277Y-13113984D02*
X13458277Y-12913984D01*
X13458277Y-12913984D02*
X13505896Y-12913984D01*
X13505896Y-12913984D02*
X13534467Y-12923508D01*
X13534467Y-12923508D02*
X13553515Y-12942555D01*
X13553515Y-12942555D02*
X13563039Y-12961603D01*
X13563039Y-12961603D02*
X13572562Y-12999698D01*
X13572562Y-12999698D02*
X13572562Y-13028269D01*
X13572562Y-13028269D02*
X13563039Y-13066365D01*
X13563039Y-13066365D02*
X13553515Y-13085412D01*
X13553515Y-13085412D02*
X13534467Y-13104460D01*
X13534467Y-13104460D02*
X13505896Y-13113984D01*
X13505896Y-13113984D02*
X13458277Y-13113984D01*
X13658277Y-13113984D02*
X13658277Y-12980650D01*
X13658277Y-13018746D02*
X13667801Y-12999698D01*
X13667801Y-12999698D02*
X13677324Y-12990174D01*
X13677324Y-12990174D02*
X13696372Y-12980650D01*
X13696372Y-12980650D02*
X13715420Y-12980650D01*
X13782086Y-13113984D02*
X13782086Y-12980650D01*
X13782086Y-12913984D02*
X13772562Y-12923508D01*
X13772562Y-12923508D02*
X13782086Y-12933031D01*
X13782086Y-12933031D02*
X13791610Y-12923508D01*
X13791610Y-12923508D02*
X13782086Y-12913984D01*
X13782086Y-12913984D02*
X13782086Y-12933031D01*
X13905896Y-13113984D02*
X13886848Y-13104460D01*
X13886848Y-13104460D02*
X13877324Y-13085412D01*
X13877324Y-13085412D02*
X13877324Y-12913984D01*
X14010658Y-13113984D02*
X13991610Y-13104460D01*
X13991610Y-13104460D02*
X13982086Y-13085412D01*
X13982086Y-13085412D02*
X13982086Y-12913984D01*
X14239229Y-13113984D02*
X14239229Y-12913984D01*
X14239229Y-12913984D02*
X14305896Y-13056841D01*
X14305896Y-13056841D02*
X14372562Y-12913984D01*
X14372562Y-12913984D02*
X14372562Y-13113984D01*
X14553515Y-13113984D02*
X14553515Y-13009222D01*
X14553515Y-13009222D02*
X14543991Y-12990174D01*
X14543991Y-12990174D02*
X14524943Y-12980650D01*
X14524943Y-12980650D02*
X14486848Y-12980650D01*
X14486848Y-12980650D02*
X14467801Y-12990174D01*
X14553515Y-13104460D02*
X14534467Y-13113984D01*
X14534467Y-13113984D02*
X14486848Y-13113984D01*
X14486848Y-13113984D02*
X14467801Y-13104460D01*
X14467801Y-13104460D02*
X14458277Y-13085412D01*
X14458277Y-13085412D02*
X14458277Y-13066365D01*
X14458277Y-13066365D02*
X14467801Y-13047317D01*
X14467801Y-13047317D02*
X14486848Y-13037793D01*
X14486848Y-13037793D02*
X14534467Y-13037793D01*
X14534467Y-13037793D02*
X14553515Y-13028269D01*
X14648753Y-12980650D02*
X14648753Y-13180650D01*
X14648753Y-12990174D02*
X14667801Y-12980650D01*
X14667801Y-12980650D02*
X14705896Y-12980650D01*
X14705896Y-12980650D02*
X14724943Y-12990174D01*
X14724943Y-12990174D02*
X14734467Y-12999698D01*
X14734467Y-12999698D02*
X14743991Y-13018746D01*
X14743991Y-13018746D02*
X14743991Y-13075888D01*
X14743991Y-13075888D02*
X14734467Y-13094936D01*
X14734467Y-13094936D02*
X14724943Y-13104460D01*
X14724943Y-13104460D02*
X14705896Y-13113984D01*
X14705896Y-13113984D02*
X14667801Y-13113984D01*
X14667801Y-13113984D02*
X14648753Y-13104460D01*
X14829705Y-13094936D02*
X14839229Y-13104460D01*
X14839229Y-13104460D02*
X14829705Y-13113984D01*
X14829705Y-13113984D02*
X14820182Y-13104460D01*
X14820182Y-13104460D02*
X14829705Y-13094936D01*
X14829705Y-13094936D02*
X14829705Y-13113984D01*
X14829705Y-12990174D02*
X14839229Y-12999698D01*
X14839229Y-12999698D02*
X14829705Y-13009222D01*
X14829705Y-13009222D02*
X14820182Y-12999698D01*
X14820182Y-12999698D02*
X14829705Y-12990174D01*
X14829705Y-12990174D02*
X14829705Y-13009222D01*
D12*
X13167500Y-13427500D02*
X13197500Y-13457500D01*
X13197500Y-13427500D02*
X13167500Y-13457500D01*
D11*
X13496372Y-13333984D02*
X13515420Y-13333984D01*
X13515420Y-13333984D02*
X13534467Y-13343508D01*
X13534467Y-13343508D02*
X13543991Y-13353031D01*
X13543991Y-13353031D02*
X13553515Y-13372079D01*
X13553515Y-13372079D02*
X13563039Y-13410174D01*
X13563039Y-13410174D02*
X13563039Y-13457793D01*
X13563039Y-13457793D02*
X13553515Y-13495888D01*
X13553515Y-13495888D02*
X13543991Y-13514936D01*
X13543991Y-13514936D02*
X13534467Y-13524460D01*
X13534467Y-13524460D02*
X13515420Y-13533984D01*
X13515420Y-13533984D02*
X13496372Y-13533984D01*
X13496372Y-13533984D02*
X13477324Y-13524460D01*
X13477324Y-13524460D02*
X13467801Y-13514936D01*
X13467801Y-13514936D02*
X13458277Y-13495888D01*
X13458277Y-13495888D02*
X13448753Y-13457793D01*
X13448753Y-13457793D02*
X13448753Y-13410174D01*
X13448753Y-13410174D02*
X13458277Y-13372079D01*
X13458277Y-13372079D02*
X13467801Y-13353031D01*
X13467801Y-13353031D02*
X13477324Y-13343508D01*
X13477324Y-13343508D02*
X13496372Y-13333984D01*
X13648753Y-13514936D02*
X13658277Y-13524460D01*
X13658277Y-13524460D02*
X13648753Y-13533984D01*
X13648753Y-13533984D02*
X13639229Y-13524460D01*
X13639229Y-13524460D02*
X13648753Y-13514936D01*
X13648753Y-13514936D02*
X13648753Y-13533984D01*
X13724943Y-13333984D02*
X13848753Y-13333984D01*
X13848753Y-13333984D02*
X13782086Y-13410174D01*
X13782086Y-13410174D02*
X13810658Y-13410174D01*
X13810658Y-13410174D02*
X13829705Y-13419698D01*
X13829705Y-13419698D02*
X13839229Y-13429222D01*
X13839229Y-13429222D02*
X13848753Y-13448269D01*
X13848753Y-13448269D02*
X13848753Y-13495888D01*
X13848753Y-13495888D02*
X13839229Y-13514936D01*
X13839229Y-13514936D02*
X13829705Y-13524460D01*
X13829705Y-13524460D02*
X13810658Y-13533984D01*
X13810658Y-13533984D02*
X13753515Y-13533984D01*
X13753515Y-13533984D02*
X13734467Y-13524460D01*
X13734467Y-13524460D02*
X13724943Y-13514936D01*
X13972562Y-13333984D02*
X13991610Y-13333984D01*
X13991610Y-13333984D02*
X14010658Y-13343508D01*
X14010658Y-13343508D02*
X14020182Y-13353031D01*
X14020182Y-13353031D02*
X14029705Y-13372079D01*
X14029705Y-13372079D02*
X14039229Y-13410174D01*
X14039229Y-13410174D02*
X14039229Y-13457793D01*
X14039229Y-13457793D02*
X14029705Y-13495888D01*
X14029705Y-13495888D02*
X14020182Y-13514936D01*
X14020182Y-13514936D02*
X14010658Y-13524460D01*
X14010658Y-13524460D02*
X13991610Y-13533984D01*
X13991610Y-13533984D02*
X13972562Y-13533984D01*
X13972562Y-13533984D02*
X13953515Y-13524460D01*
X13953515Y-13524460D02*
X13943991Y-13514936D01*
X13943991Y-13514936D02*
X13934467Y-13495888D01*
X13934467Y-13495888D02*
X13924943Y-13457793D01*
X13924943Y-13457793D02*
X13924943Y-13410174D01*
X13924943Y-13410174D02*
X13934467Y-13372079D01*
X13934467Y-13372079D02*
X13943991Y-13353031D01*
X13943991Y-13353031D02*
X13953515Y-13343508D01*
X13953515Y-13343508D02*
X13972562Y-13333984D01*
X14163039Y-13333984D02*
X14182086Y-13333984D01*
X14182086Y-13333984D02*
X14201134Y-13343508D01*
X14201134Y-13343508D02*
X14210658Y-13353031D01*
X14210658Y-13353031D02*
X14220182Y-13372079D01*
X14220182Y-13372079D02*
X14229705Y-13410174D01*
X14229705Y-13410174D02*
X14229705Y-13457793D01*
X14229705Y-13457793D02*
X14220182Y-13495888D01*
X14220182Y-13495888D02*
X14210658Y-13514936D01*
X14210658Y-13514936D02*
X14201134Y-13524460D01*
X14201134Y-13524460D02*
X14182086Y-13533984D01*
X14182086Y-13533984D02*
X14163039Y-13533984D01*
X14163039Y-13533984D02*
X14143991Y-13524460D01*
X14143991Y-13524460D02*
X14134467Y-13514936D01*
X14134467Y-13514936D02*
X14124943Y-13495888D01*
X14124943Y-13495888D02*
X14115420Y-13457793D01*
X14115420Y-13457793D02*
X14115420Y-13410174D01*
X14115420Y-13410174D02*
X14124943Y-13372079D01*
X14124943Y-13372079D02*
X14134467Y-13353031D01*
X14134467Y-13353031D02*
X14143991Y-13343508D01*
X14143991Y-13343508D02*
X14163039Y-13333984D01*
X14315420Y-13533984D02*
X14315420Y-13400650D01*
X14315420Y-13419698D02*
X14324943Y-13410174D01*
X14324943Y-13410174D02*
X14343991Y-13400650D01*
X14343991Y-13400650D02*
X14372563Y-13400650D01*
X14372563Y-13400650D02*
X14391610Y-13410174D01*
X14391610Y-13410174D02*
X14401134Y-13429222D01*
X14401134Y-13429222D02*
X14401134Y-13533984D01*
X14401134Y-13429222D02*
X14410658Y-13410174D01*
X14410658Y-13410174D02*
X14429705Y-13400650D01*
X14429705Y-13400650D02*
X14458277Y-13400650D01*
X14458277Y-13400650D02*
X14477324Y-13410174D01*
X14477324Y-13410174D02*
X14486848Y-13429222D01*
X14486848Y-13429222D02*
X14486848Y-13533984D01*
X14582086Y-13533984D02*
X14582086Y-13400650D01*
X14582086Y-13419698D02*
X14591610Y-13410174D01*
X14591610Y-13410174D02*
X14610658Y-13400650D01*
X14610658Y-13400650D02*
X14639229Y-13400650D01*
X14639229Y-13400650D02*
X14658277Y-13410174D01*
X14658277Y-13410174D02*
X14667801Y-13429222D01*
X14667801Y-13429222D02*
X14667801Y-13533984D01*
X14667801Y-13429222D02*
X14677324Y-13410174D01*
X14677324Y-13410174D02*
X14696372Y-13400650D01*
X14696372Y-13400650D02*
X14724943Y-13400650D01*
X14724943Y-13400650D02*
X14743991Y-13410174D01*
X14743991Y-13410174D02*
X14753515Y-13429222D01*
X14753515Y-13429222D02*
X14753515Y-13533984D01*
X15143991Y-13324460D02*
X14972563Y-13581603D01*
X15401134Y-13333984D02*
X15420182Y-13333984D01*
X15420182Y-13333984D02*
X15439229Y-13343508D01*
X15439229Y-13343508D02*
X15448753Y-13353031D01*
X15448753Y-13353031D02*
X15458277Y-13372079D01*
X15458277Y-13372079D02*
X15467801Y-13410174D01*
X15467801Y-13410174D02*
X15467801Y-13457793D01*
X15467801Y-13457793D02*
X15458277Y-13495888D01*
X15458277Y-13495888D02*
X15448753Y-13514936D01*
X15448753Y-13514936D02*
X15439229Y-13524460D01*
X15439229Y-13524460D02*
X15420182Y-13533984D01*
X15420182Y-13533984D02*
X15401134Y-13533984D01*
X15401134Y-13533984D02*
X15382086Y-13524460D01*
X15382086Y-13524460D02*
X15372563Y-13514936D01*
X15372563Y-13514936D02*
X15363039Y-13495888D01*
X15363039Y-13495888D02*
X15353515Y-13457793D01*
X15353515Y-13457793D02*
X15353515Y-13410174D01*
X15353515Y-13410174D02*
X15363039Y-13372079D01*
X15363039Y-13372079D02*
X15372563Y-13353031D01*
X15372563Y-13353031D02*
X15382086Y-13343508D01*
X15382086Y-13343508D02*
X15401134Y-13333984D01*
X15553515Y-13514936D02*
X15563039Y-13524460D01*
X15563039Y-13524460D02*
X15553515Y-13533984D01*
X15553515Y-13533984D02*
X15543991Y-13524460D01*
X15543991Y-13524460D02*
X15553515Y-13514936D01*
X15553515Y-13514936D02*
X15553515Y-13533984D01*
X15686848Y-13333984D02*
X15705896Y-13333984D01*
X15705896Y-13333984D02*
X15724944Y-13343508D01*
X15724944Y-13343508D02*
X15734467Y-13353031D01*
X15734467Y-13353031D02*
X15743991Y-13372079D01*
X15743991Y-13372079D02*
X15753515Y-13410174D01*
X15753515Y-13410174D02*
X15753515Y-13457793D01*
X15753515Y-13457793D02*
X15743991Y-13495888D01*
X15743991Y-13495888D02*
X15734467Y-13514936D01*
X15734467Y-13514936D02*
X15724944Y-13524460D01*
X15724944Y-13524460D02*
X15705896Y-13533984D01*
X15705896Y-13533984D02*
X15686848Y-13533984D01*
X15686848Y-13533984D02*
X15667801Y-13524460D01*
X15667801Y-13524460D02*
X15658277Y-13514936D01*
X15658277Y-13514936D02*
X15648753Y-13495888D01*
X15648753Y-13495888D02*
X15639229Y-13457793D01*
X15639229Y-13457793D02*
X15639229Y-13410174D01*
X15639229Y-13410174D02*
X15648753Y-13372079D01*
X15648753Y-13372079D02*
X15658277Y-13353031D01*
X15658277Y-13353031D02*
X15667801Y-13343508D01*
X15667801Y-13343508D02*
X15686848Y-13333984D01*
X15943991Y-13533984D02*
X15829706Y-13533984D01*
X15886848Y-13533984D02*
X15886848Y-13333984D01*
X15886848Y-13333984D02*
X15867801Y-13362555D01*
X15867801Y-13362555D02*
X15848753Y-13381603D01*
X15848753Y-13381603D02*
X15829706Y-13391127D01*
X16134467Y-13533984D02*
X16020182Y-13533984D01*
X16077325Y-13533984D02*
X16077325Y-13333984D01*
X16077325Y-13333984D02*
X16058277Y-13362555D01*
X16058277Y-13362555D02*
X16039229Y-13381603D01*
X16039229Y-13381603D02*
X16020182Y-13391127D01*
X16248753Y-13419698D02*
X16229706Y-13410174D01*
X16229706Y-13410174D02*
X16220182Y-13400650D01*
X16220182Y-13400650D02*
X16210658Y-13381603D01*
X16210658Y-13381603D02*
X16210658Y-13372079D01*
X16210658Y-13372079D02*
X16220182Y-13353031D01*
X16220182Y-13353031D02*
X16229706Y-13343508D01*
X16229706Y-13343508D02*
X16248753Y-13333984D01*
X16248753Y-13333984D02*
X16286848Y-13333984D01*
X16286848Y-13333984D02*
X16305896Y-13343508D01*
X16305896Y-13343508D02*
X16315420Y-13353031D01*
X16315420Y-13353031D02*
X16324944Y-13372079D01*
X16324944Y-13372079D02*
X16324944Y-13381603D01*
X16324944Y-13381603D02*
X16315420Y-13400650D01*
X16315420Y-13400650D02*
X16305896Y-13410174D01*
X16305896Y-13410174D02*
X16286848Y-13419698D01*
X16286848Y-13419698D02*
X16248753Y-13419698D01*
X16248753Y-13419698D02*
X16229706Y-13429222D01*
X16229706Y-13429222D02*
X16220182Y-13438746D01*
X16220182Y-13438746D02*
X16210658Y-13457793D01*
X16210658Y-13457793D02*
X16210658Y-13495888D01*
X16210658Y-13495888D02*
X16220182Y-13514936D01*
X16220182Y-13514936D02*
X16229706Y-13524460D01*
X16229706Y-13524460D02*
X16248753Y-13533984D01*
X16248753Y-13533984D02*
X16286848Y-13533984D01*
X16286848Y-13533984D02*
X16305896Y-13524460D01*
X16305896Y-13524460D02*
X16315420Y-13514936D01*
X16315420Y-13514936D02*
X16324944Y-13495888D01*
X16324944Y-13495888D02*
X16324944Y-13457793D01*
X16324944Y-13457793D02*
X16315420Y-13438746D01*
X16315420Y-13438746D02*
X16305896Y-13429222D01*
X16305896Y-13429222D02*
X16286848Y-13419698D01*
X16401134Y-13333984D02*
X16401134Y-13372079D01*
X16477325Y-13333984D02*
X16477325Y-13372079D01*
X16772563Y-13610174D02*
X16763039Y-13600650D01*
X16763039Y-13600650D02*
X16743991Y-13572079D01*
X16743991Y-13572079D02*
X16734468Y-13553031D01*
X16734468Y-13553031D02*
X16724944Y-13524460D01*
X16724944Y-13524460D02*
X16715420Y-13476841D01*
X16715420Y-13476841D02*
X16715420Y-13438746D01*
X16715420Y-13438746D02*
X16724944Y-13391127D01*
X16724944Y-13391127D02*
X16734468Y-13362555D01*
X16734468Y-13362555D02*
X16743991Y-13343508D01*
X16743991Y-13343508D02*
X16763039Y-13314936D01*
X16763039Y-13314936D02*
X16772563Y-13305412D01*
X16934468Y-13333984D02*
X16896372Y-13333984D01*
X16896372Y-13333984D02*
X16877325Y-13343508D01*
X16877325Y-13343508D02*
X16867801Y-13353031D01*
X16867801Y-13353031D02*
X16848753Y-13381603D01*
X16848753Y-13381603D02*
X16839230Y-13419698D01*
X16839230Y-13419698D02*
X16839230Y-13495888D01*
X16839230Y-13495888D02*
X16848753Y-13514936D01*
X16848753Y-13514936D02*
X16858277Y-13524460D01*
X16858277Y-13524460D02*
X16877325Y-13533984D01*
X16877325Y-13533984D02*
X16915420Y-13533984D01*
X16915420Y-13533984D02*
X16934468Y-13524460D01*
X16934468Y-13524460D02*
X16943991Y-13514936D01*
X16943991Y-13514936D02*
X16953515Y-13495888D01*
X16953515Y-13495888D02*
X16953515Y-13448269D01*
X16953515Y-13448269D02*
X16943991Y-13429222D01*
X16943991Y-13429222D02*
X16934468Y-13419698D01*
X16934468Y-13419698D02*
X16915420Y-13410174D01*
X16915420Y-13410174D02*
X16877325Y-13410174D01*
X16877325Y-13410174D02*
X16858277Y-13419698D01*
X16858277Y-13419698D02*
X16848753Y-13429222D01*
X16848753Y-13429222D02*
X16839230Y-13448269D01*
X17134468Y-13333984D02*
X17039230Y-13333984D01*
X17039230Y-13333984D02*
X17029706Y-13429222D01*
X17029706Y-13429222D02*
X17039230Y-13419698D01*
X17039230Y-13419698D02*
X17058277Y-13410174D01*
X17058277Y-13410174D02*
X17105896Y-13410174D01*
X17105896Y-13410174D02*
X17124944Y-13419698D01*
X17124944Y-13419698D02*
X17134468Y-13429222D01*
X17134468Y-13429222D02*
X17143991Y-13448269D01*
X17143991Y-13448269D02*
X17143991Y-13495888D01*
X17143991Y-13495888D02*
X17134468Y-13514936D01*
X17134468Y-13514936D02*
X17124944Y-13524460D01*
X17124944Y-13524460D02*
X17105896Y-13533984D01*
X17105896Y-13533984D02*
X17058277Y-13533984D01*
X17058277Y-13533984D02*
X17039230Y-13524460D01*
X17039230Y-13524460D02*
X17029706Y-13514936D01*
X17382087Y-13533984D02*
X17382087Y-13333984D01*
X17467801Y-13533984D02*
X17467801Y-13429222D01*
X17467801Y-13429222D02*
X17458277Y-13410174D01*
X17458277Y-13410174D02*
X17439230Y-13400650D01*
X17439230Y-13400650D02*
X17410658Y-13400650D01*
X17410658Y-13400650D02*
X17391611Y-13410174D01*
X17391611Y-13410174D02*
X17382087Y-13419698D01*
X17591611Y-13533984D02*
X17572563Y-13524460D01*
X17572563Y-13524460D02*
X17563039Y-13514936D01*
X17563039Y-13514936D02*
X17553515Y-13495888D01*
X17553515Y-13495888D02*
X17553515Y-13438746D01*
X17553515Y-13438746D02*
X17563039Y-13419698D01*
X17563039Y-13419698D02*
X17572563Y-13410174D01*
X17572563Y-13410174D02*
X17591611Y-13400650D01*
X17591611Y-13400650D02*
X17620182Y-13400650D01*
X17620182Y-13400650D02*
X17639230Y-13410174D01*
X17639230Y-13410174D02*
X17648753Y-13419698D01*
X17648753Y-13419698D02*
X17658277Y-13438746D01*
X17658277Y-13438746D02*
X17658277Y-13495888D01*
X17658277Y-13495888D02*
X17648753Y-13514936D01*
X17648753Y-13514936D02*
X17639230Y-13524460D01*
X17639230Y-13524460D02*
X17620182Y-13533984D01*
X17620182Y-13533984D02*
X17591611Y-13533984D01*
X17772563Y-13533984D02*
X17753515Y-13524460D01*
X17753515Y-13524460D02*
X17743992Y-13505412D01*
X17743992Y-13505412D02*
X17743992Y-13333984D01*
X17924944Y-13524460D02*
X17905896Y-13533984D01*
X17905896Y-13533984D02*
X17867801Y-13533984D01*
X17867801Y-13533984D02*
X17848753Y-13524460D01*
X17848753Y-13524460D02*
X17839230Y-13505412D01*
X17839230Y-13505412D02*
X17839230Y-13429222D01*
X17839230Y-13429222D02*
X17848753Y-13410174D01*
X17848753Y-13410174D02*
X17867801Y-13400650D01*
X17867801Y-13400650D02*
X17905896Y-13400650D01*
X17905896Y-13400650D02*
X17924944Y-13410174D01*
X17924944Y-13410174D02*
X17934468Y-13429222D01*
X17934468Y-13429222D02*
X17934468Y-13448269D01*
X17934468Y-13448269D02*
X17839230Y-13467317D01*
X18010658Y-13524460D02*
X18029706Y-13533984D01*
X18029706Y-13533984D02*
X18067801Y-13533984D01*
X18067801Y-13533984D02*
X18086849Y-13524460D01*
X18086849Y-13524460D02*
X18096373Y-13505412D01*
X18096373Y-13505412D02*
X18096373Y-13495888D01*
X18096373Y-13495888D02*
X18086849Y-13476841D01*
X18086849Y-13476841D02*
X18067801Y-13467317D01*
X18067801Y-13467317D02*
X18039230Y-13467317D01*
X18039230Y-13467317D02*
X18020182Y-13457793D01*
X18020182Y-13457793D02*
X18010658Y-13438746D01*
X18010658Y-13438746D02*
X18010658Y-13429222D01*
X18010658Y-13429222D02*
X18020182Y-13410174D01*
X18020182Y-13410174D02*
X18039230Y-13400650D01*
X18039230Y-13400650D02*
X18067801Y-13400650D01*
X18067801Y-13400650D02*
X18086849Y-13410174D01*
X18163039Y-13610174D02*
X18172563Y-13600650D01*
X18172563Y-13600650D02*
X18191611Y-13572079D01*
X18191611Y-13572079D02*
X18201134Y-13553031D01*
X18201134Y-13553031D02*
X18210658Y-13524460D01*
X18210658Y-13524460D02*
X18220182Y-13476841D01*
X18220182Y-13476841D02*
X18220182Y-13438746D01*
X18220182Y-13438746D02*
X18210658Y-13391127D01*
X18210658Y-13391127D02*
X18201134Y-13362555D01*
X18201134Y-13362555D02*
X18191611Y-13343508D01*
X18191611Y-13343508D02*
X18172563Y-13314936D01*
X18172563Y-13314936D02*
X18163039Y-13305412D01*
D12*
X13197500Y-13706500D02*
G75*
G02*
X13097500Y-13706500I-50000J0D01*
G01*
X13097500Y-13706500D02*
G75*
G02*
X13197500Y-13706500I50000J0D01*
G01*
D11*
X13563039Y-13797984D02*
X13448753Y-13797984D01*
X13505896Y-13797984D02*
X13505896Y-13597984D01*
X13505896Y-13597984D02*
X13486848Y-13626555D01*
X13486848Y-13626555D02*
X13467801Y-13645603D01*
X13467801Y-13645603D02*
X13448753Y-13655127D01*
X13648753Y-13778936D02*
X13658277Y-13788460D01*
X13658277Y-13788460D02*
X13648753Y-13797984D01*
X13648753Y-13797984D02*
X13639229Y-13788460D01*
X13639229Y-13788460D02*
X13648753Y-13778936D01*
X13648753Y-13778936D02*
X13648753Y-13797984D01*
X13782086Y-13597984D02*
X13801134Y-13597984D01*
X13801134Y-13597984D02*
X13820182Y-13607508D01*
X13820182Y-13607508D02*
X13829705Y-13617031D01*
X13829705Y-13617031D02*
X13839229Y-13636079D01*
X13839229Y-13636079D02*
X13848753Y-13674174D01*
X13848753Y-13674174D02*
X13848753Y-13721793D01*
X13848753Y-13721793D02*
X13839229Y-13759888D01*
X13839229Y-13759888D02*
X13829705Y-13778936D01*
X13829705Y-13778936D02*
X13820182Y-13788460D01*
X13820182Y-13788460D02*
X13801134Y-13797984D01*
X13801134Y-13797984D02*
X13782086Y-13797984D01*
X13782086Y-13797984D02*
X13763039Y-13788460D01*
X13763039Y-13788460D02*
X13753515Y-13778936D01*
X13753515Y-13778936D02*
X13743991Y-13759888D01*
X13743991Y-13759888D02*
X13734467Y-13721793D01*
X13734467Y-13721793D02*
X13734467Y-13674174D01*
X13734467Y-13674174D02*
X13743991Y-13636079D01*
X13743991Y-13636079D02*
X13753515Y-13617031D01*
X13753515Y-13617031D02*
X13763039Y-13607508D01*
X13763039Y-13607508D02*
X13782086Y-13597984D01*
X13972562Y-13597984D02*
X13991610Y-13597984D01*
X13991610Y-13597984D02*
X14010658Y-13607508D01*
X14010658Y-13607508D02*
X14020182Y-13617031D01*
X14020182Y-13617031D02*
X14029705Y-13636079D01*
X14029705Y-13636079D02*
X14039229Y-13674174D01*
X14039229Y-13674174D02*
X14039229Y-13721793D01*
X14039229Y-13721793D02*
X14029705Y-13759888D01*
X14029705Y-13759888D02*
X14020182Y-13778936D01*
X14020182Y-13778936D02*
X14010658Y-13788460D01*
X14010658Y-13788460D02*
X13991610Y-13797984D01*
X13991610Y-13797984D02*
X13972562Y-13797984D01*
X13972562Y-13797984D02*
X13953515Y-13788460D01*
X13953515Y-13788460D02*
X13943991Y-13778936D01*
X13943991Y-13778936D02*
X13934467Y-13759888D01*
X13934467Y-13759888D02*
X13924943Y-13721793D01*
X13924943Y-13721793D02*
X13924943Y-13674174D01*
X13924943Y-13674174D02*
X13934467Y-13636079D01*
X13934467Y-13636079D02*
X13943991Y-13617031D01*
X13943991Y-13617031D02*
X13953515Y-13607508D01*
X13953515Y-13607508D02*
X13972562Y-13597984D01*
X14163039Y-13597984D02*
X14182086Y-13597984D01*
X14182086Y-13597984D02*
X14201134Y-13607508D01*
X14201134Y-13607508D02*
X14210658Y-13617031D01*
X14210658Y-13617031D02*
X14220182Y-13636079D01*
X14220182Y-13636079D02*
X14229705Y-13674174D01*
X14229705Y-13674174D02*
X14229705Y-13721793D01*
X14229705Y-13721793D02*
X14220182Y-13759888D01*
X14220182Y-13759888D02*
X14210658Y-13778936D01*
X14210658Y-13778936D02*
X14201134Y-13788460D01*
X14201134Y-13788460D02*
X14182086Y-13797984D01*
X14182086Y-13797984D02*
X14163039Y-13797984D01*
X14163039Y-13797984D02*
X14143991Y-13788460D01*
X14143991Y-13788460D02*
X14134467Y-13778936D01*
X14134467Y-13778936D02*
X14124943Y-13759888D01*
X14124943Y-13759888D02*
X14115420Y-13721793D01*
X14115420Y-13721793D02*
X14115420Y-13674174D01*
X14115420Y-13674174D02*
X14124943Y-13636079D01*
X14124943Y-13636079D02*
X14134467Y-13617031D01*
X14134467Y-13617031D02*
X14143991Y-13607508D01*
X14143991Y-13607508D02*
X14163039Y-13597984D01*
X14315420Y-13797984D02*
X14315420Y-13664650D01*
X14315420Y-13683698D02*
X14324943Y-13674174D01*
X14324943Y-13674174D02*
X14343991Y-13664650D01*
X14343991Y-13664650D02*
X14372563Y-13664650D01*
X14372563Y-13664650D02*
X14391610Y-13674174D01*
X14391610Y-13674174D02*
X14401134Y-13693222D01*
X14401134Y-13693222D02*
X14401134Y-13797984D01*
X14401134Y-13693222D02*
X14410658Y-13674174D01*
X14410658Y-13674174D02*
X14429705Y-13664650D01*
X14429705Y-13664650D02*
X14458277Y-13664650D01*
X14458277Y-13664650D02*
X14477324Y-13674174D01*
X14477324Y-13674174D02*
X14486848Y-13693222D01*
X14486848Y-13693222D02*
X14486848Y-13797984D01*
X14582086Y-13797984D02*
X14582086Y-13664650D01*
X14582086Y-13683698D02*
X14591610Y-13674174D01*
X14591610Y-13674174D02*
X14610658Y-13664650D01*
X14610658Y-13664650D02*
X14639229Y-13664650D01*
X14639229Y-13664650D02*
X14658277Y-13674174D01*
X14658277Y-13674174D02*
X14667801Y-13693222D01*
X14667801Y-13693222D02*
X14667801Y-13797984D01*
X14667801Y-13693222D02*
X14677324Y-13674174D01*
X14677324Y-13674174D02*
X14696372Y-13664650D01*
X14696372Y-13664650D02*
X14724943Y-13664650D01*
X14724943Y-13664650D02*
X14743991Y-13674174D01*
X14743991Y-13674174D02*
X14753515Y-13693222D01*
X14753515Y-13693222D02*
X14753515Y-13797984D01*
X15143991Y-13588460D02*
X14972563Y-13845603D01*
X15401134Y-13597984D02*
X15420182Y-13597984D01*
X15420182Y-13597984D02*
X15439229Y-13607508D01*
X15439229Y-13607508D02*
X15448753Y-13617031D01*
X15448753Y-13617031D02*
X15458277Y-13636079D01*
X15458277Y-13636079D02*
X15467801Y-13674174D01*
X15467801Y-13674174D02*
X15467801Y-13721793D01*
X15467801Y-13721793D02*
X15458277Y-13759888D01*
X15458277Y-13759888D02*
X15448753Y-13778936D01*
X15448753Y-13778936D02*
X15439229Y-13788460D01*
X15439229Y-13788460D02*
X15420182Y-13797984D01*
X15420182Y-13797984D02*
X15401134Y-13797984D01*
X15401134Y-13797984D02*
X15382086Y-13788460D01*
X15382086Y-13788460D02*
X15372563Y-13778936D01*
X15372563Y-13778936D02*
X15363039Y-13759888D01*
X15363039Y-13759888D02*
X15353515Y-13721793D01*
X15353515Y-13721793D02*
X15353515Y-13674174D01*
X15353515Y-13674174D02*
X15363039Y-13636079D01*
X15363039Y-13636079D02*
X15372563Y-13617031D01*
X15372563Y-13617031D02*
X15382086Y-13607508D01*
X15382086Y-13607508D02*
X15401134Y-13597984D01*
X15553515Y-13778936D02*
X15563039Y-13788460D01*
X15563039Y-13788460D02*
X15553515Y-13797984D01*
X15553515Y-13797984D02*
X15543991Y-13788460D01*
X15543991Y-13788460D02*
X15553515Y-13778936D01*
X15553515Y-13778936D02*
X15553515Y-13797984D01*
X15686848Y-13597984D02*
X15705896Y-13597984D01*
X15705896Y-13597984D02*
X15724944Y-13607508D01*
X15724944Y-13607508D02*
X15734467Y-13617031D01*
X15734467Y-13617031D02*
X15743991Y-13636079D01*
X15743991Y-13636079D02*
X15753515Y-13674174D01*
X15753515Y-13674174D02*
X15753515Y-13721793D01*
X15753515Y-13721793D02*
X15743991Y-13759888D01*
X15743991Y-13759888D02*
X15734467Y-13778936D01*
X15734467Y-13778936D02*
X15724944Y-13788460D01*
X15724944Y-13788460D02*
X15705896Y-13797984D01*
X15705896Y-13797984D02*
X15686848Y-13797984D01*
X15686848Y-13797984D02*
X15667801Y-13788460D01*
X15667801Y-13788460D02*
X15658277Y-13778936D01*
X15658277Y-13778936D02*
X15648753Y-13759888D01*
X15648753Y-13759888D02*
X15639229Y-13721793D01*
X15639229Y-13721793D02*
X15639229Y-13674174D01*
X15639229Y-13674174D02*
X15648753Y-13636079D01*
X15648753Y-13636079D02*
X15658277Y-13617031D01*
X15658277Y-13617031D02*
X15667801Y-13607508D01*
X15667801Y-13607508D02*
X15686848Y-13597984D01*
X15820182Y-13597984D02*
X15943991Y-13597984D01*
X15943991Y-13597984D02*
X15877325Y-13674174D01*
X15877325Y-13674174D02*
X15905896Y-13674174D01*
X15905896Y-13674174D02*
X15924944Y-13683698D01*
X15924944Y-13683698D02*
X15934467Y-13693222D01*
X15934467Y-13693222D02*
X15943991Y-13712269D01*
X15943991Y-13712269D02*
X15943991Y-13759888D01*
X15943991Y-13759888D02*
X15934467Y-13778936D01*
X15934467Y-13778936D02*
X15924944Y-13788460D01*
X15924944Y-13788460D02*
X15905896Y-13797984D01*
X15905896Y-13797984D02*
X15848753Y-13797984D01*
X15848753Y-13797984D02*
X15829706Y-13788460D01*
X15829706Y-13788460D02*
X15820182Y-13778936D01*
X16039229Y-13797984D02*
X16077325Y-13797984D01*
X16077325Y-13797984D02*
X16096372Y-13788460D01*
X16096372Y-13788460D02*
X16105896Y-13778936D01*
X16105896Y-13778936D02*
X16124944Y-13750365D01*
X16124944Y-13750365D02*
X16134467Y-13712269D01*
X16134467Y-13712269D02*
X16134467Y-13636079D01*
X16134467Y-13636079D02*
X16124944Y-13617031D01*
X16124944Y-13617031D02*
X16115420Y-13607508D01*
X16115420Y-13607508D02*
X16096372Y-13597984D01*
X16096372Y-13597984D02*
X16058277Y-13597984D01*
X16058277Y-13597984D02*
X16039229Y-13607508D01*
X16039229Y-13607508D02*
X16029706Y-13617031D01*
X16029706Y-13617031D02*
X16020182Y-13636079D01*
X16020182Y-13636079D02*
X16020182Y-13683698D01*
X16020182Y-13683698D02*
X16029706Y-13702746D01*
X16029706Y-13702746D02*
X16039229Y-13712269D01*
X16039229Y-13712269D02*
X16058277Y-13721793D01*
X16058277Y-13721793D02*
X16096372Y-13721793D01*
X16096372Y-13721793D02*
X16115420Y-13712269D01*
X16115420Y-13712269D02*
X16124944Y-13702746D01*
X16124944Y-13702746D02*
X16134467Y-13683698D01*
X16305896Y-13664650D02*
X16305896Y-13797984D01*
X16258277Y-13588460D02*
X16210658Y-13731317D01*
X16210658Y-13731317D02*
X16334467Y-13731317D01*
X16401134Y-13597984D02*
X16401134Y-13636079D01*
X16477325Y-13597984D02*
X16477325Y-13636079D01*
X16772563Y-13874174D02*
X16763039Y-13864650D01*
X16763039Y-13864650D02*
X16743991Y-13836079D01*
X16743991Y-13836079D02*
X16734468Y-13817031D01*
X16734468Y-13817031D02*
X16724944Y-13788460D01*
X16724944Y-13788460D02*
X16715420Y-13740841D01*
X16715420Y-13740841D02*
X16715420Y-13702746D01*
X16715420Y-13702746D02*
X16724944Y-13655127D01*
X16724944Y-13655127D02*
X16734468Y-13626555D01*
X16734468Y-13626555D02*
X16743991Y-13607508D01*
X16743991Y-13607508D02*
X16763039Y-13578936D01*
X16763039Y-13578936D02*
X16772563Y-13569412D01*
X16934468Y-13664650D02*
X16934468Y-13797984D01*
X16886849Y-13588460D02*
X16839230Y-13731317D01*
X16839230Y-13731317D02*
X16963039Y-13731317D01*
X17134468Y-13597984D02*
X17039230Y-13597984D01*
X17039230Y-13597984D02*
X17029706Y-13693222D01*
X17029706Y-13693222D02*
X17039230Y-13683698D01*
X17039230Y-13683698D02*
X17058277Y-13674174D01*
X17058277Y-13674174D02*
X17105896Y-13674174D01*
X17105896Y-13674174D02*
X17124944Y-13683698D01*
X17124944Y-13683698D02*
X17134468Y-13693222D01*
X17134468Y-13693222D02*
X17143991Y-13712269D01*
X17143991Y-13712269D02*
X17143991Y-13759888D01*
X17143991Y-13759888D02*
X17134468Y-13778936D01*
X17134468Y-13778936D02*
X17124944Y-13788460D01*
X17124944Y-13788460D02*
X17105896Y-13797984D01*
X17105896Y-13797984D02*
X17058277Y-13797984D01*
X17058277Y-13797984D02*
X17039230Y-13788460D01*
X17039230Y-13788460D02*
X17029706Y-13778936D01*
X17382087Y-13797984D02*
X17382087Y-13597984D01*
X17467801Y-13797984D02*
X17467801Y-13693222D01*
X17467801Y-13693222D02*
X17458277Y-13674174D01*
X17458277Y-13674174D02*
X17439230Y-13664650D01*
X17439230Y-13664650D02*
X17410658Y-13664650D01*
X17410658Y-13664650D02*
X17391611Y-13674174D01*
X17391611Y-13674174D02*
X17382087Y-13683698D01*
X17591611Y-13797984D02*
X17572563Y-13788460D01*
X17572563Y-13788460D02*
X17563039Y-13778936D01*
X17563039Y-13778936D02*
X17553515Y-13759888D01*
X17553515Y-13759888D02*
X17553515Y-13702746D01*
X17553515Y-13702746D02*
X17563039Y-13683698D01*
X17563039Y-13683698D02*
X17572563Y-13674174D01*
X17572563Y-13674174D02*
X17591611Y-13664650D01*
X17591611Y-13664650D02*
X17620182Y-13664650D01*
X17620182Y-13664650D02*
X17639230Y-13674174D01*
X17639230Y-13674174D02*
X17648753Y-13683698D01*
X17648753Y-13683698D02*
X17658277Y-13702746D01*
X17658277Y-13702746D02*
X17658277Y-13759888D01*
X17658277Y-13759888D02*
X17648753Y-13778936D01*
X17648753Y-13778936D02*
X17639230Y-13788460D01*
X17639230Y-13788460D02*
X17620182Y-13797984D01*
X17620182Y-13797984D02*
X17591611Y-13797984D01*
X17772563Y-13797984D02*
X17753515Y-13788460D01*
X17753515Y-13788460D02*
X17743992Y-13769412D01*
X17743992Y-13769412D02*
X17743992Y-13597984D01*
X17924944Y-13788460D02*
X17905896Y-13797984D01*
X17905896Y-13797984D02*
X17867801Y-13797984D01*
X17867801Y-13797984D02*
X17848753Y-13788460D01*
X17848753Y-13788460D02*
X17839230Y-13769412D01*
X17839230Y-13769412D02*
X17839230Y-13693222D01*
X17839230Y-13693222D02*
X17848753Y-13674174D01*
X17848753Y-13674174D02*
X17867801Y-13664650D01*
X17867801Y-13664650D02*
X17905896Y-13664650D01*
X17905896Y-13664650D02*
X17924944Y-13674174D01*
X17924944Y-13674174D02*
X17934468Y-13693222D01*
X17934468Y-13693222D02*
X17934468Y-13712269D01*
X17934468Y-13712269D02*
X17839230Y-13731317D01*
X18010658Y-13788460D02*
X18029706Y-13797984D01*
X18029706Y-13797984D02*
X18067801Y-13797984D01*
X18067801Y-13797984D02*
X18086849Y-13788460D01*
X18086849Y-13788460D02*
X18096373Y-13769412D01*
X18096373Y-13769412D02*
X18096373Y-13759888D01*
X18096373Y-13759888D02*
X18086849Y-13740841D01*
X18086849Y-13740841D02*
X18067801Y-13731317D01*
X18067801Y-13731317D02*
X18039230Y-13731317D01*
X18039230Y-13731317D02*
X18020182Y-13721793D01*
X18020182Y-13721793D02*
X18010658Y-13702746D01*
X18010658Y-13702746D02*
X18010658Y-13693222D01*
X18010658Y-13693222D02*
X18020182Y-13674174D01*
X18020182Y-13674174D02*
X18039230Y-13664650D01*
X18039230Y-13664650D02*
X18067801Y-13664650D01*
X18067801Y-13664650D02*
X18086849Y-13674174D01*
X18163039Y-13874174D02*
X18172563Y-13864650D01*
X18172563Y-13864650D02*
X18191611Y-13836079D01*
X18191611Y-13836079D02*
X18201134Y-13817031D01*
X18201134Y-13817031D02*
X18210658Y-13788460D01*
X18210658Y-13788460D02*
X18220182Y-13740841D01*
X18220182Y-13740841D02*
X18220182Y-13702746D01*
X18220182Y-13702746D02*
X18210658Y-13655127D01*
X18210658Y-13655127D02*
X18201134Y-13626555D01*
X18201134Y-13626555D02*
X18191611Y-13607508D01*
X18191611Y-13607508D02*
X18172563Y-13578936D01*
X18172563Y-13578936D02*
X18163039Y-13569412D01*
D13*
X13132500Y-13905500D02*
X13132500Y-14035500D01*
X13067500Y-13970500D02*
X13197500Y-13970500D01*
D11*
X13563039Y-14061984D02*
X13448753Y-14061984D01*
X13505896Y-14061984D02*
X13505896Y-13861984D01*
X13505896Y-13861984D02*
X13486848Y-13890555D01*
X13486848Y-13890555D02*
X13467801Y-13909603D01*
X13467801Y-13909603D02*
X13448753Y-13919127D01*
X13648753Y-14042936D02*
X13658277Y-14052460D01*
X13658277Y-14052460D02*
X13648753Y-14061984D01*
X13648753Y-14061984D02*
X13639229Y-14052460D01*
X13639229Y-14052460D02*
X13648753Y-14042936D01*
X13648753Y-14042936D02*
X13648753Y-14061984D01*
X13724943Y-13861984D02*
X13848753Y-13861984D01*
X13848753Y-13861984D02*
X13782086Y-13938174D01*
X13782086Y-13938174D02*
X13810658Y-13938174D01*
X13810658Y-13938174D02*
X13829705Y-13947698D01*
X13829705Y-13947698D02*
X13839229Y-13957222D01*
X13839229Y-13957222D02*
X13848753Y-13976269D01*
X13848753Y-13976269D02*
X13848753Y-14023888D01*
X13848753Y-14023888D02*
X13839229Y-14042936D01*
X13839229Y-14042936D02*
X13829705Y-14052460D01*
X13829705Y-14052460D02*
X13810658Y-14061984D01*
X13810658Y-14061984D02*
X13753515Y-14061984D01*
X13753515Y-14061984D02*
X13734467Y-14052460D01*
X13734467Y-14052460D02*
X13724943Y-14042936D01*
X13972562Y-13861984D02*
X13991610Y-13861984D01*
X13991610Y-13861984D02*
X14010658Y-13871508D01*
X14010658Y-13871508D02*
X14020182Y-13881031D01*
X14020182Y-13881031D02*
X14029705Y-13900079D01*
X14029705Y-13900079D02*
X14039229Y-13938174D01*
X14039229Y-13938174D02*
X14039229Y-13985793D01*
X14039229Y-13985793D02*
X14029705Y-14023888D01*
X14029705Y-14023888D02*
X14020182Y-14042936D01*
X14020182Y-14042936D02*
X14010658Y-14052460D01*
X14010658Y-14052460D02*
X13991610Y-14061984D01*
X13991610Y-14061984D02*
X13972562Y-14061984D01*
X13972562Y-14061984D02*
X13953515Y-14052460D01*
X13953515Y-14052460D02*
X13943991Y-14042936D01*
X13943991Y-14042936D02*
X13934467Y-14023888D01*
X13934467Y-14023888D02*
X13924943Y-13985793D01*
X13924943Y-13985793D02*
X13924943Y-13938174D01*
X13924943Y-13938174D02*
X13934467Y-13900079D01*
X13934467Y-13900079D02*
X13943991Y-13881031D01*
X13943991Y-13881031D02*
X13953515Y-13871508D01*
X13953515Y-13871508D02*
X13972562Y-13861984D01*
X14163039Y-13861984D02*
X14182086Y-13861984D01*
X14182086Y-13861984D02*
X14201134Y-13871508D01*
X14201134Y-13871508D02*
X14210658Y-13881031D01*
X14210658Y-13881031D02*
X14220182Y-13900079D01*
X14220182Y-13900079D02*
X14229705Y-13938174D01*
X14229705Y-13938174D02*
X14229705Y-13985793D01*
X14229705Y-13985793D02*
X14220182Y-14023888D01*
X14220182Y-14023888D02*
X14210658Y-14042936D01*
X14210658Y-14042936D02*
X14201134Y-14052460D01*
X14201134Y-14052460D02*
X14182086Y-14061984D01*
X14182086Y-14061984D02*
X14163039Y-14061984D01*
X14163039Y-14061984D02*
X14143991Y-14052460D01*
X14143991Y-14052460D02*
X14134467Y-14042936D01*
X14134467Y-14042936D02*
X14124943Y-14023888D01*
X14124943Y-14023888D02*
X14115420Y-13985793D01*
X14115420Y-13985793D02*
X14115420Y-13938174D01*
X14115420Y-13938174D02*
X14124943Y-13900079D01*
X14124943Y-13900079D02*
X14134467Y-13881031D01*
X14134467Y-13881031D02*
X14143991Y-13871508D01*
X14143991Y-13871508D02*
X14163039Y-13861984D01*
X14315420Y-14061984D02*
X14315420Y-13928650D01*
X14315420Y-13947698D02*
X14324943Y-13938174D01*
X14324943Y-13938174D02*
X14343991Y-13928650D01*
X14343991Y-13928650D02*
X14372563Y-13928650D01*
X14372563Y-13928650D02*
X14391610Y-13938174D01*
X14391610Y-13938174D02*
X14401134Y-13957222D01*
X14401134Y-13957222D02*
X14401134Y-14061984D01*
X14401134Y-13957222D02*
X14410658Y-13938174D01*
X14410658Y-13938174D02*
X14429705Y-13928650D01*
X14429705Y-13928650D02*
X14458277Y-13928650D01*
X14458277Y-13928650D02*
X14477324Y-13938174D01*
X14477324Y-13938174D02*
X14486848Y-13957222D01*
X14486848Y-13957222D02*
X14486848Y-14061984D01*
X14582086Y-14061984D02*
X14582086Y-13928650D01*
X14582086Y-13947698D02*
X14591610Y-13938174D01*
X14591610Y-13938174D02*
X14610658Y-13928650D01*
X14610658Y-13928650D02*
X14639229Y-13928650D01*
X14639229Y-13928650D02*
X14658277Y-13938174D01*
X14658277Y-13938174D02*
X14667801Y-13957222D01*
X14667801Y-13957222D02*
X14667801Y-14061984D01*
X14667801Y-13957222D02*
X14677324Y-13938174D01*
X14677324Y-13938174D02*
X14696372Y-13928650D01*
X14696372Y-13928650D02*
X14724943Y-13928650D01*
X14724943Y-13928650D02*
X14743991Y-13938174D01*
X14743991Y-13938174D02*
X14753515Y-13957222D01*
X14753515Y-13957222D02*
X14753515Y-14061984D01*
X15143991Y-13852460D02*
X14972563Y-14109603D01*
X15401134Y-13861984D02*
X15420182Y-13861984D01*
X15420182Y-13861984D02*
X15439229Y-13871508D01*
X15439229Y-13871508D02*
X15448753Y-13881031D01*
X15448753Y-13881031D02*
X15458277Y-13900079D01*
X15458277Y-13900079D02*
X15467801Y-13938174D01*
X15467801Y-13938174D02*
X15467801Y-13985793D01*
X15467801Y-13985793D02*
X15458277Y-14023888D01*
X15458277Y-14023888D02*
X15448753Y-14042936D01*
X15448753Y-14042936D02*
X15439229Y-14052460D01*
X15439229Y-14052460D02*
X15420182Y-14061984D01*
X15420182Y-14061984D02*
X15401134Y-14061984D01*
X15401134Y-14061984D02*
X15382086Y-14052460D01*
X15382086Y-14052460D02*
X15372563Y-14042936D01*
X15372563Y-14042936D02*
X15363039Y-14023888D01*
X15363039Y-14023888D02*
X15353515Y-13985793D01*
X15353515Y-13985793D02*
X15353515Y-13938174D01*
X15353515Y-13938174D02*
X15363039Y-13900079D01*
X15363039Y-13900079D02*
X15372563Y-13881031D01*
X15372563Y-13881031D02*
X15382086Y-13871508D01*
X15382086Y-13871508D02*
X15401134Y-13861984D01*
X15553515Y-14042936D02*
X15563039Y-14052460D01*
X15563039Y-14052460D02*
X15553515Y-14061984D01*
X15553515Y-14061984D02*
X15543991Y-14052460D01*
X15543991Y-14052460D02*
X15553515Y-14042936D01*
X15553515Y-14042936D02*
X15553515Y-14061984D01*
X15686848Y-13861984D02*
X15705896Y-13861984D01*
X15705896Y-13861984D02*
X15724944Y-13871508D01*
X15724944Y-13871508D02*
X15734467Y-13881031D01*
X15734467Y-13881031D02*
X15743991Y-13900079D01*
X15743991Y-13900079D02*
X15753515Y-13938174D01*
X15753515Y-13938174D02*
X15753515Y-13985793D01*
X15753515Y-13985793D02*
X15743991Y-14023888D01*
X15743991Y-14023888D02*
X15734467Y-14042936D01*
X15734467Y-14042936D02*
X15724944Y-14052460D01*
X15724944Y-14052460D02*
X15705896Y-14061984D01*
X15705896Y-14061984D02*
X15686848Y-14061984D01*
X15686848Y-14061984D02*
X15667801Y-14052460D01*
X15667801Y-14052460D02*
X15658277Y-14042936D01*
X15658277Y-14042936D02*
X15648753Y-14023888D01*
X15648753Y-14023888D02*
X15639229Y-13985793D01*
X15639229Y-13985793D02*
X15639229Y-13938174D01*
X15639229Y-13938174D02*
X15648753Y-13900079D01*
X15648753Y-13900079D02*
X15658277Y-13881031D01*
X15658277Y-13881031D02*
X15667801Y-13871508D01*
X15667801Y-13871508D02*
X15686848Y-13861984D01*
X15934467Y-13861984D02*
X15839229Y-13861984D01*
X15839229Y-13861984D02*
X15829706Y-13957222D01*
X15829706Y-13957222D02*
X15839229Y-13947698D01*
X15839229Y-13947698D02*
X15858277Y-13938174D01*
X15858277Y-13938174D02*
X15905896Y-13938174D01*
X15905896Y-13938174D02*
X15924944Y-13947698D01*
X15924944Y-13947698D02*
X15934467Y-13957222D01*
X15934467Y-13957222D02*
X15943991Y-13976269D01*
X15943991Y-13976269D02*
X15943991Y-14023888D01*
X15943991Y-14023888D02*
X15934467Y-14042936D01*
X15934467Y-14042936D02*
X15924944Y-14052460D01*
X15924944Y-14052460D02*
X15905896Y-14061984D01*
X15905896Y-14061984D02*
X15858277Y-14061984D01*
X15858277Y-14061984D02*
X15839229Y-14052460D01*
X15839229Y-14052460D02*
X15829706Y-14042936D01*
X16134467Y-14061984D02*
X16020182Y-14061984D01*
X16077325Y-14061984D02*
X16077325Y-13861984D01*
X16077325Y-13861984D02*
X16058277Y-13890555D01*
X16058277Y-13890555D02*
X16039229Y-13909603D01*
X16039229Y-13909603D02*
X16020182Y-13919127D01*
X16210658Y-13881031D02*
X16220182Y-13871508D01*
X16220182Y-13871508D02*
X16239229Y-13861984D01*
X16239229Y-13861984D02*
X16286848Y-13861984D01*
X16286848Y-13861984D02*
X16305896Y-13871508D01*
X16305896Y-13871508D02*
X16315420Y-13881031D01*
X16315420Y-13881031D02*
X16324944Y-13900079D01*
X16324944Y-13900079D02*
X16324944Y-13919127D01*
X16324944Y-13919127D02*
X16315420Y-13947698D01*
X16315420Y-13947698D02*
X16201134Y-14061984D01*
X16201134Y-14061984D02*
X16324944Y-14061984D01*
X16401134Y-13861984D02*
X16401134Y-13900079D01*
X16477325Y-13861984D02*
X16477325Y-13900079D01*
X16772563Y-14138174D02*
X16763039Y-14128650D01*
X16763039Y-14128650D02*
X16743991Y-14100079D01*
X16743991Y-14100079D02*
X16734468Y-14081031D01*
X16734468Y-14081031D02*
X16724944Y-14052460D01*
X16724944Y-14052460D02*
X16715420Y-14004841D01*
X16715420Y-14004841D02*
X16715420Y-13966746D01*
X16715420Y-13966746D02*
X16724944Y-13919127D01*
X16724944Y-13919127D02*
X16734468Y-13890555D01*
X16734468Y-13890555D02*
X16743991Y-13871508D01*
X16743991Y-13871508D02*
X16763039Y-13842936D01*
X16763039Y-13842936D02*
X16772563Y-13833412D01*
X16829706Y-13861984D02*
X16953515Y-13861984D01*
X16953515Y-13861984D02*
X16886849Y-13938174D01*
X16886849Y-13938174D02*
X16915420Y-13938174D01*
X16915420Y-13938174D02*
X16934468Y-13947698D01*
X16934468Y-13947698D02*
X16943991Y-13957222D01*
X16943991Y-13957222D02*
X16953515Y-13976269D01*
X16953515Y-13976269D02*
X16953515Y-14023888D01*
X16953515Y-14023888D02*
X16943991Y-14042936D01*
X16943991Y-14042936D02*
X16934468Y-14052460D01*
X16934468Y-14052460D02*
X16915420Y-14061984D01*
X16915420Y-14061984D02*
X16858277Y-14061984D01*
X16858277Y-14061984D02*
X16839230Y-14052460D01*
X16839230Y-14052460D02*
X16829706Y-14042936D01*
X17191611Y-14061984D02*
X17191611Y-13861984D01*
X17277325Y-14061984D02*
X17277325Y-13957222D01*
X17277325Y-13957222D02*
X17267801Y-13938174D01*
X17267801Y-13938174D02*
X17248753Y-13928650D01*
X17248753Y-13928650D02*
X17220182Y-13928650D01*
X17220182Y-13928650D02*
X17201134Y-13938174D01*
X17201134Y-13938174D02*
X17191611Y-13947698D01*
X17401134Y-14061984D02*
X17382087Y-14052460D01*
X17382087Y-14052460D02*
X17372563Y-14042936D01*
X17372563Y-14042936D02*
X17363039Y-14023888D01*
X17363039Y-14023888D02*
X17363039Y-13966746D01*
X17363039Y-13966746D02*
X17372563Y-13947698D01*
X17372563Y-13947698D02*
X17382087Y-13938174D01*
X17382087Y-13938174D02*
X17401134Y-13928650D01*
X17401134Y-13928650D02*
X17429706Y-13928650D01*
X17429706Y-13928650D02*
X17448753Y-13938174D01*
X17448753Y-13938174D02*
X17458277Y-13947698D01*
X17458277Y-13947698D02*
X17467801Y-13966746D01*
X17467801Y-13966746D02*
X17467801Y-14023888D01*
X17467801Y-14023888D02*
X17458277Y-14042936D01*
X17458277Y-14042936D02*
X17448753Y-14052460D01*
X17448753Y-14052460D02*
X17429706Y-14061984D01*
X17429706Y-14061984D02*
X17401134Y-14061984D01*
X17582087Y-14061984D02*
X17563039Y-14052460D01*
X17563039Y-14052460D02*
X17553515Y-14033412D01*
X17553515Y-14033412D02*
X17553515Y-13861984D01*
X17734468Y-14052460D02*
X17715420Y-14061984D01*
X17715420Y-14061984D02*
X17677325Y-14061984D01*
X17677325Y-14061984D02*
X17658277Y-14052460D01*
X17658277Y-14052460D02*
X17648753Y-14033412D01*
X17648753Y-14033412D02*
X17648753Y-13957222D01*
X17648753Y-13957222D02*
X17658277Y-13938174D01*
X17658277Y-13938174D02*
X17677325Y-13928650D01*
X17677325Y-13928650D02*
X17715420Y-13928650D01*
X17715420Y-13928650D02*
X17734468Y-13938174D01*
X17734468Y-13938174D02*
X17743992Y-13957222D01*
X17743992Y-13957222D02*
X17743992Y-13976269D01*
X17743992Y-13976269D02*
X17648753Y-13995317D01*
X17820182Y-14052460D02*
X17839230Y-14061984D01*
X17839230Y-14061984D02*
X17877325Y-14061984D01*
X17877325Y-14061984D02*
X17896373Y-14052460D01*
X17896373Y-14052460D02*
X17905896Y-14033412D01*
X17905896Y-14033412D02*
X17905896Y-14023888D01*
X17905896Y-14023888D02*
X17896373Y-14004841D01*
X17896373Y-14004841D02*
X17877325Y-13995317D01*
X17877325Y-13995317D02*
X17848753Y-13995317D01*
X17848753Y-13995317D02*
X17829706Y-13985793D01*
X17829706Y-13985793D02*
X17820182Y-13966746D01*
X17820182Y-13966746D02*
X17820182Y-13957222D01*
X17820182Y-13957222D02*
X17829706Y-13938174D01*
X17829706Y-13938174D02*
X17848753Y-13928650D01*
X17848753Y-13928650D02*
X17877325Y-13928650D01*
X17877325Y-13928650D02*
X17896373Y-13938174D01*
X17972563Y-14138174D02*
X17982087Y-14128650D01*
X17982087Y-14128650D02*
X18001134Y-14100079D01*
X18001134Y-14100079D02*
X18010658Y-14081031D01*
X18010658Y-14081031D02*
X18020182Y-14052460D01*
X18020182Y-14052460D02*
X18029706Y-14004841D01*
X18029706Y-14004841D02*
X18029706Y-13966746D01*
X18029706Y-13966746D02*
X18020182Y-13919127D01*
X18020182Y-13919127D02*
X18010658Y-13890555D01*
X18010658Y-13890555D02*
X18001134Y-13871508D01*
X18001134Y-13871508D02*
X17982087Y-13842936D01*
X17982087Y-13842936D02*
X17972563Y-13833412D01*
M02*
