%TF.GenerationSoftware,KiCad,Pcbnew,8.0.6*%
%TF.CreationDate,2025-05-19T21:14:28+02:00*%
%TF.ProjectId,szkoleniexd,737a6b6f-6c65-46e6-9965-78642e6b6963,1.0*%
%TF.SameCoordinates,Original*%
%TF.FileFunction,Legend,Bot*%
%TF.FilePolarity,Positive*%
%FSLAX46Y46*%
G04 Gerber Fmt 4.6, Leading zero omitted, Abs format (unit mm)*
G04 Created by KiCad (PCBNEW 8.0.6) date 2025-05-19 21:14:28*
%MOMM*%
%LPD*%
G01*
G04 APERTURE LIST*
%ADD10C,0.300000*%
%ADD11C,0.150000*%
%ADD12C,0.120000*%
G04 APERTURE END LIST*
D10*
X185200000Y-87709901D02*
G75*
G02*
X184200000Y-87709901I-500000J0D01*
G01*
X184200000Y-87709901D02*
G75*
G02*
X185200000Y-87709901I500000J0D01*
G01*
X187300000Y-87709901D02*
G75*
G02*
X186300000Y-87709901I-500000J0D01*
G01*
X186300000Y-87709901D02*
G75*
G02*
X187300000Y-87709901I500000J0D01*
G01*
X188400000Y-88109901D02*
G75*
G02*
X183000000Y-88109901I-2700000J0D01*
G01*
X183000000Y-88109901D02*
G75*
G02*
X188400000Y-88109901I2700000J0D01*
G01*
X185200000Y-89109901D02*
G75*
G02*
X186199998Y-89109901I499999J100000D01*
G01*
D11*
X159166666Y-109454819D02*
X159499999Y-108978628D01*
X159738094Y-109454819D02*
X159738094Y-108454819D01*
X159738094Y-108454819D02*
X159357142Y-108454819D01*
X159357142Y-108454819D02*
X159261904Y-108502438D01*
X159261904Y-108502438D02*
X159214285Y-108550057D01*
X159214285Y-108550057D02*
X159166666Y-108645295D01*
X159166666Y-108645295D02*
X159166666Y-108788152D01*
X159166666Y-108788152D02*
X159214285Y-108883390D01*
X159214285Y-108883390D02*
X159261904Y-108931009D01*
X159261904Y-108931009D02*
X159357142Y-108978628D01*
X159357142Y-108978628D02*
X159738094Y-108978628D01*
X158785713Y-108550057D02*
X158738094Y-108502438D01*
X158738094Y-108502438D02*
X158642856Y-108454819D01*
X158642856Y-108454819D02*
X158404761Y-108454819D01*
X158404761Y-108454819D02*
X158309523Y-108502438D01*
X158309523Y-108502438D02*
X158261904Y-108550057D01*
X158261904Y-108550057D02*
X158214285Y-108645295D01*
X158214285Y-108645295D02*
X158214285Y-108740533D01*
X158214285Y-108740533D02*
X158261904Y-108883390D01*
X158261904Y-108883390D02*
X158833332Y-109454819D01*
X158833332Y-109454819D02*
X158214285Y-109454819D01*
X147166666Y-83054819D02*
X147499999Y-82578628D01*
X147738094Y-83054819D02*
X147738094Y-82054819D01*
X147738094Y-82054819D02*
X147357142Y-82054819D01*
X147357142Y-82054819D02*
X147261904Y-82102438D01*
X147261904Y-82102438D02*
X147214285Y-82150057D01*
X147214285Y-82150057D02*
X147166666Y-82245295D01*
X147166666Y-82245295D02*
X147166666Y-82388152D01*
X147166666Y-82388152D02*
X147214285Y-82483390D01*
X147214285Y-82483390D02*
X147261904Y-82531009D01*
X147261904Y-82531009D02*
X147357142Y-82578628D01*
X147357142Y-82578628D02*
X147738094Y-82578628D01*
X146833332Y-82054819D02*
X146214285Y-82054819D01*
X146214285Y-82054819D02*
X146547618Y-82435771D01*
X146547618Y-82435771D02*
X146404761Y-82435771D01*
X146404761Y-82435771D02*
X146309523Y-82483390D01*
X146309523Y-82483390D02*
X146261904Y-82531009D01*
X146261904Y-82531009D02*
X146214285Y-82626247D01*
X146214285Y-82626247D02*
X146214285Y-82864342D01*
X146214285Y-82864342D02*
X146261904Y-82959580D01*
X146261904Y-82959580D02*
X146309523Y-83007200D01*
X146309523Y-83007200D02*
X146404761Y-83054819D01*
X146404761Y-83054819D02*
X146690475Y-83054819D01*
X146690475Y-83054819D02*
X146785713Y-83007200D01*
X146785713Y-83007200D02*
X146833332Y-82959580D01*
X182359580Y-122233333D02*
X182407200Y-122185714D01*
X182407200Y-122185714D02*
X182454819Y-122042857D01*
X182454819Y-122042857D02*
X182454819Y-121947619D01*
X182454819Y-121947619D02*
X182407200Y-121804762D01*
X182407200Y-121804762D02*
X182311961Y-121709524D01*
X182311961Y-121709524D02*
X182216723Y-121661905D01*
X182216723Y-121661905D02*
X182026247Y-121614286D01*
X182026247Y-121614286D02*
X181883390Y-121614286D01*
X181883390Y-121614286D02*
X181692914Y-121661905D01*
X181692914Y-121661905D02*
X181597676Y-121709524D01*
X181597676Y-121709524D02*
X181502438Y-121804762D01*
X181502438Y-121804762D02*
X181454819Y-121947619D01*
X181454819Y-121947619D02*
X181454819Y-122042857D01*
X181454819Y-122042857D02*
X181502438Y-122185714D01*
X181502438Y-122185714D02*
X181550057Y-122233333D01*
X181454819Y-123090476D02*
X181454819Y-122900000D01*
X181454819Y-122900000D02*
X181502438Y-122804762D01*
X181502438Y-122804762D02*
X181550057Y-122757143D01*
X181550057Y-122757143D02*
X181692914Y-122661905D01*
X181692914Y-122661905D02*
X181883390Y-122614286D01*
X181883390Y-122614286D02*
X182264342Y-122614286D01*
X182264342Y-122614286D02*
X182359580Y-122661905D01*
X182359580Y-122661905D02*
X182407200Y-122709524D01*
X182407200Y-122709524D02*
X182454819Y-122804762D01*
X182454819Y-122804762D02*
X182454819Y-122995238D01*
X182454819Y-122995238D02*
X182407200Y-123090476D01*
X182407200Y-123090476D02*
X182359580Y-123138095D01*
X182359580Y-123138095D02*
X182264342Y-123185714D01*
X182264342Y-123185714D02*
X182026247Y-123185714D01*
X182026247Y-123185714D02*
X181931009Y-123138095D01*
X181931009Y-123138095D02*
X181883390Y-123090476D01*
X181883390Y-123090476D02*
X181835771Y-122995238D01*
X181835771Y-122995238D02*
X181835771Y-122804762D01*
X181835771Y-122804762D02*
X181883390Y-122709524D01*
X181883390Y-122709524D02*
X181931009Y-122661905D01*
X181931009Y-122661905D02*
X182026247Y-122614286D01*
X165442857Y-123359580D02*
X165490476Y-123407200D01*
X165490476Y-123407200D02*
X165633333Y-123454819D01*
X165633333Y-123454819D02*
X165728571Y-123454819D01*
X165728571Y-123454819D02*
X165871428Y-123407200D01*
X165871428Y-123407200D02*
X165966666Y-123311961D01*
X165966666Y-123311961D02*
X166014285Y-123216723D01*
X166014285Y-123216723D02*
X166061904Y-123026247D01*
X166061904Y-123026247D02*
X166061904Y-122883390D01*
X166061904Y-122883390D02*
X166014285Y-122692914D01*
X166014285Y-122692914D02*
X165966666Y-122597676D01*
X165966666Y-122597676D02*
X165871428Y-122502438D01*
X165871428Y-122502438D02*
X165728571Y-122454819D01*
X165728571Y-122454819D02*
X165633333Y-122454819D01*
X165633333Y-122454819D02*
X165490476Y-122502438D01*
X165490476Y-122502438D02*
X165442857Y-122550057D01*
X164490476Y-123454819D02*
X165061904Y-123454819D01*
X164776190Y-123454819D02*
X164776190Y-122454819D01*
X164776190Y-122454819D02*
X164871428Y-122597676D01*
X164871428Y-122597676D02*
X164966666Y-122692914D01*
X164966666Y-122692914D02*
X165061904Y-122740533D01*
X164109523Y-122550057D02*
X164061904Y-122502438D01*
X164061904Y-122502438D02*
X163966666Y-122454819D01*
X163966666Y-122454819D02*
X163728571Y-122454819D01*
X163728571Y-122454819D02*
X163633333Y-122502438D01*
X163633333Y-122502438D02*
X163585714Y-122550057D01*
X163585714Y-122550057D02*
X163538095Y-122645295D01*
X163538095Y-122645295D02*
X163538095Y-122740533D01*
X163538095Y-122740533D02*
X163585714Y-122883390D01*
X163585714Y-122883390D02*
X164157142Y-123454819D01*
X164157142Y-123454819D02*
X163538095Y-123454819D01*
X174359580Y-122233333D02*
X174407200Y-122185714D01*
X174407200Y-122185714D02*
X174454819Y-122042857D01*
X174454819Y-122042857D02*
X174454819Y-121947619D01*
X174454819Y-121947619D02*
X174407200Y-121804762D01*
X174407200Y-121804762D02*
X174311961Y-121709524D01*
X174311961Y-121709524D02*
X174216723Y-121661905D01*
X174216723Y-121661905D02*
X174026247Y-121614286D01*
X174026247Y-121614286D02*
X173883390Y-121614286D01*
X173883390Y-121614286D02*
X173692914Y-121661905D01*
X173692914Y-121661905D02*
X173597676Y-121709524D01*
X173597676Y-121709524D02*
X173502438Y-121804762D01*
X173502438Y-121804762D02*
X173454819Y-121947619D01*
X173454819Y-121947619D02*
X173454819Y-122042857D01*
X173454819Y-122042857D02*
X173502438Y-122185714D01*
X173502438Y-122185714D02*
X173550057Y-122233333D01*
X173454819Y-123138095D02*
X173454819Y-122661905D01*
X173454819Y-122661905D02*
X173931009Y-122614286D01*
X173931009Y-122614286D02*
X173883390Y-122661905D01*
X173883390Y-122661905D02*
X173835771Y-122757143D01*
X173835771Y-122757143D02*
X173835771Y-122995238D01*
X173835771Y-122995238D02*
X173883390Y-123090476D01*
X173883390Y-123090476D02*
X173931009Y-123138095D01*
X173931009Y-123138095D02*
X174026247Y-123185714D01*
X174026247Y-123185714D02*
X174264342Y-123185714D01*
X174264342Y-123185714D02*
X174359580Y-123138095D01*
X174359580Y-123138095D02*
X174407200Y-123090476D01*
X174407200Y-123090476D02*
X174454819Y-122995238D01*
X174454819Y-122995238D02*
X174454819Y-122757143D01*
X174454819Y-122757143D02*
X174407200Y-122661905D01*
X174407200Y-122661905D02*
X174359580Y-122614286D01*
X169157738Y-113250057D02*
X169252976Y-113202438D01*
X169252976Y-113202438D02*
X169348214Y-113107200D01*
X169348214Y-113107200D02*
X169491071Y-112964342D01*
X169491071Y-112964342D02*
X169586309Y-112916723D01*
X169586309Y-112916723D02*
X169681547Y-112916723D01*
X169633928Y-113154819D02*
X169729166Y-113107200D01*
X169729166Y-113107200D02*
X169824404Y-113011961D01*
X169824404Y-113011961D02*
X169872023Y-112821485D01*
X169872023Y-112821485D02*
X169872023Y-112488152D01*
X169872023Y-112488152D02*
X169824404Y-112297676D01*
X169824404Y-112297676D02*
X169729166Y-112202438D01*
X169729166Y-112202438D02*
X169633928Y-112154819D01*
X169633928Y-112154819D02*
X169443452Y-112154819D01*
X169443452Y-112154819D02*
X169348214Y-112202438D01*
X169348214Y-112202438D02*
X169252976Y-112297676D01*
X169252976Y-112297676D02*
X169205357Y-112488152D01*
X169205357Y-112488152D02*
X169205357Y-112821485D01*
X169205357Y-112821485D02*
X169252976Y-113011961D01*
X169252976Y-113011961D02*
X169348214Y-113107200D01*
X169348214Y-113107200D02*
X169443452Y-113154819D01*
X169443452Y-113154819D02*
X169633928Y-113154819D01*
X168872023Y-112154819D02*
X168252976Y-112154819D01*
X168252976Y-112154819D02*
X168586309Y-112535771D01*
X168586309Y-112535771D02*
X168443452Y-112535771D01*
X168443452Y-112535771D02*
X168348214Y-112583390D01*
X168348214Y-112583390D02*
X168300595Y-112631009D01*
X168300595Y-112631009D02*
X168252976Y-112726247D01*
X168252976Y-112726247D02*
X168252976Y-112964342D01*
X168252976Y-112964342D02*
X168300595Y-113059580D01*
X168300595Y-113059580D02*
X168348214Y-113107200D01*
X168348214Y-113107200D02*
X168443452Y-113154819D01*
X168443452Y-113154819D02*
X168729166Y-113154819D01*
X168729166Y-113154819D02*
X168824404Y-113107200D01*
X168824404Y-113107200D02*
X168872023Y-113059580D01*
X172032738Y-100150057D02*
X172127976Y-100102438D01*
X172127976Y-100102438D02*
X172223214Y-100007200D01*
X172223214Y-100007200D02*
X172366071Y-99864342D01*
X172366071Y-99864342D02*
X172461309Y-99816723D01*
X172461309Y-99816723D02*
X172556547Y-99816723D01*
X172508928Y-100054819D02*
X172604166Y-100007200D01*
X172604166Y-100007200D02*
X172699404Y-99911961D01*
X172699404Y-99911961D02*
X172747023Y-99721485D01*
X172747023Y-99721485D02*
X172747023Y-99388152D01*
X172747023Y-99388152D02*
X172699404Y-99197676D01*
X172699404Y-99197676D02*
X172604166Y-99102438D01*
X172604166Y-99102438D02*
X172508928Y-99054819D01*
X172508928Y-99054819D02*
X172318452Y-99054819D01*
X172318452Y-99054819D02*
X172223214Y-99102438D01*
X172223214Y-99102438D02*
X172127976Y-99197676D01*
X172127976Y-99197676D02*
X172080357Y-99388152D01*
X172080357Y-99388152D02*
X172080357Y-99721485D01*
X172080357Y-99721485D02*
X172127976Y-99911961D01*
X172127976Y-99911961D02*
X172223214Y-100007200D01*
X172223214Y-100007200D02*
X172318452Y-100054819D01*
X172318452Y-100054819D02*
X172508928Y-100054819D01*
X171175595Y-99054819D02*
X171651785Y-99054819D01*
X171651785Y-99054819D02*
X171699404Y-99531009D01*
X171699404Y-99531009D02*
X171651785Y-99483390D01*
X171651785Y-99483390D02*
X171556547Y-99435771D01*
X171556547Y-99435771D02*
X171318452Y-99435771D01*
X171318452Y-99435771D02*
X171223214Y-99483390D01*
X171223214Y-99483390D02*
X171175595Y-99531009D01*
X171175595Y-99531009D02*
X171127976Y-99626247D01*
X171127976Y-99626247D02*
X171127976Y-99864342D01*
X171127976Y-99864342D02*
X171175595Y-99959580D01*
X171175595Y-99959580D02*
X171223214Y-100007200D01*
X171223214Y-100007200D02*
X171318452Y-100054819D01*
X171318452Y-100054819D02*
X171556547Y-100054819D01*
X171556547Y-100054819D02*
X171651785Y-100007200D01*
X171651785Y-100007200D02*
X171699404Y-99959580D01*
X162341666Y-87024819D02*
X162674999Y-86548628D01*
X162913094Y-87024819D02*
X162913094Y-86024819D01*
X162913094Y-86024819D02*
X162532142Y-86024819D01*
X162532142Y-86024819D02*
X162436904Y-86072438D01*
X162436904Y-86072438D02*
X162389285Y-86120057D01*
X162389285Y-86120057D02*
X162341666Y-86215295D01*
X162341666Y-86215295D02*
X162341666Y-86358152D01*
X162341666Y-86358152D02*
X162389285Y-86453390D01*
X162389285Y-86453390D02*
X162436904Y-86501009D01*
X162436904Y-86501009D02*
X162532142Y-86548628D01*
X162532142Y-86548628D02*
X162913094Y-86548628D01*
X161865475Y-87024819D02*
X161674999Y-87024819D01*
X161674999Y-87024819D02*
X161579761Y-86977200D01*
X161579761Y-86977200D02*
X161532142Y-86929580D01*
X161532142Y-86929580D02*
X161436904Y-86786723D01*
X161436904Y-86786723D02*
X161389285Y-86596247D01*
X161389285Y-86596247D02*
X161389285Y-86215295D01*
X161389285Y-86215295D02*
X161436904Y-86120057D01*
X161436904Y-86120057D02*
X161484523Y-86072438D01*
X161484523Y-86072438D02*
X161579761Y-86024819D01*
X161579761Y-86024819D02*
X161770237Y-86024819D01*
X161770237Y-86024819D02*
X161865475Y-86072438D01*
X161865475Y-86072438D02*
X161913094Y-86120057D01*
X161913094Y-86120057D02*
X161960713Y-86215295D01*
X161960713Y-86215295D02*
X161960713Y-86453390D01*
X161960713Y-86453390D02*
X161913094Y-86548628D01*
X161913094Y-86548628D02*
X161865475Y-86596247D01*
X161865475Y-86596247D02*
X161770237Y-86643866D01*
X161770237Y-86643866D02*
X161579761Y-86643866D01*
X161579761Y-86643866D02*
X161484523Y-86596247D01*
X161484523Y-86596247D02*
X161436904Y-86548628D01*
X161436904Y-86548628D02*
X161389285Y-86453390D01*
X179863094Y-106054819D02*
X179863094Y-105054819D01*
X179863094Y-105054819D02*
X179624999Y-105054819D01*
X179624999Y-105054819D02*
X179482142Y-105102438D01*
X179482142Y-105102438D02*
X179386904Y-105197676D01*
X179386904Y-105197676D02*
X179339285Y-105292914D01*
X179339285Y-105292914D02*
X179291666Y-105483390D01*
X179291666Y-105483390D02*
X179291666Y-105626247D01*
X179291666Y-105626247D02*
X179339285Y-105816723D01*
X179339285Y-105816723D02*
X179386904Y-105911961D01*
X179386904Y-105911961D02*
X179482142Y-106007200D01*
X179482142Y-106007200D02*
X179624999Y-106054819D01*
X179624999Y-106054819D02*
X179863094Y-106054819D01*
X178434523Y-105388152D02*
X178434523Y-106054819D01*
X178672618Y-105007200D02*
X178910713Y-105721485D01*
X178910713Y-105721485D02*
X178291666Y-105721485D01*
X180817857Y-115024819D02*
X181151190Y-114548628D01*
X181389285Y-115024819D02*
X181389285Y-114024819D01*
X181389285Y-114024819D02*
X181008333Y-114024819D01*
X181008333Y-114024819D02*
X180913095Y-114072438D01*
X180913095Y-114072438D02*
X180865476Y-114120057D01*
X180865476Y-114120057D02*
X180817857Y-114215295D01*
X180817857Y-114215295D02*
X180817857Y-114358152D01*
X180817857Y-114358152D02*
X180865476Y-114453390D01*
X180865476Y-114453390D02*
X180913095Y-114501009D01*
X180913095Y-114501009D02*
X181008333Y-114548628D01*
X181008333Y-114548628D02*
X181389285Y-114548628D01*
X179865476Y-115024819D02*
X180436904Y-115024819D01*
X180151190Y-115024819D02*
X180151190Y-114024819D01*
X180151190Y-114024819D02*
X180246428Y-114167676D01*
X180246428Y-114167676D02*
X180341666Y-114262914D01*
X180341666Y-114262914D02*
X180436904Y-114310533D01*
X179246428Y-114024819D02*
X179151190Y-114024819D01*
X179151190Y-114024819D02*
X179055952Y-114072438D01*
X179055952Y-114072438D02*
X179008333Y-114120057D01*
X179008333Y-114120057D02*
X178960714Y-114215295D01*
X178960714Y-114215295D02*
X178913095Y-114405771D01*
X178913095Y-114405771D02*
X178913095Y-114643866D01*
X178913095Y-114643866D02*
X178960714Y-114834342D01*
X178960714Y-114834342D02*
X179008333Y-114929580D01*
X179008333Y-114929580D02*
X179055952Y-114977200D01*
X179055952Y-114977200D02*
X179151190Y-115024819D01*
X179151190Y-115024819D02*
X179246428Y-115024819D01*
X179246428Y-115024819D02*
X179341666Y-114977200D01*
X179341666Y-114977200D02*
X179389285Y-114929580D01*
X179389285Y-114929580D02*
X179436904Y-114834342D01*
X179436904Y-114834342D02*
X179484523Y-114643866D01*
X179484523Y-114643866D02*
X179484523Y-114405771D01*
X179484523Y-114405771D02*
X179436904Y-114215295D01*
X179436904Y-114215295D02*
X179389285Y-114120057D01*
X179389285Y-114120057D02*
X179341666Y-114072438D01*
X179341666Y-114072438D02*
X179246428Y-114024819D01*
X171863094Y-96054819D02*
X171863094Y-95054819D01*
X171863094Y-95054819D02*
X171624999Y-95054819D01*
X171624999Y-95054819D02*
X171482142Y-95102438D01*
X171482142Y-95102438D02*
X171386904Y-95197676D01*
X171386904Y-95197676D02*
X171339285Y-95292914D01*
X171339285Y-95292914D02*
X171291666Y-95483390D01*
X171291666Y-95483390D02*
X171291666Y-95626247D01*
X171291666Y-95626247D02*
X171339285Y-95816723D01*
X171339285Y-95816723D02*
X171386904Y-95911961D01*
X171386904Y-95911961D02*
X171482142Y-96007200D01*
X171482142Y-96007200D02*
X171624999Y-96054819D01*
X171624999Y-96054819D02*
X171863094Y-96054819D01*
X170910713Y-95150057D02*
X170863094Y-95102438D01*
X170863094Y-95102438D02*
X170767856Y-95054819D01*
X170767856Y-95054819D02*
X170529761Y-95054819D01*
X170529761Y-95054819D02*
X170434523Y-95102438D01*
X170434523Y-95102438D02*
X170386904Y-95150057D01*
X170386904Y-95150057D02*
X170339285Y-95245295D01*
X170339285Y-95245295D02*
X170339285Y-95340533D01*
X170339285Y-95340533D02*
X170386904Y-95483390D01*
X170386904Y-95483390D02*
X170958332Y-96054819D01*
X170958332Y-96054819D02*
X170339285Y-96054819D01*
X152454819Y-100433333D02*
X151978628Y-100100000D01*
X152454819Y-99861905D02*
X151454819Y-99861905D01*
X151454819Y-99861905D02*
X151454819Y-100242857D01*
X151454819Y-100242857D02*
X151502438Y-100338095D01*
X151502438Y-100338095D02*
X151550057Y-100385714D01*
X151550057Y-100385714D02*
X151645295Y-100433333D01*
X151645295Y-100433333D02*
X151788152Y-100433333D01*
X151788152Y-100433333D02*
X151883390Y-100385714D01*
X151883390Y-100385714D02*
X151931009Y-100338095D01*
X151931009Y-100338095D02*
X151978628Y-100242857D01*
X151978628Y-100242857D02*
X151978628Y-99861905D01*
X151454819Y-101290476D02*
X151454819Y-101100000D01*
X151454819Y-101100000D02*
X151502438Y-101004762D01*
X151502438Y-101004762D02*
X151550057Y-100957143D01*
X151550057Y-100957143D02*
X151692914Y-100861905D01*
X151692914Y-100861905D02*
X151883390Y-100814286D01*
X151883390Y-100814286D02*
X152264342Y-100814286D01*
X152264342Y-100814286D02*
X152359580Y-100861905D01*
X152359580Y-100861905D02*
X152407200Y-100909524D01*
X152407200Y-100909524D02*
X152454819Y-101004762D01*
X152454819Y-101004762D02*
X152454819Y-101195238D01*
X152454819Y-101195238D02*
X152407200Y-101290476D01*
X152407200Y-101290476D02*
X152359580Y-101338095D01*
X152359580Y-101338095D02*
X152264342Y-101385714D01*
X152264342Y-101385714D02*
X152026247Y-101385714D01*
X152026247Y-101385714D02*
X151931009Y-101338095D01*
X151931009Y-101338095D02*
X151883390Y-101290476D01*
X151883390Y-101290476D02*
X151835771Y-101195238D01*
X151835771Y-101195238D02*
X151835771Y-101004762D01*
X151835771Y-101004762D02*
X151883390Y-100909524D01*
X151883390Y-100909524D02*
X151931009Y-100861905D01*
X151931009Y-100861905D02*
X152026247Y-100814286D01*
X176442857Y-96054819D02*
X176776190Y-95578628D01*
X177014285Y-96054819D02*
X177014285Y-95054819D01*
X177014285Y-95054819D02*
X176633333Y-95054819D01*
X176633333Y-95054819D02*
X176538095Y-95102438D01*
X176538095Y-95102438D02*
X176490476Y-95150057D01*
X176490476Y-95150057D02*
X176442857Y-95245295D01*
X176442857Y-95245295D02*
X176442857Y-95388152D01*
X176442857Y-95388152D02*
X176490476Y-95483390D01*
X176490476Y-95483390D02*
X176538095Y-95531009D01*
X176538095Y-95531009D02*
X176633333Y-95578628D01*
X176633333Y-95578628D02*
X177014285Y-95578628D01*
X175490476Y-96054819D02*
X176061904Y-96054819D01*
X175776190Y-96054819D02*
X175776190Y-95054819D01*
X175776190Y-95054819D02*
X175871428Y-95197676D01*
X175871428Y-95197676D02*
X175966666Y-95292914D01*
X175966666Y-95292914D02*
X176061904Y-95340533D01*
X174633333Y-95388152D02*
X174633333Y-96054819D01*
X174871428Y-95007200D02*
X175109523Y-95721485D01*
X175109523Y-95721485D02*
X174490476Y-95721485D01*
X175817857Y-110054819D02*
X176151190Y-109578628D01*
X176389285Y-110054819D02*
X176389285Y-109054819D01*
X176389285Y-109054819D02*
X176008333Y-109054819D01*
X176008333Y-109054819D02*
X175913095Y-109102438D01*
X175913095Y-109102438D02*
X175865476Y-109150057D01*
X175865476Y-109150057D02*
X175817857Y-109245295D01*
X175817857Y-109245295D02*
X175817857Y-109388152D01*
X175817857Y-109388152D02*
X175865476Y-109483390D01*
X175865476Y-109483390D02*
X175913095Y-109531009D01*
X175913095Y-109531009D02*
X176008333Y-109578628D01*
X176008333Y-109578628D02*
X176389285Y-109578628D01*
X174865476Y-110054819D02*
X175436904Y-110054819D01*
X175151190Y-110054819D02*
X175151190Y-109054819D01*
X175151190Y-109054819D02*
X175246428Y-109197676D01*
X175246428Y-109197676D02*
X175341666Y-109292914D01*
X175341666Y-109292914D02*
X175436904Y-109340533D01*
X174532142Y-109054819D02*
X173913095Y-109054819D01*
X173913095Y-109054819D02*
X174246428Y-109435771D01*
X174246428Y-109435771D02*
X174103571Y-109435771D01*
X174103571Y-109435771D02*
X174008333Y-109483390D01*
X174008333Y-109483390D02*
X173960714Y-109531009D01*
X173960714Y-109531009D02*
X173913095Y-109626247D01*
X173913095Y-109626247D02*
X173913095Y-109864342D01*
X173913095Y-109864342D02*
X173960714Y-109959580D01*
X173960714Y-109959580D02*
X174008333Y-110007200D01*
X174008333Y-110007200D02*
X174103571Y-110054819D01*
X174103571Y-110054819D02*
X174389285Y-110054819D01*
X174389285Y-110054819D02*
X174484523Y-110007200D01*
X174484523Y-110007200D02*
X174532142Y-109959580D01*
X176156857Y-118254819D02*
X176490190Y-117778628D01*
X176728285Y-118254819D02*
X176728285Y-117254819D01*
X176728285Y-117254819D02*
X176347333Y-117254819D01*
X176347333Y-117254819D02*
X176252095Y-117302438D01*
X176252095Y-117302438D02*
X176204476Y-117350057D01*
X176204476Y-117350057D02*
X176156857Y-117445295D01*
X176156857Y-117445295D02*
X176156857Y-117588152D01*
X176156857Y-117588152D02*
X176204476Y-117683390D01*
X176204476Y-117683390D02*
X176252095Y-117731009D01*
X176252095Y-117731009D02*
X176347333Y-117778628D01*
X176347333Y-117778628D02*
X176728285Y-117778628D01*
X175204476Y-118254819D02*
X175775904Y-118254819D01*
X175490190Y-118254819D02*
X175490190Y-117254819D01*
X175490190Y-117254819D02*
X175585428Y-117397676D01*
X175585428Y-117397676D02*
X175680666Y-117492914D01*
X175680666Y-117492914D02*
X175775904Y-117540533D01*
X174252095Y-118254819D02*
X174823523Y-118254819D01*
X174537809Y-118254819D02*
X174537809Y-117254819D01*
X174537809Y-117254819D02*
X174633047Y-117397676D01*
X174633047Y-117397676D02*
X174728285Y-117492914D01*
X174728285Y-117492914D02*
X174823523Y-117540533D01*
X147354819Y-88763095D02*
X148164342Y-88763095D01*
X148164342Y-88763095D02*
X148259580Y-88810714D01*
X148259580Y-88810714D02*
X148307200Y-88858333D01*
X148307200Y-88858333D02*
X148354819Y-88953571D01*
X148354819Y-88953571D02*
X148354819Y-89144047D01*
X148354819Y-89144047D02*
X148307200Y-89239285D01*
X148307200Y-89239285D02*
X148259580Y-89286904D01*
X148259580Y-89286904D02*
X148164342Y-89334523D01*
X148164342Y-89334523D02*
X147354819Y-89334523D01*
X148354819Y-90334523D02*
X148354819Y-89763095D01*
X148354819Y-90048809D02*
X147354819Y-90048809D01*
X147354819Y-90048809D02*
X147497676Y-89953571D01*
X147497676Y-89953571D02*
X147592914Y-89858333D01*
X147592914Y-89858333D02*
X147640533Y-89763095D01*
X184024819Y-103357142D02*
X183548628Y-103023809D01*
X184024819Y-102785714D02*
X183024819Y-102785714D01*
X183024819Y-102785714D02*
X183024819Y-103166666D01*
X183024819Y-103166666D02*
X183072438Y-103261904D01*
X183072438Y-103261904D02*
X183120057Y-103309523D01*
X183120057Y-103309523D02*
X183215295Y-103357142D01*
X183215295Y-103357142D02*
X183358152Y-103357142D01*
X183358152Y-103357142D02*
X183453390Y-103309523D01*
X183453390Y-103309523D02*
X183501009Y-103261904D01*
X183501009Y-103261904D02*
X183548628Y-103166666D01*
X183548628Y-103166666D02*
X183548628Y-102785714D01*
X184024819Y-104309523D02*
X184024819Y-103738095D01*
X184024819Y-104023809D02*
X183024819Y-104023809D01*
X183024819Y-104023809D02*
X183167676Y-103928571D01*
X183167676Y-103928571D02*
X183262914Y-103833333D01*
X183262914Y-103833333D02*
X183310533Y-103738095D01*
X183024819Y-105214285D02*
X183024819Y-104738095D01*
X183024819Y-104738095D02*
X183501009Y-104690476D01*
X183501009Y-104690476D02*
X183453390Y-104738095D01*
X183453390Y-104738095D02*
X183405771Y-104833333D01*
X183405771Y-104833333D02*
X183405771Y-105071428D01*
X183405771Y-105071428D02*
X183453390Y-105166666D01*
X183453390Y-105166666D02*
X183501009Y-105214285D01*
X183501009Y-105214285D02*
X183596247Y-105261904D01*
X183596247Y-105261904D02*
X183834342Y-105261904D01*
X183834342Y-105261904D02*
X183929580Y-105214285D01*
X183929580Y-105214285D02*
X183977200Y-105166666D01*
X183977200Y-105166666D02*
X184024819Y-105071428D01*
X184024819Y-105071428D02*
X184024819Y-104833333D01*
X184024819Y-104833333D02*
X183977200Y-104738095D01*
X183977200Y-104738095D02*
X183929580Y-104690476D01*
X170359580Y-122233333D02*
X170407200Y-122185714D01*
X170407200Y-122185714D02*
X170454819Y-122042857D01*
X170454819Y-122042857D02*
X170454819Y-121947619D01*
X170454819Y-121947619D02*
X170407200Y-121804762D01*
X170407200Y-121804762D02*
X170311961Y-121709524D01*
X170311961Y-121709524D02*
X170216723Y-121661905D01*
X170216723Y-121661905D02*
X170026247Y-121614286D01*
X170026247Y-121614286D02*
X169883390Y-121614286D01*
X169883390Y-121614286D02*
X169692914Y-121661905D01*
X169692914Y-121661905D02*
X169597676Y-121709524D01*
X169597676Y-121709524D02*
X169502438Y-121804762D01*
X169502438Y-121804762D02*
X169454819Y-121947619D01*
X169454819Y-121947619D02*
X169454819Y-122042857D01*
X169454819Y-122042857D02*
X169502438Y-122185714D01*
X169502438Y-122185714D02*
X169550057Y-122233333D01*
X169883390Y-122804762D02*
X169835771Y-122709524D01*
X169835771Y-122709524D02*
X169788152Y-122661905D01*
X169788152Y-122661905D02*
X169692914Y-122614286D01*
X169692914Y-122614286D02*
X169645295Y-122614286D01*
X169645295Y-122614286D02*
X169550057Y-122661905D01*
X169550057Y-122661905D02*
X169502438Y-122709524D01*
X169502438Y-122709524D02*
X169454819Y-122804762D01*
X169454819Y-122804762D02*
X169454819Y-122995238D01*
X169454819Y-122995238D02*
X169502438Y-123090476D01*
X169502438Y-123090476D02*
X169550057Y-123138095D01*
X169550057Y-123138095D02*
X169645295Y-123185714D01*
X169645295Y-123185714D02*
X169692914Y-123185714D01*
X169692914Y-123185714D02*
X169788152Y-123138095D01*
X169788152Y-123138095D02*
X169835771Y-123090476D01*
X169835771Y-123090476D02*
X169883390Y-122995238D01*
X169883390Y-122995238D02*
X169883390Y-122804762D01*
X169883390Y-122804762D02*
X169931009Y-122709524D01*
X169931009Y-122709524D02*
X169978628Y-122661905D01*
X169978628Y-122661905D02*
X170073866Y-122614286D01*
X170073866Y-122614286D02*
X170264342Y-122614286D01*
X170264342Y-122614286D02*
X170359580Y-122661905D01*
X170359580Y-122661905D02*
X170407200Y-122709524D01*
X170407200Y-122709524D02*
X170454819Y-122804762D01*
X170454819Y-122804762D02*
X170454819Y-122995238D01*
X170454819Y-122995238D02*
X170407200Y-123090476D01*
X170407200Y-123090476D02*
X170359580Y-123138095D01*
X170359580Y-123138095D02*
X170264342Y-123185714D01*
X170264342Y-123185714D02*
X170073866Y-123185714D01*
X170073866Y-123185714D02*
X169978628Y-123138095D01*
X169978628Y-123138095D02*
X169931009Y-123090476D01*
X169931009Y-123090476D02*
X169883390Y-122995238D01*
X168842857Y-108854819D02*
X169176190Y-108378628D01*
X169414285Y-108854819D02*
X169414285Y-107854819D01*
X169414285Y-107854819D02*
X169033333Y-107854819D01*
X169033333Y-107854819D02*
X168938095Y-107902438D01*
X168938095Y-107902438D02*
X168890476Y-107950057D01*
X168890476Y-107950057D02*
X168842857Y-108045295D01*
X168842857Y-108045295D02*
X168842857Y-108188152D01*
X168842857Y-108188152D02*
X168890476Y-108283390D01*
X168890476Y-108283390D02*
X168938095Y-108331009D01*
X168938095Y-108331009D02*
X169033333Y-108378628D01*
X169033333Y-108378628D02*
X169414285Y-108378628D01*
X167890476Y-108854819D02*
X168461904Y-108854819D01*
X168176190Y-108854819D02*
X168176190Y-107854819D01*
X168176190Y-107854819D02*
X168271428Y-107997676D01*
X168271428Y-107997676D02*
X168366666Y-108092914D01*
X168366666Y-108092914D02*
X168461904Y-108140533D01*
X167509523Y-107950057D02*
X167461904Y-107902438D01*
X167461904Y-107902438D02*
X167366666Y-107854819D01*
X167366666Y-107854819D02*
X167128571Y-107854819D01*
X167128571Y-107854819D02*
X167033333Y-107902438D01*
X167033333Y-107902438D02*
X166985714Y-107950057D01*
X166985714Y-107950057D02*
X166938095Y-108045295D01*
X166938095Y-108045295D02*
X166938095Y-108140533D01*
X166938095Y-108140533D02*
X166985714Y-108283390D01*
X166985714Y-108283390D02*
X167557142Y-108854819D01*
X167557142Y-108854819D02*
X166938095Y-108854819D01*
X172863094Y-106054819D02*
X172863094Y-105054819D01*
X172863094Y-105054819D02*
X172624999Y-105054819D01*
X172624999Y-105054819D02*
X172482142Y-105102438D01*
X172482142Y-105102438D02*
X172386904Y-105197676D01*
X172386904Y-105197676D02*
X172339285Y-105292914D01*
X172339285Y-105292914D02*
X172291666Y-105483390D01*
X172291666Y-105483390D02*
X172291666Y-105626247D01*
X172291666Y-105626247D02*
X172339285Y-105816723D01*
X172339285Y-105816723D02*
X172386904Y-105911961D01*
X172386904Y-105911961D02*
X172482142Y-106007200D01*
X172482142Y-106007200D02*
X172624999Y-106054819D01*
X172624999Y-106054819D02*
X172863094Y-106054819D01*
X171958332Y-105054819D02*
X171339285Y-105054819D01*
X171339285Y-105054819D02*
X171672618Y-105435771D01*
X171672618Y-105435771D02*
X171529761Y-105435771D01*
X171529761Y-105435771D02*
X171434523Y-105483390D01*
X171434523Y-105483390D02*
X171386904Y-105531009D01*
X171386904Y-105531009D02*
X171339285Y-105626247D01*
X171339285Y-105626247D02*
X171339285Y-105864342D01*
X171339285Y-105864342D02*
X171386904Y-105959580D01*
X171386904Y-105959580D02*
X171434523Y-106007200D01*
X171434523Y-106007200D02*
X171529761Y-106054819D01*
X171529761Y-106054819D02*
X171815475Y-106054819D01*
X171815475Y-106054819D02*
X171910713Y-106007200D01*
X171910713Y-106007200D02*
X171958332Y-105959580D01*
X178359580Y-122233333D02*
X178407200Y-122185714D01*
X178407200Y-122185714D02*
X178454819Y-122042857D01*
X178454819Y-122042857D02*
X178454819Y-121947619D01*
X178454819Y-121947619D02*
X178407200Y-121804762D01*
X178407200Y-121804762D02*
X178311961Y-121709524D01*
X178311961Y-121709524D02*
X178216723Y-121661905D01*
X178216723Y-121661905D02*
X178026247Y-121614286D01*
X178026247Y-121614286D02*
X177883390Y-121614286D01*
X177883390Y-121614286D02*
X177692914Y-121661905D01*
X177692914Y-121661905D02*
X177597676Y-121709524D01*
X177597676Y-121709524D02*
X177502438Y-121804762D01*
X177502438Y-121804762D02*
X177454819Y-121947619D01*
X177454819Y-121947619D02*
X177454819Y-122042857D01*
X177454819Y-122042857D02*
X177502438Y-122185714D01*
X177502438Y-122185714D02*
X177550057Y-122233333D01*
X177788152Y-123090476D02*
X178454819Y-123090476D01*
X177407200Y-122852381D02*
X178121485Y-122614286D01*
X178121485Y-122614286D02*
X178121485Y-123233333D01*
X149366666Y-96654819D02*
X149699999Y-96178628D01*
X149938094Y-96654819D02*
X149938094Y-95654819D01*
X149938094Y-95654819D02*
X149557142Y-95654819D01*
X149557142Y-95654819D02*
X149461904Y-95702438D01*
X149461904Y-95702438D02*
X149414285Y-95750057D01*
X149414285Y-95750057D02*
X149366666Y-95845295D01*
X149366666Y-95845295D02*
X149366666Y-95988152D01*
X149366666Y-95988152D02*
X149414285Y-96083390D01*
X149414285Y-96083390D02*
X149461904Y-96131009D01*
X149461904Y-96131009D02*
X149557142Y-96178628D01*
X149557142Y-96178628D02*
X149938094Y-96178628D01*
X149033332Y-95654819D02*
X148366666Y-95654819D01*
X148366666Y-95654819D02*
X148795237Y-96654819D01*
X163341666Y-110054819D02*
X163674999Y-109578628D01*
X163913094Y-110054819D02*
X163913094Y-109054819D01*
X163913094Y-109054819D02*
X163532142Y-109054819D01*
X163532142Y-109054819D02*
X163436904Y-109102438D01*
X163436904Y-109102438D02*
X163389285Y-109150057D01*
X163389285Y-109150057D02*
X163341666Y-109245295D01*
X163341666Y-109245295D02*
X163341666Y-109388152D01*
X163341666Y-109388152D02*
X163389285Y-109483390D01*
X163389285Y-109483390D02*
X163436904Y-109531009D01*
X163436904Y-109531009D02*
X163532142Y-109578628D01*
X163532142Y-109578628D02*
X163913094Y-109578628D01*
X162389285Y-110054819D02*
X162960713Y-110054819D01*
X162674999Y-110054819D02*
X162674999Y-109054819D01*
X162674999Y-109054819D02*
X162770237Y-109197676D01*
X162770237Y-109197676D02*
X162865475Y-109292914D01*
X162865475Y-109292914D02*
X162960713Y-109340533D01*
X141174819Y-111238095D02*
X141984342Y-111238095D01*
X141984342Y-111238095D02*
X142079580Y-111285714D01*
X142079580Y-111285714D02*
X142127200Y-111333333D01*
X142127200Y-111333333D02*
X142174819Y-111428571D01*
X142174819Y-111428571D02*
X142174819Y-111619047D01*
X142174819Y-111619047D02*
X142127200Y-111714285D01*
X142127200Y-111714285D02*
X142079580Y-111761904D01*
X142079580Y-111761904D02*
X141984342Y-111809523D01*
X141984342Y-111809523D02*
X141174819Y-111809523D01*
X141270057Y-112238095D02*
X141222438Y-112285714D01*
X141222438Y-112285714D02*
X141174819Y-112380952D01*
X141174819Y-112380952D02*
X141174819Y-112619047D01*
X141174819Y-112619047D02*
X141222438Y-112714285D01*
X141222438Y-112714285D02*
X141270057Y-112761904D01*
X141270057Y-112761904D02*
X141365295Y-112809523D01*
X141365295Y-112809523D02*
X141460533Y-112809523D01*
X141460533Y-112809523D02*
X141603390Y-112761904D01*
X141603390Y-112761904D02*
X142174819Y-112190476D01*
X142174819Y-112190476D02*
X142174819Y-112809523D01*
X155654819Y-100033333D02*
X155178628Y-99700000D01*
X155654819Y-99461905D02*
X154654819Y-99461905D01*
X154654819Y-99461905D02*
X154654819Y-99842857D01*
X154654819Y-99842857D02*
X154702438Y-99938095D01*
X154702438Y-99938095D02*
X154750057Y-99985714D01*
X154750057Y-99985714D02*
X154845295Y-100033333D01*
X154845295Y-100033333D02*
X154988152Y-100033333D01*
X154988152Y-100033333D02*
X155083390Y-99985714D01*
X155083390Y-99985714D02*
X155131009Y-99938095D01*
X155131009Y-99938095D02*
X155178628Y-99842857D01*
X155178628Y-99842857D02*
X155178628Y-99461905D01*
X154654819Y-100938095D02*
X154654819Y-100461905D01*
X154654819Y-100461905D02*
X155131009Y-100414286D01*
X155131009Y-100414286D02*
X155083390Y-100461905D01*
X155083390Y-100461905D02*
X155035771Y-100557143D01*
X155035771Y-100557143D02*
X155035771Y-100795238D01*
X155035771Y-100795238D02*
X155083390Y-100890476D01*
X155083390Y-100890476D02*
X155131009Y-100938095D01*
X155131009Y-100938095D02*
X155226247Y-100985714D01*
X155226247Y-100985714D02*
X155464342Y-100985714D01*
X155464342Y-100985714D02*
X155559580Y-100938095D01*
X155559580Y-100938095D02*
X155607200Y-100890476D01*
X155607200Y-100890476D02*
X155654819Y-100795238D01*
X155654819Y-100795238D02*
X155654819Y-100557143D01*
X155654819Y-100557143D02*
X155607200Y-100461905D01*
X155607200Y-100461905D02*
X155559580Y-100414286D01*
X172359580Y-122233333D02*
X172407200Y-122185714D01*
X172407200Y-122185714D02*
X172454819Y-122042857D01*
X172454819Y-122042857D02*
X172454819Y-121947619D01*
X172454819Y-121947619D02*
X172407200Y-121804762D01*
X172407200Y-121804762D02*
X172311961Y-121709524D01*
X172311961Y-121709524D02*
X172216723Y-121661905D01*
X172216723Y-121661905D02*
X172026247Y-121614286D01*
X172026247Y-121614286D02*
X171883390Y-121614286D01*
X171883390Y-121614286D02*
X171692914Y-121661905D01*
X171692914Y-121661905D02*
X171597676Y-121709524D01*
X171597676Y-121709524D02*
X171502438Y-121804762D01*
X171502438Y-121804762D02*
X171454819Y-121947619D01*
X171454819Y-121947619D02*
X171454819Y-122042857D01*
X171454819Y-122042857D02*
X171502438Y-122185714D01*
X171502438Y-122185714D02*
X171550057Y-122233333D01*
X171454819Y-122566667D02*
X171454819Y-123233333D01*
X171454819Y-123233333D02*
X172454819Y-122804762D01*
X144304166Y-122929580D02*
X144351785Y-122977200D01*
X144351785Y-122977200D02*
X144494642Y-123024819D01*
X144494642Y-123024819D02*
X144589880Y-123024819D01*
X144589880Y-123024819D02*
X144732737Y-122977200D01*
X144732737Y-122977200D02*
X144827975Y-122881961D01*
X144827975Y-122881961D02*
X144875594Y-122786723D01*
X144875594Y-122786723D02*
X144923213Y-122596247D01*
X144923213Y-122596247D02*
X144923213Y-122453390D01*
X144923213Y-122453390D02*
X144875594Y-122262914D01*
X144875594Y-122262914D02*
X144827975Y-122167676D01*
X144827975Y-122167676D02*
X144732737Y-122072438D01*
X144732737Y-122072438D02*
X144589880Y-122024819D01*
X144589880Y-122024819D02*
X144494642Y-122024819D01*
X144494642Y-122024819D02*
X144351785Y-122072438D01*
X144351785Y-122072438D02*
X144304166Y-122120057D01*
X143970832Y-122024819D02*
X143351785Y-122024819D01*
X143351785Y-122024819D02*
X143685118Y-122405771D01*
X143685118Y-122405771D02*
X143542261Y-122405771D01*
X143542261Y-122405771D02*
X143447023Y-122453390D01*
X143447023Y-122453390D02*
X143399404Y-122501009D01*
X143399404Y-122501009D02*
X143351785Y-122596247D01*
X143351785Y-122596247D02*
X143351785Y-122834342D01*
X143351785Y-122834342D02*
X143399404Y-122929580D01*
X143399404Y-122929580D02*
X143447023Y-122977200D01*
X143447023Y-122977200D02*
X143542261Y-123024819D01*
X143542261Y-123024819D02*
X143827975Y-123024819D01*
X143827975Y-123024819D02*
X143923213Y-122977200D01*
X143923213Y-122977200D02*
X143970832Y-122929580D01*
X151304166Y-82929580D02*
X151351785Y-82977200D01*
X151351785Y-82977200D02*
X151494642Y-83024819D01*
X151494642Y-83024819D02*
X151589880Y-83024819D01*
X151589880Y-83024819D02*
X151732737Y-82977200D01*
X151732737Y-82977200D02*
X151827975Y-82881961D01*
X151827975Y-82881961D02*
X151875594Y-82786723D01*
X151875594Y-82786723D02*
X151923213Y-82596247D01*
X151923213Y-82596247D02*
X151923213Y-82453390D01*
X151923213Y-82453390D02*
X151875594Y-82262914D01*
X151875594Y-82262914D02*
X151827975Y-82167676D01*
X151827975Y-82167676D02*
X151732737Y-82072438D01*
X151732737Y-82072438D02*
X151589880Y-82024819D01*
X151589880Y-82024819D02*
X151494642Y-82024819D01*
X151494642Y-82024819D02*
X151351785Y-82072438D01*
X151351785Y-82072438D02*
X151304166Y-82120057D01*
X150923213Y-82120057D02*
X150875594Y-82072438D01*
X150875594Y-82072438D02*
X150780356Y-82024819D01*
X150780356Y-82024819D02*
X150542261Y-82024819D01*
X150542261Y-82024819D02*
X150447023Y-82072438D01*
X150447023Y-82072438D02*
X150399404Y-82120057D01*
X150399404Y-82120057D02*
X150351785Y-82215295D01*
X150351785Y-82215295D02*
X150351785Y-82310533D01*
X150351785Y-82310533D02*
X150399404Y-82453390D01*
X150399404Y-82453390D02*
X150970832Y-83024819D01*
X150970832Y-83024819D02*
X150351785Y-83024819D01*
X139929580Y-119219642D02*
X139977200Y-119172023D01*
X139977200Y-119172023D02*
X140024819Y-119029166D01*
X140024819Y-119029166D02*
X140024819Y-118933928D01*
X140024819Y-118933928D02*
X139977200Y-118791071D01*
X139977200Y-118791071D02*
X139881961Y-118695833D01*
X139881961Y-118695833D02*
X139786723Y-118648214D01*
X139786723Y-118648214D02*
X139596247Y-118600595D01*
X139596247Y-118600595D02*
X139453390Y-118600595D01*
X139453390Y-118600595D02*
X139262914Y-118648214D01*
X139262914Y-118648214D02*
X139167676Y-118695833D01*
X139167676Y-118695833D02*
X139072438Y-118791071D01*
X139072438Y-118791071D02*
X139024819Y-118933928D01*
X139024819Y-118933928D02*
X139024819Y-119029166D01*
X139024819Y-119029166D02*
X139072438Y-119172023D01*
X139072438Y-119172023D02*
X139120057Y-119219642D01*
X140024819Y-120172023D02*
X140024819Y-119600595D01*
X140024819Y-119886309D02*
X139024819Y-119886309D01*
X139024819Y-119886309D02*
X139167676Y-119791071D01*
X139167676Y-119791071D02*
X139262914Y-119695833D01*
X139262914Y-119695833D02*
X139310533Y-119600595D01*
X140024819Y-121124404D02*
X140024819Y-120552976D01*
X140024819Y-120838690D02*
X139024819Y-120838690D01*
X139024819Y-120838690D02*
X139167676Y-120743452D01*
X139167676Y-120743452D02*
X139262914Y-120648214D01*
X139262914Y-120648214D02*
X139310533Y-120552976D01*
X159166666Y-95454819D02*
X159499999Y-94978628D01*
X159738094Y-95454819D02*
X159738094Y-94454819D01*
X159738094Y-94454819D02*
X159357142Y-94454819D01*
X159357142Y-94454819D02*
X159261904Y-94502438D01*
X159261904Y-94502438D02*
X159214285Y-94550057D01*
X159214285Y-94550057D02*
X159166666Y-94645295D01*
X159166666Y-94645295D02*
X159166666Y-94788152D01*
X159166666Y-94788152D02*
X159214285Y-94883390D01*
X159214285Y-94883390D02*
X159261904Y-94931009D01*
X159261904Y-94931009D02*
X159357142Y-94978628D01*
X159357142Y-94978628D02*
X159738094Y-94978628D01*
X158309523Y-94788152D02*
X158309523Y-95454819D01*
X158547618Y-94407200D02*
X158785713Y-95121485D01*
X158785713Y-95121485D02*
X158166666Y-95121485D01*
X160929580Y-91219642D02*
X160977200Y-91172023D01*
X160977200Y-91172023D02*
X161024819Y-91029166D01*
X161024819Y-91029166D02*
X161024819Y-90933928D01*
X161024819Y-90933928D02*
X160977200Y-90791071D01*
X160977200Y-90791071D02*
X160881961Y-90695833D01*
X160881961Y-90695833D02*
X160786723Y-90648214D01*
X160786723Y-90648214D02*
X160596247Y-90600595D01*
X160596247Y-90600595D02*
X160453390Y-90600595D01*
X160453390Y-90600595D02*
X160262914Y-90648214D01*
X160262914Y-90648214D02*
X160167676Y-90695833D01*
X160167676Y-90695833D02*
X160072438Y-90791071D01*
X160072438Y-90791071D02*
X160024819Y-90933928D01*
X160024819Y-90933928D02*
X160024819Y-91029166D01*
X160024819Y-91029166D02*
X160072438Y-91172023D01*
X160072438Y-91172023D02*
X160120057Y-91219642D01*
X161024819Y-92172023D02*
X161024819Y-91600595D01*
X161024819Y-91886309D02*
X160024819Y-91886309D01*
X160024819Y-91886309D02*
X160167676Y-91791071D01*
X160167676Y-91791071D02*
X160262914Y-91695833D01*
X160262914Y-91695833D02*
X160310533Y-91600595D01*
X160024819Y-92791071D02*
X160024819Y-92886309D01*
X160024819Y-92886309D02*
X160072438Y-92981547D01*
X160072438Y-92981547D02*
X160120057Y-93029166D01*
X160120057Y-93029166D02*
X160215295Y-93076785D01*
X160215295Y-93076785D02*
X160405771Y-93124404D01*
X160405771Y-93124404D02*
X160643866Y-93124404D01*
X160643866Y-93124404D02*
X160834342Y-93076785D01*
X160834342Y-93076785D02*
X160929580Y-93029166D01*
X160929580Y-93029166D02*
X160977200Y-92981547D01*
X160977200Y-92981547D02*
X161024819Y-92886309D01*
X161024819Y-92886309D02*
X161024819Y-92791071D01*
X161024819Y-92791071D02*
X160977200Y-92695833D01*
X160977200Y-92695833D02*
X160929580Y-92648214D01*
X160929580Y-92648214D02*
X160834342Y-92600595D01*
X160834342Y-92600595D02*
X160643866Y-92552976D01*
X160643866Y-92552976D02*
X160405771Y-92552976D01*
X160405771Y-92552976D02*
X160215295Y-92600595D01*
X160215295Y-92600595D02*
X160120057Y-92648214D01*
X160120057Y-92648214D02*
X160072438Y-92695833D01*
X160072438Y-92695833D02*
X160024819Y-92791071D01*
X163157738Y-113250057D02*
X163252976Y-113202438D01*
X163252976Y-113202438D02*
X163348214Y-113107200D01*
X163348214Y-113107200D02*
X163491071Y-112964342D01*
X163491071Y-112964342D02*
X163586309Y-112916723D01*
X163586309Y-112916723D02*
X163681547Y-112916723D01*
X163633928Y-113154819D02*
X163729166Y-113107200D01*
X163729166Y-113107200D02*
X163824404Y-113011961D01*
X163824404Y-113011961D02*
X163872023Y-112821485D01*
X163872023Y-112821485D02*
X163872023Y-112488152D01*
X163872023Y-112488152D02*
X163824404Y-112297676D01*
X163824404Y-112297676D02*
X163729166Y-112202438D01*
X163729166Y-112202438D02*
X163633928Y-112154819D01*
X163633928Y-112154819D02*
X163443452Y-112154819D01*
X163443452Y-112154819D02*
X163348214Y-112202438D01*
X163348214Y-112202438D02*
X163252976Y-112297676D01*
X163252976Y-112297676D02*
X163205357Y-112488152D01*
X163205357Y-112488152D02*
X163205357Y-112821485D01*
X163205357Y-112821485D02*
X163252976Y-113011961D01*
X163252976Y-113011961D02*
X163348214Y-113107200D01*
X163348214Y-113107200D02*
X163443452Y-113154819D01*
X163443452Y-113154819D02*
X163633928Y-113154819D01*
X162348214Y-112488152D02*
X162348214Y-113154819D01*
X162586309Y-112107200D02*
X162824404Y-112821485D01*
X162824404Y-112821485D02*
X162205357Y-112821485D01*
X175032738Y-113150057D02*
X175127976Y-113102438D01*
X175127976Y-113102438D02*
X175223214Y-113007200D01*
X175223214Y-113007200D02*
X175366071Y-112864342D01*
X175366071Y-112864342D02*
X175461309Y-112816723D01*
X175461309Y-112816723D02*
X175556547Y-112816723D01*
X175508928Y-113054819D02*
X175604166Y-113007200D01*
X175604166Y-113007200D02*
X175699404Y-112911961D01*
X175699404Y-112911961D02*
X175747023Y-112721485D01*
X175747023Y-112721485D02*
X175747023Y-112388152D01*
X175747023Y-112388152D02*
X175699404Y-112197676D01*
X175699404Y-112197676D02*
X175604166Y-112102438D01*
X175604166Y-112102438D02*
X175508928Y-112054819D01*
X175508928Y-112054819D02*
X175318452Y-112054819D01*
X175318452Y-112054819D02*
X175223214Y-112102438D01*
X175223214Y-112102438D02*
X175127976Y-112197676D01*
X175127976Y-112197676D02*
X175080357Y-112388152D01*
X175080357Y-112388152D02*
X175080357Y-112721485D01*
X175080357Y-112721485D02*
X175127976Y-112911961D01*
X175127976Y-112911961D02*
X175223214Y-113007200D01*
X175223214Y-113007200D02*
X175318452Y-113054819D01*
X175318452Y-113054819D02*
X175508928Y-113054819D01*
X174699404Y-112150057D02*
X174651785Y-112102438D01*
X174651785Y-112102438D02*
X174556547Y-112054819D01*
X174556547Y-112054819D02*
X174318452Y-112054819D01*
X174318452Y-112054819D02*
X174223214Y-112102438D01*
X174223214Y-112102438D02*
X174175595Y-112150057D01*
X174175595Y-112150057D02*
X174127976Y-112245295D01*
X174127976Y-112245295D02*
X174127976Y-112340533D01*
X174127976Y-112340533D02*
X174175595Y-112483390D01*
X174175595Y-112483390D02*
X174747023Y-113054819D01*
X174747023Y-113054819D02*
X174127976Y-113054819D01*
X148842857Y-106454819D02*
X149176190Y-105978628D01*
X149414285Y-106454819D02*
X149414285Y-105454819D01*
X149414285Y-105454819D02*
X149033333Y-105454819D01*
X149033333Y-105454819D02*
X148938095Y-105502438D01*
X148938095Y-105502438D02*
X148890476Y-105550057D01*
X148890476Y-105550057D02*
X148842857Y-105645295D01*
X148842857Y-105645295D02*
X148842857Y-105788152D01*
X148842857Y-105788152D02*
X148890476Y-105883390D01*
X148890476Y-105883390D02*
X148938095Y-105931009D01*
X148938095Y-105931009D02*
X149033333Y-105978628D01*
X149033333Y-105978628D02*
X149414285Y-105978628D01*
X147890476Y-106454819D02*
X148461904Y-106454819D01*
X148176190Y-106454819D02*
X148176190Y-105454819D01*
X148176190Y-105454819D02*
X148271428Y-105597676D01*
X148271428Y-105597676D02*
X148366666Y-105692914D01*
X148366666Y-105692914D02*
X148461904Y-105740533D01*
X147033333Y-105454819D02*
X147223809Y-105454819D01*
X147223809Y-105454819D02*
X147319047Y-105502438D01*
X147319047Y-105502438D02*
X147366666Y-105550057D01*
X147366666Y-105550057D02*
X147461904Y-105692914D01*
X147461904Y-105692914D02*
X147509523Y-105883390D01*
X147509523Y-105883390D02*
X147509523Y-106264342D01*
X147509523Y-106264342D02*
X147461904Y-106359580D01*
X147461904Y-106359580D02*
X147414285Y-106407200D01*
X147414285Y-106407200D02*
X147319047Y-106454819D01*
X147319047Y-106454819D02*
X147128571Y-106454819D01*
X147128571Y-106454819D02*
X147033333Y-106407200D01*
X147033333Y-106407200D02*
X146985714Y-106359580D01*
X146985714Y-106359580D02*
X146938095Y-106264342D01*
X146938095Y-106264342D02*
X146938095Y-106026247D01*
X146938095Y-106026247D02*
X146985714Y-105931009D01*
X146985714Y-105931009D02*
X147033333Y-105883390D01*
X147033333Y-105883390D02*
X147128571Y-105835771D01*
X147128571Y-105835771D02*
X147319047Y-105835771D01*
X147319047Y-105835771D02*
X147414285Y-105883390D01*
X147414285Y-105883390D02*
X147461904Y-105931009D01*
X147461904Y-105931009D02*
X147509523Y-106026247D01*
X178157738Y-100150057D02*
X178252976Y-100102438D01*
X178252976Y-100102438D02*
X178348214Y-100007200D01*
X178348214Y-100007200D02*
X178491071Y-99864342D01*
X178491071Y-99864342D02*
X178586309Y-99816723D01*
X178586309Y-99816723D02*
X178681547Y-99816723D01*
X178633928Y-100054819D02*
X178729166Y-100007200D01*
X178729166Y-100007200D02*
X178824404Y-99911961D01*
X178824404Y-99911961D02*
X178872023Y-99721485D01*
X178872023Y-99721485D02*
X178872023Y-99388152D01*
X178872023Y-99388152D02*
X178824404Y-99197676D01*
X178824404Y-99197676D02*
X178729166Y-99102438D01*
X178729166Y-99102438D02*
X178633928Y-99054819D01*
X178633928Y-99054819D02*
X178443452Y-99054819D01*
X178443452Y-99054819D02*
X178348214Y-99102438D01*
X178348214Y-99102438D02*
X178252976Y-99197676D01*
X178252976Y-99197676D02*
X178205357Y-99388152D01*
X178205357Y-99388152D02*
X178205357Y-99721485D01*
X178205357Y-99721485D02*
X178252976Y-99911961D01*
X178252976Y-99911961D02*
X178348214Y-100007200D01*
X178348214Y-100007200D02*
X178443452Y-100054819D01*
X178443452Y-100054819D02*
X178633928Y-100054819D01*
X177252976Y-100054819D02*
X177824404Y-100054819D01*
X177538690Y-100054819D02*
X177538690Y-99054819D01*
X177538690Y-99054819D02*
X177633928Y-99197676D01*
X177633928Y-99197676D02*
X177729166Y-99292914D01*
X177729166Y-99292914D02*
X177824404Y-99340533D01*
X180863094Y-96024819D02*
X180863094Y-95024819D01*
X180863094Y-95024819D02*
X180624999Y-95024819D01*
X180624999Y-95024819D02*
X180482142Y-95072438D01*
X180482142Y-95072438D02*
X180386904Y-95167676D01*
X180386904Y-95167676D02*
X180339285Y-95262914D01*
X180339285Y-95262914D02*
X180291666Y-95453390D01*
X180291666Y-95453390D02*
X180291666Y-95596247D01*
X180291666Y-95596247D02*
X180339285Y-95786723D01*
X180339285Y-95786723D02*
X180386904Y-95881961D01*
X180386904Y-95881961D02*
X180482142Y-95977200D01*
X180482142Y-95977200D02*
X180624999Y-96024819D01*
X180624999Y-96024819D02*
X180863094Y-96024819D01*
X179339285Y-96024819D02*
X179910713Y-96024819D01*
X179624999Y-96024819D02*
X179624999Y-95024819D01*
X179624999Y-95024819D02*
X179720237Y-95167676D01*
X179720237Y-95167676D02*
X179815475Y-95262914D01*
X179815475Y-95262914D02*
X179910713Y-95310533D01*
X157341666Y-83024819D02*
X157674999Y-82548628D01*
X157913094Y-83024819D02*
X157913094Y-82024819D01*
X157913094Y-82024819D02*
X157532142Y-82024819D01*
X157532142Y-82024819D02*
X157436904Y-82072438D01*
X157436904Y-82072438D02*
X157389285Y-82120057D01*
X157389285Y-82120057D02*
X157341666Y-82215295D01*
X157341666Y-82215295D02*
X157341666Y-82358152D01*
X157341666Y-82358152D02*
X157389285Y-82453390D01*
X157389285Y-82453390D02*
X157436904Y-82501009D01*
X157436904Y-82501009D02*
X157532142Y-82548628D01*
X157532142Y-82548628D02*
X157913094Y-82548628D01*
X156770237Y-82453390D02*
X156865475Y-82405771D01*
X156865475Y-82405771D02*
X156913094Y-82358152D01*
X156913094Y-82358152D02*
X156960713Y-82262914D01*
X156960713Y-82262914D02*
X156960713Y-82215295D01*
X156960713Y-82215295D02*
X156913094Y-82120057D01*
X156913094Y-82120057D02*
X156865475Y-82072438D01*
X156865475Y-82072438D02*
X156770237Y-82024819D01*
X156770237Y-82024819D02*
X156579761Y-82024819D01*
X156579761Y-82024819D02*
X156484523Y-82072438D01*
X156484523Y-82072438D02*
X156436904Y-82120057D01*
X156436904Y-82120057D02*
X156389285Y-82215295D01*
X156389285Y-82215295D02*
X156389285Y-82262914D01*
X156389285Y-82262914D02*
X156436904Y-82358152D01*
X156436904Y-82358152D02*
X156484523Y-82405771D01*
X156484523Y-82405771D02*
X156579761Y-82453390D01*
X156579761Y-82453390D02*
X156770237Y-82453390D01*
X156770237Y-82453390D02*
X156865475Y-82501009D01*
X156865475Y-82501009D02*
X156913094Y-82548628D01*
X156913094Y-82548628D02*
X156960713Y-82643866D01*
X156960713Y-82643866D02*
X156960713Y-82834342D01*
X156960713Y-82834342D02*
X156913094Y-82929580D01*
X156913094Y-82929580D02*
X156865475Y-82977200D01*
X156865475Y-82977200D02*
X156770237Y-83024819D01*
X156770237Y-83024819D02*
X156579761Y-83024819D01*
X156579761Y-83024819D02*
X156484523Y-82977200D01*
X156484523Y-82977200D02*
X156436904Y-82929580D01*
X156436904Y-82929580D02*
X156389285Y-82834342D01*
X156389285Y-82834342D02*
X156389285Y-82643866D01*
X156389285Y-82643866D02*
X156436904Y-82548628D01*
X156436904Y-82548628D02*
X156484523Y-82501009D01*
X156484523Y-82501009D02*
X156579761Y-82453390D01*
X179929580Y-111695833D02*
X179977200Y-111648214D01*
X179977200Y-111648214D02*
X180024819Y-111505357D01*
X180024819Y-111505357D02*
X180024819Y-111410119D01*
X180024819Y-111410119D02*
X179977200Y-111267262D01*
X179977200Y-111267262D02*
X179881961Y-111172024D01*
X179881961Y-111172024D02*
X179786723Y-111124405D01*
X179786723Y-111124405D02*
X179596247Y-111076786D01*
X179596247Y-111076786D02*
X179453390Y-111076786D01*
X179453390Y-111076786D02*
X179262914Y-111124405D01*
X179262914Y-111124405D02*
X179167676Y-111172024D01*
X179167676Y-111172024D02*
X179072438Y-111267262D01*
X179072438Y-111267262D02*
X179024819Y-111410119D01*
X179024819Y-111410119D02*
X179024819Y-111505357D01*
X179024819Y-111505357D02*
X179072438Y-111648214D01*
X179072438Y-111648214D02*
X179120057Y-111695833D01*
X180024819Y-112648214D02*
X180024819Y-112076786D01*
X180024819Y-112362500D02*
X179024819Y-112362500D01*
X179024819Y-112362500D02*
X179167676Y-112267262D01*
X179167676Y-112267262D02*
X179262914Y-112172024D01*
X179262914Y-112172024D02*
X179310533Y-112076786D01*
X180359580Y-122233333D02*
X180407200Y-122185714D01*
X180407200Y-122185714D02*
X180454819Y-122042857D01*
X180454819Y-122042857D02*
X180454819Y-121947619D01*
X180454819Y-121947619D02*
X180407200Y-121804762D01*
X180407200Y-121804762D02*
X180311961Y-121709524D01*
X180311961Y-121709524D02*
X180216723Y-121661905D01*
X180216723Y-121661905D02*
X180026247Y-121614286D01*
X180026247Y-121614286D02*
X179883390Y-121614286D01*
X179883390Y-121614286D02*
X179692914Y-121661905D01*
X179692914Y-121661905D02*
X179597676Y-121709524D01*
X179597676Y-121709524D02*
X179502438Y-121804762D01*
X179502438Y-121804762D02*
X179454819Y-121947619D01*
X179454819Y-121947619D02*
X179454819Y-122042857D01*
X179454819Y-122042857D02*
X179502438Y-122185714D01*
X179502438Y-122185714D02*
X179550057Y-122233333D01*
X180454819Y-122709524D02*
X180454819Y-122900000D01*
X180454819Y-122900000D02*
X180407200Y-122995238D01*
X180407200Y-122995238D02*
X180359580Y-123042857D01*
X180359580Y-123042857D02*
X180216723Y-123138095D01*
X180216723Y-123138095D02*
X180026247Y-123185714D01*
X180026247Y-123185714D02*
X179645295Y-123185714D01*
X179645295Y-123185714D02*
X179550057Y-123138095D01*
X179550057Y-123138095D02*
X179502438Y-123090476D01*
X179502438Y-123090476D02*
X179454819Y-122995238D01*
X179454819Y-122995238D02*
X179454819Y-122804762D01*
X179454819Y-122804762D02*
X179502438Y-122709524D01*
X179502438Y-122709524D02*
X179550057Y-122661905D01*
X179550057Y-122661905D02*
X179645295Y-122614286D01*
X179645295Y-122614286D02*
X179883390Y-122614286D01*
X179883390Y-122614286D02*
X179978628Y-122661905D01*
X179978628Y-122661905D02*
X180026247Y-122709524D01*
X180026247Y-122709524D02*
X180073866Y-122804762D01*
X180073866Y-122804762D02*
X180073866Y-122995238D01*
X180073866Y-122995238D02*
X180026247Y-123090476D01*
X180026247Y-123090476D02*
X179978628Y-123138095D01*
X179978628Y-123138095D02*
X179883390Y-123185714D01*
D12*
%TO.C,R2*%
X158477500Y-110937742D02*
X158477500Y-111412258D01*
X159522500Y-110937742D02*
X159522500Y-111412258D01*
%TO.C,R3*%
X147237258Y-83477500D02*
X146762742Y-83477500D01*
X147237258Y-84522500D02*
X146762742Y-84522500D01*
%TO.C,C6*%
X181490000Y-125003080D02*
X181490000Y-124721920D01*
X182510000Y-125003080D02*
X182510000Y-124721920D01*
%TO.C,C12*%
X162003080Y-122490000D02*
X161721920Y-122490000D01*
X162003080Y-123510000D02*
X161721920Y-123510000D01*
%TO.C,C5*%
X173490000Y-125003080D02*
X173490000Y-124721920D01*
X174510000Y-125003080D02*
X174510000Y-124721920D01*
%TO.C,Q3*%
X168412500Y-113490000D02*
X169062500Y-113490000D01*
X168412500Y-116610000D02*
X169062500Y-116610000D01*
X169712500Y-113490000D02*
X169062500Y-113490000D01*
X169712500Y-116610000D02*
X169062500Y-116610000D01*
X168140000Y-116890000D02*
X167660000Y-116890000D01*
X167900000Y-116560000D01*
X168140000Y-116890000D01*
G36*
X168140000Y-116890000D02*
G01*
X167660000Y-116890000D01*
X167900000Y-116560000D01*
X168140000Y-116890000D01*
G37*
%TO.C,Q5*%
X171287500Y-100490000D02*
X171937500Y-100490000D01*
X171287500Y-103610000D02*
X171937500Y-103610000D01*
X172587500Y-100490000D02*
X171937500Y-100490000D01*
X172587500Y-103610000D02*
X171937500Y-103610000D01*
X171015000Y-103890000D02*
X170535000Y-103890000D01*
X170775000Y-103560000D01*
X171015000Y-103890000D01*
G36*
X171015000Y-103890000D02*
G01*
X170535000Y-103890000D01*
X170775000Y-103560000D01*
X171015000Y-103890000D01*
G37*
%TO.C,R9*%
X161937742Y-87477500D02*
X162412258Y-87477500D01*
X161937742Y-88522500D02*
X162412258Y-88522500D01*
%TO.C,D4*%
X177465000Y-106265000D02*
X177465000Y-107735000D01*
X177465000Y-107735000D02*
X179925000Y-107735000D01*
X179925000Y-106265000D02*
X177465000Y-106265000D01*
%TO.C,R10*%
X179937742Y-115477500D02*
X180412258Y-115477500D01*
X179937742Y-116522500D02*
X180412258Y-116522500D01*
%TO.C,D2*%
X169465000Y-96265000D02*
X169465000Y-97735000D01*
X169465000Y-97735000D02*
X171925000Y-97735000D01*
X171925000Y-96265000D02*
X169465000Y-96265000D01*
%TO.C,R6*%
X151477500Y-97762742D02*
X151477500Y-98237258D01*
X152522500Y-97762742D02*
X152522500Y-98237258D01*
%TO.C,R14*%
X176005258Y-96505500D02*
X175530742Y-96505500D01*
X176005258Y-97550500D02*
X175530742Y-97550500D01*
%TO.C,R13*%
X175412258Y-110477500D02*
X174937742Y-110477500D01*
X175412258Y-111522500D02*
X174937742Y-111522500D01*
%TO.C,R11*%
X175276742Y-118603500D02*
X175751258Y-118603500D01*
X175276742Y-119648500D02*
X175751258Y-119648500D01*
%TO.C,U1*%
X148755000Y-87575000D02*
X148755000Y-89525000D01*
X148755000Y-91475000D02*
X148755000Y-89525000D01*
X157625000Y-87575000D02*
X157625000Y-89525000D01*
X157625000Y-91475000D02*
X157625000Y-89525000D01*
X157890000Y-92465000D02*
X157560000Y-92225000D01*
X157890000Y-91985000D01*
X157890000Y-92465000D01*
G36*
X157890000Y-92465000D02*
G01*
X157560000Y-92225000D01*
X157890000Y-91985000D01*
X157890000Y-92465000D01*
G37*
%TO.C,R15*%
X184477500Y-104237258D02*
X184477500Y-103762742D01*
X185522500Y-104237258D02*
X185522500Y-103762742D01*
%TO.C,C8*%
X169490000Y-125003080D02*
X169490000Y-124721920D01*
X170510000Y-125003080D02*
X170510000Y-124721920D01*
%TO.C,R12*%
X167625500Y-110727258D02*
X167625500Y-110252742D01*
X168670500Y-110727258D02*
X168670500Y-110252742D01*
%TO.C,D3*%
X171325000Y-107735000D02*
X173785000Y-107735000D01*
X173785000Y-106265000D02*
X171325000Y-106265000D01*
X173785000Y-107735000D02*
X173785000Y-106265000D01*
%TO.C,C4*%
X177490000Y-125003080D02*
X177490000Y-124721920D01*
X178510000Y-125003080D02*
X178510000Y-124721920D01*
%TO.C,R7*%
X149051742Y-97013500D02*
X149526258Y-97013500D01*
X149051742Y-98058500D02*
X149526258Y-98058500D01*
%TO.C,R1*%
X162937742Y-110477500D02*
X163412258Y-110477500D01*
X162937742Y-111522500D02*
X163412258Y-111522500D01*
%TO.C,U2*%
X142565000Y-110050000D02*
X142565000Y-112000000D01*
X142565000Y-113950000D02*
X142565000Y-112000000D01*
X151435000Y-110050000D02*
X151435000Y-112000000D01*
X151435000Y-113950000D02*
X151435000Y-112000000D01*
X142630000Y-109300000D02*
X142300000Y-109540000D01*
X142300000Y-109060000D01*
X142630000Y-109300000D01*
G36*
X142630000Y-109300000D02*
G01*
X142300000Y-109540000D01*
X142300000Y-109060000D01*
X142630000Y-109300000D01*
G37*
%TO.C,R5*%
X154671500Y-97361742D02*
X154671500Y-97836258D01*
X155716500Y-97361742D02*
X155716500Y-97836258D01*
%TO.C,C7*%
X171490000Y-125003080D02*
X171490000Y-124721920D01*
X172510000Y-125003080D02*
X172510000Y-124721920D01*
%TO.C,C3*%
X143996920Y-123490000D02*
X144278080Y-123490000D01*
X143996920Y-124510000D02*
X144278080Y-124510000D01*
%TO.C,C2*%
X150996920Y-83490000D02*
X151278080Y-83490000D01*
X150996920Y-84510000D02*
X151278080Y-84510000D01*
%TO.C,C11*%
X140490000Y-120003080D02*
X140490000Y-119721920D01*
X141510000Y-120003080D02*
X141510000Y-119721920D01*
%TO.C,R4*%
X156638258Y-94473500D02*
X156163742Y-94473500D01*
X156638258Y-95518500D02*
X156163742Y-95518500D01*
%TO.C,C10*%
X161490000Y-92003080D02*
X161490000Y-91721920D01*
X162510000Y-92003080D02*
X162510000Y-91721920D01*
%TO.C,Q4*%
X162412500Y-113490000D02*
X163062500Y-113490000D01*
X162412500Y-116610000D02*
X163062500Y-116610000D01*
X163712500Y-113490000D02*
X163062500Y-113490000D01*
X163712500Y-116610000D02*
X163062500Y-116610000D01*
X162140000Y-116890000D02*
X161660000Y-116890000D01*
X161900000Y-116560000D01*
X162140000Y-116890000D01*
G36*
X162140000Y-116890000D02*
G01*
X161660000Y-116890000D01*
X161900000Y-116560000D01*
X162140000Y-116890000D01*
G37*
%TO.C,Q2*%
X174287500Y-113390000D02*
X174937500Y-113390000D01*
X174287500Y-116510000D02*
X174937500Y-116510000D01*
X175587500Y-113390000D02*
X174937500Y-113390000D01*
X175587500Y-116510000D02*
X174937500Y-116510000D01*
X174015000Y-116790000D02*
X173535000Y-116790000D01*
X173775000Y-116460000D01*
X174015000Y-116790000D01*
G36*
X174015000Y-116790000D02*
G01*
X173535000Y-116790000D01*
X173775000Y-116460000D01*
X174015000Y-116790000D01*
G37*
%TO.C,R16*%
X150937742Y-105477500D02*
X151412258Y-105477500D01*
X150937742Y-106522500D02*
X151412258Y-106522500D01*
%TO.C,Q1*%
X177412500Y-100490000D02*
X178062500Y-100490000D01*
X177412500Y-103610000D02*
X178062500Y-103610000D01*
X178712500Y-100490000D02*
X178062500Y-100490000D01*
X178712500Y-103610000D02*
X178062500Y-103610000D01*
X177140000Y-103890000D02*
X176660000Y-103890000D01*
X176900000Y-103560000D01*
X177140000Y-103890000D01*
G36*
X177140000Y-103890000D02*
G01*
X176660000Y-103890000D01*
X176900000Y-103560000D01*
X177140000Y-103890000D01*
G37*
%TO.C,D1*%
X179325000Y-97735000D02*
X181785000Y-97735000D01*
X181785000Y-96265000D02*
X179325000Y-96265000D01*
X181785000Y-97735000D02*
X181785000Y-96265000D01*
%TO.C,R8*%
X156937742Y-83477500D02*
X157412258Y-83477500D01*
X156937742Y-84522500D02*
X157412258Y-84522500D01*
%TO.C,C1*%
X180490000Y-112003080D02*
X180490000Y-111721920D01*
X181510000Y-112003080D02*
X181510000Y-111721920D01*
%TO.C,C9*%
X179490000Y-125003080D02*
X179490000Y-124721920D01*
X180510000Y-125003080D02*
X180510000Y-124721920D01*
%TD*%
M02*
