%TF.GenerationSoftware,KiCad,Pcbnew,8.0.6*%
%TF.CreationDate,2025-05-19T21:14:28+02:00*%
%TF.ProjectId,szkoleniexd,737a6b6f-6c65-46e6-9965-78642e6b6963,1.0*%
%TF.SameCoordinates,Original*%
%TF.FileFunction,Legend,Top*%
%TF.FilePolarity,Positive*%
%FSLAX46Y46*%
G04 Gerber Fmt 4.6, Leading zero omitted, Abs format (unit mm)*
G04 Created by KiCad (PCBNEW 8.0.6) date 2025-05-19 21:14:28*
%MOMM*%
%LPD*%
G01*
G04 APERTURE LIST*
%ADD10C,0.100000*%
%ADD11C,0.300000*%
%ADD12C,0.200000*%
%ADD13C,0.120000*%
G04 APERTURE END LIST*
D10*
X144800000Y-116800000D02*
X165400000Y-116800000D01*
D11*
X171862742Y-121337259D02*
G75*
G02*
X167337258Y-121337259I-2262742J0D01*
G01*
X167337258Y-121337259D02*
G75*
G02*
X171862742Y-121337259I2262742J0D01*
G01*
D10*
X132200000Y-97200000D02*
X140000000Y-97200000D01*
X148800000Y-94200000D02*
X148800000Y-89800000D01*
D12*
X169247214Y-121000000D02*
G75*
G02*
X168352786Y-121000000I-447214J0D01*
G01*
X168352786Y-121000000D02*
G75*
G02*
X169247214Y-121000000I447214J0D01*
G01*
D10*
X144400000Y-120800000D02*
X132200000Y-120800000D01*
X144800000Y-78200000D02*
X132200000Y-78200000D01*
X182000000Y-78200000D02*
X182000000Y-96400000D01*
X145200000Y-89800000D02*
X148400000Y-89800000D01*
X148400000Y-97800000D02*
X148400000Y-90200000D01*
X144800000Y-127800000D02*
X144800000Y-116800000D01*
X144400000Y-116400000D02*
X144400000Y-120800000D01*
X132200000Y-78200000D02*
X132200000Y-96800000D01*
X165400000Y-116800000D02*
X165400000Y-127800000D01*
X145200000Y-78200000D02*
X145200000Y-89800000D01*
X163200000Y-108400000D02*
X163200000Y-116400000D01*
X182000000Y-96400000D02*
X148800000Y-96400000D01*
X165400000Y-127800000D02*
X144800000Y-127800000D01*
X140000000Y-97200000D02*
X140000000Y-98200000D01*
X163200000Y-98200000D02*
X163200000Y-108400000D01*
X148800000Y-89800000D02*
X148400000Y-89800000D01*
X148800000Y-96400000D02*
X148800000Y-94200000D01*
X182000000Y-78200000D02*
X145200000Y-78200000D01*
D12*
X170847214Y-121000000D02*
G75*
G02*
X169952786Y-121000000I-447214J0D01*
G01*
X169952786Y-121000000D02*
G75*
G02*
X170847214Y-121000000I447214J0D01*
G01*
D10*
X132200000Y-96800000D02*
X140400000Y-96800000D01*
X148400000Y-90200000D02*
X144800000Y-90200000D01*
X191800000Y-116800000D02*
X191800000Y-105000000D01*
X140000000Y-98200000D02*
X163200000Y-98200000D01*
X191800000Y-105000000D02*
X179800000Y-105000000D01*
X140400000Y-96800000D02*
X140400000Y-97800000D01*
X144800000Y-90200000D02*
X144800000Y-78200000D01*
X179800000Y-116800000D02*
X191800000Y-116800000D01*
X140400000Y-97800000D02*
X148400000Y-97800000D01*
X163200000Y-116400000D02*
X144400000Y-116400000D01*
X132200000Y-120800000D02*
X132200000Y-97200000D01*
D12*
X170000000Y-121900000D02*
G75*
G02*
X169200000Y-121900000I-400000J0D01*
G01*
D10*
X179800000Y-105000000D02*
X179800000Y-116800000D01*
X155079961Y-82627693D02*
X155127580Y-82532455D01*
X155127580Y-82532455D02*
X155127580Y-82389598D01*
X155127580Y-82389598D02*
X155079961Y-82246741D01*
X155079961Y-82246741D02*
X154984723Y-82151503D01*
X154984723Y-82151503D02*
X154889485Y-82103884D01*
X154889485Y-82103884D02*
X154699009Y-82056265D01*
X154699009Y-82056265D02*
X154556152Y-82056265D01*
X154556152Y-82056265D02*
X154365676Y-82103884D01*
X154365676Y-82103884D02*
X154270438Y-82151503D01*
X154270438Y-82151503D02*
X154175200Y-82246741D01*
X154175200Y-82246741D02*
X154127580Y-82389598D01*
X154127580Y-82389598D02*
X154127580Y-82484836D01*
X154127580Y-82484836D02*
X154175200Y-82627693D01*
X154175200Y-82627693D02*
X154222819Y-82675312D01*
X154222819Y-82675312D02*
X154556152Y-82675312D01*
X154556152Y-82675312D02*
X154556152Y-82484836D01*
X154127580Y-83103884D02*
X155127580Y-83103884D01*
X155127580Y-83103884D02*
X154127580Y-83675312D01*
X154127580Y-83675312D02*
X155127580Y-83675312D01*
X154127580Y-84151503D02*
X155127580Y-84151503D01*
X155127580Y-84151503D02*
X155127580Y-84389598D01*
X155127580Y-84389598D02*
X155079961Y-84532455D01*
X155079961Y-84532455D02*
X154984723Y-84627693D01*
X154984723Y-84627693D02*
X154889485Y-84675312D01*
X154889485Y-84675312D02*
X154699009Y-84722931D01*
X154699009Y-84722931D02*
X154556152Y-84722931D01*
X154556152Y-84722931D02*
X154365676Y-84675312D01*
X154365676Y-84675312D02*
X154270438Y-84627693D01*
X154270438Y-84627693D02*
X154175200Y-84532455D01*
X154175200Y-84532455D02*
X154127580Y-84389598D01*
X154127580Y-84389598D02*
X154127580Y-84151503D01*
X182227693Y-112120038D02*
X182132455Y-112072419D01*
X182132455Y-112072419D02*
X181989598Y-112072419D01*
X181989598Y-112072419D02*
X181846741Y-112120038D01*
X181846741Y-112120038D02*
X181751503Y-112215276D01*
X181751503Y-112215276D02*
X181703884Y-112310514D01*
X181703884Y-112310514D02*
X181656265Y-112500990D01*
X181656265Y-112500990D02*
X181656265Y-112643847D01*
X181656265Y-112643847D02*
X181703884Y-112834323D01*
X181703884Y-112834323D02*
X181751503Y-112929561D01*
X181751503Y-112929561D02*
X181846741Y-113024800D01*
X181846741Y-113024800D02*
X181989598Y-113072419D01*
X181989598Y-113072419D02*
X182084836Y-113072419D01*
X182084836Y-113072419D02*
X182227693Y-113024800D01*
X182227693Y-113024800D02*
X182275312Y-112977180D01*
X182275312Y-112977180D02*
X182275312Y-112643847D01*
X182275312Y-112643847D02*
X182084836Y-112643847D01*
X182703884Y-113072419D02*
X182703884Y-112072419D01*
X182703884Y-112072419D02*
X183275312Y-113072419D01*
X183275312Y-113072419D02*
X183275312Y-112072419D01*
X183751503Y-113072419D02*
X183751503Y-112072419D01*
X183751503Y-112072419D02*
X183989598Y-112072419D01*
X183989598Y-112072419D02*
X184132455Y-112120038D01*
X184132455Y-112120038D02*
X184227693Y-112215276D01*
X184227693Y-112215276D02*
X184275312Y-112310514D01*
X184275312Y-112310514D02*
X184322931Y-112500990D01*
X184322931Y-112500990D02*
X184322931Y-112643847D01*
X184322931Y-112643847D02*
X184275312Y-112834323D01*
X184275312Y-112834323D02*
X184227693Y-112929561D01*
X184227693Y-112929561D02*
X184132455Y-113024800D01*
X184132455Y-113024800D02*
X183989598Y-113072419D01*
X183989598Y-113072419D02*
X183751503Y-113072419D01*
X184862475Y-93896115D02*
X183862475Y-93896115D01*
X183862475Y-93896115D02*
X183862475Y-93515163D01*
X183862475Y-93515163D02*
X183910094Y-93419925D01*
X183910094Y-93419925D02*
X183957713Y-93372306D01*
X183957713Y-93372306D02*
X184052951Y-93324687D01*
X184052951Y-93324687D02*
X184195808Y-93324687D01*
X184195808Y-93324687D02*
X184291046Y-93372306D01*
X184291046Y-93372306D02*
X184338665Y-93419925D01*
X184338665Y-93419925D02*
X184386284Y-93515163D01*
X184386284Y-93515163D02*
X184386284Y-93896115D01*
X184862475Y-92419925D02*
X184862475Y-92896115D01*
X184862475Y-92896115D02*
X183862475Y-92896115D01*
X184862475Y-91610401D02*
X184862475Y-92086591D01*
X184862475Y-92086591D02*
X183862475Y-92086591D01*
X184481522Y-91277067D02*
X184481522Y-90515163D01*
X184862475Y-89896115D02*
X184814856Y-89991353D01*
X184814856Y-89991353D02*
X184767236Y-90038972D01*
X184767236Y-90038972D02*
X184671998Y-90086591D01*
X184671998Y-90086591D02*
X184386284Y-90086591D01*
X184386284Y-90086591D02*
X184291046Y-90038972D01*
X184291046Y-90038972D02*
X184243427Y-89991353D01*
X184243427Y-89991353D02*
X184195808Y-89896115D01*
X184195808Y-89896115D02*
X184195808Y-89753258D01*
X184195808Y-89753258D02*
X184243427Y-89658020D01*
X184243427Y-89658020D02*
X184291046Y-89610401D01*
X184291046Y-89610401D02*
X184386284Y-89562782D01*
X184386284Y-89562782D02*
X184671998Y-89562782D01*
X184671998Y-89562782D02*
X184767236Y-89610401D01*
X184767236Y-89610401D02*
X184814856Y-89658020D01*
X184814856Y-89658020D02*
X184862475Y-89753258D01*
X184862475Y-89753258D02*
X184862475Y-89896115D01*
X184195808Y-88705639D02*
X184862475Y-88705639D01*
X184195808Y-89134210D02*
X184719617Y-89134210D01*
X184719617Y-89134210D02*
X184814856Y-89086591D01*
X184814856Y-89086591D02*
X184862475Y-88991353D01*
X184862475Y-88991353D02*
X184862475Y-88848496D01*
X184862475Y-88848496D02*
X184814856Y-88753258D01*
X184814856Y-88753258D02*
X184767236Y-88705639D01*
X184195808Y-88372305D02*
X184195808Y-87991353D01*
X183862475Y-88229448D02*
X184719617Y-88229448D01*
X184719617Y-88229448D02*
X184814856Y-88181829D01*
X184814856Y-88181829D02*
X184862475Y-88086591D01*
X184862475Y-88086591D02*
X184862475Y-87991353D01*
X186853371Y-93610401D02*
X186805752Y-93658020D01*
X186805752Y-93658020D02*
X186662895Y-93753258D01*
X186662895Y-93753258D02*
X186567657Y-93800877D01*
X186567657Y-93800877D02*
X186424800Y-93848496D01*
X186424800Y-93848496D02*
X186186704Y-93896115D01*
X186186704Y-93896115D02*
X185996228Y-93896115D01*
X185996228Y-93896115D02*
X185758133Y-93848496D01*
X185758133Y-93848496D02*
X185615276Y-93800877D01*
X185615276Y-93800877D02*
X185520038Y-93753258D01*
X185520038Y-93753258D02*
X185377180Y-93658020D01*
X185377180Y-93658020D02*
X185329561Y-93610401D01*
X185805752Y-93372305D02*
X185805752Y-92991353D01*
X185472419Y-93229448D02*
X186329561Y-93229448D01*
X186329561Y-93229448D02*
X186424800Y-93181829D01*
X186424800Y-93181829D02*
X186472419Y-93086591D01*
X186472419Y-93086591D02*
X186472419Y-92991353D01*
X186472419Y-92658019D02*
X185805752Y-92658019D01*
X185996228Y-92658019D02*
X185900990Y-92610400D01*
X185900990Y-92610400D02*
X185853371Y-92562781D01*
X185853371Y-92562781D02*
X185805752Y-92467543D01*
X185805752Y-92467543D02*
X185805752Y-92372305D01*
X186377180Y-92038971D02*
X186424800Y-91991352D01*
X186424800Y-91991352D02*
X186472419Y-92038971D01*
X186472419Y-92038971D02*
X186424800Y-92086590D01*
X186424800Y-92086590D02*
X186377180Y-92038971D01*
X186377180Y-92038971D02*
X186472419Y-92038971D01*
X186853371Y-91658019D02*
X186805752Y-91610400D01*
X186805752Y-91610400D02*
X186662895Y-91515162D01*
X186662895Y-91515162D02*
X186567657Y-91467543D01*
X186567657Y-91467543D02*
X186424800Y-91419924D01*
X186424800Y-91419924D02*
X186186704Y-91372305D01*
X186186704Y-91372305D02*
X185996228Y-91372305D01*
X185996228Y-91372305D02*
X185758133Y-91419924D01*
X185758133Y-91419924D02*
X185615276Y-91467543D01*
X185615276Y-91467543D02*
X185520038Y-91515162D01*
X185520038Y-91515162D02*
X185377180Y-91610400D01*
X185377180Y-91610400D02*
X185329561Y-91658019D01*
X136103884Y-89872419D02*
X136103884Y-88872419D01*
X136580074Y-89872419D02*
X136580074Y-88872419D01*
X136580074Y-88872419D02*
X137151502Y-89872419D01*
X137151502Y-89872419D02*
X137151502Y-88872419D01*
X157527580Y-107808646D02*
X156527580Y-108475312D01*
X157527580Y-108475312D02*
X156527580Y-107808646D01*
X157527580Y-109046741D02*
X157527580Y-109237217D01*
X157527580Y-109237217D02*
X157479961Y-109332455D01*
X157479961Y-109332455D02*
X157384723Y-109427693D01*
X157384723Y-109427693D02*
X157194247Y-109475312D01*
X157194247Y-109475312D02*
X156860914Y-109475312D01*
X156860914Y-109475312D02*
X156670438Y-109427693D01*
X156670438Y-109427693D02*
X156575200Y-109332455D01*
X156575200Y-109332455D02*
X156527580Y-109237217D01*
X156527580Y-109237217D02*
X156527580Y-109046741D01*
X156527580Y-109046741D02*
X156575200Y-108951503D01*
X156575200Y-108951503D02*
X156670438Y-108856265D01*
X156670438Y-108856265D02*
X156860914Y-108808646D01*
X156860914Y-108808646D02*
X157194247Y-108808646D01*
X157194247Y-108808646D02*
X157384723Y-108856265D01*
X157384723Y-108856265D02*
X157479961Y-108951503D01*
X157479961Y-108951503D02*
X157527580Y-109046741D01*
X156527580Y-110475312D02*
X157003771Y-110141979D01*
X156527580Y-109903884D02*
X157527580Y-109903884D01*
X157527580Y-109903884D02*
X157527580Y-110284836D01*
X157527580Y-110284836D02*
X157479961Y-110380074D01*
X157479961Y-110380074D02*
X157432342Y-110427693D01*
X157432342Y-110427693D02*
X157337104Y-110475312D01*
X157337104Y-110475312D02*
X157194247Y-110475312D01*
X157194247Y-110475312D02*
X157099009Y-110427693D01*
X157099009Y-110427693D02*
X157051390Y-110380074D01*
X157051390Y-110380074D02*
X157003771Y-110284836D01*
X157003771Y-110284836D02*
X157003771Y-109903884D01*
X156908533Y-110903884D02*
X156908533Y-111665789D01*
X156527580Y-112284836D02*
X156575200Y-112189598D01*
X156575200Y-112189598D02*
X156622819Y-112141979D01*
X156622819Y-112141979D02*
X156718057Y-112094360D01*
X156718057Y-112094360D02*
X157003771Y-112094360D01*
X157003771Y-112094360D02*
X157099009Y-112141979D01*
X157099009Y-112141979D02*
X157146628Y-112189598D01*
X157146628Y-112189598D02*
X157194247Y-112284836D01*
X157194247Y-112284836D02*
X157194247Y-112427693D01*
X157194247Y-112427693D02*
X157146628Y-112522931D01*
X157146628Y-112522931D02*
X157099009Y-112570550D01*
X157099009Y-112570550D02*
X157003771Y-112618169D01*
X157003771Y-112618169D02*
X156718057Y-112618169D01*
X156718057Y-112618169D02*
X156622819Y-112570550D01*
X156622819Y-112570550D02*
X156575200Y-112522931D01*
X156575200Y-112522931D02*
X156527580Y-112427693D01*
X156527580Y-112427693D02*
X156527580Y-112284836D01*
X157194247Y-113475312D02*
X156527580Y-113475312D01*
X157194247Y-113046741D02*
X156670438Y-113046741D01*
X156670438Y-113046741D02*
X156575200Y-113094360D01*
X156575200Y-113094360D02*
X156527580Y-113189598D01*
X156527580Y-113189598D02*
X156527580Y-113332455D01*
X156527580Y-113332455D02*
X156575200Y-113427693D01*
X156575200Y-113427693D02*
X156622819Y-113475312D01*
X157194247Y-113808646D02*
X157194247Y-114189598D01*
X157527580Y-113951503D02*
X156670438Y-113951503D01*
X156670438Y-113951503D02*
X156575200Y-113999122D01*
X156575200Y-113999122D02*
X156527580Y-114094360D01*
X156527580Y-114094360D02*
X156527580Y-114189598D01*
X167961027Y-100272419D02*
X168294360Y-101272419D01*
X168294360Y-101272419D02*
X168627693Y-100272419D01*
X169532455Y-101177180D02*
X169484836Y-101224800D01*
X169484836Y-101224800D02*
X169341979Y-101272419D01*
X169341979Y-101272419D02*
X169246741Y-101272419D01*
X169246741Y-101272419D02*
X169103884Y-101224800D01*
X169103884Y-101224800D02*
X169008646Y-101129561D01*
X169008646Y-101129561D02*
X168961027Y-101034323D01*
X168961027Y-101034323D02*
X168913408Y-100843847D01*
X168913408Y-100843847D02*
X168913408Y-100700990D01*
X168913408Y-100700990D02*
X168961027Y-100510514D01*
X168961027Y-100510514D02*
X169008646Y-100415276D01*
X169008646Y-100415276D02*
X169103884Y-100320038D01*
X169103884Y-100320038D02*
X169246741Y-100272419D01*
X169246741Y-100272419D02*
X169341979Y-100272419D01*
X169341979Y-100272419D02*
X169484836Y-100320038D01*
X169484836Y-100320038D02*
X169532455Y-100367657D01*
X170151503Y-100272419D02*
X170341979Y-100272419D01*
X170341979Y-100272419D02*
X170437217Y-100320038D01*
X170437217Y-100320038D02*
X170532455Y-100415276D01*
X170532455Y-100415276D02*
X170580074Y-100605752D01*
X170580074Y-100605752D02*
X170580074Y-100939085D01*
X170580074Y-100939085D02*
X170532455Y-101129561D01*
X170532455Y-101129561D02*
X170437217Y-101224800D01*
X170437217Y-101224800D02*
X170341979Y-101272419D01*
X170341979Y-101272419D02*
X170151503Y-101272419D01*
X170151503Y-101272419D02*
X170056265Y-101224800D01*
X170056265Y-101224800D02*
X169961027Y-101129561D01*
X169961027Y-101129561D02*
X169913408Y-100939085D01*
X169913408Y-100939085D02*
X169913408Y-100605752D01*
X169913408Y-100605752D02*
X169961027Y-100415276D01*
X169961027Y-100415276D02*
X170056265Y-100320038D01*
X170056265Y-100320038D02*
X170151503Y-100272419D01*
X171008646Y-100891466D02*
X171770551Y-100891466D01*
X172246741Y-101272419D02*
X172246741Y-100605752D01*
X172246741Y-100272419D02*
X172199122Y-100320038D01*
X172199122Y-100320038D02*
X172246741Y-100367657D01*
X172246741Y-100367657D02*
X172294360Y-100320038D01*
X172294360Y-100320038D02*
X172246741Y-100272419D01*
X172246741Y-100272419D02*
X172246741Y-100367657D01*
X172722931Y-100605752D02*
X172722931Y-101272419D01*
X172722931Y-100700990D02*
X172770550Y-100653371D01*
X172770550Y-100653371D02*
X172865788Y-100605752D01*
X172865788Y-100605752D02*
X173008645Y-100605752D01*
X173008645Y-100605752D02*
X173103883Y-100653371D01*
X173103883Y-100653371D02*
X173151502Y-100748609D01*
X173151502Y-100748609D02*
X173151502Y-101272419D01*
X145503884Y-120691466D02*
X146265789Y-120691466D01*
X147218169Y-120072419D02*
X146741979Y-120072419D01*
X146741979Y-120072419D02*
X146694360Y-120548609D01*
X146694360Y-120548609D02*
X146741979Y-120500990D01*
X146741979Y-120500990D02*
X146837217Y-120453371D01*
X146837217Y-120453371D02*
X147075312Y-120453371D01*
X147075312Y-120453371D02*
X147170550Y-120500990D01*
X147170550Y-120500990D02*
X147218169Y-120548609D01*
X147218169Y-120548609D02*
X147265788Y-120643847D01*
X147265788Y-120643847D02*
X147265788Y-120881942D01*
X147265788Y-120881942D02*
X147218169Y-120977180D01*
X147218169Y-120977180D02*
X147170550Y-121024800D01*
X147170550Y-121024800D02*
X147075312Y-121072419D01*
X147075312Y-121072419D02*
X146837217Y-121072419D01*
X146837217Y-121072419D02*
X146741979Y-121024800D01*
X146741979Y-121024800D02*
X146694360Y-120977180D01*
X147551503Y-120072419D02*
X147884836Y-121072419D01*
X147884836Y-121072419D02*
X148218169Y-120072419D01*
X136008646Y-113472419D02*
X136675312Y-114472419D01*
X136675312Y-113472419D02*
X136008646Y-114472419D01*
X137246741Y-113472419D02*
X137437217Y-113472419D01*
X137437217Y-113472419D02*
X137532455Y-113520038D01*
X137532455Y-113520038D02*
X137627693Y-113615276D01*
X137627693Y-113615276D02*
X137675312Y-113805752D01*
X137675312Y-113805752D02*
X137675312Y-114139085D01*
X137675312Y-114139085D02*
X137627693Y-114329561D01*
X137627693Y-114329561D02*
X137532455Y-114424800D01*
X137532455Y-114424800D02*
X137437217Y-114472419D01*
X137437217Y-114472419D02*
X137246741Y-114472419D01*
X137246741Y-114472419D02*
X137151503Y-114424800D01*
X137151503Y-114424800D02*
X137056265Y-114329561D01*
X137056265Y-114329561D02*
X137008646Y-114139085D01*
X137008646Y-114139085D02*
X137008646Y-113805752D01*
X137008646Y-113805752D02*
X137056265Y-113615276D01*
X137056265Y-113615276D02*
X137151503Y-113520038D01*
X137151503Y-113520038D02*
X137246741Y-113472419D01*
X138675312Y-114472419D02*
X138341979Y-113996228D01*
X138103884Y-114472419D02*
X138103884Y-113472419D01*
X138103884Y-113472419D02*
X138484836Y-113472419D01*
X138484836Y-113472419D02*
X138580074Y-113520038D01*
X138580074Y-113520038D02*
X138627693Y-113567657D01*
X138627693Y-113567657D02*
X138675312Y-113662895D01*
X138675312Y-113662895D02*
X138675312Y-113805752D01*
X138675312Y-113805752D02*
X138627693Y-113900990D01*
X138627693Y-113900990D02*
X138580074Y-113948609D01*
X138580074Y-113948609D02*
X138484836Y-113996228D01*
X138484836Y-113996228D02*
X138103884Y-113996228D01*
X139103884Y-114091466D02*
X139865789Y-114091466D01*
X140341979Y-114472419D02*
X140341979Y-113805752D01*
X140341979Y-113472419D02*
X140294360Y-113520038D01*
X140294360Y-113520038D02*
X140341979Y-113567657D01*
X140341979Y-113567657D02*
X140389598Y-113520038D01*
X140389598Y-113520038D02*
X140341979Y-113472419D01*
X140341979Y-113472419D02*
X140341979Y-113567657D01*
X140818169Y-113805752D02*
X140818169Y-114472419D01*
X140818169Y-113900990D02*
X140865788Y-113853371D01*
X140865788Y-113853371D02*
X140961026Y-113805752D01*
X140961026Y-113805752D02*
X141103883Y-113805752D01*
X141103883Y-113805752D02*
X141199121Y-113853371D01*
X141199121Y-113853371D02*
X141246740Y-113948609D01*
X141246740Y-113948609D02*
X141246740Y-114472419D01*
X141675312Y-113567657D02*
X141722931Y-113520038D01*
X141722931Y-113520038D02*
X141818169Y-113472419D01*
X141818169Y-113472419D02*
X142056264Y-113472419D01*
X142056264Y-113472419D02*
X142151502Y-113520038D01*
X142151502Y-113520038D02*
X142199121Y-113567657D01*
X142199121Y-113567657D02*
X142246740Y-113662895D01*
X142246740Y-113662895D02*
X142246740Y-113758133D01*
X142246740Y-113758133D02*
X142199121Y-113900990D01*
X142199121Y-113900990D02*
X141627693Y-114472419D01*
X141627693Y-114472419D02*
X142246740Y-114472419D01*
X147279961Y-82627693D02*
X147327580Y-82532455D01*
X147327580Y-82532455D02*
X147327580Y-82389598D01*
X147327580Y-82389598D02*
X147279961Y-82246741D01*
X147279961Y-82246741D02*
X147184723Y-82151503D01*
X147184723Y-82151503D02*
X147089485Y-82103884D01*
X147089485Y-82103884D02*
X146899009Y-82056265D01*
X146899009Y-82056265D02*
X146756152Y-82056265D01*
X146756152Y-82056265D02*
X146565676Y-82103884D01*
X146565676Y-82103884D02*
X146470438Y-82151503D01*
X146470438Y-82151503D02*
X146375200Y-82246741D01*
X146375200Y-82246741D02*
X146327580Y-82389598D01*
X146327580Y-82389598D02*
X146327580Y-82484836D01*
X146327580Y-82484836D02*
X146375200Y-82627693D01*
X146375200Y-82627693D02*
X146422819Y-82675312D01*
X146422819Y-82675312D02*
X146756152Y-82675312D01*
X146756152Y-82675312D02*
X146756152Y-82484836D01*
X146327580Y-83103884D02*
X147327580Y-83103884D01*
X147327580Y-83103884D02*
X146327580Y-83675312D01*
X146327580Y-83675312D02*
X147327580Y-83675312D01*
X146327580Y-84151503D02*
X147327580Y-84151503D01*
X147327580Y-84151503D02*
X147327580Y-84389598D01*
X147327580Y-84389598D02*
X147279961Y-84532455D01*
X147279961Y-84532455D02*
X147184723Y-84627693D01*
X147184723Y-84627693D02*
X147089485Y-84675312D01*
X147089485Y-84675312D02*
X146899009Y-84722931D01*
X146899009Y-84722931D02*
X146756152Y-84722931D01*
X146756152Y-84722931D02*
X146565676Y-84675312D01*
X146565676Y-84675312D02*
X146470438Y-84627693D01*
X146470438Y-84627693D02*
X146375200Y-84532455D01*
X146375200Y-84532455D02*
X146327580Y-84389598D01*
X146327580Y-84389598D02*
X146327580Y-84151503D01*
X167961027Y-102872419D02*
X168294360Y-103872419D01*
X168294360Y-103872419D02*
X168627693Y-102872419D01*
X169532455Y-103777180D02*
X169484836Y-103824800D01*
X169484836Y-103824800D02*
X169341979Y-103872419D01*
X169341979Y-103872419D02*
X169246741Y-103872419D01*
X169246741Y-103872419D02*
X169103884Y-103824800D01*
X169103884Y-103824800D02*
X169008646Y-103729561D01*
X169008646Y-103729561D02*
X168961027Y-103634323D01*
X168961027Y-103634323D02*
X168913408Y-103443847D01*
X168913408Y-103443847D02*
X168913408Y-103300990D01*
X168913408Y-103300990D02*
X168961027Y-103110514D01*
X168961027Y-103110514D02*
X169008646Y-103015276D01*
X169008646Y-103015276D02*
X169103884Y-102920038D01*
X169103884Y-102920038D02*
X169246741Y-102872419D01*
X169246741Y-102872419D02*
X169341979Y-102872419D01*
X169341979Y-102872419D02*
X169484836Y-102920038D01*
X169484836Y-102920038D02*
X169532455Y-102967657D01*
X170151503Y-102872419D02*
X170341979Y-102872419D01*
X170341979Y-102872419D02*
X170437217Y-102920038D01*
X170437217Y-102920038D02*
X170532455Y-103015276D01*
X170532455Y-103015276D02*
X170580074Y-103205752D01*
X170580074Y-103205752D02*
X170580074Y-103539085D01*
X170580074Y-103539085D02*
X170532455Y-103729561D01*
X170532455Y-103729561D02*
X170437217Y-103824800D01*
X170437217Y-103824800D02*
X170341979Y-103872419D01*
X170341979Y-103872419D02*
X170151503Y-103872419D01*
X170151503Y-103872419D02*
X170056265Y-103824800D01*
X170056265Y-103824800D02*
X169961027Y-103729561D01*
X169961027Y-103729561D02*
X169913408Y-103539085D01*
X169913408Y-103539085D02*
X169913408Y-103205752D01*
X169913408Y-103205752D02*
X169961027Y-103015276D01*
X169961027Y-103015276D02*
X170056265Y-102920038D01*
X170056265Y-102920038D02*
X170151503Y-102872419D01*
X171008646Y-103491466D02*
X171770551Y-103491466D01*
X172246741Y-103872419D02*
X172246741Y-103205752D01*
X172246741Y-102872419D02*
X172199122Y-102920038D01*
X172199122Y-102920038D02*
X172246741Y-102967657D01*
X172246741Y-102967657D02*
X172294360Y-102920038D01*
X172294360Y-102920038D02*
X172246741Y-102872419D01*
X172246741Y-102872419D02*
X172246741Y-102967657D01*
X172722931Y-103205752D02*
X172722931Y-103872419D01*
X172722931Y-103300990D02*
X172770550Y-103253371D01*
X172770550Y-103253371D02*
X172865788Y-103205752D01*
X172865788Y-103205752D02*
X173008645Y-103205752D01*
X173008645Y-103205752D02*
X173103883Y-103253371D01*
X173103883Y-103253371D02*
X173151502Y-103348609D01*
X173151502Y-103348609D02*
X173151502Y-103872419D01*
X145627693Y-92920038D02*
X145532455Y-92872419D01*
X145532455Y-92872419D02*
X145389598Y-92872419D01*
X145389598Y-92872419D02*
X145246741Y-92920038D01*
X145246741Y-92920038D02*
X145151503Y-93015276D01*
X145151503Y-93015276D02*
X145103884Y-93110514D01*
X145103884Y-93110514D02*
X145056265Y-93300990D01*
X145056265Y-93300990D02*
X145056265Y-93443847D01*
X145056265Y-93443847D02*
X145103884Y-93634323D01*
X145103884Y-93634323D02*
X145151503Y-93729561D01*
X145151503Y-93729561D02*
X145246741Y-93824800D01*
X145246741Y-93824800D02*
X145389598Y-93872419D01*
X145389598Y-93872419D02*
X145484836Y-93872419D01*
X145484836Y-93872419D02*
X145627693Y-93824800D01*
X145627693Y-93824800D02*
X145675312Y-93777180D01*
X145675312Y-93777180D02*
X145675312Y-93443847D01*
X145675312Y-93443847D02*
X145484836Y-93443847D01*
X146103884Y-93872419D02*
X146103884Y-92872419D01*
X146103884Y-92872419D02*
X146675312Y-93872419D01*
X146675312Y-93872419D02*
X146675312Y-92872419D01*
X147151503Y-93872419D02*
X147151503Y-92872419D01*
X147151503Y-92872419D02*
X147389598Y-92872419D01*
X147389598Y-92872419D02*
X147532455Y-92920038D01*
X147532455Y-92920038D02*
X147627693Y-93015276D01*
X147627693Y-93015276D02*
X147675312Y-93110514D01*
X147675312Y-93110514D02*
X147722931Y-93300990D01*
X147722931Y-93300990D02*
X147722931Y-93443847D01*
X147722931Y-93443847D02*
X147675312Y-93634323D01*
X147675312Y-93634323D02*
X147627693Y-93729561D01*
X147627693Y-93729561D02*
X147532455Y-93824800D01*
X147532455Y-93824800D02*
X147389598Y-93872419D01*
X147389598Y-93872419D02*
X147151503Y-93872419D01*
X185479961Y-101227693D02*
X185527580Y-101132455D01*
X185527580Y-101132455D02*
X185527580Y-100989598D01*
X185527580Y-100989598D02*
X185479961Y-100846741D01*
X185479961Y-100846741D02*
X185384723Y-100751503D01*
X185384723Y-100751503D02*
X185289485Y-100703884D01*
X185289485Y-100703884D02*
X185099009Y-100656265D01*
X185099009Y-100656265D02*
X184956152Y-100656265D01*
X184956152Y-100656265D02*
X184765676Y-100703884D01*
X184765676Y-100703884D02*
X184670438Y-100751503D01*
X184670438Y-100751503D02*
X184575200Y-100846741D01*
X184575200Y-100846741D02*
X184527580Y-100989598D01*
X184527580Y-100989598D02*
X184527580Y-101084836D01*
X184527580Y-101084836D02*
X184575200Y-101227693D01*
X184575200Y-101227693D02*
X184622819Y-101275312D01*
X184622819Y-101275312D02*
X184956152Y-101275312D01*
X184956152Y-101275312D02*
X184956152Y-101084836D01*
X184527580Y-101703884D02*
X185527580Y-101703884D01*
X185527580Y-101703884D02*
X184527580Y-102275312D01*
X184527580Y-102275312D02*
X185527580Y-102275312D01*
X184527580Y-102751503D02*
X185527580Y-102751503D01*
X185527580Y-102751503D02*
X185527580Y-102989598D01*
X185527580Y-102989598D02*
X185479961Y-103132455D01*
X185479961Y-103132455D02*
X185384723Y-103227693D01*
X185384723Y-103227693D02*
X185289485Y-103275312D01*
X185289485Y-103275312D02*
X185099009Y-103322931D01*
X185099009Y-103322931D02*
X184956152Y-103322931D01*
X184956152Y-103322931D02*
X184765676Y-103275312D01*
X184765676Y-103275312D02*
X184670438Y-103227693D01*
X184670438Y-103227693D02*
X184575200Y-103132455D01*
X184575200Y-103132455D02*
X184527580Y-102989598D01*
X184527580Y-102989598D02*
X184527580Y-102751503D01*
X145294360Y-95472419D02*
X145484836Y-95472419D01*
X145484836Y-95472419D02*
X145580074Y-95520038D01*
X145580074Y-95520038D02*
X145675312Y-95615276D01*
X145675312Y-95615276D02*
X145722931Y-95805752D01*
X145722931Y-95805752D02*
X145722931Y-96139085D01*
X145722931Y-96139085D02*
X145675312Y-96329561D01*
X145675312Y-96329561D02*
X145580074Y-96424800D01*
X145580074Y-96424800D02*
X145484836Y-96472419D01*
X145484836Y-96472419D02*
X145294360Y-96472419D01*
X145294360Y-96472419D02*
X145199122Y-96424800D01*
X145199122Y-96424800D02*
X145103884Y-96329561D01*
X145103884Y-96329561D02*
X145056265Y-96139085D01*
X145056265Y-96139085D02*
X145056265Y-95805752D01*
X145056265Y-95805752D02*
X145103884Y-95615276D01*
X145103884Y-95615276D02*
X145199122Y-95520038D01*
X145199122Y-95520038D02*
X145294360Y-95472419D01*
X146151503Y-95472419D02*
X146151503Y-96281942D01*
X146151503Y-96281942D02*
X146199122Y-96377180D01*
X146199122Y-96377180D02*
X146246741Y-96424800D01*
X146246741Y-96424800D02*
X146341979Y-96472419D01*
X146341979Y-96472419D02*
X146532455Y-96472419D01*
X146532455Y-96472419D02*
X146627693Y-96424800D01*
X146627693Y-96424800D02*
X146675312Y-96377180D01*
X146675312Y-96377180D02*
X146722931Y-96281942D01*
X146722931Y-96281942D02*
X146722931Y-95472419D01*
X147056265Y-95472419D02*
X147627693Y-95472419D01*
X147341979Y-96472419D02*
X147341979Y-95472419D01*
X188662475Y-93896115D02*
X187662475Y-93896115D01*
X187662475Y-93896115D02*
X187662475Y-93515163D01*
X187662475Y-93515163D02*
X187710094Y-93419925D01*
X187710094Y-93419925D02*
X187757713Y-93372306D01*
X187757713Y-93372306D02*
X187852951Y-93324687D01*
X187852951Y-93324687D02*
X187995808Y-93324687D01*
X187995808Y-93324687D02*
X188091046Y-93372306D01*
X188091046Y-93372306D02*
X188138665Y-93419925D01*
X188138665Y-93419925D02*
X188186284Y-93515163D01*
X188186284Y-93515163D02*
X188186284Y-93896115D01*
X188662475Y-92419925D02*
X188662475Y-92896115D01*
X188662475Y-92896115D02*
X187662475Y-92896115D01*
X188662475Y-91610401D02*
X188662475Y-92086591D01*
X188662475Y-92086591D02*
X187662475Y-92086591D01*
X188281522Y-91277067D02*
X188281522Y-90515163D01*
X188662475Y-89896115D02*
X188614856Y-89991353D01*
X188614856Y-89991353D02*
X188567236Y-90038972D01*
X188567236Y-90038972D02*
X188471998Y-90086591D01*
X188471998Y-90086591D02*
X188186284Y-90086591D01*
X188186284Y-90086591D02*
X188091046Y-90038972D01*
X188091046Y-90038972D02*
X188043427Y-89991353D01*
X188043427Y-89991353D02*
X187995808Y-89896115D01*
X187995808Y-89896115D02*
X187995808Y-89753258D01*
X187995808Y-89753258D02*
X188043427Y-89658020D01*
X188043427Y-89658020D02*
X188091046Y-89610401D01*
X188091046Y-89610401D02*
X188186284Y-89562782D01*
X188186284Y-89562782D02*
X188471998Y-89562782D01*
X188471998Y-89562782D02*
X188567236Y-89610401D01*
X188567236Y-89610401D02*
X188614856Y-89658020D01*
X188614856Y-89658020D02*
X188662475Y-89753258D01*
X188662475Y-89753258D02*
X188662475Y-89896115D01*
X187995808Y-88705639D02*
X188662475Y-88705639D01*
X187995808Y-89134210D02*
X188519617Y-89134210D01*
X188519617Y-89134210D02*
X188614856Y-89086591D01*
X188614856Y-89086591D02*
X188662475Y-88991353D01*
X188662475Y-88991353D02*
X188662475Y-88848496D01*
X188662475Y-88848496D02*
X188614856Y-88753258D01*
X188614856Y-88753258D02*
X188567236Y-88705639D01*
X187995808Y-88372305D02*
X187995808Y-87991353D01*
X187662475Y-88229448D02*
X188519617Y-88229448D01*
X188519617Y-88229448D02*
X188614856Y-88181829D01*
X188614856Y-88181829D02*
X188662475Y-88086591D01*
X188662475Y-88086591D02*
X188662475Y-87991353D01*
X190653371Y-93610401D02*
X190605752Y-93658020D01*
X190605752Y-93658020D02*
X190462895Y-93753258D01*
X190462895Y-93753258D02*
X190367657Y-93800877D01*
X190367657Y-93800877D02*
X190224800Y-93848496D01*
X190224800Y-93848496D02*
X189986704Y-93896115D01*
X189986704Y-93896115D02*
X189796228Y-93896115D01*
X189796228Y-93896115D02*
X189558133Y-93848496D01*
X189558133Y-93848496D02*
X189415276Y-93800877D01*
X189415276Y-93800877D02*
X189320038Y-93753258D01*
X189320038Y-93753258D02*
X189177180Y-93658020D01*
X189177180Y-93658020D02*
X189129561Y-93610401D01*
X190224800Y-93277067D02*
X190272419Y-93181829D01*
X190272419Y-93181829D02*
X190272419Y-92991353D01*
X190272419Y-92991353D02*
X190224800Y-92896115D01*
X190224800Y-92896115D02*
X190129561Y-92848496D01*
X190129561Y-92848496D02*
X190081942Y-92848496D01*
X190081942Y-92848496D02*
X189986704Y-92896115D01*
X189986704Y-92896115D02*
X189939085Y-92991353D01*
X189939085Y-92991353D02*
X189939085Y-93134210D01*
X189939085Y-93134210D02*
X189891466Y-93229448D01*
X189891466Y-93229448D02*
X189796228Y-93277067D01*
X189796228Y-93277067D02*
X189748609Y-93277067D01*
X189748609Y-93277067D02*
X189653371Y-93229448D01*
X189653371Y-93229448D02*
X189605752Y-93134210D01*
X189605752Y-93134210D02*
X189605752Y-92991353D01*
X189605752Y-92991353D02*
X189653371Y-92896115D01*
X189605752Y-91991353D02*
X190605752Y-91991353D01*
X190224800Y-91991353D02*
X190272419Y-92086591D01*
X190272419Y-92086591D02*
X190272419Y-92277067D01*
X190272419Y-92277067D02*
X190224800Y-92372305D01*
X190224800Y-92372305D02*
X190177180Y-92419924D01*
X190177180Y-92419924D02*
X190081942Y-92467543D01*
X190081942Y-92467543D02*
X189796228Y-92467543D01*
X189796228Y-92467543D02*
X189700990Y-92419924D01*
X189700990Y-92419924D02*
X189653371Y-92372305D01*
X189653371Y-92372305D02*
X189605752Y-92277067D01*
X189605752Y-92277067D02*
X189605752Y-92086591D01*
X189605752Y-92086591D02*
X189653371Y-91991353D01*
X190177180Y-91515162D02*
X190224800Y-91467543D01*
X190224800Y-91467543D02*
X190272419Y-91515162D01*
X190272419Y-91515162D02*
X190224800Y-91562781D01*
X190224800Y-91562781D02*
X190177180Y-91515162D01*
X190177180Y-91515162D02*
X190272419Y-91515162D01*
X190653371Y-91134210D02*
X190605752Y-91086591D01*
X190605752Y-91086591D02*
X190462895Y-90991353D01*
X190462895Y-90991353D02*
X190367657Y-90943734D01*
X190367657Y-90943734D02*
X190224800Y-90896115D01*
X190224800Y-90896115D02*
X189986704Y-90848496D01*
X189986704Y-90848496D02*
X189796228Y-90848496D01*
X189796228Y-90848496D02*
X189558133Y-90896115D01*
X189558133Y-90896115D02*
X189415276Y-90943734D01*
X189415276Y-90943734D02*
X189320038Y-90991353D01*
X189320038Y-90991353D02*
X189177180Y-91086591D01*
X189177180Y-91086591D02*
X189129561Y-91134210D01*
X136627693Y-110920038D02*
X136532455Y-110872419D01*
X136532455Y-110872419D02*
X136389598Y-110872419D01*
X136389598Y-110872419D02*
X136246741Y-110920038D01*
X136246741Y-110920038D02*
X136151503Y-111015276D01*
X136151503Y-111015276D02*
X136103884Y-111110514D01*
X136103884Y-111110514D02*
X136056265Y-111300990D01*
X136056265Y-111300990D02*
X136056265Y-111443847D01*
X136056265Y-111443847D02*
X136103884Y-111634323D01*
X136103884Y-111634323D02*
X136151503Y-111729561D01*
X136151503Y-111729561D02*
X136246741Y-111824800D01*
X136246741Y-111824800D02*
X136389598Y-111872419D01*
X136389598Y-111872419D02*
X136484836Y-111872419D01*
X136484836Y-111872419D02*
X136627693Y-111824800D01*
X136627693Y-111824800D02*
X136675312Y-111777180D01*
X136675312Y-111777180D02*
X136675312Y-111443847D01*
X136675312Y-111443847D02*
X136484836Y-111443847D01*
X137103884Y-111872419D02*
X137103884Y-110872419D01*
X137103884Y-110872419D02*
X137675312Y-111872419D01*
X137675312Y-111872419D02*
X137675312Y-110872419D01*
X138151503Y-111872419D02*
X138151503Y-110872419D01*
X138151503Y-110872419D02*
X138389598Y-110872419D01*
X138389598Y-110872419D02*
X138532455Y-110920038D01*
X138532455Y-110920038D02*
X138627693Y-111015276D01*
X138627693Y-111015276D02*
X138675312Y-111110514D01*
X138675312Y-111110514D02*
X138722931Y-111300990D01*
X138722931Y-111300990D02*
X138722931Y-111443847D01*
X138722931Y-111443847D02*
X138675312Y-111634323D01*
X138675312Y-111634323D02*
X138627693Y-111729561D01*
X138627693Y-111729561D02*
X138532455Y-111824800D01*
X138532455Y-111824800D02*
X138389598Y-111872419D01*
X138389598Y-111872419D02*
X138151503Y-111872419D01*
D12*
X150741101Y-93457275D02*
X150407768Y-92981084D01*
X150169673Y-93457275D02*
X150169673Y-92457275D01*
X150169673Y-92457275D02*
X150550625Y-92457275D01*
X150550625Y-92457275D02*
X150645863Y-92504894D01*
X150645863Y-92504894D02*
X150693482Y-92552513D01*
X150693482Y-92552513D02*
X150741101Y-92647751D01*
X150741101Y-92647751D02*
X150741101Y-92790608D01*
X150741101Y-92790608D02*
X150693482Y-92885846D01*
X150693482Y-92885846D02*
X150645863Y-92933465D01*
X150645863Y-92933465D02*
X150550625Y-92981084D01*
X150550625Y-92981084D02*
X150169673Y-92981084D01*
X151741101Y-93362036D02*
X151693482Y-93409656D01*
X151693482Y-93409656D02*
X151550625Y-93457275D01*
X151550625Y-93457275D02*
X151455387Y-93457275D01*
X151455387Y-93457275D02*
X151312530Y-93409656D01*
X151312530Y-93409656D02*
X151217292Y-93314417D01*
X151217292Y-93314417D02*
X151169673Y-93219179D01*
X151169673Y-93219179D02*
X151122054Y-93028703D01*
X151122054Y-93028703D02*
X151122054Y-92885846D01*
X151122054Y-92885846D02*
X151169673Y-92695370D01*
X151169673Y-92695370D02*
X151217292Y-92600132D01*
X151217292Y-92600132D02*
X151312530Y-92504894D01*
X151312530Y-92504894D02*
X151455387Y-92457275D01*
X151455387Y-92457275D02*
X151550625Y-92457275D01*
X151550625Y-92457275D02*
X151693482Y-92504894D01*
X151693482Y-92504894D02*
X151741101Y-92552513D01*
X153074435Y-93457275D02*
X152979197Y-93409656D01*
X152979197Y-93409656D02*
X152931578Y-93362036D01*
X152931578Y-93362036D02*
X152883959Y-93266798D01*
X152883959Y-93266798D02*
X152883959Y-92981084D01*
X152883959Y-92981084D02*
X152931578Y-92885846D01*
X152931578Y-92885846D02*
X152979197Y-92838227D01*
X152979197Y-92838227D02*
X153074435Y-92790608D01*
X153074435Y-92790608D02*
X153217292Y-92790608D01*
X153217292Y-92790608D02*
X153312530Y-92838227D01*
X153312530Y-92838227D02*
X153360149Y-92885846D01*
X153360149Y-92885846D02*
X153407768Y-92981084D01*
X153407768Y-92981084D02*
X153407768Y-93266798D01*
X153407768Y-93266798D02*
X153360149Y-93362036D01*
X153360149Y-93362036D02*
X153312530Y-93409656D01*
X153312530Y-93409656D02*
X153217292Y-93457275D01*
X153217292Y-93457275D02*
X153074435Y-93457275D01*
X153788721Y-93409656D02*
X153883959Y-93457275D01*
X153883959Y-93457275D02*
X154074435Y-93457275D01*
X154074435Y-93457275D02*
X154169673Y-93409656D01*
X154169673Y-93409656D02*
X154217292Y-93314417D01*
X154217292Y-93314417D02*
X154217292Y-93266798D01*
X154217292Y-93266798D02*
X154169673Y-93171560D01*
X154169673Y-93171560D02*
X154074435Y-93123941D01*
X154074435Y-93123941D02*
X153931578Y-93123941D01*
X153931578Y-93123941D02*
X153836340Y-93076322D01*
X153836340Y-93076322D02*
X153788721Y-92981084D01*
X153788721Y-92981084D02*
X153788721Y-92933465D01*
X153788721Y-92933465D02*
X153836340Y-92838227D01*
X153836340Y-92838227D02*
X153931578Y-92790608D01*
X153931578Y-92790608D02*
X154074435Y-92790608D01*
X154074435Y-92790608D02*
X154169673Y-92838227D01*
X155074435Y-93409656D02*
X154979197Y-93457275D01*
X154979197Y-93457275D02*
X154788721Y-93457275D01*
X154788721Y-93457275D02*
X154693483Y-93409656D01*
X154693483Y-93409656D02*
X154645864Y-93362036D01*
X154645864Y-93362036D02*
X154598245Y-93266798D01*
X154598245Y-93266798D02*
X154598245Y-92981084D01*
X154598245Y-92981084D02*
X154645864Y-92885846D01*
X154645864Y-92885846D02*
X154693483Y-92838227D01*
X154693483Y-92838227D02*
X154788721Y-92790608D01*
X154788721Y-92790608D02*
X154979197Y-92790608D01*
X154979197Y-92790608D02*
X155074435Y-92838227D01*
X155503007Y-93457275D02*
X155503007Y-92790608D01*
X155503007Y-92457275D02*
X155455388Y-92504894D01*
X155455388Y-92504894D02*
X155503007Y-92552513D01*
X155503007Y-92552513D02*
X155550626Y-92504894D01*
X155550626Y-92504894D02*
X155503007Y-92457275D01*
X155503007Y-92457275D02*
X155503007Y-92552513D01*
X156122054Y-93457275D02*
X156026816Y-93409656D01*
X156026816Y-93409656D02*
X155979197Y-93314417D01*
X155979197Y-93314417D02*
X155979197Y-92457275D01*
X156645864Y-93457275D02*
X156550626Y-93409656D01*
X156550626Y-93409656D02*
X156503007Y-93314417D01*
X156503007Y-93314417D02*
X156503007Y-92457275D01*
X157455388Y-93457275D02*
X157455388Y-92933465D01*
X157455388Y-92933465D02*
X157407769Y-92838227D01*
X157407769Y-92838227D02*
X157312531Y-92790608D01*
X157312531Y-92790608D02*
X157122055Y-92790608D01*
X157122055Y-92790608D02*
X157026817Y-92838227D01*
X157455388Y-93409656D02*
X157360150Y-93457275D01*
X157360150Y-93457275D02*
X157122055Y-93457275D01*
X157122055Y-93457275D02*
X157026817Y-93409656D01*
X157026817Y-93409656D02*
X156979198Y-93314417D01*
X156979198Y-93314417D02*
X156979198Y-93219179D01*
X156979198Y-93219179D02*
X157026817Y-93123941D01*
X157026817Y-93123941D02*
X157122055Y-93076322D01*
X157122055Y-93076322D02*
X157360150Y-93076322D01*
X157360150Y-93076322D02*
X157455388Y-93028703D01*
X157788722Y-92790608D02*
X158169674Y-92790608D01*
X157931579Y-92457275D02*
X157931579Y-93314417D01*
X157931579Y-93314417D02*
X157979198Y-93409656D01*
X157979198Y-93409656D02*
X158074436Y-93457275D01*
X158074436Y-93457275D02*
X158169674Y-93457275D01*
X158645865Y-93457275D02*
X158550627Y-93409656D01*
X158550627Y-93409656D02*
X158503008Y-93362036D01*
X158503008Y-93362036D02*
X158455389Y-93266798D01*
X158455389Y-93266798D02*
X158455389Y-92981084D01*
X158455389Y-92981084D02*
X158503008Y-92885846D01*
X158503008Y-92885846D02*
X158550627Y-92838227D01*
X158550627Y-92838227D02*
X158645865Y-92790608D01*
X158645865Y-92790608D02*
X158788722Y-92790608D01*
X158788722Y-92790608D02*
X158883960Y-92838227D01*
X158883960Y-92838227D02*
X158931579Y-92885846D01*
X158931579Y-92885846D02*
X158979198Y-92981084D01*
X158979198Y-92981084D02*
X158979198Y-93266798D01*
X158979198Y-93266798D02*
X158931579Y-93362036D01*
X158931579Y-93362036D02*
X158883960Y-93409656D01*
X158883960Y-93409656D02*
X158788722Y-93457275D01*
X158788722Y-93457275D02*
X158645865Y-93457275D01*
X159407770Y-93457275D02*
X159407770Y-92790608D01*
X159407770Y-92981084D02*
X159455389Y-92885846D01*
X159455389Y-92885846D02*
X159503008Y-92838227D01*
X159503008Y-92838227D02*
X159598246Y-92790608D01*
X159598246Y-92790608D02*
X159693484Y-92790608D01*
X150169673Y-95067219D02*
X150169673Y-94067219D01*
X150645863Y-94400552D02*
X150645863Y-95067219D01*
X150645863Y-94495790D02*
X150693482Y-94448171D01*
X150693482Y-94448171D02*
X150788720Y-94400552D01*
X150788720Y-94400552D02*
X150931577Y-94400552D01*
X150931577Y-94400552D02*
X151026815Y-94448171D01*
X151026815Y-94448171D02*
X151074434Y-94543409D01*
X151074434Y-94543409D02*
X151074434Y-95067219D01*
X151455387Y-94400552D02*
X151693482Y-95067219D01*
X151693482Y-95067219D02*
X151931577Y-94400552D01*
X152693482Y-95019600D02*
X152598244Y-95067219D01*
X152598244Y-95067219D02*
X152407768Y-95067219D01*
X152407768Y-95067219D02*
X152312530Y-95019600D01*
X152312530Y-95019600D02*
X152264911Y-94924361D01*
X152264911Y-94924361D02*
X152264911Y-94543409D01*
X152264911Y-94543409D02*
X152312530Y-94448171D01*
X152312530Y-94448171D02*
X152407768Y-94400552D01*
X152407768Y-94400552D02*
X152598244Y-94400552D01*
X152598244Y-94400552D02*
X152693482Y-94448171D01*
X152693482Y-94448171D02*
X152741101Y-94543409D01*
X152741101Y-94543409D02*
X152741101Y-94638647D01*
X152741101Y-94638647D02*
X152264911Y-94733885D01*
X153169673Y-95067219D02*
X153169673Y-94400552D01*
X153169673Y-94591028D02*
X153217292Y-94495790D01*
X153217292Y-94495790D02*
X153264911Y-94448171D01*
X153264911Y-94448171D02*
X153360149Y-94400552D01*
X153360149Y-94400552D02*
X153455387Y-94400552D01*
X153645864Y-94400552D02*
X154026816Y-94400552D01*
X153788721Y-94067219D02*
X153788721Y-94924361D01*
X153788721Y-94924361D02*
X153836340Y-95019600D01*
X153836340Y-95019600D02*
X153931578Y-95067219D01*
X153931578Y-95067219D02*
X154026816Y-95067219D01*
X154360150Y-95067219D02*
X154360150Y-94400552D01*
X154360150Y-94067219D02*
X154312531Y-94114838D01*
X154312531Y-94114838D02*
X154360150Y-94162457D01*
X154360150Y-94162457D02*
X154407769Y-94114838D01*
X154407769Y-94114838D02*
X154360150Y-94067219D01*
X154360150Y-94067219D02*
X154360150Y-94162457D01*
X154836340Y-94400552D02*
X154836340Y-95067219D01*
X154836340Y-94495790D02*
X154883959Y-94448171D01*
X154883959Y-94448171D02*
X154979197Y-94400552D01*
X154979197Y-94400552D02*
X155122054Y-94400552D01*
X155122054Y-94400552D02*
X155217292Y-94448171D01*
X155217292Y-94448171D02*
X155264911Y-94543409D01*
X155264911Y-94543409D02*
X155264911Y-95067219D01*
X156169673Y-94400552D02*
X156169673Y-95210076D01*
X156169673Y-95210076D02*
X156122054Y-95305314D01*
X156122054Y-95305314D02*
X156074435Y-95352933D01*
X156074435Y-95352933D02*
X155979197Y-95400552D01*
X155979197Y-95400552D02*
X155836340Y-95400552D01*
X155836340Y-95400552D02*
X155741102Y-95352933D01*
X156169673Y-95019600D02*
X156074435Y-95067219D01*
X156074435Y-95067219D02*
X155883959Y-95067219D01*
X155883959Y-95067219D02*
X155788721Y-95019600D01*
X155788721Y-95019600D02*
X155741102Y-94971980D01*
X155741102Y-94971980D02*
X155693483Y-94876742D01*
X155693483Y-94876742D02*
X155693483Y-94591028D01*
X155693483Y-94591028D02*
X155741102Y-94495790D01*
X155741102Y-94495790D02*
X155788721Y-94448171D01*
X155788721Y-94448171D02*
X155883959Y-94400552D01*
X155883959Y-94400552D02*
X156074435Y-94400552D01*
X156074435Y-94400552D02*
X156169673Y-94448171D01*
X157360150Y-95019600D02*
X157503007Y-95067219D01*
X157503007Y-95067219D02*
X157741102Y-95067219D01*
X157741102Y-95067219D02*
X157836340Y-95019600D01*
X157836340Y-95019600D02*
X157883959Y-94971980D01*
X157883959Y-94971980D02*
X157931578Y-94876742D01*
X157931578Y-94876742D02*
X157931578Y-94781504D01*
X157931578Y-94781504D02*
X157883959Y-94686266D01*
X157883959Y-94686266D02*
X157836340Y-94638647D01*
X157836340Y-94638647D02*
X157741102Y-94591028D01*
X157741102Y-94591028D02*
X157550626Y-94543409D01*
X157550626Y-94543409D02*
X157455388Y-94495790D01*
X157455388Y-94495790D02*
X157407769Y-94448171D01*
X157407769Y-94448171D02*
X157360150Y-94352933D01*
X157360150Y-94352933D02*
X157360150Y-94257695D01*
X157360150Y-94257695D02*
X157407769Y-94162457D01*
X157407769Y-94162457D02*
X157455388Y-94114838D01*
X157455388Y-94114838D02*
X157550626Y-94067219D01*
X157550626Y-94067219D02*
X157788721Y-94067219D01*
X157788721Y-94067219D02*
X157931578Y-94114838D01*
X158788721Y-95019600D02*
X158693483Y-95067219D01*
X158693483Y-95067219D02*
X158503007Y-95067219D01*
X158503007Y-95067219D02*
X158407769Y-95019600D01*
X158407769Y-95019600D02*
X158360150Y-94971980D01*
X158360150Y-94971980D02*
X158312531Y-94876742D01*
X158312531Y-94876742D02*
X158312531Y-94591028D01*
X158312531Y-94591028D02*
X158360150Y-94495790D01*
X158360150Y-94495790D02*
X158407769Y-94448171D01*
X158407769Y-94448171D02*
X158503007Y-94400552D01*
X158503007Y-94400552D02*
X158693483Y-94400552D01*
X158693483Y-94400552D02*
X158788721Y-94448171D01*
X159217293Y-95067219D02*
X159217293Y-94067219D01*
X159645864Y-95067219D02*
X159645864Y-94543409D01*
X159645864Y-94543409D02*
X159598245Y-94448171D01*
X159598245Y-94448171D02*
X159503007Y-94400552D01*
X159503007Y-94400552D02*
X159360150Y-94400552D01*
X159360150Y-94400552D02*
X159264912Y-94448171D01*
X159264912Y-94448171D02*
X159217293Y-94495790D01*
X160122055Y-95067219D02*
X160122055Y-94400552D01*
X160122055Y-94495790D02*
X160169674Y-94448171D01*
X160169674Y-94448171D02*
X160264912Y-94400552D01*
X160264912Y-94400552D02*
X160407769Y-94400552D01*
X160407769Y-94400552D02*
X160503007Y-94448171D01*
X160503007Y-94448171D02*
X160550626Y-94543409D01*
X160550626Y-94543409D02*
X160550626Y-95067219D01*
X160550626Y-94543409D02*
X160598245Y-94448171D01*
X160598245Y-94448171D02*
X160693483Y-94400552D01*
X160693483Y-94400552D02*
X160836340Y-94400552D01*
X160836340Y-94400552D02*
X160931579Y-94448171D01*
X160931579Y-94448171D02*
X160979198Y-94543409D01*
X160979198Y-94543409D02*
X160979198Y-95067219D01*
X161455388Y-95067219D02*
X161455388Y-94400552D01*
X161455388Y-94067219D02*
X161407769Y-94114838D01*
X161407769Y-94114838D02*
X161455388Y-94162457D01*
X161455388Y-94162457D02*
X161503007Y-94114838D01*
X161503007Y-94114838D02*
X161455388Y-94067219D01*
X161455388Y-94067219D02*
X161455388Y-94162457D01*
X161788721Y-94400552D02*
X162169673Y-94400552D01*
X161931578Y-94067219D02*
X161931578Y-94924361D01*
X161931578Y-94924361D02*
X161979197Y-95019600D01*
X161979197Y-95019600D02*
X162074435Y-95067219D01*
X162074435Y-95067219D02*
X162169673Y-95067219D01*
X162360150Y-94400552D02*
X162741102Y-94400552D01*
X162503007Y-94067219D02*
X162503007Y-94924361D01*
X162503007Y-94924361D02*
X162550626Y-95019600D01*
X162550626Y-95019600D02*
X162645864Y-95067219D01*
X162645864Y-95067219D02*
X162741102Y-95067219D01*
X163693484Y-94400552D02*
X164074436Y-94400552D01*
X163836341Y-94067219D02*
X163836341Y-94924361D01*
X163836341Y-94924361D02*
X163883960Y-95019600D01*
X163883960Y-95019600D02*
X163979198Y-95067219D01*
X163979198Y-95067219D02*
X164074436Y-95067219D01*
X164407770Y-95067219D02*
X164407770Y-94400552D01*
X164407770Y-94591028D02*
X164455389Y-94495790D01*
X164455389Y-94495790D02*
X164503008Y-94448171D01*
X164503008Y-94448171D02*
X164598246Y-94400552D01*
X164598246Y-94400552D02*
X164693484Y-94400552D01*
X165026818Y-95067219D02*
X165026818Y-94400552D01*
X165026818Y-94067219D02*
X164979199Y-94114838D01*
X164979199Y-94114838D02*
X165026818Y-94162457D01*
X165026818Y-94162457D02*
X165074437Y-94114838D01*
X165074437Y-94114838D02*
X165026818Y-94067219D01*
X165026818Y-94067219D02*
X165026818Y-94162457D01*
X165931579Y-94400552D02*
X165931579Y-95210076D01*
X165931579Y-95210076D02*
X165883960Y-95305314D01*
X165883960Y-95305314D02*
X165836341Y-95352933D01*
X165836341Y-95352933D02*
X165741103Y-95400552D01*
X165741103Y-95400552D02*
X165598246Y-95400552D01*
X165598246Y-95400552D02*
X165503008Y-95352933D01*
X165931579Y-95019600D02*
X165836341Y-95067219D01*
X165836341Y-95067219D02*
X165645865Y-95067219D01*
X165645865Y-95067219D02*
X165550627Y-95019600D01*
X165550627Y-95019600D02*
X165503008Y-94971980D01*
X165503008Y-94971980D02*
X165455389Y-94876742D01*
X165455389Y-94876742D02*
X165455389Y-94591028D01*
X165455389Y-94591028D02*
X165503008Y-94495790D01*
X165503008Y-94495790D02*
X165550627Y-94448171D01*
X165550627Y-94448171D02*
X165645865Y-94400552D01*
X165645865Y-94400552D02*
X165836341Y-94400552D01*
X165836341Y-94400552D02*
X165931579Y-94448171D01*
X166836341Y-94400552D02*
X166836341Y-95210076D01*
X166836341Y-95210076D02*
X166788722Y-95305314D01*
X166788722Y-95305314D02*
X166741103Y-95352933D01*
X166741103Y-95352933D02*
X166645865Y-95400552D01*
X166645865Y-95400552D02*
X166503008Y-95400552D01*
X166503008Y-95400552D02*
X166407770Y-95352933D01*
X166836341Y-95019600D02*
X166741103Y-95067219D01*
X166741103Y-95067219D02*
X166550627Y-95067219D01*
X166550627Y-95067219D02*
X166455389Y-95019600D01*
X166455389Y-95019600D02*
X166407770Y-94971980D01*
X166407770Y-94971980D02*
X166360151Y-94876742D01*
X166360151Y-94876742D02*
X166360151Y-94591028D01*
X166360151Y-94591028D02*
X166407770Y-94495790D01*
X166407770Y-94495790D02*
X166455389Y-94448171D01*
X166455389Y-94448171D02*
X166550627Y-94400552D01*
X166550627Y-94400552D02*
X166741103Y-94400552D01*
X166741103Y-94400552D02*
X166836341Y-94448171D01*
X167693484Y-95019600D02*
X167598246Y-95067219D01*
X167598246Y-95067219D02*
X167407770Y-95067219D01*
X167407770Y-95067219D02*
X167312532Y-95019600D01*
X167312532Y-95019600D02*
X167264913Y-94924361D01*
X167264913Y-94924361D02*
X167264913Y-94543409D01*
X167264913Y-94543409D02*
X167312532Y-94448171D01*
X167312532Y-94448171D02*
X167407770Y-94400552D01*
X167407770Y-94400552D02*
X167598246Y-94400552D01*
X167598246Y-94400552D02*
X167693484Y-94448171D01*
X167693484Y-94448171D02*
X167741103Y-94543409D01*
X167741103Y-94543409D02*
X167741103Y-94638647D01*
X167741103Y-94638647D02*
X167264913Y-94733885D01*
X168169675Y-95067219D02*
X168169675Y-94400552D01*
X168169675Y-94591028D02*
X168217294Y-94495790D01*
X168217294Y-94495790D02*
X168264913Y-94448171D01*
X168264913Y-94448171D02*
X168360151Y-94400552D01*
X168360151Y-94400552D02*
X168455389Y-94400552D01*
D10*
X146227693Y-122720038D02*
X146132455Y-122672419D01*
X146132455Y-122672419D02*
X145989598Y-122672419D01*
X145989598Y-122672419D02*
X145846741Y-122720038D01*
X145846741Y-122720038D02*
X145751503Y-122815276D01*
X145751503Y-122815276D02*
X145703884Y-122910514D01*
X145703884Y-122910514D02*
X145656265Y-123100990D01*
X145656265Y-123100990D02*
X145656265Y-123243847D01*
X145656265Y-123243847D02*
X145703884Y-123434323D01*
X145703884Y-123434323D02*
X145751503Y-123529561D01*
X145751503Y-123529561D02*
X145846741Y-123624800D01*
X145846741Y-123624800D02*
X145989598Y-123672419D01*
X145989598Y-123672419D02*
X146084836Y-123672419D01*
X146084836Y-123672419D02*
X146227693Y-123624800D01*
X146227693Y-123624800D02*
X146275312Y-123577180D01*
X146275312Y-123577180D02*
X146275312Y-123243847D01*
X146275312Y-123243847D02*
X146084836Y-123243847D01*
X146703884Y-123672419D02*
X146703884Y-122672419D01*
X146703884Y-122672419D02*
X147275312Y-123672419D01*
X147275312Y-123672419D02*
X147275312Y-122672419D01*
X147751503Y-123672419D02*
X147751503Y-122672419D01*
X147751503Y-122672419D02*
X147989598Y-122672419D01*
X147989598Y-122672419D02*
X148132455Y-122720038D01*
X148132455Y-122720038D02*
X148227693Y-122815276D01*
X148227693Y-122815276D02*
X148275312Y-122910514D01*
X148275312Y-122910514D02*
X148322931Y-123100990D01*
X148322931Y-123100990D02*
X148322931Y-123243847D01*
X148322931Y-123243847D02*
X148275312Y-123434323D01*
X148275312Y-123434323D02*
X148227693Y-123529561D01*
X148227693Y-123529561D02*
X148132455Y-123624800D01*
X148132455Y-123624800D02*
X147989598Y-123672419D01*
X147989598Y-123672419D02*
X147751503Y-123672419D01*
D12*
X180969673Y-107267219D02*
X180969673Y-106267219D01*
X180969673Y-106267219D02*
X181350625Y-106267219D01*
X181350625Y-106267219D02*
X181445863Y-106314838D01*
X181445863Y-106314838D02*
X181493482Y-106362457D01*
X181493482Y-106362457D02*
X181541101Y-106457695D01*
X181541101Y-106457695D02*
X181541101Y-106600552D01*
X181541101Y-106600552D02*
X181493482Y-106695790D01*
X181493482Y-106695790D02*
X181445863Y-106743409D01*
X181445863Y-106743409D02*
X181350625Y-106791028D01*
X181350625Y-106791028D02*
X180969673Y-106791028D01*
X182112530Y-107267219D02*
X182017292Y-107219600D01*
X182017292Y-107219600D02*
X181969673Y-107171980D01*
X181969673Y-107171980D02*
X181922054Y-107076742D01*
X181922054Y-107076742D02*
X181922054Y-106791028D01*
X181922054Y-106791028D02*
X181969673Y-106695790D01*
X181969673Y-106695790D02*
X182017292Y-106648171D01*
X182017292Y-106648171D02*
X182112530Y-106600552D01*
X182112530Y-106600552D02*
X182255387Y-106600552D01*
X182255387Y-106600552D02*
X182350625Y-106648171D01*
X182350625Y-106648171D02*
X182398244Y-106695790D01*
X182398244Y-106695790D02*
X182445863Y-106791028D01*
X182445863Y-106791028D02*
X182445863Y-107076742D01*
X182445863Y-107076742D02*
X182398244Y-107171980D01*
X182398244Y-107171980D02*
X182350625Y-107219600D01*
X182350625Y-107219600D02*
X182255387Y-107267219D01*
X182255387Y-107267219D02*
X182112530Y-107267219D01*
X182779197Y-106600552D02*
X182969673Y-107267219D01*
X182969673Y-107267219D02*
X183160149Y-106791028D01*
X183160149Y-106791028D02*
X183350625Y-107267219D01*
X183350625Y-107267219D02*
X183541101Y-106600552D01*
X184303006Y-107219600D02*
X184207768Y-107267219D01*
X184207768Y-107267219D02*
X184017292Y-107267219D01*
X184017292Y-107267219D02*
X183922054Y-107219600D01*
X183922054Y-107219600D02*
X183874435Y-107124361D01*
X183874435Y-107124361D02*
X183874435Y-106743409D01*
X183874435Y-106743409D02*
X183922054Y-106648171D01*
X183922054Y-106648171D02*
X184017292Y-106600552D01*
X184017292Y-106600552D02*
X184207768Y-106600552D01*
X184207768Y-106600552D02*
X184303006Y-106648171D01*
X184303006Y-106648171D02*
X184350625Y-106743409D01*
X184350625Y-106743409D02*
X184350625Y-106838647D01*
X184350625Y-106838647D02*
X183874435Y-106933885D01*
X184779197Y-107267219D02*
X184779197Y-106600552D01*
X184779197Y-106791028D02*
X184826816Y-106695790D01*
X184826816Y-106695790D02*
X184874435Y-106648171D01*
X184874435Y-106648171D02*
X184969673Y-106600552D01*
X184969673Y-106600552D02*
X185064911Y-106600552D01*
X186112531Y-107219600D02*
X186207769Y-107267219D01*
X186207769Y-107267219D02*
X186398245Y-107267219D01*
X186398245Y-107267219D02*
X186493483Y-107219600D01*
X186493483Y-107219600D02*
X186541102Y-107124361D01*
X186541102Y-107124361D02*
X186541102Y-107076742D01*
X186541102Y-107076742D02*
X186493483Y-106981504D01*
X186493483Y-106981504D02*
X186398245Y-106933885D01*
X186398245Y-106933885D02*
X186255388Y-106933885D01*
X186255388Y-106933885D02*
X186160150Y-106886266D01*
X186160150Y-106886266D02*
X186112531Y-106791028D01*
X186112531Y-106791028D02*
X186112531Y-106743409D01*
X186112531Y-106743409D02*
X186160150Y-106648171D01*
X186160150Y-106648171D02*
X186255388Y-106600552D01*
X186255388Y-106600552D02*
X186398245Y-106600552D01*
X186398245Y-106600552D02*
X186493483Y-106648171D01*
X187398245Y-106600552D02*
X187398245Y-107267219D01*
X186969674Y-106600552D02*
X186969674Y-107124361D01*
X186969674Y-107124361D02*
X187017293Y-107219600D01*
X187017293Y-107219600D02*
X187112531Y-107267219D01*
X187112531Y-107267219D02*
X187255388Y-107267219D01*
X187255388Y-107267219D02*
X187350626Y-107219600D01*
X187350626Y-107219600D02*
X187398245Y-107171980D01*
X187874436Y-106600552D02*
X187874436Y-107600552D01*
X187874436Y-106648171D02*
X187969674Y-106600552D01*
X187969674Y-106600552D02*
X188160150Y-106600552D01*
X188160150Y-106600552D02*
X188255388Y-106648171D01*
X188255388Y-106648171D02*
X188303007Y-106695790D01*
X188303007Y-106695790D02*
X188350626Y-106791028D01*
X188350626Y-106791028D02*
X188350626Y-107076742D01*
X188350626Y-107076742D02*
X188303007Y-107171980D01*
X188303007Y-107171980D02*
X188255388Y-107219600D01*
X188255388Y-107219600D02*
X188160150Y-107267219D01*
X188160150Y-107267219D02*
X187969674Y-107267219D01*
X187969674Y-107267219D02*
X187874436Y-107219600D01*
X188779198Y-106600552D02*
X188779198Y-107600552D01*
X188779198Y-106648171D02*
X188874436Y-106600552D01*
X188874436Y-106600552D02*
X189064912Y-106600552D01*
X189064912Y-106600552D02*
X189160150Y-106648171D01*
X189160150Y-106648171D02*
X189207769Y-106695790D01*
X189207769Y-106695790D02*
X189255388Y-106791028D01*
X189255388Y-106791028D02*
X189255388Y-107076742D01*
X189255388Y-107076742D02*
X189207769Y-107171980D01*
X189207769Y-107171980D02*
X189160150Y-107219600D01*
X189160150Y-107219600D02*
X189064912Y-107267219D01*
X189064912Y-107267219D02*
X188874436Y-107267219D01*
X188874436Y-107267219D02*
X188779198Y-107219600D01*
X189826817Y-107267219D02*
X189731579Y-107219600D01*
X189731579Y-107219600D02*
X189683960Y-107124361D01*
X189683960Y-107124361D02*
X189683960Y-106267219D01*
X190112532Y-106600552D02*
X190350627Y-107267219D01*
X190588722Y-106600552D02*
X190350627Y-107267219D01*
X190350627Y-107267219D02*
X190255389Y-107505314D01*
X190255389Y-107505314D02*
X190207770Y-107552933D01*
X190207770Y-107552933D02*
X190112532Y-107600552D01*
X142742724Y-79369673D02*
X143742724Y-79369673D01*
X143742724Y-79369673D02*
X142742724Y-79941101D01*
X142742724Y-79941101D02*
X143742724Y-79941101D01*
X142742724Y-80560149D02*
X142790344Y-80464911D01*
X142790344Y-80464911D02*
X142837963Y-80417292D01*
X142837963Y-80417292D02*
X142933201Y-80369673D01*
X142933201Y-80369673D02*
X143218915Y-80369673D01*
X143218915Y-80369673D02*
X143314153Y-80417292D01*
X143314153Y-80417292D02*
X143361772Y-80464911D01*
X143361772Y-80464911D02*
X143409391Y-80560149D01*
X143409391Y-80560149D02*
X143409391Y-80703006D01*
X143409391Y-80703006D02*
X143361772Y-80798244D01*
X143361772Y-80798244D02*
X143314153Y-80845863D01*
X143314153Y-80845863D02*
X143218915Y-80893482D01*
X143218915Y-80893482D02*
X142933201Y-80893482D01*
X142933201Y-80893482D02*
X142837963Y-80845863D01*
X142837963Y-80845863D02*
X142790344Y-80798244D01*
X142790344Y-80798244D02*
X142742724Y-80703006D01*
X142742724Y-80703006D02*
X142742724Y-80560149D01*
X143409391Y-81322054D02*
X142742724Y-81322054D01*
X143314153Y-81322054D02*
X143361772Y-81369673D01*
X143361772Y-81369673D02*
X143409391Y-81464911D01*
X143409391Y-81464911D02*
X143409391Y-81607768D01*
X143409391Y-81607768D02*
X143361772Y-81703006D01*
X143361772Y-81703006D02*
X143266534Y-81750625D01*
X143266534Y-81750625D02*
X142742724Y-81750625D01*
X143123677Y-82226816D02*
X143123677Y-82988721D01*
X142742724Y-83464911D02*
X143409391Y-83464911D01*
X143742724Y-83464911D02*
X143695105Y-83417292D01*
X143695105Y-83417292D02*
X143647486Y-83464911D01*
X143647486Y-83464911D02*
X143695105Y-83512530D01*
X143695105Y-83512530D02*
X143742724Y-83464911D01*
X143742724Y-83464911D02*
X143647486Y-83464911D01*
X143409391Y-83941101D02*
X142742724Y-83941101D01*
X143314153Y-83941101D02*
X143361772Y-83988720D01*
X143361772Y-83988720D02*
X143409391Y-84083958D01*
X143409391Y-84083958D02*
X143409391Y-84226815D01*
X143409391Y-84226815D02*
X143361772Y-84322053D01*
X143361772Y-84322053D02*
X143266534Y-84369672D01*
X143266534Y-84369672D02*
X142742724Y-84369672D01*
X143409391Y-84750625D02*
X142742724Y-84988720D01*
X142742724Y-84988720D02*
X143409391Y-85226815D01*
X142790344Y-85988720D02*
X142742724Y-85893482D01*
X142742724Y-85893482D02*
X142742724Y-85703006D01*
X142742724Y-85703006D02*
X142790344Y-85607768D01*
X142790344Y-85607768D02*
X142885582Y-85560149D01*
X142885582Y-85560149D02*
X143266534Y-85560149D01*
X143266534Y-85560149D02*
X143361772Y-85607768D01*
X143361772Y-85607768D02*
X143409391Y-85703006D01*
X143409391Y-85703006D02*
X143409391Y-85893482D01*
X143409391Y-85893482D02*
X143361772Y-85988720D01*
X143361772Y-85988720D02*
X143266534Y-86036339D01*
X143266534Y-86036339D02*
X143171296Y-86036339D01*
X143171296Y-86036339D02*
X143076058Y-85560149D01*
X142742724Y-86464911D02*
X143409391Y-86464911D01*
X143218915Y-86464911D02*
X143314153Y-86512530D01*
X143314153Y-86512530D02*
X143361772Y-86560149D01*
X143361772Y-86560149D02*
X143409391Y-86655387D01*
X143409391Y-86655387D02*
X143409391Y-86750625D01*
X143409391Y-86941102D02*
X143409391Y-87322054D01*
X143742724Y-87083959D02*
X142885582Y-87083959D01*
X142885582Y-87083959D02*
X142790344Y-87131578D01*
X142790344Y-87131578D02*
X142742724Y-87226816D01*
X142742724Y-87226816D02*
X142742724Y-87322054D01*
X142742724Y-87655388D02*
X143409391Y-87655388D01*
X143742724Y-87655388D02*
X143695105Y-87607769D01*
X143695105Y-87607769D02*
X143647486Y-87655388D01*
X143647486Y-87655388D02*
X143695105Y-87703007D01*
X143695105Y-87703007D02*
X143742724Y-87655388D01*
X143742724Y-87655388D02*
X143647486Y-87655388D01*
X143409391Y-88131578D02*
X142742724Y-88131578D01*
X143314153Y-88131578D02*
X143361772Y-88179197D01*
X143361772Y-88179197D02*
X143409391Y-88274435D01*
X143409391Y-88274435D02*
X143409391Y-88417292D01*
X143409391Y-88417292D02*
X143361772Y-88512530D01*
X143361772Y-88512530D02*
X143266534Y-88560149D01*
X143266534Y-88560149D02*
X142742724Y-88560149D01*
X143409391Y-89464911D02*
X142599867Y-89464911D01*
X142599867Y-89464911D02*
X142504629Y-89417292D01*
X142504629Y-89417292D02*
X142457010Y-89369673D01*
X142457010Y-89369673D02*
X142409391Y-89274435D01*
X142409391Y-89274435D02*
X142409391Y-89131578D01*
X142409391Y-89131578D02*
X142457010Y-89036340D01*
X142790344Y-89464911D02*
X142742724Y-89369673D01*
X142742724Y-89369673D02*
X142742724Y-89179197D01*
X142742724Y-89179197D02*
X142790344Y-89083959D01*
X142790344Y-89083959D02*
X142837963Y-89036340D01*
X142837963Y-89036340D02*
X142933201Y-88988721D01*
X142933201Y-88988721D02*
X143218915Y-88988721D01*
X143218915Y-88988721D02*
X143314153Y-89036340D01*
X143314153Y-89036340D02*
X143361772Y-89083959D01*
X143361772Y-89083959D02*
X143409391Y-89179197D01*
X143409391Y-89179197D02*
X143409391Y-89369673D01*
X143409391Y-89369673D02*
X143361772Y-89464911D01*
X141132780Y-79798244D02*
X141656590Y-79798244D01*
X141656590Y-79798244D02*
X141751828Y-79750625D01*
X141751828Y-79750625D02*
X141799447Y-79655387D01*
X141799447Y-79655387D02*
X141799447Y-79464911D01*
X141799447Y-79464911D02*
X141751828Y-79369673D01*
X141180400Y-79798244D02*
X141132780Y-79703006D01*
X141132780Y-79703006D02*
X141132780Y-79464911D01*
X141132780Y-79464911D02*
X141180400Y-79369673D01*
X141180400Y-79369673D02*
X141275638Y-79322054D01*
X141275638Y-79322054D02*
X141370876Y-79322054D01*
X141370876Y-79322054D02*
X141466114Y-79369673D01*
X141466114Y-79369673D02*
X141513733Y-79464911D01*
X141513733Y-79464911D02*
X141513733Y-79703006D01*
X141513733Y-79703006D02*
X141561352Y-79798244D01*
X141132780Y-80274435D02*
X141799447Y-80274435D01*
X141704209Y-80274435D02*
X141751828Y-80322054D01*
X141751828Y-80322054D02*
X141799447Y-80417292D01*
X141799447Y-80417292D02*
X141799447Y-80560149D01*
X141799447Y-80560149D02*
X141751828Y-80655387D01*
X141751828Y-80655387D02*
X141656590Y-80703006D01*
X141656590Y-80703006D02*
X141132780Y-80703006D01*
X141656590Y-80703006D02*
X141751828Y-80750625D01*
X141751828Y-80750625D02*
X141799447Y-80845863D01*
X141799447Y-80845863D02*
X141799447Y-80988720D01*
X141799447Y-80988720D02*
X141751828Y-81083959D01*
X141751828Y-81083959D02*
X141656590Y-81131578D01*
X141656590Y-81131578D02*
X141132780Y-81131578D01*
X141799447Y-81607768D02*
X140799447Y-81607768D01*
X141751828Y-81607768D02*
X141799447Y-81703006D01*
X141799447Y-81703006D02*
X141799447Y-81893482D01*
X141799447Y-81893482D02*
X141751828Y-81988720D01*
X141751828Y-81988720D02*
X141704209Y-82036339D01*
X141704209Y-82036339D02*
X141608971Y-82083958D01*
X141608971Y-82083958D02*
X141323257Y-82083958D01*
X141323257Y-82083958D02*
X141228019Y-82036339D01*
X141228019Y-82036339D02*
X141180400Y-81988720D01*
X141180400Y-81988720D02*
X141132780Y-81893482D01*
X141132780Y-81893482D02*
X141132780Y-81703006D01*
X141132780Y-81703006D02*
X141180400Y-81607768D01*
X141132780Y-82655387D02*
X141180400Y-82560149D01*
X141180400Y-82560149D02*
X141275638Y-82512530D01*
X141275638Y-82512530D02*
X142132780Y-82512530D01*
X141132780Y-83036340D02*
X141799447Y-83036340D01*
X142132780Y-83036340D02*
X142085161Y-82988721D01*
X142085161Y-82988721D02*
X142037542Y-83036340D01*
X142037542Y-83036340D02*
X142085161Y-83083959D01*
X142085161Y-83083959D02*
X142132780Y-83036340D01*
X142132780Y-83036340D02*
X142037542Y-83036340D01*
X141799447Y-83369673D02*
X141799447Y-83750625D01*
X141132780Y-83512530D02*
X141989923Y-83512530D01*
X141989923Y-83512530D02*
X142085161Y-83560149D01*
X142085161Y-83560149D02*
X142132780Y-83655387D01*
X142132780Y-83655387D02*
X142132780Y-83750625D01*
X141132780Y-84083959D02*
X141799447Y-84083959D01*
X142132780Y-84083959D02*
X142085161Y-84036340D01*
X142085161Y-84036340D02*
X142037542Y-84083959D01*
X142037542Y-84083959D02*
X142085161Y-84131578D01*
X142085161Y-84131578D02*
X142132780Y-84083959D01*
X142132780Y-84083959D02*
X142037542Y-84083959D01*
X141180400Y-84941101D02*
X141132780Y-84845863D01*
X141132780Y-84845863D02*
X141132780Y-84655387D01*
X141132780Y-84655387D02*
X141180400Y-84560149D01*
X141180400Y-84560149D02*
X141275638Y-84512530D01*
X141275638Y-84512530D02*
X141656590Y-84512530D01*
X141656590Y-84512530D02*
X141751828Y-84560149D01*
X141751828Y-84560149D02*
X141799447Y-84655387D01*
X141799447Y-84655387D02*
X141799447Y-84845863D01*
X141799447Y-84845863D02*
X141751828Y-84941101D01*
X141751828Y-84941101D02*
X141656590Y-84988720D01*
X141656590Y-84988720D02*
X141561352Y-84988720D01*
X141561352Y-84988720D02*
X141466114Y-84512530D01*
X141132780Y-85417292D02*
X141799447Y-85417292D01*
X141608971Y-85417292D02*
X141704209Y-85464911D01*
X141704209Y-85464911D02*
X141751828Y-85512530D01*
X141751828Y-85512530D02*
X141799447Y-85607768D01*
X141799447Y-85607768D02*
X141799447Y-85703006D01*
X152741101Y-118667219D02*
X152407768Y-118191028D01*
X152169673Y-118667219D02*
X152169673Y-117667219D01*
X152169673Y-117667219D02*
X152550625Y-117667219D01*
X152550625Y-117667219D02*
X152645863Y-117714838D01*
X152645863Y-117714838D02*
X152693482Y-117762457D01*
X152693482Y-117762457D02*
X152741101Y-117857695D01*
X152741101Y-117857695D02*
X152741101Y-118000552D01*
X152741101Y-118000552D02*
X152693482Y-118095790D01*
X152693482Y-118095790D02*
X152645863Y-118143409D01*
X152645863Y-118143409D02*
X152550625Y-118191028D01*
X152550625Y-118191028D02*
X152169673Y-118191028D01*
X153169673Y-118667219D02*
X153169673Y-118000552D01*
X153169673Y-117667219D02*
X153122054Y-117714838D01*
X153122054Y-117714838D02*
X153169673Y-117762457D01*
X153169673Y-117762457D02*
X153217292Y-117714838D01*
X153217292Y-117714838D02*
X153169673Y-117667219D01*
X153169673Y-117667219D02*
X153169673Y-117762457D01*
X153645863Y-118000552D02*
X153645863Y-118667219D01*
X153645863Y-118095790D02*
X153693482Y-118048171D01*
X153693482Y-118048171D02*
X153788720Y-118000552D01*
X153788720Y-118000552D02*
X153931577Y-118000552D01*
X153931577Y-118000552D02*
X154026815Y-118048171D01*
X154026815Y-118048171D02*
X154074434Y-118143409D01*
X154074434Y-118143409D02*
X154074434Y-118667219D01*
X154979196Y-118000552D02*
X154979196Y-118810076D01*
X154979196Y-118810076D02*
X154931577Y-118905314D01*
X154931577Y-118905314D02*
X154883958Y-118952933D01*
X154883958Y-118952933D02*
X154788720Y-119000552D01*
X154788720Y-119000552D02*
X154645863Y-119000552D01*
X154645863Y-119000552D02*
X154550625Y-118952933D01*
X154979196Y-118619600D02*
X154883958Y-118667219D01*
X154883958Y-118667219D02*
X154693482Y-118667219D01*
X154693482Y-118667219D02*
X154598244Y-118619600D01*
X154598244Y-118619600D02*
X154550625Y-118571980D01*
X154550625Y-118571980D02*
X154503006Y-118476742D01*
X154503006Y-118476742D02*
X154503006Y-118191028D01*
X154503006Y-118191028D02*
X154550625Y-118095790D01*
X154550625Y-118095790D02*
X154598244Y-118048171D01*
X154598244Y-118048171D02*
X154693482Y-118000552D01*
X154693482Y-118000552D02*
X154883958Y-118000552D01*
X154883958Y-118000552D02*
X154979196Y-118048171D01*
X156360149Y-118667219D02*
X156264911Y-118619600D01*
X156264911Y-118619600D02*
X156217292Y-118571980D01*
X156217292Y-118571980D02*
X156169673Y-118476742D01*
X156169673Y-118476742D02*
X156169673Y-118191028D01*
X156169673Y-118191028D02*
X156217292Y-118095790D01*
X156217292Y-118095790D02*
X156264911Y-118048171D01*
X156264911Y-118048171D02*
X156360149Y-118000552D01*
X156360149Y-118000552D02*
X156503006Y-118000552D01*
X156503006Y-118000552D02*
X156598244Y-118048171D01*
X156598244Y-118048171D02*
X156645863Y-118095790D01*
X156645863Y-118095790D02*
X156693482Y-118191028D01*
X156693482Y-118191028D02*
X156693482Y-118476742D01*
X156693482Y-118476742D02*
X156645863Y-118571980D01*
X156645863Y-118571980D02*
X156598244Y-118619600D01*
X156598244Y-118619600D02*
X156503006Y-118667219D01*
X156503006Y-118667219D02*
X156360149Y-118667219D01*
X157074435Y-118619600D02*
X157169673Y-118667219D01*
X157169673Y-118667219D02*
X157360149Y-118667219D01*
X157360149Y-118667219D02*
X157455387Y-118619600D01*
X157455387Y-118619600D02*
X157503006Y-118524361D01*
X157503006Y-118524361D02*
X157503006Y-118476742D01*
X157503006Y-118476742D02*
X157455387Y-118381504D01*
X157455387Y-118381504D02*
X157360149Y-118333885D01*
X157360149Y-118333885D02*
X157217292Y-118333885D01*
X157217292Y-118333885D02*
X157122054Y-118286266D01*
X157122054Y-118286266D02*
X157074435Y-118191028D01*
X157074435Y-118191028D02*
X157074435Y-118143409D01*
X157074435Y-118143409D02*
X157122054Y-118048171D01*
X157122054Y-118048171D02*
X157217292Y-118000552D01*
X157217292Y-118000552D02*
X157360149Y-118000552D01*
X157360149Y-118000552D02*
X157455387Y-118048171D01*
X158360149Y-118619600D02*
X158264911Y-118667219D01*
X158264911Y-118667219D02*
X158074435Y-118667219D01*
X158074435Y-118667219D02*
X157979197Y-118619600D01*
X157979197Y-118619600D02*
X157931578Y-118571980D01*
X157931578Y-118571980D02*
X157883959Y-118476742D01*
X157883959Y-118476742D02*
X157883959Y-118191028D01*
X157883959Y-118191028D02*
X157931578Y-118095790D01*
X157931578Y-118095790D02*
X157979197Y-118048171D01*
X157979197Y-118048171D02*
X158074435Y-118000552D01*
X158074435Y-118000552D02*
X158264911Y-118000552D01*
X158264911Y-118000552D02*
X158360149Y-118048171D01*
X158788721Y-118667219D02*
X158788721Y-118000552D01*
X158788721Y-117667219D02*
X158741102Y-117714838D01*
X158741102Y-117714838D02*
X158788721Y-117762457D01*
X158788721Y-117762457D02*
X158836340Y-117714838D01*
X158836340Y-117714838D02*
X158788721Y-117667219D01*
X158788721Y-117667219D02*
X158788721Y-117762457D01*
X159407768Y-118667219D02*
X159312530Y-118619600D01*
X159312530Y-118619600D02*
X159264911Y-118524361D01*
X159264911Y-118524361D02*
X159264911Y-117667219D01*
X159931578Y-118667219D02*
X159836340Y-118619600D01*
X159836340Y-118619600D02*
X159788721Y-118524361D01*
X159788721Y-118524361D02*
X159788721Y-117667219D01*
X160741102Y-118667219D02*
X160741102Y-118143409D01*
X160741102Y-118143409D02*
X160693483Y-118048171D01*
X160693483Y-118048171D02*
X160598245Y-118000552D01*
X160598245Y-118000552D02*
X160407769Y-118000552D01*
X160407769Y-118000552D02*
X160312531Y-118048171D01*
X160741102Y-118619600D02*
X160645864Y-118667219D01*
X160645864Y-118667219D02*
X160407769Y-118667219D01*
X160407769Y-118667219D02*
X160312531Y-118619600D01*
X160312531Y-118619600D02*
X160264912Y-118524361D01*
X160264912Y-118524361D02*
X160264912Y-118429123D01*
X160264912Y-118429123D02*
X160312531Y-118333885D01*
X160312531Y-118333885D02*
X160407769Y-118286266D01*
X160407769Y-118286266D02*
X160645864Y-118286266D01*
X160645864Y-118286266D02*
X160741102Y-118238647D01*
X161074436Y-118000552D02*
X161455388Y-118000552D01*
X161217293Y-117667219D02*
X161217293Y-118524361D01*
X161217293Y-118524361D02*
X161264912Y-118619600D01*
X161264912Y-118619600D02*
X161360150Y-118667219D01*
X161360150Y-118667219D02*
X161455388Y-118667219D01*
X161931579Y-118667219D02*
X161836341Y-118619600D01*
X161836341Y-118619600D02*
X161788722Y-118571980D01*
X161788722Y-118571980D02*
X161741103Y-118476742D01*
X161741103Y-118476742D02*
X161741103Y-118191028D01*
X161741103Y-118191028D02*
X161788722Y-118095790D01*
X161788722Y-118095790D02*
X161836341Y-118048171D01*
X161836341Y-118048171D02*
X161931579Y-118000552D01*
X161931579Y-118000552D02*
X162074436Y-118000552D01*
X162074436Y-118000552D02*
X162169674Y-118048171D01*
X162169674Y-118048171D02*
X162217293Y-118095790D01*
X162217293Y-118095790D02*
X162264912Y-118191028D01*
X162264912Y-118191028D02*
X162264912Y-118476742D01*
X162264912Y-118476742D02*
X162217293Y-118571980D01*
X162217293Y-118571980D02*
X162169674Y-118619600D01*
X162169674Y-118619600D02*
X162074436Y-118667219D01*
X162074436Y-118667219D02*
X161931579Y-118667219D01*
X162693484Y-118667219D02*
X162693484Y-118000552D01*
X162693484Y-118191028D02*
X162741103Y-118095790D01*
X162741103Y-118095790D02*
X162788722Y-118048171D01*
X162788722Y-118048171D02*
X162883960Y-118000552D01*
X162883960Y-118000552D02*
X162979198Y-118000552D01*
X143369673Y-100367219D02*
X143369673Y-99367219D01*
X143369673Y-99367219D02*
X143750625Y-99367219D01*
X143750625Y-99367219D02*
X143845863Y-99414838D01*
X143845863Y-99414838D02*
X143893482Y-99462457D01*
X143893482Y-99462457D02*
X143941101Y-99557695D01*
X143941101Y-99557695D02*
X143941101Y-99700552D01*
X143941101Y-99700552D02*
X143893482Y-99795790D01*
X143893482Y-99795790D02*
X143845863Y-99843409D01*
X143845863Y-99843409D02*
X143750625Y-99891028D01*
X143750625Y-99891028D02*
X143369673Y-99891028D01*
X144369673Y-100367219D02*
X144369673Y-99367219D01*
X144798244Y-100367219D02*
X144798244Y-99843409D01*
X144798244Y-99843409D02*
X144750625Y-99748171D01*
X144750625Y-99748171D02*
X144655387Y-99700552D01*
X144655387Y-99700552D02*
X144512530Y-99700552D01*
X144512530Y-99700552D02*
X144417292Y-99748171D01*
X144417292Y-99748171D02*
X144369673Y-99795790D01*
X145703006Y-100367219D02*
X145703006Y-99843409D01*
X145703006Y-99843409D02*
X145655387Y-99748171D01*
X145655387Y-99748171D02*
X145560149Y-99700552D01*
X145560149Y-99700552D02*
X145369673Y-99700552D01*
X145369673Y-99700552D02*
X145274435Y-99748171D01*
X145703006Y-100319600D02*
X145607768Y-100367219D01*
X145607768Y-100367219D02*
X145369673Y-100367219D01*
X145369673Y-100367219D02*
X145274435Y-100319600D01*
X145274435Y-100319600D02*
X145226816Y-100224361D01*
X145226816Y-100224361D02*
X145226816Y-100129123D01*
X145226816Y-100129123D02*
X145274435Y-100033885D01*
X145274435Y-100033885D02*
X145369673Y-99986266D01*
X145369673Y-99986266D02*
X145607768Y-99986266D01*
X145607768Y-99986266D02*
X145703006Y-99938647D01*
X146131578Y-100319600D02*
X146226816Y-100367219D01*
X146226816Y-100367219D02*
X146417292Y-100367219D01*
X146417292Y-100367219D02*
X146512530Y-100319600D01*
X146512530Y-100319600D02*
X146560149Y-100224361D01*
X146560149Y-100224361D02*
X146560149Y-100176742D01*
X146560149Y-100176742D02*
X146512530Y-100081504D01*
X146512530Y-100081504D02*
X146417292Y-100033885D01*
X146417292Y-100033885D02*
X146274435Y-100033885D01*
X146274435Y-100033885D02*
X146179197Y-99986266D01*
X146179197Y-99986266D02*
X146131578Y-99891028D01*
X146131578Y-99891028D02*
X146131578Y-99843409D01*
X146131578Y-99843409D02*
X146179197Y-99748171D01*
X146179197Y-99748171D02*
X146274435Y-99700552D01*
X146274435Y-99700552D02*
X146417292Y-99700552D01*
X146417292Y-99700552D02*
X146512530Y-99748171D01*
X147369673Y-100319600D02*
X147274435Y-100367219D01*
X147274435Y-100367219D02*
X147083959Y-100367219D01*
X147083959Y-100367219D02*
X146988721Y-100319600D01*
X146988721Y-100319600D02*
X146941102Y-100224361D01*
X146941102Y-100224361D02*
X146941102Y-99843409D01*
X146941102Y-99843409D02*
X146988721Y-99748171D01*
X146988721Y-99748171D02*
X147083959Y-99700552D01*
X147083959Y-99700552D02*
X147274435Y-99700552D01*
X147274435Y-99700552D02*
X147369673Y-99748171D01*
X147369673Y-99748171D02*
X147417292Y-99843409D01*
X147417292Y-99843409D02*
X147417292Y-99938647D01*
X147417292Y-99938647D02*
X146941102Y-100033885D01*
X149036340Y-100367219D02*
X149036340Y-99367219D01*
X149036340Y-100319600D02*
X148941102Y-100367219D01*
X148941102Y-100367219D02*
X148750626Y-100367219D01*
X148750626Y-100367219D02*
X148655388Y-100319600D01*
X148655388Y-100319600D02*
X148607769Y-100271980D01*
X148607769Y-100271980D02*
X148560150Y-100176742D01*
X148560150Y-100176742D02*
X148560150Y-99891028D01*
X148560150Y-99891028D02*
X148607769Y-99795790D01*
X148607769Y-99795790D02*
X148655388Y-99748171D01*
X148655388Y-99748171D02*
X148750626Y-99700552D01*
X148750626Y-99700552D02*
X148941102Y-99700552D01*
X148941102Y-99700552D02*
X149036340Y-99748171D01*
X149893483Y-100319600D02*
X149798245Y-100367219D01*
X149798245Y-100367219D02*
X149607769Y-100367219D01*
X149607769Y-100367219D02*
X149512531Y-100319600D01*
X149512531Y-100319600D02*
X149464912Y-100224361D01*
X149464912Y-100224361D02*
X149464912Y-99843409D01*
X149464912Y-99843409D02*
X149512531Y-99748171D01*
X149512531Y-99748171D02*
X149607769Y-99700552D01*
X149607769Y-99700552D02*
X149798245Y-99700552D01*
X149798245Y-99700552D02*
X149893483Y-99748171D01*
X149893483Y-99748171D02*
X149941102Y-99843409D01*
X149941102Y-99843409D02*
X149941102Y-99938647D01*
X149941102Y-99938647D02*
X149464912Y-100033885D01*
X150226817Y-99700552D02*
X150607769Y-99700552D01*
X150369674Y-99367219D02*
X150369674Y-100224361D01*
X150369674Y-100224361D02*
X150417293Y-100319600D01*
X150417293Y-100319600D02*
X150512531Y-100367219D01*
X150512531Y-100367219D02*
X150607769Y-100367219D01*
X151322055Y-100319600D02*
X151226817Y-100367219D01*
X151226817Y-100367219D02*
X151036341Y-100367219D01*
X151036341Y-100367219D02*
X150941103Y-100319600D01*
X150941103Y-100319600D02*
X150893484Y-100224361D01*
X150893484Y-100224361D02*
X150893484Y-99843409D01*
X150893484Y-99843409D02*
X150941103Y-99748171D01*
X150941103Y-99748171D02*
X151036341Y-99700552D01*
X151036341Y-99700552D02*
X151226817Y-99700552D01*
X151226817Y-99700552D02*
X151322055Y-99748171D01*
X151322055Y-99748171D02*
X151369674Y-99843409D01*
X151369674Y-99843409D02*
X151369674Y-99938647D01*
X151369674Y-99938647D02*
X150893484Y-100033885D01*
X152226817Y-100319600D02*
X152131579Y-100367219D01*
X152131579Y-100367219D02*
X151941103Y-100367219D01*
X151941103Y-100367219D02*
X151845865Y-100319600D01*
X151845865Y-100319600D02*
X151798246Y-100271980D01*
X151798246Y-100271980D02*
X151750627Y-100176742D01*
X151750627Y-100176742D02*
X151750627Y-99891028D01*
X151750627Y-99891028D02*
X151798246Y-99795790D01*
X151798246Y-99795790D02*
X151845865Y-99748171D01*
X151845865Y-99748171D02*
X151941103Y-99700552D01*
X151941103Y-99700552D02*
X152131579Y-99700552D01*
X152131579Y-99700552D02*
X152226817Y-99748171D01*
X152512532Y-99700552D02*
X152893484Y-99700552D01*
X152655389Y-99367219D02*
X152655389Y-100224361D01*
X152655389Y-100224361D02*
X152703008Y-100319600D01*
X152703008Y-100319600D02*
X152798246Y-100367219D01*
X152798246Y-100367219D02*
X152893484Y-100367219D01*
X153369675Y-100367219D02*
X153274437Y-100319600D01*
X153274437Y-100319600D02*
X153226818Y-100271980D01*
X153226818Y-100271980D02*
X153179199Y-100176742D01*
X153179199Y-100176742D02*
X153179199Y-99891028D01*
X153179199Y-99891028D02*
X153226818Y-99795790D01*
X153226818Y-99795790D02*
X153274437Y-99748171D01*
X153274437Y-99748171D02*
X153369675Y-99700552D01*
X153369675Y-99700552D02*
X153512532Y-99700552D01*
X153512532Y-99700552D02*
X153607770Y-99748171D01*
X153607770Y-99748171D02*
X153655389Y-99795790D01*
X153655389Y-99795790D02*
X153703008Y-99891028D01*
X153703008Y-99891028D02*
X153703008Y-100176742D01*
X153703008Y-100176742D02*
X153655389Y-100271980D01*
X153655389Y-100271980D02*
X153607770Y-100319600D01*
X153607770Y-100319600D02*
X153512532Y-100367219D01*
X153512532Y-100367219D02*
X153369675Y-100367219D01*
X154131580Y-100367219D02*
X154131580Y-99700552D01*
X154131580Y-99891028D02*
X154179199Y-99795790D01*
X154179199Y-99795790D02*
X154226818Y-99748171D01*
X154226818Y-99748171D02*
X154322056Y-99700552D01*
X154322056Y-99700552D02*
X154417294Y-99700552D01*
D10*
X181503884Y-115291466D02*
X182265789Y-115291466D01*
X183218169Y-114672419D02*
X182741979Y-114672419D01*
X182741979Y-114672419D02*
X182694360Y-115148609D01*
X182694360Y-115148609D02*
X182741979Y-115100990D01*
X182741979Y-115100990D02*
X182837217Y-115053371D01*
X182837217Y-115053371D02*
X183075312Y-115053371D01*
X183075312Y-115053371D02*
X183170550Y-115100990D01*
X183170550Y-115100990D02*
X183218169Y-115148609D01*
X183218169Y-115148609D02*
X183265788Y-115243847D01*
X183265788Y-115243847D02*
X183265788Y-115481942D01*
X183265788Y-115481942D02*
X183218169Y-115577180D01*
X183218169Y-115577180D02*
X183170550Y-115624800D01*
X183170550Y-115624800D02*
X183075312Y-115672419D01*
X183075312Y-115672419D02*
X182837217Y-115672419D01*
X182837217Y-115672419D02*
X182741979Y-115624800D01*
X182741979Y-115624800D02*
X182694360Y-115577180D01*
X183551503Y-114672419D02*
X183884836Y-115672419D01*
X183884836Y-115672419D02*
X184218169Y-114672419D01*
X160520038Y-100972306D02*
X160472419Y-101067544D01*
X160472419Y-101067544D02*
X160472419Y-101210401D01*
X160472419Y-101210401D02*
X160520038Y-101353258D01*
X160520038Y-101353258D02*
X160615276Y-101448496D01*
X160615276Y-101448496D02*
X160710514Y-101496115D01*
X160710514Y-101496115D02*
X160900990Y-101543734D01*
X160900990Y-101543734D02*
X161043847Y-101543734D01*
X161043847Y-101543734D02*
X161234323Y-101496115D01*
X161234323Y-101496115D02*
X161329561Y-101448496D01*
X161329561Y-101448496D02*
X161424800Y-101353258D01*
X161424800Y-101353258D02*
X161472419Y-101210401D01*
X161472419Y-101210401D02*
X161472419Y-101115163D01*
X161472419Y-101115163D02*
X161424800Y-100972306D01*
X161424800Y-100972306D02*
X161377180Y-100924687D01*
X161377180Y-100924687D02*
X161043847Y-100924687D01*
X161043847Y-100924687D02*
X161043847Y-101115163D01*
X161472419Y-100496115D02*
X160472419Y-100496115D01*
X160472419Y-100496115D02*
X161472419Y-99924687D01*
X161472419Y-99924687D02*
X160472419Y-99924687D01*
X161472419Y-99448496D02*
X160472419Y-99448496D01*
X160472419Y-99448496D02*
X160472419Y-99210401D01*
X160472419Y-99210401D02*
X160520038Y-99067544D01*
X160520038Y-99067544D02*
X160615276Y-98972306D01*
X160615276Y-98972306D02*
X160710514Y-98924687D01*
X160710514Y-98924687D02*
X160900990Y-98877068D01*
X160900990Y-98877068D02*
X161043847Y-98877068D01*
X161043847Y-98877068D02*
X161234323Y-98924687D01*
X161234323Y-98924687D02*
X161329561Y-98972306D01*
X161329561Y-98972306D02*
X161424800Y-99067544D01*
X161424800Y-99067544D02*
X161472419Y-99210401D01*
X161472419Y-99210401D02*
X161472419Y-99448496D01*
D12*
X167522054Y-125581504D02*
X167998244Y-125581504D01*
X167426816Y-125867219D02*
X167760149Y-124867219D01*
X167760149Y-124867219D02*
X168093482Y-125867219D01*
X168855387Y-125867219D02*
X168855387Y-124867219D01*
X168855387Y-125819600D02*
X168760149Y-125867219D01*
X168760149Y-125867219D02*
X168569673Y-125867219D01*
X168569673Y-125867219D02*
X168474435Y-125819600D01*
X168474435Y-125819600D02*
X168426816Y-125771980D01*
X168426816Y-125771980D02*
X168379197Y-125676742D01*
X168379197Y-125676742D02*
X168379197Y-125391028D01*
X168379197Y-125391028D02*
X168426816Y-125295790D01*
X168426816Y-125295790D02*
X168474435Y-125248171D01*
X168474435Y-125248171D02*
X168569673Y-125200552D01*
X168569673Y-125200552D02*
X168760149Y-125200552D01*
X168760149Y-125200552D02*
X168855387Y-125248171D01*
X169760149Y-125867219D02*
X169760149Y-125343409D01*
X169760149Y-125343409D02*
X169712530Y-125248171D01*
X169712530Y-125248171D02*
X169617292Y-125200552D01*
X169617292Y-125200552D02*
X169426816Y-125200552D01*
X169426816Y-125200552D02*
X169331578Y-125248171D01*
X169760149Y-125819600D02*
X169664911Y-125867219D01*
X169664911Y-125867219D02*
X169426816Y-125867219D01*
X169426816Y-125867219D02*
X169331578Y-125819600D01*
X169331578Y-125819600D02*
X169283959Y-125724361D01*
X169283959Y-125724361D02*
X169283959Y-125629123D01*
X169283959Y-125629123D02*
X169331578Y-125533885D01*
X169331578Y-125533885D02*
X169426816Y-125486266D01*
X169426816Y-125486266D02*
X169664911Y-125486266D01*
X169664911Y-125486266D02*
X169760149Y-125438647D01*
X170236340Y-125867219D02*
X170236340Y-125200552D01*
X170236340Y-125295790D02*
X170283959Y-125248171D01*
X170283959Y-125248171D02*
X170379197Y-125200552D01*
X170379197Y-125200552D02*
X170522054Y-125200552D01*
X170522054Y-125200552D02*
X170617292Y-125248171D01*
X170617292Y-125248171D02*
X170664911Y-125343409D01*
X170664911Y-125343409D02*
X170664911Y-125867219D01*
X170664911Y-125343409D02*
X170712530Y-125248171D01*
X170712530Y-125248171D02*
X170807768Y-125200552D01*
X170807768Y-125200552D02*
X170950625Y-125200552D01*
X170950625Y-125200552D02*
X171045864Y-125248171D01*
X171045864Y-125248171D02*
X171093483Y-125343409D01*
X171093483Y-125343409D02*
X171093483Y-125867219D01*
X172664911Y-125343409D02*
X172807768Y-125391028D01*
X172807768Y-125391028D02*
X172855387Y-125438647D01*
X172855387Y-125438647D02*
X172903006Y-125533885D01*
X172903006Y-125533885D02*
X172903006Y-125676742D01*
X172903006Y-125676742D02*
X172855387Y-125771980D01*
X172855387Y-125771980D02*
X172807768Y-125819600D01*
X172807768Y-125819600D02*
X172712530Y-125867219D01*
X172712530Y-125867219D02*
X172331578Y-125867219D01*
X172331578Y-125867219D02*
X172331578Y-124867219D01*
X172331578Y-124867219D02*
X172664911Y-124867219D01*
X172664911Y-124867219D02*
X172760149Y-124914838D01*
X172760149Y-124914838D02*
X172807768Y-124962457D01*
X172807768Y-124962457D02*
X172855387Y-125057695D01*
X172855387Y-125057695D02*
X172855387Y-125152933D01*
X172855387Y-125152933D02*
X172807768Y-125248171D01*
X172807768Y-125248171D02*
X172760149Y-125295790D01*
X172760149Y-125295790D02*
X172664911Y-125343409D01*
X172664911Y-125343409D02*
X172331578Y-125343409D01*
X173474435Y-125867219D02*
X173379197Y-125819600D01*
X173379197Y-125819600D02*
X173331578Y-125724361D01*
X173331578Y-125724361D02*
X173331578Y-124867219D01*
X173188721Y-125391028D02*
X173474435Y-125200552D01*
X174283959Y-125867219D02*
X174283959Y-125343409D01*
X174283959Y-125343409D02*
X174236340Y-125248171D01*
X174236340Y-125248171D02*
X174141102Y-125200552D01*
X174141102Y-125200552D02*
X173950626Y-125200552D01*
X173950626Y-125200552D02*
X173855388Y-125248171D01*
X174283959Y-125819600D02*
X174188721Y-125867219D01*
X174188721Y-125867219D02*
X173950626Y-125867219D01*
X173950626Y-125867219D02*
X173855388Y-125819600D01*
X173855388Y-125819600D02*
X173807769Y-125724361D01*
X173807769Y-125724361D02*
X173807769Y-125629123D01*
X173807769Y-125629123D02*
X173855388Y-125533885D01*
X173855388Y-125533885D02*
X173950626Y-125486266D01*
X173950626Y-125486266D02*
X174188721Y-125486266D01*
X174188721Y-125486266D02*
X174283959Y-125438647D01*
X174664912Y-125200552D02*
X175188721Y-125200552D01*
X175188721Y-125200552D02*
X174664912Y-125867219D01*
X174664912Y-125867219D02*
X175188721Y-125867219D01*
X174950626Y-124867219D02*
X174903007Y-124914838D01*
X174903007Y-124914838D02*
X174950626Y-124962457D01*
X174950626Y-124962457D02*
X174998245Y-124914838D01*
X174998245Y-124914838D02*
X174950626Y-124867219D01*
X174950626Y-124867219D02*
X174950626Y-124962457D01*
X175950626Y-125819600D02*
X175855388Y-125867219D01*
X175855388Y-125867219D02*
X175664912Y-125867219D01*
X175664912Y-125867219D02*
X175569674Y-125819600D01*
X175569674Y-125819600D02*
X175522055Y-125724361D01*
X175522055Y-125724361D02*
X175522055Y-125343409D01*
X175522055Y-125343409D02*
X175569674Y-125248171D01*
X175569674Y-125248171D02*
X175664912Y-125200552D01*
X175664912Y-125200552D02*
X175855388Y-125200552D01*
X175855388Y-125200552D02*
X175950626Y-125248171D01*
X175950626Y-125248171D02*
X175998245Y-125343409D01*
X175998245Y-125343409D02*
X175998245Y-125438647D01*
X175998245Y-125438647D02*
X175522055Y-125533885D01*
X176426817Y-125200552D02*
X176426817Y-126057695D01*
X176426817Y-126057695D02*
X176379198Y-126152933D01*
X176379198Y-126152933D02*
X176283960Y-126200552D01*
X176283960Y-126200552D02*
X176236341Y-126200552D01*
X176426817Y-124867219D02*
X176379198Y-124914838D01*
X176379198Y-124914838D02*
X176426817Y-124962457D01*
X176426817Y-124962457D02*
X176474436Y-124914838D01*
X176474436Y-124914838D02*
X176426817Y-124867219D01*
X176426817Y-124867219D02*
X176426817Y-124962457D01*
X177283959Y-125819600D02*
X177188721Y-125867219D01*
X177188721Y-125867219D02*
X176998245Y-125867219D01*
X176998245Y-125867219D02*
X176903007Y-125819600D01*
X176903007Y-125819600D02*
X176855388Y-125724361D01*
X176855388Y-125724361D02*
X176855388Y-125343409D01*
X176855388Y-125343409D02*
X176903007Y-125248171D01*
X176903007Y-125248171D02*
X176998245Y-125200552D01*
X176998245Y-125200552D02*
X177188721Y-125200552D01*
X177188721Y-125200552D02*
X177283959Y-125248171D01*
X177283959Y-125248171D02*
X177331578Y-125343409D01*
X177331578Y-125343409D02*
X177331578Y-125438647D01*
X177331578Y-125438647D02*
X176855388Y-125533885D01*
X177664912Y-125200552D02*
X177855388Y-125867219D01*
X177855388Y-125867219D02*
X178045864Y-125391028D01*
X178045864Y-125391028D02*
X178236340Y-125867219D01*
X178236340Y-125867219D02*
X178426816Y-125200552D01*
X178760150Y-125819600D02*
X178855388Y-125867219D01*
X178855388Y-125867219D02*
X179045864Y-125867219D01*
X179045864Y-125867219D02*
X179141102Y-125819600D01*
X179141102Y-125819600D02*
X179188721Y-125724361D01*
X179188721Y-125724361D02*
X179188721Y-125676742D01*
X179188721Y-125676742D02*
X179141102Y-125581504D01*
X179141102Y-125581504D02*
X179045864Y-125533885D01*
X179045864Y-125533885D02*
X178903007Y-125533885D01*
X178903007Y-125533885D02*
X178807769Y-125486266D01*
X178807769Y-125486266D02*
X178760150Y-125391028D01*
X178760150Y-125391028D02*
X178760150Y-125343409D01*
X178760150Y-125343409D02*
X178807769Y-125248171D01*
X178807769Y-125248171D02*
X178903007Y-125200552D01*
X178903007Y-125200552D02*
X179045864Y-125200552D01*
X179045864Y-125200552D02*
X179141102Y-125248171D01*
X179617293Y-125867219D02*
X179617293Y-124867219D01*
X179712531Y-125486266D02*
X179998245Y-125867219D01*
X179998245Y-125200552D02*
X179617293Y-125581504D01*
X180426817Y-125867219D02*
X180426817Y-125200552D01*
X180426817Y-124867219D02*
X180379198Y-124914838D01*
X180379198Y-124914838D02*
X180426817Y-124962457D01*
X180426817Y-124962457D02*
X180474436Y-124914838D01*
X180474436Y-124914838D02*
X180426817Y-124867219D01*
X180426817Y-124867219D02*
X180426817Y-124962457D01*
D10*
X160079961Y-79427693D02*
X160127580Y-79332455D01*
X160127580Y-79332455D02*
X160127580Y-79189598D01*
X160127580Y-79189598D02*
X160079961Y-79046741D01*
X160079961Y-79046741D02*
X159984723Y-78951503D01*
X159984723Y-78951503D02*
X159889485Y-78903884D01*
X159889485Y-78903884D02*
X159699009Y-78856265D01*
X159699009Y-78856265D02*
X159556152Y-78856265D01*
X159556152Y-78856265D02*
X159365676Y-78903884D01*
X159365676Y-78903884D02*
X159270438Y-78951503D01*
X159270438Y-78951503D02*
X159175200Y-79046741D01*
X159175200Y-79046741D02*
X159127580Y-79189598D01*
X159127580Y-79189598D02*
X159127580Y-79284836D01*
X159127580Y-79284836D02*
X159175200Y-79427693D01*
X159175200Y-79427693D02*
X159222819Y-79475312D01*
X159222819Y-79475312D02*
X159556152Y-79475312D01*
X159556152Y-79475312D02*
X159556152Y-79284836D01*
X159127580Y-79903884D02*
X160127580Y-79903884D01*
X160127580Y-79903884D02*
X159127580Y-80475312D01*
X159127580Y-80475312D02*
X160127580Y-80475312D01*
X159127580Y-80951503D02*
X160127580Y-80951503D01*
X160127580Y-80951503D02*
X160127580Y-81189598D01*
X160127580Y-81189598D02*
X160079961Y-81332455D01*
X160079961Y-81332455D02*
X159984723Y-81427693D01*
X159984723Y-81427693D02*
X159889485Y-81475312D01*
X159889485Y-81475312D02*
X159699009Y-81522931D01*
X159699009Y-81522931D02*
X159556152Y-81522931D01*
X159556152Y-81522931D02*
X159365676Y-81475312D01*
X159365676Y-81475312D02*
X159270438Y-81427693D01*
X159270438Y-81427693D02*
X159175200Y-81332455D01*
X159175200Y-81332455D02*
X159127580Y-81189598D01*
X159127580Y-81189598D02*
X159127580Y-80951503D01*
X136008646Y-100872419D02*
X136675312Y-101872419D01*
X136675312Y-100872419D02*
X136008646Y-101872419D01*
X137246741Y-100872419D02*
X137437217Y-100872419D01*
X137437217Y-100872419D02*
X137532455Y-100920038D01*
X137532455Y-100920038D02*
X137627693Y-101015276D01*
X137627693Y-101015276D02*
X137675312Y-101205752D01*
X137675312Y-101205752D02*
X137675312Y-101539085D01*
X137675312Y-101539085D02*
X137627693Y-101729561D01*
X137627693Y-101729561D02*
X137532455Y-101824800D01*
X137532455Y-101824800D02*
X137437217Y-101872419D01*
X137437217Y-101872419D02*
X137246741Y-101872419D01*
X137246741Y-101872419D02*
X137151503Y-101824800D01*
X137151503Y-101824800D02*
X137056265Y-101729561D01*
X137056265Y-101729561D02*
X137008646Y-101539085D01*
X137008646Y-101539085D02*
X137008646Y-101205752D01*
X137008646Y-101205752D02*
X137056265Y-101015276D01*
X137056265Y-101015276D02*
X137151503Y-100920038D01*
X137151503Y-100920038D02*
X137246741Y-100872419D01*
X138675312Y-101872419D02*
X138341979Y-101396228D01*
X138103884Y-101872419D02*
X138103884Y-100872419D01*
X138103884Y-100872419D02*
X138484836Y-100872419D01*
X138484836Y-100872419D02*
X138580074Y-100920038D01*
X138580074Y-100920038D02*
X138627693Y-100967657D01*
X138627693Y-100967657D02*
X138675312Y-101062895D01*
X138675312Y-101062895D02*
X138675312Y-101205752D01*
X138675312Y-101205752D02*
X138627693Y-101300990D01*
X138627693Y-101300990D02*
X138580074Y-101348609D01*
X138580074Y-101348609D02*
X138484836Y-101396228D01*
X138484836Y-101396228D02*
X138103884Y-101396228D01*
X139103884Y-101491466D02*
X139865789Y-101491466D01*
X140341979Y-101872419D02*
X140341979Y-101205752D01*
X140341979Y-100872419D02*
X140294360Y-100920038D01*
X140294360Y-100920038D02*
X140341979Y-100967657D01*
X140341979Y-100967657D02*
X140389598Y-100920038D01*
X140389598Y-100920038D02*
X140341979Y-100872419D01*
X140341979Y-100872419D02*
X140341979Y-100967657D01*
X140818169Y-101205752D02*
X140818169Y-101872419D01*
X140818169Y-101300990D02*
X140865788Y-101253371D01*
X140865788Y-101253371D02*
X140961026Y-101205752D01*
X140961026Y-101205752D02*
X141103883Y-101205752D01*
X141103883Y-101205752D02*
X141199121Y-101253371D01*
X141199121Y-101253371D02*
X141246740Y-101348609D01*
X141246740Y-101348609D02*
X141246740Y-101872419D01*
X142246740Y-101872419D02*
X141675312Y-101872419D01*
X141961026Y-101872419D02*
X141961026Y-100872419D01*
X141961026Y-100872419D02*
X141865788Y-101015276D01*
X141865788Y-101015276D02*
X141770550Y-101110514D01*
X141770550Y-101110514D02*
X141675312Y-101158133D01*
X136627693Y-86520038D02*
X136532455Y-86472419D01*
X136532455Y-86472419D02*
X136389598Y-86472419D01*
X136389598Y-86472419D02*
X136246741Y-86520038D01*
X136246741Y-86520038D02*
X136151503Y-86615276D01*
X136151503Y-86615276D02*
X136103884Y-86710514D01*
X136103884Y-86710514D02*
X136056265Y-86900990D01*
X136056265Y-86900990D02*
X136056265Y-87043847D01*
X136056265Y-87043847D02*
X136103884Y-87234323D01*
X136103884Y-87234323D02*
X136151503Y-87329561D01*
X136151503Y-87329561D02*
X136246741Y-87424800D01*
X136246741Y-87424800D02*
X136389598Y-87472419D01*
X136389598Y-87472419D02*
X136484836Y-87472419D01*
X136484836Y-87472419D02*
X136627693Y-87424800D01*
X136627693Y-87424800D02*
X136675312Y-87377180D01*
X136675312Y-87377180D02*
X136675312Y-87043847D01*
X136675312Y-87043847D02*
X136484836Y-87043847D01*
X137103884Y-87472419D02*
X137103884Y-86472419D01*
X137103884Y-86472419D02*
X137675312Y-87472419D01*
X137675312Y-87472419D02*
X137675312Y-86472419D01*
X138151503Y-87472419D02*
X138151503Y-86472419D01*
X138151503Y-86472419D02*
X138389598Y-86472419D01*
X138389598Y-86472419D02*
X138532455Y-86520038D01*
X138532455Y-86520038D02*
X138627693Y-86615276D01*
X138627693Y-86615276D02*
X138675312Y-86710514D01*
X138675312Y-86710514D02*
X138722931Y-86900990D01*
X138722931Y-86900990D02*
X138722931Y-87043847D01*
X138722931Y-87043847D02*
X138675312Y-87234323D01*
X138675312Y-87234323D02*
X138627693Y-87329561D01*
X138627693Y-87329561D02*
X138532455Y-87424800D01*
X138532455Y-87424800D02*
X138389598Y-87472419D01*
X138389598Y-87472419D02*
X138151503Y-87472419D01*
X136103884Y-119472419D02*
X136103884Y-118472419D01*
X136103884Y-118472419D02*
X136484836Y-118472419D01*
X136484836Y-118472419D02*
X136580074Y-118520038D01*
X136580074Y-118520038D02*
X136627693Y-118567657D01*
X136627693Y-118567657D02*
X136675312Y-118662895D01*
X136675312Y-118662895D02*
X136675312Y-118805752D01*
X136675312Y-118805752D02*
X136627693Y-118900990D01*
X136627693Y-118900990D02*
X136580074Y-118948609D01*
X136580074Y-118948609D02*
X136484836Y-118996228D01*
X136484836Y-118996228D02*
X136103884Y-118996228D01*
X137580074Y-119472419D02*
X137103884Y-119472419D01*
X137103884Y-119472419D02*
X137103884Y-118472419D01*
X138389598Y-119472419D02*
X137913408Y-119472419D01*
X137913408Y-119472419D02*
X137913408Y-118472419D01*
X138722932Y-119091466D02*
X139484837Y-119091466D01*
X140103884Y-119472419D02*
X140008646Y-119424800D01*
X140008646Y-119424800D02*
X139961027Y-119377180D01*
X139961027Y-119377180D02*
X139913408Y-119281942D01*
X139913408Y-119281942D02*
X139913408Y-118996228D01*
X139913408Y-118996228D02*
X139961027Y-118900990D01*
X139961027Y-118900990D02*
X140008646Y-118853371D01*
X140008646Y-118853371D02*
X140103884Y-118805752D01*
X140103884Y-118805752D02*
X140246741Y-118805752D01*
X140246741Y-118805752D02*
X140341979Y-118853371D01*
X140341979Y-118853371D02*
X140389598Y-118900990D01*
X140389598Y-118900990D02*
X140437217Y-118996228D01*
X140437217Y-118996228D02*
X140437217Y-119281942D01*
X140437217Y-119281942D02*
X140389598Y-119377180D01*
X140389598Y-119377180D02*
X140341979Y-119424800D01*
X140341979Y-119424800D02*
X140246741Y-119472419D01*
X140246741Y-119472419D02*
X140103884Y-119472419D01*
X141294360Y-118805752D02*
X141294360Y-119472419D01*
X140865789Y-118805752D02*
X140865789Y-119329561D01*
X140865789Y-119329561D02*
X140913408Y-119424800D01*
X140913408Y-119424800D02*
X141008646Y-119472419D01*
X141008646Y-119472419D02*
X141151503Y-119472419D01*
X141151503Y-119472419D02*
X141246741Y-119424800D01*
X141246741Y-119424800D02*
X141294360Y-119377180D01*
X141627694Y-118805752D02*
X142008646Y-118805752D01*
X141770551Y-118472419D02*
X141770551Y-119329561D01*
X141770551Y-119329561D02*
X141818170Y-119424800D01*
X141818170Y-119424800D02*
X141913408Y-119472419D01*
X141913408Y-119472419D02*
X142008646Y-119472419D01*
X136103884Y-92272419D02*
X136103884Y-91272419D01*
X136580074Y-92272419D02*
X136580074Y-91272419D01*
X136580074Y-91272419D02*
X137151502Y-92272419D01*
X137151502Y-92272419D02*
X137151502Y-91272419D01*
X168580074Y-106272419D02*
X168103884Y-106272419D01*
X168103884Y-106272419D02*
X168103884Y-105272419D01*
X168913408Y-106272419D02*
X168913408Y-105272419D01*
X168913408Y-105272419D02*
X169294360Y-105272419D01*
X169294360Y-105272419D02*
X169389598Y-105320038D01*
X169389598Y-105320038D02*
X169437217Y-105367657D01*
X169437217Y-105367657D02*
X169484836Y-105462895D01*
X169484836Y-105462895D02*
X169484836Y-105605752D01*
X169484836Y-105605752D02*
X169437217Y-105700990D01*
X169437217Y-105700990D02*
X169389598Y-105748609D01*
X169389598Y-105748609D02*
X169294360Y-105796228D01*
X169294360Y-105796228D02*
X168913408Y-105796228D01*
X170246741Y-105748609D02*
X169913408Y-105748609D01*
X169913408Y-106272419D02*
X169913408Y-105272419D01*
X169913408Y-105272419D02*
X170389598Y-105272419D01*
X170770551Y-105891466D02*
X171532456Y-105891466D01*
X172008646Y-106272419D02*
X172008646Y-105272419D01*
X172008646Y-105653371D02*
X172103884Y-105605752D01*
X172103884Y-105605752D02*
X172294360Y-105605752D01*
X172294360Y-105605752D02*
X172389598Y-105653371D01*
X172389598Y-105653371D02*
X172437217Y-105700990D01*
X172437217Y-105700990D02*
X172484836Y-105796228D01*
X172484836Y-105796228D02*
X172484836Y-106081942D01*
X172484836Y-106081942D02*
X172437217Y-106177180D01*
X172437217Y-106177180D02*
X172389598Y-106224800D01*
X172389598Y-106224800D02*
X172294360Y-106272419D01*
X172294360Y-106272419D02*
X172103884Y-106272419D01*
X172103884Y-106272419D02*
X172008646Y-106224800D01*
X173341979Y-105605752D02*
X173341979Y-106272419D01*
X172913408Y-105605752D02*
X172913408Y-106129561D01*
X172913408Y-106129561D02*
X172961027Y-106224800D01*
X172961027Y-106224800D02*
X173056265Y-106272419D01*
X173056265Y-106272419D02*
X173199122Y-106272419D01*
X173199122Y-106272419D02*
X173294360Y-106224800D01*
X173294360Y-106224800D02*
X173341979Y-106177180D01*
X173675313Y-105605752D02*
X174056265Y-105605752D01*
X173818170Y-106272419D02*
X173818170Y-105415276D01*
X173818170Y-105415276D02*
X173865789Y-105320038D01*
X173865789Y-105320038D02*
X173961027Y-105272419D01*
X173961027Y-105272419D02*
X174056265Y-105272419D01*
X174389599Y-105891466D02*
X175151504Y-105891466D01*
X175770551Y-106272419D02*
X175675313Y-106224800D01*
X175675313Y-106224800D02*
X175627694Y-106177180D01*
X175627694Y-106177180D02*
X175580075Y-106081942D01*
X175580075Y-106081942D02*
X175580075Y-105796228D01*
X175580075Y-105796228D02*
X175627694Y-105700990D01*
X175627694Y-105700990D02*
X175675313Y-105653371D01*
X175675313Y-105653371D02*
X175770551Y-105605752D01*
X175770551Y-105605752D02*
X175913408Y-105605752D01*
X175913408Y-105605752D02*
X176008646Y-105653371D01*
X176008646Y-105653371D02*
X176056265Y-105700990D01*
X176056265Y-105700990D02*
X176103884Y-105796228D01*
X176103884Y-105796228D02*
X176103884Y-106081942D01*
X176103884Y-106081942D02*
X176056265Y-106177180D01*
X176056265Y-106177180D02*
X176008646Y-106224800D01*
X176008646Y-106224800D02*
X175913408Y-106272419D01*
X175913408Y-106272419D02*
X175770551Y-106272419D01*
X176961027Y-105605752D02*
X176961027Y-106272419D01*
X176532456Y-105605752D02*
X176532456Y-106129561D01*
X176532456Y-106129561D02*
X176580075Y-106224800D01*
X176580075Y-106224800D02*
X176675313Y-106272419D01*
X176675313Y-106272419D02*
X176818170Y-106272419D01*
X176818170Y-106272419D02*
X176913408Y-106224800D01*
X176913408Y-106224800D02*
X176961027Y-106177180D01*
X177294361Y-105605752D02*
X177675313Y-105605752D01*
X177437218Y-105272419D02*
X177437218Y-106129561D01*
X177437218Y-106129561D02*
X177484837Y-106224800D01*
X177484837Y-106224800D02*
X177580075Y-106272419D01*
X177580075Y-106272419D02*
X177675313Y-106272419D01*
X159472419Y-123705639D02*
X159472419Y-123515163D01*
X159472419Y-123515163D02*
X159520038Y-123419925D01*
X159520038Y-123419925D02*
X159615276Y-123324687D01*
X159615276Y-123324687D02*
X159805752Y-123277068D01*
X159805752Y-123277068D02*
X160139085Y-123277068D01*
X160139085Y-123277068D02*
X160329561Y-123324687D01*
X160329561Y-123324687D02*
X160424800Y-123419925D01*
X160424800Y-123419925D02*
X160472419Y-123515163D01*
X160472419Y-123515163D02*
X160472419Y-123705639D01*
X160472419Y-123705639D02*
X160424800Y-123800877D01*
X160424800Y-123800877D02*
X160329561Y-123896115D01*
X160329561Y-123896115D02*
X160139085Y-123943734D01*
X160139085Y-123943734D02*
X159805752Y-123943734D01*
X159805752Y-123943734D02*
X159615276Y-123896115D01*
X159615276Y-123896115D02*
X159520038Y-123800877D01*
X159520038Y-123800877D02*
X159472419Y-123705639D01*
X159472419Y-122848496D02*
X160281942Y-122848496D01*
X160281942Y-122848496D02*
X160377180Y-122800877D01*
X160377180Y-122800877D02*
X160424800Y-122753258D01*
X160424800Y-122753258D02*
X160472419Y-122658020D01*
X160472419Y-122658020D02*
X160472419Y-122467544D01*
X160472419Y-122467544D02*
X160424800Y-122372306D01*
X160424800Y-122372306D02*
X160377180Y-122324687D01*
X160377180Y-122324687D02*
X160281942Y-122277068D01*
X160281942Y-122277068D02*
X159472419Y-122277068D01*
X159472419Y-121943734D02*
X159472419Y-121372306D01*
X160472419Y-121658020D02*
X159472419Y-121658020D01*
X160567657Y-121277068D02*
X160567657Y-120515163D01*
X159472419Y-120372305D02*
X159472419Y-119753258D01*
X159472419Y-119753258D02*
X159853371Y-120086591D01*
X159853371Y-120086591D02*
X159853371Y-119943734D01*
X159853371Y-119943734D02*
X159900990Y-119848496D01*
X159900990Y-119848496D02*
X159948609Y-119800877D01*
X159948609Y-119800877D02*
X160043847Y-119753258D01*
X160043847Y-119753258D02*
X160281942Y-119753258D01*
X160281942Y-119753258D02*
X160377180Y-119800877D01*
X160377180Y-119800877D02*
X160424800Y-119848496D01*
X160424800Y-119848496D02*
X160472419Y-119943734D01*
X160472419Y-119943734D02*
X160472419Y-120229448D01*
X160472419Y-120229448D02*
X160424800Y-120324686D01*
X160424800Y-120324686D02*
X160377180Y-120372305D01*
X136627693Y-93920038D02*
X136532455Y-93872419D01*
X136532455Y-93872419D02*
X136389598Y-93872419D01*
X136389598Y-93872419D02*
X136246741Y-93920038D01*
X136246741Y-93920038D02*
X136151503Y-94015276D01*
X136151503Y-94015276D02*
X136103884Y-94110514D01*
X136103884Y-94110514D02*
X136056265Y-94300990D01*
X136056265Y-94300990D02*
X136056265Y-94443847D01*
X136056265Y-94443847D02*
X136103884Y-94634323D01*
X136103884Y-94634323D02*
X136151503Y-94729561D01*
X136151503Y-94729561D02*
X136246741Y-94824800D01*
X136246741Y-94824800D02*
X136389598Y-94872419D01*
X136389598Y-94872419D02*
X136484836Y-94872419D01*
X136484836Y-94872419D02*
X136627693Y-94824800D01*
X136627693Y-94824800D02*
X136675312Y-94777180D01*
X136675312Y-94777180D02*
X136675312Y-94443847D01*
X136675312Y-94443847D02*
X136484836Y-94443847D01*
X137103884Y-94872419D02*
X137103884Y-93872419D01*
X137103884Y-93872419D02*
X137675312Y-94872419D01*
X137675312Y-94872419D02*
X137675312Y-93872419D01*
X138151503Y-94872419D02*
X138151503Y-93872419D01*
X138151503Y-93872419D02*
X138389598Y-93872419D01*
X138389598Y-93872419D02*
X138532455Y-93920038D01*
X138532455Y-93920038D02*
X138627693Y-94015276D01*
X138627693Y-94015276D02*
X138675312Y-94110514D01*
X138675312Y-94110514D02*
X138722931Y-94300990D01*
X138722931Y-94300990D02*
X138722931Y-94443847D01*
X138722931Y-94443847D02*
X138675312Y-94634323D01*
X138675312Y-94634323D02*
X138627693Y-94729561D01*
X138627693Y-94729561D02*
X138532455Y-94824800D01*
X138532455Y-94824800D02*
X138389598Y-94872419D01*
X138389598Y-94872419D02*
X138151503Y-94872419D01*
X148975200Y-82056265D02*
X148927580Y-82199122D01*
X148927580Y-82199122D02*
X148927580Y-82437217D01*
X148927580Y-82437217D02*
X148975200Y-82532455D01*
X148975200Y-82532455D02*
X149022819Y-82580074D01*
X149022819Y-82580074D02*
X149118057Y-82627693D01*
X149118057Y-82627693D02*
X149213295Y-82627693D01*
X149213295Y-82627693D02*
X149308533Y-82580074D01*
X149308533Y-82580074D02*
X149356152Y-82532455D01*
X149356152Y-82532455D02*
X149403771Y-82437217D01*
X149403771Y-82437217D02*
X149451390Y-82246741D01*
X149451390Y-82246741D02*
X149499009Y-82151503D01*
X149499009Y-82151503D02*
X149546628Y-82103884D01*
X149546628Y-82103884D02*
X149641866Y-82056265D01*
X149641866Y-82056265D02*
X149737104Y-82056265D01*
X149737104Y-82056265D02*
X149832342Y-82103884D01*
X149832342Y-82103884D02*
X149879961Y-82151503D01*
X149879961Y-82151503D02*
X149927580Y-82246741D01*
X149927580Y-82246741D02*
X149927580Y-82484836D01*
X149927580Y-82484836D02*
X149879961Y-82627693D01*
X148975200Y-83484836D02*
X148927580Y-83389598D01*
X148927580Y-83389598D02*
X148927580Y-83199122D01*
X148927580Y-83199122D02*
X148975200Y-83103884D01*
X148975200Y-83103884D02*
X149022819Y-83056265D01*
X149022819Y-83056265D02*
X149118057Y-83008646D01*
X149118057Y-83008646D02*
X149403771Y-83008646D01*
X149403771Y-83008646D02*
X149499009Y-83056265D01*
X149499009Y-83056265D02*
X149546628Y-83103884D01*
X149546628Y-83103884D02*
X149594247Y-83199122D01*
X149594247Y-83199122D02*
X149594247Y-83389598D01*
X149594247Y-83389598D02*
X149546628Y-83484836D01*
X148927580Y-83913408D02*
X149927580Y-83913408D01*
X148927580Y-84341979D02*
X149451390Y-84341979D01*
X149451390Y-84341979D02*
X149546628Y-84294360D01*
X149546628Y-84294360D02*
X149594247Y-84199122D01*
X149594247Y-84199122D02*
X149594247Y-84056265D01*
X149594247Y-84056265D02*
X149546628Y-83961027D01*
X149546628Y-83961027D02*
X149499009Y-83913408D01*
X148927580Y-84818170D02*
X149594247Y-84818170D01*
X149499009Y-84818170D02*
X149546628Y-84865789D01*
X149546628Y-84865789D02*
X149594247Y-84961027D01*
X149594247Y-84961027D02*
X149594247Y-85103884D01*
X149594247Y-85103884D02*
X149546628Y-85199122D01*
X149546628Y-85199122D02*
X149451390Y-85246741D01*
X149451390Y-85246741D02*
X148927580Y-85246741D01*
X149451390Y-85246741D02*
X149546628Y-85294360D01*
X149546628Y-85294360D02*
X149594247Y-85389598D01*
X149594247Y-85389598D02*
X149594247Y-85532455D01*
X149594247Y-85532455D02*
X149546628Y-85627694D01*
X149546628Y-85627694D02*
X149451390Y-85675313D01*
X149451390Y-85675313D02*
X148927580Y-85675313D01*
X149308533Y-86151503D02*
X149308533Y-86913408D01*
X148927580Y-87389598D02*
X149594247Y-87389598D01*
X149927580Y-87389598D02*
X149879961Y-87341979D01*
X149879961Y-87341979D02*
X149832342Y-87389598D01*
X149832342Y-87389598D02*
X149879961Y-87437217D01*
X149879961Y-87437217D02*
X149927580Y-87389598D01*
X149927580Y-87389598D02*
X149832342Y-87389598D01*
X149594247Y-87865788D02*
X148927580Y-87865788D01*
X149499009Y-87865788D02*
X149546628Y-87913407D01*
X149546628Y-87913407D02*
X149594247Y-88008645D01*
X149594247Y-88008645D02*
X149594247Y-88151502D01*
X149594247Y-88151502D02*
X149546628Y-88246740D01*
X149546628Y-88246740D02*
X149451390Y-88294359D01*
X149451390Y-88294359D02*
X148927580Y-88294359D01*
X136627693Y-98420038D02*
X136532455Y-98372419D01*
X136532455Y-98372419D02*
X136389598Y-98372419D01*
X136389598Y-98372419D02*
X136246741Y-98420038D01*
X136246741Y-98420038D02*
X136151503Y-98515276D01*
X136151503Y-98515276D02*
X136103884Y-98610514D01*
X136103884Y-98610514D02*
X136056265Y-98800990D01*
X136056265Y-98800990D02*
X136056265Y-98943847D01*
X136056265Y-98943847D02*
X136103884Y-99134323D01*
X136103884Y-99134323D02*
X136151503Y-99229561D01*
X136151503Y-99229561D02*
X136246741Y-99324800D01*
X136246741Y-99324800D02*
X136389598Y-99372419D01*
X136389598Y-99372419D02*
X136484836Y-99372419D01*
X136484836Y-99372419D02*
X136627693Y-99324800D01*
X136627693Y-99324800D02*
X136675312Y-99277180D01*
X136675312Y-99277180D02*
X136675312Y-98943847D01*
X136675312Y-98943847D02*
X136484836Y-98943847D01*
X137103884Y-99372419D02*
X137103884Y-98372419D01*
X137103884Y-98372419D02*
X137675312Y-99372419D01*
X137675312Y-99372419D02*
X137675312Y-98372419D01*
X138151503Y-99372419D02*
X138151503Y-98372419D01*
X138151503Y-98372419D02*
X138389598Y-98372419D01*
X138389598Y-98372419D02*
X138532455Y-98420038D01*
X138532455Y-98420038D02*
X138627693Y-98515276D01*
X138627693Y-98515276D02*
X138675312Y-98610514D01*
X138675312Y-98610514D02*
X138722931Y-98800990D01*
X138722931Y-98800990D02*
X138722931Y-98943847D01*
X138722931Y-98943847D02*
X138675312Y-99134323D01*
X138675312Y-99134323D02*
X138627693Y-99229561D01*
X138627693Y-99229561D02*
X138532455Y-99324800D01*
X138532455Y-99324800D02*
X138389598Y-99372419D01*
X138389598Y-99372419D02*
X138151503Y-99372419D01*
X136008646Y-116072419D02*
X136675312Y-117072419D01*
X136675312Y-116072419D02*
X136008646Y-117072419D01*
X137246741Y-116072419D02*
X137437217Y-116072419D01*
X137437217Y-116072419D02*
X137532455Y-116120038D01*
X137532455Y-116120038D02*
X137627693Y-116215276D01*
X137627693Y-116215276D02*
X137675312Y-116405752D01*
X137675312Y-116405752D02*
X137675312Y-116739085D01*
X137675312Y-116739085D02*
X137627693Y-116929561D01*
X137627693Y-116929561D02*
X137532455Y-117024800D01*
X137532455Y-117024800D02*
X137437217Y-117072419D01*
X137437217Y-117072419D02*
X137246741Y-117072419D01*
X137246741Y-117072419D02*
X137151503Y-117024800D01*
X137151503Y-117024800D02*
X137056265Y-116929561D01*
X137056265Y-116929561D02*
X137008646Y-116739085D01*
X137008646Y-116739085D02*
X137008646Y-116405752D01*
X137008646Y-116405752D02*
X137056265Y-116215276D01*
X137056265Y-116215276D02*
X137151503Y-116120038D01*
X137151503Y-116120038D02*
X137246741Y-116072419D01*
X138675312Y-117072419D02*
X138341979Y-116596228D01*
X138103884Y-117072419D02*
X138103884Y-116072419D01*
X138103884Y-116072419D02*
X138484836Y-116072419D01*
X138484836Y-116072419D02*
X138580074Y-116120038D01*
X138580074Y-116120038D02*
X138627693Y-116167657D01*
X138627693Y-116167657D02*
X138675312Y-116262895D01*
X138675312Y-116262895D02*
X138675312Y-116405752D01*
X138675312Y-116405752D02*
X138627693Y-116500990D01*
X138627693Y-116500990D02*
X138580074Y-116548609D01*
X138580074Y-116548609D02*
X138484836Y-116596228D01*
X138484836Y-116596228D02*
X138103884Y-116596228D01*
X139103884Y-116691466D02*
X139865789Y-116691466D01*
X140341979Y-117072419D02*
X140341979Y-116405752D01*
X140341979Y-116072419D02*
X140294360Y-116120038D01*
X140294360Y-116120038D02*
X140341979Y-116167657D01*
X140341979Y-116167657D02*
X140389598Y-116120038D01*
X140389598Y-116120038D02*
X140341979Y-116072419D01*
X140341979Y-116072419D02*
X140341979Y-116167657D01*
X140818169Y-116405752D02*
X140818169Y-117072419D01*
X140818169Y-116500990D02*
X140865788Y-116453371D01*
X140865788Y-116453371D02*
X140961026Y-116405752D01*
X140961026Y-116405752D02*
X141103883Y-116405752D01*
X141103883Y-116405752D02*
X141199121Y-116453371D01*
X141199121Y-116453371D02*
X141246740Y-116548609D01*
X141246740Y-116548609D02*
X141246740Y-117072419D01*
X141675312Y-116167657D02*
X141722931Y-116120038D01*
X141722931Y-116120038D02*
X141818169Y-116072419D01*
X141818169Y-116072419D02*
X142056264Y-116072419D01*
X142056264Y-116072419D02*
X142151502Y-116120038D01*
X142151502Y-116120038D02*
X142199121Y-116167657D01*
X142199121Y-116167657D02*
X142246740Y-116262895D01*
X142246740Y-116262895D02*
X142246740Y-116358133D01*
X142246740Y-116358133D02*
X142199121Y-116500990D01*
X142199121Y-116500990D02*
X141627693Y-117072419D01*
X141627693Y-117072419D02*
X142246740Y-117072419D01*
X160527580Y-108580074D02*
X160527580Y-108103884D01*
X160527580Y-108103884D02*
X161527580Y-108103884D01*
X160527580Y-108913408D02*
X161527580Y-108913408D01*
X161527580Y-108913408D02*
X161527580Y-109294360D01*
X161527580Y-109294360D02*
X161479961Y-109389598D01*
X161479961Y-109389598D02*
X161432342Y-109437217D01*
X161432342Y-109437217D02*
X161337104Y-109484836D01*
X161337104Y-109484836D02*
X161194247Y-109484836D01*
X161194247Y-109484836D02*
X161099009Y-109437217D01*
X161099009Y-109437217D02*
X161051390Y-109389598D01*
X161051390Y-109389598D02*
X161003771Y-109294360D01*
X161003771Y-109294360D02*
X161003771Y-108913408D01*
X161051390Y-110246741D02*
X161051390Y-109913408D01*
X160527580Y-109913408D02*
X161527580Y-109913408D01*
X161527580Y-109913408D02*
X161527580Y-110389598D01*
X160432342Y-110532456D02*
X160432342Y-111294360D01*
X160527580Y-111675313D02*
X160575200Y-111580075D01*
X160575200Y-111580075D02*
X160622819Y-111532456D01*
X160622819Y-111532456D02*
X160718057Y-111484837D01*
X160718057Y-111484837D02*
X161003771Y-111484837D01*
X161003771Y-111484837D02*
X161099009Y-111532456D01*
X161099009Y-111532456D02*
X161146628Y-111580075D01*
X161146628Y-111580075D02*
X161194247Y-111675313D01*
X161194247Y-111675313D02*
X161194247Y-111818170D01*
X161194247Y-111818170D02*
X161146628Y-111913408D01*
X161146628Y-111913408D02*
X161099009Y-111961027D01*
X161099009Y-111961027D02*
X161003771Y-112008646D01*
X161003771Y-112008646D02*
X160718057Y-112008646D01*
X160718057Y-112008646D02*
X160622819Y-111961027D01*
X160622819Y-111961027D02*
X160575200Y-111913408D01*
X160575200Y-111913408D02*
X160527580Y-111818170D01*
X160527580Y-111818170D02*
X160527580Y-111675313D01*
X161194247Y-112865789D02*
X160527580Y-112865789D01*
X161194247Y-112437218D02*
X160670438Y-112437218D01*
X160670438Y-112437218D02*
X160575200Y-112484837D01*
X160575200Y-112484837D02*
X160527580Y-112580075D01*
X160527580Y-112580075D02*
X160527580Y-112722932D01*
X160527580Y-112722932D02*
X160575200Y-112818170D01*
X160575200Y-112818170D02*
X160622819Y-112865789D01*
X161194247Y-113199123D02*
X161194247Y-113580075D01*
X161527580Y-113341980D02*
X160670438Y-113341980D01*
X160670438Y-113341980D02*
X160575200Y-113389599D01*
X160575200Y-113389599D02*
X160527580Y-113484837D01*
X160527580Y-113484837D02*
X160527580Y-113580075D01*
X145503884Y-125691466D02*
X146265789Y-125691466D01*
X145884836Y-126072419D02*
X145884836Y-125310514D01*
X147218169Y-125072419D02*
X146741979Y-125072419D01*
X146741979Y-125072419D02*
X146694360Y-125548609D01*
X146694360Y-125548609D02*
X146741979Y-125500990D01*
X146741979Y-125500990D02*
X146837217Y-125453371D01*
X146837217Y-125453371D02*
X147075312Y-125453371D01*
X147075312Y-125453371D02*
X147170550Y-125500990D01*
X147170550Y-125500990D02*
X147218169Y-125548609D01*
X147218169Y-125548609D02*
X147265788Y-125643847D01*
X147265788Y-125643847D02*
X147265788Y-125881942D01*
X147265788Y-125881942D02*
X147218169Y-125977180D01*
X147218169Y-125977180D02*
X147170550Y-126024800D01*
X147170550Y-126024800D02*
X147075312Y-126072419D01*
X147075312Y-126072419D02*
X146837217Y-126072419D01*
X146837217Y-126072419D02*
X146741979Y-126024800D01*
X146741979Y-126024800D02*
X146694360Y-125977180D01*
X147551503Y-125072419D02*
X147884836Y-126072419D01*
X147884836Y-126072419D02*
X148218169Y-125072419D01*
X181503884Y-110091466D02*
X182265789Y-110091466D01*
X181884836Y-110472419D02*
X181884836Y-109710514D01*
X183218169Y-109472419D02*
X182741979Y-109472419D01*
X182741979Y-109472419D02*
X182694360Y-109948609D01*
X182694360Y-109948609D02*
X182741979Y-109900990D01*
X182741979Y-109900990D02*
X182837217Y-109853371D01*
X182837217Y-109853371D02*
X183075312Y-109853371D01*
X183075312Y-109853371D02*
X183170550Y-109900990D01*
X183170550Y-109900990D02*
X183218169Y-109948609D01*
X183218169Y-109948609D02*
X183265788Y-110043847D01*
X183265788Y-110043847D02*
X183265788Y-110281942D01*
X183265788Y-110281942D02*
X183218169Y-110377180D01*
X183218169Y-110377180D02*
X183170550Y-110424800D01*
X183170550Y-110424800D02*
X183075312Y-110472419D01*
X183075312Y-110472419D02*
X182837217Y-110472419D01*
X182837217Y-110472419D02*
X182741979Y-110424800D01*
X182741979Y-110424800D02*
X182694360Y-110377180D01*
X183551503Y-109472419D02*
X183884836Y-110472419D01*
X183884836Y-110472419D02*
X184218169Y-109472419D01*
X136675312Y-107072419D02*
X136341979Y-106596228D01*
X136103884Y-107072419D02*
X136103884Y-106072419D01*
X136103884Y-106072419D02*
X136484836Y-106072419D01*
X136484836Y-106072419D02*
X136580074Y-106120038D01*
X136580074Y-106120038D02*
X136627693Y-106167657D01*
X136627693Y-106167657D02*
X136675312Y-106262895D01*
X136675312Y-106262895D02*
X136675312Y-106405752D01*
X136675312Y-106405752D02*
X136627693Y-106500990D01*
X136627693Y-106500990D02*
X136580074Y-106548609D01*
X136580074Y-106548609D02*
X136484836Y-106596228D01*
X136484836Y-106596228D02*
X136103884Y-106596228D01*
X137675312Y-106977180D02*
X137627693Y-107024800D01*
X137627693Y-107024800D02*
X137484836Y-107072419D01*
X137484836Y-107072419D02*
X137389598Y-107072419D01*
X137389598Y-107072419D02*
X137246741Y-107024800D01*
X137246741Y-107024800D02*
X137151503Y-106929561D01*
X137151503Y-106929561D02*
X137103884Y-106834323D01*
X137103884Y-106834323D02*
X137056265Y-106643847D01*
X137056265Y-106643847D02*
X137056265Y-106500990D01*
X137056265Y-106500990D02*
X137103884Y-106310514D01*
X137103884Y-106310514D02*
X137151503Y-106215276D01*
X137151503Y-106215276D02*
X137246741Y-106120038D01*
X137246741Y-106120038D02*
X137389598Y-106072419D01*
X137389598Y-106072419D02*
X137484836Y-106072419D01*
X137484836Y-106072419D02*
X137627693Y-106120038D01*
X137627693Y-106120038D02*
X137675312Y-106167657D01*
X138103884Y-106691466D02*
X138865789Y-106691466D01*
X139484836Y-107072419D02*
X139389598Y-107024800D01*
X139389598Y-107024800D02*
X139341979Y-106977180D01*
X139341979Y-106977180D02*
X139294360Y-106881942D01*
X139294360Y-106881942D02*
X139294360Y-106596228D01*
X139294360Y-106596228D02*
X139341979Y-106500990D01*
X139341979Y-106500990D02*
X139389598Y-106453371D01*
X139389598Y-106453371D02*
X139484836Y-106405752D01*
X139484836Y-106405752D02*
X139627693Y-106405752D01*
X139627693Y-106405752D02*
X139722931Y-106453371D01*
X139722931Y-106453371D02*
X139770550Y-106500990D01*
X139770550Y-106500990D02*
X139818169Y-106596228D01*
X139818169Y-106596228D02*
X139818169Y-106881942D01*
X139818169Y-106881942D02*
X139770550Y-106977180D01*
X139770550Y-106977180D02*
X139722931Y-107024800D01*
X139722931Y-107024800D02*
X139627693Y-107072419D01*
X139627693Y-107072419D02*
X139484836Y-107072419D01*
X140675312Y-106405752D02*
X140675312Y-107072419D01*
X140246741Y-106405752D02*
X140246741Y-106929561D01*
X140246741Y-106929561D02*
X140294360Y-107024800D01*
X140294360Y-107024800D02*
X140389598Y-107072419D01*
X140389598Y-107072419D02*
X140532455Y-107072419D01*
X140532455Y-107072419D02*
X140627693Y-107024800D01*
X140627693Y-107024800D02*
X140675312Y-106977180D01*
X141008646Y-106405752D02*
X141389598Y-106405752D01*
X141151503Y-106072419D02*
X141151503Y-106929561D01*
X141151503Y-106929561D02*
X141199122Y-107024800D01*
X141199122Y-107024800D02*
X141294360Y-107072419D01*
X141294360Y-107072419D02*
X141389598Y-107072419D01*
X162455144Y-85056265D02*
X162407524Y-85199122D01*
X162407524Y-85199122D02*
X162407524Y-85437217D01*
X162407524Y-85437217D02*
X162455144Y-85532455D01*
X162455144Y-85532455D02*
X162502763Y-85580074D01*
X162502763Y-85580074D02*
X162598001Y-85627693D01*
X162598001Y-85627693D02*
X162693239Y-85627693D01*
X162693239Y-85627693D02*
X162788477Y-85580074D01*
X162788477Y-85580074D02*
X162836096Y-85532455D01*
X162836096Y-85532455D02*
X162883715Y-85437217D01*
X162883715Y-85437217D02*
X162931334Y-85246741D01*
X162931334Y-85246741D02*
X162978953Y-85151503D01*
X162978953Y-85151503D02*
X163026572Y-85103884D01*
X163026572Y-85103884D02*
X163121810Y-85056265D01*
X163121810Y-85056265D02*
X163217048Y-85056265D01*
X163217048Y-85056265D02*
X163312286Y-85103884D01*
X163312286Y-85103884D02*
X163359905Y-85151503D01*
X163359905Y-85151503D02*
X163407524Y-85246741D01*
X163407524Y-85246741D02*
X163407524Y-85484836D01*
X163407524Y-85484836D02*
X163359905Y-85627693D01*
X162455144Y-86484836D02*
X162407524Y-86389598D01*
X162407524Y-86389598D02*
X162407524Y-86199122D01*
X162407524Y-86199122D02*
X162455144Y-86103884D01*
X162455144Y-86103884D02*
X162502763Y-86056265D01*
X162502763Y-86056265D02*
X162598001Y-86008646D01*
X162598001Y-86008646D02*
X162883715Y-86008646D01*
X162883715Y-86008646D02*
X162978953Y-86056265D01*
X162978953Y-86056265D02*
X163026572Y-86103884D01*
X163026572Y-86103884D02*
X163074191Y-86199122D01*
X163074191Y-86199122D02*
X163074191Y-86389598D01*
X163074191Y-86389598D02*
X163026572Y-86484836D01*
X162407524Y-86913408D02*
X163407524Y-86913408D01*
X162407524Y-87341979D02*
X162931334Y-87341979D01*
X162931334Y-87341979D02*
X163026572Y-87294360D01*
X163026572Y-87294360D02*
X163074191Y-87199122D01*
X163074191Y-87199122D02*
X163074191Y-87056265D01*
X163074191Y-87056265D02*
X163026572Y-86961027D01*
X163026572Y-86961027D02*
X162978953Y-86913408D01*
X162407524Y-87818170D02*
X163074191Y-87818170D01*
X162978953Y-87818170D02*
X163026572Y-87865789D01*
X163026572Y-87865789D02*
X163074191Y-87961027D01*
X163074191Y-87961027D02*
X163074191Y-88103884D01*
X163074191Y-88103884D02*
X163026572Y-88199122D01*
X163026572Y-88199122D02*
X162931334Y-88246741D01*
X162931334Y-88246741D02*
X162407524Y-88246741D01*
X162931334Y-88246741D02*
X163026572Y-88294360D01*
X163026572Y-88294360D02*
X163074191Y-88389598D01*
X163074191Y-88389598D02*
X163074191Y-88532455D01*
X163074191Y-88532455D02*
X163026572Y-88627694D01*
X163026572Y-88627694D02*
X162931334Y-88675313D01*
X162931334Y-88675313D02*
X162407524Y-88675313D01*
X162502763Y-89151503D02*
X162455144Y-89199122D01*
X162455144Y-89199122D02*
X162407524Y-89151503D01*
X162407524Y-89151503D02*
X162455144Y-89103884D01*
X162455144Y-89103884D02*
X162502763Y-89151503D01*
X162502763Y-89151503D02*
X162407524Y-89151503D01*
X160797580Y-85246741D02*
X160845200Y-85151503D01*
X160845200Y-85151503D02*
X160892819Y-85103884D01*
X160892819Y-85103884D02*
X160988057Y-85056265D01*
X160988057Y-85056265D02*
X161273771Y-85056265D01*
X161273771Y-85056265D02*
X161369009Y-85103884D01*
X161369009Y-85103884D02*
X161416628Y-85151503D01*
X161416628Y-85151503D02*
X161464247Y-85246741D01*
X161464247Y-85246741D02*
X161464247Y-85389598D01*
X161464247Y-85389598D02*
X161416628Y-85484836D01*
X161416628Y-85484836D02*
X161369009Y-85532455D01*
X161369009Y-85532455D02*
X161273771Y-85580074D01*
X161273771Y-85580074D02*
X160988057Y-85580074D01*
X160988057Y-85580074D02*
X160892819Y-85532455D01*
X160892819Y-85532455D02*
X160845200Y-85484836D01*
X160845200Y-85484836D02*
X160797580Y-85389598D01*
X160797580Y-85389598D02*
X160797580Y-85246741D01*
X161464247Y-86437217D02*
X160797580Y-86437217D01*
X161464247Y-86008646D02*
X160940438Y-86008646D01*
X160940438Y-86008646D02*
X160845200Y-86056265D01*
X160845200Y-86056265D02*
X160797580Y-86151503D01*
X160797580Y-86151503D02*
X160797580Y-86294360D01*
X160797580Y-86294360D02*
X160845200Y-86389598D01*
X160845200Y-86389598D02*
X160892819Y-86437217D01*
X161464247Y-86770551D02*
X161464247Y-87151503D01*
X161797580Y-86913408D02*
X160940438Y-86913408D01*
X160940438Y-86913408D02*
X160845200Y-86961027D01*
X160845200Y-86961027D02*
X160797580Y-87056265D01*
X160797580Y-87056265D02*
X160797580Y-87151503D01*
X157072419Y-123705639D02*
X157072419Y-123515163D01*
X157072419Y-123515163D02*
X157120038Y-123419925D01*
X157120038Y-123419925D02*
X157215276Y-123324687D01*
X157215276Y-123324687D02*
X157405752Y-123277068D01*
X157405752Y-123277068D02*
X157739085Y-123277068D01*
X157739085Y-123277068D02*
X157929561Y-123324687D01*
X157929561Y-123324687D02*
X158024800Y-123419925D01*
X158024800Y-123419925D02*
X158072419Y-123515163D01*
X158072419Y-123515163D02*
X158072419Y-123705639D01*
X158072419Y-123705639D02*
X158024800Y-123800877D01*
X158024800Y-123800877D02*
X157929561Y-123896115D01*
X157929561Y-123896115D02*
X157739085Y-123943734D01*
X157739085Y-123943734D02*
X157405752Y-123943734D01*
X157405752Y-123943734D02*
X157215276Y-123896115D01*
X157215276Y-123896115D02*
X157120038Y-123800877D01*
X157120038Y-123800877D02*
X157072419Y-123705639D01*
X157072419Y-122848496D02*
X157881942Y-122848496D01*
X157881942Y-122848496D02*
X157977180Y-122800877D01*
X157977180Y-122800877D02*
X158024800Y-122753258D01*
X158024800Y-122753258D02*
X158072419Y-122658020D01*
X158072419Y-122658020D02*
X158072419Y-122467544D01*
X158072419Y-122467544D02*
X158024800Y-122372306D01*
X158024800Y-122372306D02*
X157977180Y-122324687D01*
X157977180Y-122324687D02*
X157881942Y-122277068D01*
X157881942Y-122277068D02*
X157072419Y-122277068D01*
X157072419Y-121943734D02*
X157072419Y-121372306D01*
X158072419Y-121658020D02*
X157072419Y-121658020D01*
X158167657Y-121277068D02*
X158167657Y-120515163D01*
X157167657Y-120324686D02*
X157120038Y-120277067D01*
X157120038Y-120277067D02*
X157072419Y-120181829D01*
X157072419Y-120181829D02*
X157072419Y-119943734D01*
X157072419Y-119943734D02*
X157120038Y-119848496D01*
X157120038Y-119848496D02*
X157167657Y-119800877D01*
X157167657Y-119800877D02*
X157262895Y-119753258D01*
X157262895Y-119753258D02*
X157358133Y-119753258D01*
X157358133Y-119753258D02*
X157500990Y-119800877D01*
X157500990Y-119800877D02*
X158072419Y-120372305D01*
X158072419Y-120372305D02*
X158072419Y-119753258D01*
X162320038Y-123372306D02*
X162272419Y-123467544D01*
X162272419Y-123467544D02*
X162272419Y-123610401D01*
X162272419Y-123610401D02*
X162320038Y-123753258D01*
X162320038Y-123753258D02*
X162415276Y-123848496D01*
X162415276Y-123848496D02*
X162510514Y-123896115D01*
X162510514Y-123896115D02*
X162700990Y-123943734D01*
X162700990Y-123943734D02*
X162843847Y-123943734D01*
X162843847Y-123943734D02*
X163034323Y-123896115D01*
X163034323Y-123896115D02*
X163129561Y-123848496D01*
X163129561Y-123848496D02*
X163224800Y-123753258D01*
X163224800Y-123753258D02*
X163272419Y-123610401D01*
X163272419Y-123610401D02*
X163272419Y-123515163D01*
X163272419Y-123515163D02*
X163224800Y-123372306D01*
X163224800Y-123372306D02*
X163177180Y-123324687D01*
X163177180Y-123324687D02*
X162843847Y-123324687D01*
X162843847Y-123324687D02*
X162843847Y-123515163D01*
X163272419Y-122896115D02*
X162272419Y-122896115D01*
X162272419Y-122896115D02*
X163272419Y-122324687D01*
X163272419Y-122324687D02*
X162272419Y-122324687D01*
X163272419Y-121848496D02*
X162272419Y-121848496D01*
X162272419Y-121848496D02*
X162272419Y-121610401D01*
X162272419Y-121610401D02*
X162320038Y-121467544D01*
X162320038Y-121467544D02*
X162415276Y-121372306D01*
X162415276Y-121372306D02*
X162510514Y-121324687D01*
X162510514Y-121324687D02*
X162700990Y-121277068D01*
X162700990Y-121277068D02*
X162843847Y-121277068D01*
X162843847Y-121277068D02*
X163034323Y-121324687D01*
X163034323Y-121324687D02*
X163129561Y-121372306D01*
X163129561Y-121372306D02*
X163224800Y-121467544D01*
X163224800Y-121467544D02*
X163272419Y-121610401D01*
X163272419Y-121610401D02*
X163272419Y-121848496D01*
X189479961Y-101227693D02*
X189527580Y-101132455D01*
X189527580Y-101132455D02*
X189527580Y-100989598D01*
X189527580Y-100989598D02*
X189479961Y-100846741D01*
X189479961Y-100846741D02*
X189384723Y-100751503D01*
X189384723Y-100751503D02*
X189289485Y-100703884D01*
X189289485Y-100703884D02*
X189099009Y-100656265D01*
X189099009Y-100656265D02*
X188956152Y-100656265D01*
X188956152Y-100656265D02*
X188765676Y-100703884D01*
X188765676Y-100703884D02*
X188670438Y-100751503D01*
X188670438Y-100751503D02*
X188575200Y-100846741D01*
X188575200Y-100846741D02*
X188527580Y-100989598D01*
X188527580Y-100989598D02*
X188527580Y-101084836D01*
X188527580Y-101084836D02*
X188575200Y-101227693D01*
X188575200Y-101227693D02*
X188622819Y-101275312D01*
X188622819Y-101275312D02*
X188956152Y-101275312D01*
X188956152Y-101275312D02*
X188956152Y-101084836D01*
X188527580Y-101703884D02*
X189527580Y-101703884D01*
X189527580Y-101703884D02*
X188527580Y-102275312D01*
X188527580Y-102275312D02*
X189527580Y-102275312D01*
X188527580Y-102751503D02*
X189527580Y-102751503D01*
X189527580Y-102751503D02*
X189527580Y-102989598D01*
X189527580Y-102989598D02*
X189479961Y-103132455D01*
X189479961Y-103132455D02*
X189384723Y-103227693D01*
X189384723Y-103227693D02*
X189289485Y-103275312D01*
X189289485Y-103275312D02*
X189099009Y-103322931D01*
X189099009Y-103322931D02*
X188956152Y-103322931D01*
X188956152Y-103322931D02*
X188765676Y-103275312D01*
X188765676Y-103275312D02*
X188670438Y-103227693D01*
X188670438Y-103227693D02*
X188575200Y-103132455D01*
X188575200Y-103132455D02*
X188527580Y-102989598D01*
X188527580Y-102989598D02*
X188527580Y-102751503D01*
X168627693Y-97720038D02*
X168532455Y-97672419D01*
X168532455Y-97672419D02*
X168389598Y-97672419D01*
X168389598Y-97672419D02*
X168246741Y-97720038D01*
X168246741Y-97720038D02*
X168151503Y-97815276D01*
X168151503Y-97815276D02*
X168103884Y-97910514D01*
X168103884Y-97910514D02*
X168056265Y-98100990D01*
X168056265Y-98100990D02*
X168056265Y-98243847D01*
X168056265Y-98243847D02*
X168103884Y-98434323D01*
X168103884Y-98434323D02*
X168151503Y-98529561D01*
X168151503Y-98529561D02*
X168246741Y-98624800D01*
X168246741Y-98624800D02*
X168389598Y-98672419D01*
X168389598Y-98672419D02*
X168484836Y-98672419D01*
X168484836Y-98672419D02*
X168627693Y-98624800D01*
X168627693Y-98624800D02*
X168675312Y-98577180D01*
X168675312Y-98577180D02*
X168675312Y-98243847D01*
X168675312Y-98243847D02*
X168484836Y-98243847D01*
X169103884Y-98672419D02*
X169103884Y-97672419D01*
X169103884Y-97672419D02*
X169675312Y-98672419D01*
X169675312Y-98672419D02*
X169675312Y-97672419D01*
X170151503Y-98672419D02*
X170151503Y-97672419D01*
X170151503Y-97672419D02*
X170389598Y-97672419D01*
X170389598Y-97672419D02*
X170532455Y-97720038D01*
X170532455Y-97720038D02*
X170627693Y-97815276D01*
X170627693Y-97815276D02*
X170675312Y-97910514D01*
X170675312Y-97910514D02*
X170722931Y-98100990D01*
X170722931Y-98100990D02*
X170722931Y-98243847D01*
X170722931Y-98243847D02*
X170675312Y-98434323D01*
X170675312Y-98434323D02*
X170627693Y-98529561D01*
X170627693Y-98529561D02*
X170532455Y-98624800D01*
X170532455Y-98624800D02*
X170389598Y-98672419D01*
X170389598Y-98672419D02*
X170151503Y-98672419D01*
X136008646Y-103472419D02*
X136675312Y-104472419D01*
X136675312Y-103472419D02*
X136008646Y-104472419D01*
X137246741Y-103472419D02*
X137437217Y-103472419D01*
X137437217Y-103472419D02*
X137532455Y-103520038D01*
X137532455Y-103520038D02*
X137627693Y-103615276D01*
X137627693Y-103615276D02*
X137675312Y-103805752D01*
X137675312Y-103805752D02*
X137675312Y-104139085D01*
X137675312Y-104139085D02*
X137627693Y-104329561D01*
X137627693Y-104329561D02*
X137532455Y-104424800D01*
X137532455Y-104424800D02*
X137437217Y-104472419D01*
X137437217Y-104472419D02*
X137246741Y-104472419D01*
X137246741Y-104472419D02*
X137151503Y-104424800D01*
X137151503Y-104424800D02*
X137056265Y-104329561D01*
X137056265Y-104329561D02*
X137008646Y-104139085D01*
X137008646Y-104139085D02*
X137008646Y-103805752D01*
X137008646Y-103805752D02*
X137056265Y-103615276D01*
X137056265Y-103615276D02*
X137151503Y-103520038D01*
X137151503Y-103520038D02*
X137246741Y-103472419D01*
X138675312Y-104472419D02*
X138341979Y-103996228D01*
X138103884Y-104472419D02*
X138103884Y-103472419D01*
X138103884Y-103472419D02*
X138484836Y-103472419D01*
X138484836Y-103472419D02*
X138580074Y-103520038D01*
X138580074Y-103520038D02*
X138627693Y-103567657D01*
X138627693Y-103567657D02*
X138675312Y-103662895D01*
X138675312Y-103662895D02*
X138675312Y-103805752D01*
X138675312Y-103805752D02*
X138627693Y-103900990D01*
X138627693Y-103900990D02*
X138580074Y-103948609D01*
X138580074Y-103948609D02*
X138484836Y-103996228D01*
X138484836Y-103996228D02*
X138103884Y-103996228D01*
X139103884Y-104091466D02*
X139865789Y-104091466D01*
X140341979Y-104472419D02*
X140341979Y-103805752D01*
X140341979Y-103472419D02*
X140294360Y-103520038D01*
X140294360Y-103520038D02*
X140341979Y-103567657D01*
X140341979Y-103567657D02*
X140389598Y-103520038D01*
X140389598Y-103520038D02*
X140341979Y-103472419D01*
X140341979Y-103472419D02*
X140341979Y-103567657D01*
X140818169Y-103805752D02*
X140818169Y-104472419D01*
X140818169Y-103900990D02*
X140865788Y-103853371D01*
X140865788Y-103853371D02*
X140961026Y-103805752D01*
X140961026Y-103805752D02*
X141103883Y-103805752D01*
X141103883Y-103805752D02*
X141199121Y-103853371D01*
X141199121Y-103853371D02*
X141246740Y-103948609D01*
X141246740Y-103948609D02*
X141246740Y-104472419D01*
X141675312Y-103567657D02*
X141722931Y-103520038D01*
X141722931Y-103520038D02*
X141818169Y-103472419D01*
X141818169Y-103472419D02*
X142056264Y-103472419D01*
X142056264Y-103472419D02*
X142151502Y-103520038D01*
X142151502Y-103520038D02*
X142199121Y-103567657D01*
X142199121Y-103567657D02*
X142246740Y-103662895D01*
X142246740Y-103662895D02*
X142246740Y-103758133D01*
X142246740Y-103758133D02*
X142199121Y-103900990D01*
X142199121Y-103900990D02*
X141627693Y-104472419D01*
X141627693Y-104472419D02*
X142246740Y-104472419D01*
X154472419Y-123705639D02*
X154472419Y-123515163D01*
X154472419Y-123515163D02*
X154520038Y-123419925D01*
X154520038Y-123419925D02*
X154615276Y-123324687D01*
X154615276Y-123324687D02*
X154805752Y-123277068D01*
X154805752Y-123277068D02*
X155139085Y-123277068D01*
X155139085Y-123277068D02*
X155329561Y-123324687D01*
X155329561Y-123324687D02*
X155424800Y-123419925D01*
X155424800Y-123419925D02*
X155472419Y-123515163D01*
X155472419Y-123515163D02*
X155472419Y-123705639D01*
X155472419Y-123705639D02*
X155424800Y-123800877D01*
X155424800Y-123800877D02*
X155329561Y-123896115D01*
X155329561Y-123896115D02*
X155139085Y-123943734D01*
X155139085Y-123943734D02*
X154805752Y-123943734D01*
X154805752Y-123943734D02*
X154615276Y-123896115D01*
X154615276Y-123896115D02*
X154520038Y-123800877D01*
X154520038Y-123800877D02*
X154472419Y-123705639D01*
X154472419Y-122848496D02*
X155281942Y-122848496D01*
X155281942Y-122848496D02*
X155377180Y-122800877D01*
X155377180Y-122800877D02*
X155424800Y-122753258D01*
X155424800Y-122753258D02*
X155472419Y-122658020D01*
X155472419Y-122658020D02*
X155472419Y-122467544D01*
X155472419Y-122467544D02*
X155424800Y-122372306D01*
X155424800Y-122372306D02*
X155377180Y-122324687D01*
X155377180Y-122324687D02*
X155281942Y-122277068D01*
X155281942Y-122277068D02*
X154472419Y-122277068D01*
X154472419Y-121943734D02*
X154472419Y-121372306D01*
X155472419Y-121658020D02*
X154472419Y-121658020D01*
X155567657Y-121277068D02*
X155567657Y-120515163D01*
X155472419Y-119753258D02*
X155472419Y-120324686D01*
X155472419Y-120038972D02*
X154472419Y-120038972D01*
X154472419Y-120038972D02*
X154615276Y-120134210D01*
X154615276Y-120134210D02*
X154710514Y-120229448D01*
X154710514Y-120229448D02*
X154758133Y-120324686D01*
X156520038Y-100972306D02*
X156472419Y-101067544D01*
X156472419Y-101067544D02*
X156472419Y-101210401D01*
X156472419Y-101210401D02*
X156520038Y-101353258D01*
X156520038Y-101353258D02*
X156615276Y-101448496D01*
X156615276Y-101448496D02*
X156710514Y-101496115D01*
X156710514Y-101496115D02*
X156900990Y-101543734D01*
X156900990Y-101543734D02*
X157043847Y-101543734D01*
X157043847Y-101543734D02*
X157234323Y-101496115D01*
X157234323Y-101496115D02*
X157329561Y-101448496D01*
X157329561Y-101448496D02*
X157424800Y-101353258D01*
X157424800Y-101353258D02*
X157472419Y-101210401D01*
X157472419Y-101210401D02*
X157472419Y-101115163D01*
X157472419Y-101115163D02*
X157424800Y-100972306D01*
X157424800Y-100972306D02*
X157377180Y-100924687D01*
X157377180Y-100924687D02*
X157043847Y-100924687D01*
X157043847Y-100924687D02*
X157043847Y-101115163D01*
X157472419Y-100496115D02*
X156472419Y-100496115D01*
X156472419Y-100496115D02*
X157472419Y-99924687D01*
X157472419Y-99924687D02*
X156472419Y-99924687D01*
X157472419Y-99448496D02*
X156472419Y-99448496D01*
X156472419Y-99448496D02*
X156472419Y-99210401D01*
X156472419Y-99210401D02*
X156520038Y-99067544D01*
X156520038Y-99067544D02*
X156615276Y-98972306D01*
X156615276Y-98972306D02*
X156710514Y-98924687D01*
X156710514Y-98924687D02*
X156900990Y-98877068D01*
X156900990Y-98877068D02*
X157043847Y-98877068D01*
X157043847Y-98877068D02*
X157234323Y-98924687D01*
X157234323Y-98924687D02*
X157329561Y-98972306D01*
X157329561Y-98972306D02*
X157424800Y-99067544D01*
X157424800Y-99067544D02*
X157472419Y-99210401D01*
X157472419Y-99210401D02*
X157472419Y-99448496D01*
X151575200Y-82056265D02*
X151527580Y-82199122D01*
X151527580Y-82199122D02*
X151527580Y-82437217D01*
X151527580Y-82437217D02*
X151575200Y-82532455D01*
X151575200Y-82532455D02*
X151622819Y-82580074D01*
X151622819Y-82580074D02*
X151718057Y-82627693D01*
X151718057Y-82627693D02*
X151813295Y-82627693D01*
X151813295Y-82627693D02*
X151908533Y-82580074D01*
X151908533Y-82580074D02*
X151956152Y-82532455D01*
X151956152Y-82532455D02*
X152003771Y-82437217D01*
X152003771Y-82437217D02*
X152051390Y-82246741D01*
X152051390Y-82246741D02*
X152099009Y-82151503D01*
X152099009Y-82151503D02*
X152146628Y-82103884D01*
X152146628Y-82103884D02*
X152241866Y-82056265D01*
X152241866Y-82056265D02*
X152337104Y-82056265D01*
X152337104Y-82056265D02*
X152432342Y-82103884D01*
X152432342Y-82103884D02*
X152479961Y-82151503D01*
X152479961Y-82151503D02*
X152527580Y-82246741D01*
X152527580Y-82246741D02*
X152527580Y-82484836D01*
X152527580Y-82484836D02*
X152479961Y-82627693D01*
X151575200Y-83484836D02*
X151527580Y-83389598D01*
X151527580Y-83389598D02*
X151527580Y-83199122D01*
X151527580Y-83199122D02*
X151575200Y-83103884D01*
X151575200Y-83103884D02*
X151622819Y-83056265D01*
X151622819Y-83056265D02*
X151718057Y-83008646D01*
X151718057Y-83008646D02*
X152003771Y-83008646D01*
X152003771Y-83008646D02*
X152099009Y-83056265D01*
X152099009Y-83056265D02*
X152146628Y-83103884D01*
X152146628Y-83103884D02*
X152194247Y-83199122D01*
X152194247Y-83199122D02*
X152194247Y-83389598D01*
X152194247Y-83389598D02*
X152146628Y-83484836D01*
X151527580Y-83913408D02*
X152527580Y-83913408D01*
X151527580Y-84341979D02*
X152051390Y-84341979D01*
X152051390Y-84341979D02*
X152146628Y-84294360D01*
X152146628Y-84294360D02*
X152194247Y-84199122D01*
X152194247Y-84199122D02*
X152194247Y-84056265D01*
X152194247Y-84056265D02*
X152146628Y-83961027D01*
X152146628Y-83961027D02*
X152099009Y-83913408D01*
X151527580Y-84818170D02*
X152194247Y-84818170D01*
X152099009Y-84818170D02*
X152146628Y-84865789D01*
X152146628Y-84865789D02*
X152194247Y-84961027D01*
X152194247Y-84961027D02*
X152194247Y-85103884D01*
X152194247Y-85103884D02*
X152146628Y-85199122D01*
X152146628Y-85199122D02*
X152051390Y-85246741D01*
X152051390Y-85246741D02*
X151527580Y-85246741D01*
X152051390Y-85246741D02*
X152146628Y-85294360D01*
X152146628Y-85294360D02*
X152194247Y-85389598D01*
X152194247Y-85389598D02*
X152194247Y-85532455D01*
X152194247Y-85532455D02*
X152146628Y-85627694D01*
X152146628Y-85627694D02*
X152051390Y-85675313D01*
X152051390Y-85675313D02*
X151527580Y-85675313D01*
X151908533Y-86151503D02*
X151908533Y-86913408D01*
X151527580Y-87389598D02*
X152194247Y-87389598D01*
X152527580Y-87389598D02*
X152479961Y-87341979D01*
X152479961Y-87341979D02*
X152432342Y-87389598D01*
X152432342Y-87389598D02*
X152479961Y-87437217D01*
X152479961Y-87437217D02*
X152527580Y-87389598D01*
X152527580Y-87389598D02*
X152432342Y-87389598D01*
X152194247Y-87865788D02*
X151527580Y-87865788D01*
X152099009Y-87865788D02*
X152146628Y-87913407D01*
X152146628Y-87913407D02*
X152194247Y-88008645D01*
X152194247Y-88008645D02*
X152194247Y-88151502D01*
X152194247Y-88151502D02*
X152146628Y-88246740D01*
X152146628Y-88246740D02*
X152051390Y-88294359D01*
X152051390Y-88294359D02*
X151527580Y-88294359D01*
D13*
%TO.C,J15*%
X148670000Y-119145000D02*
X150000000Y-119145000D01*
X148670000Y-120475000D02*
X148670000Y-119145000D01*
X148670000Y-121745000D02*
X148670000Y-126885000D01*
X148670000Y-121745000D02*
X151330000Y-121745000D01*
X148670000Y-126885000D02*
X151330000Y-126885000D01*
X151330000Y-121745000D02*
X151330000Y-126885000D01*
%TO.C,J6*%
X160670000Y-79130000D02*
X162000000Y-79130000D01*
X160670000Y-80460000D02*
X160670000Y-79130000D01*
X160670000Y-81730000D02*
X160670000Y-84330000D01*
X160670000Y-81730000D02*
X163330000Y-81730000D01*
X160670000Y-84330000D02*
X163330000Y-84330000D01*
X163330000Y-81730000D02*
X163330000Y-84330000D01*
%TO.C,J16*%
X153670000Y-124670000D02*
X153670000Y-127330000D01*
X161350000Y-124670000D02*
X153670000Y-124670000D01*
X161350000Y-124670000D02*
X161350000Y-127330000D01*
X161350000Y-127330000D02*
X153670000Y-127330000D01*
X162620000Y-124670000D02*
X163950000Y-124670000D01*
X163950000Y-124670000D02*
X163950000Y-126000000D01*
%TO.C,J17*%
X159670000Y-102130000D02*
X161000000Y-102130000D01*
X159670000Y-103460000D02*
X159670000Y-102130000D01*
X159670000Y-104730000D02*
X159670000Y-107330000D01*
X159670000Y-104730000D02*
X162330000Y-104730000D01*
X159670000Y-107330000D02*
X162330000Y-107330000D01*
X162330000Y-104730000D02*
X162330000Y-107330000D01*
%TO.C,RV1*%
X167380000Y-78880000D02*
X167380000Y-79574000D01*
X167380000Y-78880000D02*
X179500000Y-78880000D01*
X167380000Y-82426000D02*
X167380000Y-89575000D01*
X167380000Y-92425000D02*
X167380000Y-93120000D01*
X167380000Y-93120000D02*
X179500000Y-93120000D01*
X179500000Y-78880000D02*
X179500000Y-84575000D01*
X179500000Y-87425000D02*
X179500000Y-93120000D01*
%TO.C,J20*%
X145670000Y-81330000D02*
X145670000Y-80000000D01*
X147000000Y-81330000D02*
X145670000Y-81330000D01*
X148270000Y-78670000D02*
X155950000Y-78670000D01*
X148270000Y-81330000D02*
X148270000Y-78670000D01*
X148270000Y-81330000D02*
X155950000Y-81330000D01*
X155950000Y-81330000D02*
X155950000Y-78670000D01*
%TO.C,J9*%
X183670000Y-97270000D02*
X183670000Y-94670000D01*
X186330000Y-94670000D02*
X183670000Y-94670000D01*
X186330000Y-97270000D02*
X183670000Y-97270000D01*
X186330000Y-97270000D02*
X186330000Y-94670000D01*
X186330000Y-98540000D02*
X186330000Y-99870000D01*
X186330000Y-99870000D02*
X185000000Y-99870000D01*
%TO.C,J3*%
X188670000Y-108590000D02*
X190000000Y-108590000D01*
X188670000Y-109920000D02*
X188670000Y-108590000D01*
X188670000Y-111190000D02*
X188670000Y-116330000D01*
X188670000Y-111190000D02*
X191330000Y-111190000D01*
X188670000Y-116330000D02*
X191330000Y-116330000D01*
X191330000Y-111190000D02*
X191330000Y-116330000D01*
%TO.C,J8*%
X187670000Y-97270000D02*
X187670000Y-94670000D01*
X190330000Y-94670000D02*
X187670000Y-94670000D01*
X190330000Y-97270000D02*
X187670000Y-97270000D01*
X190330000Y-97270000D02*
X190330000Y-94670000D01*
X190330000Y-98540000D02*
X190330000Y-99870000D01*
X190330000Y-99870000D02*
X189000000Y-99870000D01*
%TO.C,J14*%
X132670000Y-110050000D02*
X134000000Y-110050000D01*
X132670000Y-111380000D02*
X132670000Y-110050000D01*
X132670000Y-112650000D02*
X132670000Y-120330000D01*
X132670000Y-112650000D02*
X135330000Y-112650000D01*
X132670000Y-120330000D02*
X135330000Y-120330000D01*
X135330000Y-112650000D02*
X135330000Y-120330000D01*
%TO.C,J2*%
X155670000Y-102130000D02*
X157000000Y-102130000D01*
X155670000Y-103460000D02*
X155670000Y-102130000D01*
X155670000Y-104730000D02*
X155670000Y-107330000D01*
X155670000Y-104730000D02*
X158330000Y-104730000D01*
X155670000Y-107330000D02*
X158330000Y-107330000D01*
X158330000Y-104730000D02*
X158330000Y-107330000D01*
%TO.C,J18*%
X164670000Y-96870000D02*
X166000000Y-96870000D01*
X164670000Y-98200000D02*
X164670000Y-96870000D01*
X164670000Y-99470000D02*
X164670000Y-107150000D01*
X164670000Y-99470000D02*
X167330000Y-99470000D01*
X164670000Y-107150000D02*
X167330000Y-107150000D01*
X167330000Y-99470000D02*
X167330000Y-107150000D01*
%TO.C,J1*%
X184670000Y-108590000D02*
X186000000Y-108590000D01*
X184670000Y-109920000D02*
X184670000Y-108590000D01*
X184670000Y-111190000D02*
X184670000Y-116330000D01*
X184670000Y-111190000D02*
X187330000Y-111190000D01*
X184670000Y-116330000D02*
X187330000Y-116330000D01*
X187330000Y-111190000D02*
X187330000Y-116330000D01*
%TO.C,J19*%
X132670000Y-85590000D02*
X134000000Y-85590000D01*
X132670000Y-86920000D02*
X132670000Y-85590000D01*
X132670000Y-88190000D02*
X132670000Y-95870000D01*
X132670000Y-88190000D02*
X135330000Y-88190000D01*
X132670000Y-95870000D02*
X135330000Y-95870000D01*
X135330000Y-88190000D02*
X135330000Y-95870000D01*
%TO.C,J11*%
X132670000Y-97590000D02*
X134000000Y-97590000D01*
X132670000Y-98920000D02*
X132670000Y-97590000D01*
X132670000Y-100190000D02*
X132670000Y-107870000D01*
X132670000Y-100190000D02*
X135330000Y-100190000D01*
X132670000Y-107870000D02*
X135330000Y-107870000D01*
X135330000Y-100190000D02*
X135330000Y-107870000D01*
%TO.C,J5*%
X141670000Y-92130000D02*
X143000000Y-92130000D01*
X141670000Y-93460000D02*
X141670000Y-92130000D01*
X141670000Y-94730000D02*
X141670000Y-97330000D01*
X141670000Y-94730000D02*
X144330000Y-94730000D01*
X141670000Y-97330000D02*
X144330000Y-97330000D01*
X144330000Y-94730000D02*
X144330000Y-97330000D01*
%TD*%
M02*
