%TF.GenerationSoftware,KiCad,Pcbnew,8.0.6*%
%TF.CreationDate,2025-05-19T21:14:28+02:00*%
%TF.ProjectId,szkoleniexd,737a6b6f-6c65-46e6-9965-78642e6b6963,1.0*%
%TF.SameCoordinates,Original*%
%TF.FileFunction,Copper,L2,Bot*%
%TF.FilePolarity,Positive*%
%FSLAX46Y46*%
G04 Gerber Fmt 4.6, Leading zero omitted, Abs format (unit mm)*
G04 Created by KiCad (PCBNEW 8.0.6) date 2025-05-19 21:14:28*
%MOMM*%
%LPD*%
G01*
G04 APERTURE LIST*
G04 Aperture macros list*
%AMRoundRect*
0 Rectangle with rounded corners*
0 $1 Rounding radius*
0 $2 $3 $4 $5 $6 $7 $8 $9 X,Y pos of 4 corners*
0 Add a 4 corners polygon primitive as box body*
4,1,4,$2,$3,$4,$5,$6,$7,$8,$9,$2,$3,0*
0 Add four circle primitives for the rounded corners*
1,1,$1+$1,$2,$3*
1,1,$1+$1,$4,$5*
1,1,$1+$1,$6,$7*
1,1,$1+$1,$8,$9*
0 Add four rect primitives between the rounded corners*
20,1,$1+$1,$2,$3,$4,$5,0*
20,1,$1+$1,$4,$5,$6,$7,0*
20,1,$1+$1,$6,$7,$8,$9,0*
20,1,$1+$1,$8,$9,$2,$3,0*%
G04 Aperture macros list end*
%TA.AperFunction,ComponentPad*%
%ADD10R,1.700000X1.700000*%
%TD*%
%TA.AperFunction,ComponentPad*%
%ADD11O,1.700000X1.700000*%
%TD*%
%TA.AperFunction,ComponentPad*%
%ADD12C,2.340000*%
%TD*%
%TA.AperFunction,SMDPad,CuDef*%
%ADD13RoundRect,0.200000X0.275000X-0.200000X0.275000X0.200000X-0.275000X0.200000X-0.275000X-0.200000X0*%
%TD*%
%TA.AperFunction,SMDPad,CuDef*%
%ADD14RoundRect,0.200000X-0.200000X-0.275000X0.200000X-0.275000X0.200000X0.275000X-0.200000X0.275000X0*%
%TD*%
%TA.AperFunction,SMDPad,CuDef*%
%ADD15RoundRect,0.225000X-0.250000X0.225000X-0.250000X-0.225000X0.250000X-0.225000X0.250000X0.225000X0*%
%TD*%
%TA.AperFunction,SMDPad,CuDef*%
%ADD16RoundRect,0.225000X-0.225000X-0.250000X0.225000X-0.250000X0.225000X0.250000X-0.225000X0.250000X0*%
%TD*%
%TA.AperFunction,SMDPad,CuDef*%
%ADD17RoundRect,0.150000X-0.587500X-0.150000X0.587500X-0.150000X0.587500X0.150000X-0.587500X0.150000X0*%
%TD*%
%TA.AperFunction,SMDPad,CuDef*%
%ADD18RoundRect,0.200000X0.200000X0.275000X-0.200000X0.275000X-0.200000X-0.275000X0.200000X-0.275000X0*%
%TD*%
%TA.AperFunction,SMDPad,CuDef*%
%ADD19RoundRect,0.237500X-0.287500X-0.237500X0.287500X-0.237500X0.287500X0.237500X-0.287500X0.237500X0*%
%TD*%
%TA.AperFunction,SMDPad,CuDef*%
%ADD20RoundRect,0.150000X0.150000X-0.825000X0.150000X0.825000X-0.150000X0.825000X-0.150000X-0.825000X0*%
%TD*%
%TA.AperFunction,SMDPad,CuDef*%
%ADD21RoundRect,0.200000X-0.275000X0.200000X-0.275000X-0.200000X0.275000X-0.200000X0.275000X0.200000X0*%
%TD*%
%TA.AperFunction,SMDPad,CuDef*%
%ADD22RoundRect,0.237500X0.287500X0.237500X-0.287500X0.237500X-0.287500X-0.237500X0.287500X-0.237500X0*%
%TD*%
%TA.AperFunction,SMDPad,CuDef*%
%ADD23RoundRect,0.150000X-0.150000X0.825000X-0.150000X-0.825000X0.150000X-0.825000X0.150000X0.825000X0*%
%TD*%
%TA.AperFunction,SMDPad,CuDef*%
%ADD24RoundRect,0.225000X0.225000X0.250000X-0.225000X0.250000X-0.225000X-0.250000X0.225000X-0.250000X0*%
%TD*%
%TA.AperFunction,ViaPad*%
%ADD25C,0.700000*%
%TD*%
%TA.AperFunction,Conductor*%
%ADD26C,0.400000*%
%TD*%
G04 APERTURE END LIST*
D10*
%TO.P,J15,1,Pin_1*%
%TO.N,-5V*%
X150000000Y-120475000D03*
D11*
%TO.P,J15,2,Pin_2*%
%TO.N,Net-(J15-Pin_2)*%
X150000000Y-123015000D03*
%TO.P,J15,3,Pin_3*%
%TO.N,+5V*%
X150000000Y-125555000D03*
%TD*%
D10*
%TO.P,J6,1,Pin_1*%
%TO.N,GND*%
X162000000Y-80460000D03*
D11*
%TO.P,J6,2,Pin_2*%
%TO.N,Net-(J11-Pin_4)*%
X162000000Y-83000000D03*
%TD*%
D10*
%TO.P,J16,1,Pin_1*%
%TO.N,GND*%
X162620000Y-126000000D03*
D11*
%TO.P,J16,2,Pin_2*%
%TO.N,Net-(J16-Pin_2)*%
X160080000Y-126000000D03*
%TO.P,J16,3,Pin_3*%
%TO.N,Net-(J16-Pin_3)*%
X157540000Y-126000000D03*
%TO.P,J16,4,Pin_4*%
%TO.N,Net-(J16-Pin_4)*%
X155000000Y-126000000D03*
%TD*%
D10*
%TO.P,J17,1,Pin_1*%
%TO.N,GND*%
X161000000Y-103460000D03*
D11*
%TO.P,J17,2,Pin_2*%
%TO.N,Net-(J17-Pin_2)*%
X161000000Y-106000000D03*
%TD*%
D12*
%TO.P,RV1,1,1*%
%TO.N,Net-(R9-Pad1)*%
X167000000Y-91000000D03*
%TO.P,RV1,2,2*%
%TO.N,Net-(J11-Pin_4)*%
X179500000Y-86000000D03*
%TO.P,RV1,3,3*%
X167000000Y-81000000D03*
%TD*%
D10*
%TO.P,J20,1,Pin_1*%
%TO.N,GND*%
X147000000Y-80000000D03*
D11*
%TO.P,J20,2,Pin_2*%
%TO.N,Net-(J20-Pin_2)*%
X149540000Y-80000000D03*
%TO.P,J20,3,Pin_3*%
X152080000Y-80000000D03*
%TO.P,J20,4,Pin_4*%
%TO.N,GND*%
X154620000Y-80000000D03*
%TD*%
D10*
%TO.P,J9,1,Pin_1*%
%TO.N,GND*%
X185000000Y-98540000D03*
D11*
%TO.P,J9,2,Pin_2*%
%TO.N,Net-(D1-K)*%
X185000000Y-96000000D03*
%TD*%
D10*
%TO.P,J3,1,Pin_1*%
%TO.N,+5V*%
X190000000Y-109920000D03*
D11*
%TO.P,J3,2,Pin_2*%
%TO.N,GND*%
X190000000Y-112460000D03*
%TO.P,J3,3,Pin_3*%
%TO.N,-5V*%
X190000000Y-115000000D03*
%TD*%
D10*
%TO.P,J8,1,Pin_1*%
%TO.N,GND*%
X189000000Y-98540000D03*
D11*
%TO.P,J8,2,Pin_2*%
%TO.N,/pll_out*%
X189000000Y-96000000D03*
%TD*%
D10*
%TO.P,J14,1,Pin_1*%
%TO.N,GND*%
X134000000Y-111380000D03*
D11*
%TO.P,J14,2,Pin_2*%
%TO.N,Net-(J14-Pin_2)*%
X134000000Y-113920000D03*
%TO.P,J14,3,Pin_3*%
X134000000Y-116460000D03*
%TO.P,J14,4,Pin_4*%
%TO.N,/pll_out*%
X134000000Y-119000000D03*
%TD*%
D10*
%TO.P,J2,1,Pin_1*%
%TO.N,GND*%
X157000000Y-103460000D03*
D11*
%TO.P,J2,2,Pin_2*%
%TO.N,Net-(J2-Pin_2)*%
X157000000Y-106000000D03*
%TD*%
D10*
%TO.P,J18,1,Pin_1*%
%TO.N,GND*%
X166000000Y-98200000D03*
D11*
%TO.P,J18,2,Pin_2*%
%TO.N,Net-(J18-Pin_2)*%
X166000000Y-100740000D03*
%TO.P,J18,3,Pin_3*%
X166000000Y-103280000D03*
%TO.P,J18,4,Pin_4*%
%TO.N,Net-(J18-Pin_4)*%
X166000000Y-105820000D03*
%TD*%
D10*
%TO.P,J1,1,Pin_1*%
%TO.N,+5V*%
X186000000Y-109920000D03*
D11*
%TO.P,J1,2,Pin_2*%
%TO.N,GND*%
X186000000Y-112460000D03*
%TO.P,J1,3,Pin_3*%
%TO.N,-5V*%
X186000000Y-115000000D03*
%TD*%
D10*
%TO.P,J19,1,Pin_1*%
%TO.N,GND*%
X134000000Y-86920000D03*
D11*
%TO.P,J19,2,Pin_2*%
%TO.N,Net-(J19-Pin_2)*%
X134000000Y-89460000D03*
%TO.P,J19,3,Pin_3*%
X134000000Y-92000000D03*
%TO.P,J19,4,Pin_4*%
%TO.N,GND*%
X134000000Y-94540000D03*
%TD*%
D10*
%TO.P,J11,1,Pin_1*%
%TO.N,GND*%
X134000000Y-98920000D03*
D11*
%TO.P,J11,2,Pin_2*%
%TO.N,Net-(J11-Pin_2)*%
X134000000Y-101460000D03*
%TO.P,J11,3,Pin_3*%
X134000000Y-104000000D03*
%TO.P,J11,4,Pin_4*%
%TO.N,Net-(J11-Pin_4)*%
X134000000Y-106540000D03*
%TD*%
D10*
%TO.P,J5,1,Pin_1*%
%TO.N,GND*%
X143000000Y-93460000D03*
D11*
%TO.P,J5,2,Pin_2*%
%TO.N,Net-(J5-Pin_2)*%
X143000000Y-96000000D03*
%TD*%
D13*
%TO.P,R2,1*%
%TO.N,Net-(Q2-B)*%
X159000000Y-112000000D03*
%TO.P,R2,2*%
%TO.N,Net-(J18-Pin_2)*%
X159000000Y-110350000D03*
%TD*%
D14*
%TO.P,R3,1*%
%TO.N,GND*%
X146175000Y-84000000D03*
%TO.P,R3,2*%
%TO.N,Net-(C2-Pad2)*%
X147825000Y-84000000D03*
%TD*%
D15*
%TO.P,C6,1*%
%TO.N,+5V*%
X182000000Y-124087500D03*
%TO.P,C6,2*%
%TO.N,GND*%
X182000000Y-125637500D03*
%TD*%
D16*
%TO.P,C12,1*%
%TO.N,Net-(J16-Pin_2)*%
X161087500Y-123000000D03*
%TO.P,C12,2*%
%TO.N,GND*%
X162637500Y-123000000D03*
%TD*%
D15*
%TO.P,C5,1*%
%TO.N,-5V*%
X174000000Y-124087500D03*
%TO.P,C5,2*%
%TO.N,GND*%
X174000000Y-125637500D03*
%TD*%
D17*
%TO.P,Q3,1,B*%
%TO.N,Net-(Q2-B)*%
X168125000Y-116000000D03*
%TO.P,Q3,2,E*%
%TO.N,Net-(Q3-E)*%
X168125000Y-114100000D03*
%TO.P,Q3,3,C*%
%TO.N,Net-(Q1-B)*%
X170000000Y-115050000D03*
%TD*%
%TO.P,Q5,1,B*%
%TO.N,Net-(Q1-B)*%
X171000000Y-103000000D03*
%TO.P,Q5,2,E*%
%TO.N,Net-(Q5-E)*%
X171000000Y-101100000D03*
%TO.P,Q5,3,C*%
%TO.N,Net-(Q1-B)*%
X172875000Y-102050000D03*
%TD*%
D18*
%TO.P,R9,1*%
%TO.N,Net-(R9-Pad1)*%
X163000000Y-88000000D03*
%TO.P,R9,2*%
%TO.N,Net-(C10-Pad1)*%
X161350000Y-88000000D03*
%TD*%
D19*
%TO.P,D4,1,K*%
%TO.N,Net-(D3-K)*%
X178250000Y-107000000D03*
%TO.P,D4,2,A*%
%TO.N,Net-(D1-K)*%
X180000000Y-107000000D03*
%TD*%
D18*
%TO.P,R10,1*%
%TO.N,GND*%
X181000000Y-116000000D03*
%TO.P,R10,2*%
%TO.N,Net-(U1D-+)*%
X179350000Y-116000000D03*
%TD*%
D19*
%TO.P,D2,1,K*%
%TO.N,/pll_out*%
X170250000Y-97000000D03*
%TO.P,D2,2,A*%
%TO.N,Net-(D1-A)*%
X172000000Y-97000000D03*
%TD*%
D13*
%TO.P,R6,1*%
%TO.N,GND*%
X152000000Y-98825000D03*
%TO.P,R6,2*%
%TO.N,Net-(U1B-+)*%
X152000000Y-97175000D03*
%TD*%
D14*
%TO.P,R14,1*%
%TO.N,Net-(Q5-E)*%
X174943000Y-97028000D03*
%TO.P,R14,2*%
%TO.N,+5V*%
X176593000Y-97028000D03*
%TD*%
%TO.P,R13,1*%
%TO.N,-5V*%
X174350000Y-111000000D03*
%TO.P,R13,2*%
%TO.N,Net-(Q2-E)*%
X176000000Y-111000000D03*
%TD*%
D18*
%TO.P,R11,1*%
%TO.N,Net-(U1D-+)*%
X176339000Y-119126000D03*
%TO.P,R11,2*%
%TO.N,/pll_out*%
X174689000Y-119126000D03*
%TD*%
D20*
%TO.P,U1,1*%
%TO.N,Net-(J5-Pin_2)*%
X157000000Y-92000000D03*
%TO.P,U1,2,-*%
%TO.N,Net-(U1A--)*%
X155730000Y-92000000D03*
%TO.P,U1,3,+*%
%TO.N,Net-(J19-Pin_2)*%
X154460000Y-92000000D03*
%TO.P,U1,4,V+*%
%TO.N,+5V*%
X153190000Y-92000000D03*
%TO.P,U1,5,+*%
%TO.N,Net-(U1B-+)*%
X151920000Y-92000000D03*
%TO.P,U1,6,-*%
%TO.N,Net-(J20-Pin_2)*%
X150650000Y-92000000D03*
%TO.P,U1,7*%
%TO.N,Net-(J11-Pin_4)*%
X149380000Y-92000000D03*
%TO.P,U1,8*%
%TO.N,Net-(J18-Pin_4)*%
X149380000Y-87050000D03*
%TO.P,U1,9,-*%
X150650000Y-87050000D03*
%TO.P,U1,10,+*%
%TO.N,Net-(J17-Pin_2)*%
X151920000Y-87050000D03*
%TO.P,U1,11,V-*%
%TO.N,-5V*%
X153190000Y-87050000D03*
%TO.P,U1,12,+*%
%TO.N,Net-(U1D-+)*%
X154460000Y-87050000D03*
%TO.P,U1,13,-*%
%TO.N,Net-(D1-K)*%
X155730000Y-87050000D03*
%TO.P,U1,14*%
%TO.N,/pll_out*%
X157000000Y-87050000D03*
%TD*%
D21*
%TO.P,R15,1*%
%TO.N,Net-(Q1-C)*%
X185000000Y-103175000D03*
%TO.P,R15,2*%
%TO.N,+5V*%
X185000000Y-104825000D03*
%TD*%
D15*
%TO.P,C8,1*%
%TO.N,-5V*%
X170000000Y-124087500D03*
%TO.P,C8,2*%
%TO.N,GND*%
X170000000Y-125637500D03*
%TD*%
D21*
%TO.P,R12,1*%
%TO.N,-5V*%
X168148000Y-109665000D03*
%TO.P,R12,2*%
%TO.N,Net-(Q3-E)*%
X168148000Y-111315000D03*
%TD*%
D22*
%TO.P,D3,1,K*%
%TO.N,Net-(D3-K)*%
X173000000Y-107000000D03*
%TO.P,D3,2,A*%
%TO.N,/pll_out*%
X171250000Y-107000000D03*
%TD*%
D15*
%TO.P,C4,1*%
%TO.N,+5V*%
X178000000Y-124087500D03*
%TO.P,C4,2*%
%TO.N,GND*%
X178000000Y-125637500D03*
%TD*%
D18*
%TO.P,R7,1*%
%TO.N,Net-(U1B-+)*%
X150114000Y-97536000D03*
%TO.P,R7,2*%
%TO.N,Net-(J11-Pin_4)*%
X148464000Y-97536000D03*
%TD*%
%TO.P,R1,1*%
%TO.N,-5V*%
X164000000Y-111000000D03*
%TO.P,R1,2*%
%TO.N,Net-(Q4-E)*%
X162350000Y-111000000D03*
%TD*%
D23*
%TO.P,U2,1*%
%TO.N,Net-(J11-Pin_2)*%
X143190000Y-109525000D03*
%TO.P,U2,2*%
%TO.N,Net-(J14-Pin_2)*%
X144460000Y-109525000D03*
%TO.P,U2,3*%
%TO.N,Net-(J2-Pin_2)*%
X145730000Y-109525000D03*
%TO.P,U2,4*%
%TO.N,Net-(J16-Pin_4)*%
X147000000Y-109525000D03*
%TO.P,U2,5*%
%TO.N,Net-(J15-Pin_2)*%
X148270000Y-109525000D03*
%TO.P,U2,6*%
%TO.N,Net-(J16-Pin_2)*%
X149540000Y-109525000D03*
%TO.P,U2,7,VSS*%
%TO.N,-5V*%
X150810000Y-109525000D03*
%TO.P,U2,8*%
%TO.N,Net-(J15-Pin_2)*%
X150810000Y-114475000D03*
%TO.P,U2,9*%
%TO.N,Net-(J16-Pin_4)*%
X149540000Y-114475000D03*
%TO.P,U2,10*%
%TO.N,Net-(J16-Pin_3)*%
X148270000Y-114475000D03*
%TO.P,U2,11*%
%TO.N,Net-(J16-Pin_2)*%
X147000000Y-114475000D03*
%TO.P,U2,12*%
%TO.N,Net-(J15-Pin_2)*%
X145730000Y-114475000D03*
%TO.P,U2,13*%
%TO.N,Net-(J16-Pin_3)*%
X144460000Y-114475000D03*
%TO.P,U2,14,VDD*%
%TO.N,+5V*%
X143190000Y-114475000D03*
%TD*%
D13*
%TO.P,R5,1*%
%TO.N,GND*%
X155194000Y-98424000D03*
%TO.P,R5,2*%
%TO.N,Net-(U1A--)*%
X155194000Y-96774000D03*
%TD*%
D15*
%TO.P,C7,1*%
%TO.N,-5V*%
X172000000Y-124087500D03*
%TO.P,C7,2*%
%TO.N,GND*%
X172000000Y-125637500D03*
%TD*%
D24*
%TO.P,C3,1*%
%TO.N,Net-(J16-Pin_4)*%
X144912500Y-124000000D03*
%TO.P,C3,2*%
%TO.N,GND*%
X143362500Y-124000000D03*
%TD*%
%TO.P,C2,1*%
%TO.N,Net-(J17-Pin_2)*%
X151912500Y-84000000D03*
%TO.P,C2,2*%
%TO.N,Net-(C2-Pad2)*%
X150362500Y-84000000D03*
%TD*%
D15*
%TO.P,C11,1*%
%TO.N,Net-(J16-Pin_3)*%
X141000000Y-119087500D03*
%TO.P,C11,2*%
%TO.N,GND*%
X141000000Y-120637500D03*
%TD*%
D14*
%TO.P,R4,1*%
%TO.N,Net-(U1A--)*%
X155576000Y-94996000D03*
%TO.P,R4,2*%
%TO.N,Net-(J5-Pin_2)*%
X157226000Y-94996000D03*
%TD*%
D15*
%TO.P,C10,1*%
%TO.N,Net-(C10-Pad1)*%
X162000000Y-91087500D03*
%TO.P,C10,2*%
%TO.N,GND*%
X162000000Y-92637500D03*
%TD*%
D17*
%TO.P,Q4,1,B*%
%TO.N,Net-(Q2-B)*%
X162125000Y-116000000D03*
%TO.P,Q4,2,E*%
%TO.N,Net-(Q4-E)*%
X162125000Y-114100000D03*
%TO.P,Q4,3,C*%
%TO.N,Net-(Q2-B)*%
X164000000Y-115050000D03*
%TD*%
%TO.P,Q2,1,B*%
%TO.N,Net-(Q2-B)*%
X174000000Y-115900000D03*
%TO.P,Q2,2,E*%
%TO.N,Net-(Q2-E)*%
X174000000Y-114000000D03*
%TO.P,Q2,3,C*%
%TO.N,Net-(D3-K)*%
X175875000Y-114950000D03*
%TD*%
D18*
%TO.P,R16,1*%
%TO.N,Net-(J2-Pin_2)*%
X152000000Y-106000000D03*
%TO.P,R16,2*%
%TO.N,Net-(J17-Pin_2)*%
X150350000Y-106000000D03*
%TD*%
D17*
%TO.P,Q1,1,B*%
%TO.N,Net-(Q1-B)*%
X177125000Y-103000000D03*
%TO.P,Q1,2,E*%
%TO.N,Net-(D1-A)*%
X177125000Y-101100000D03*
%TO.P,Q1,3,C*%
%TO.N,Net-(Q1-C)*%
X179000000Y-102050000D03*
%TD*%
D22*
%TO.P,D1,1,K*%
%TO.N,Net-(D1-K)*%
X181000000Y-97000000D03*
%TO.P,D1,2,A*%
%TO.N,Net-(D1-A)*%
X179250000Y-97000000D03*
%TD*%
D18*
%TO.P,R8,1*%
%TO.N,Net-(C10-Pad1)*%
X158000000Y-84000000D03*
%TO.P,R8,2*%
%TO.N,Net-(J20-Pin_2)*%
X156350000Y-84000000D03*
%TD*%
D15*
%TO.P,C1,1*%
%TO.N,Net-(D1-K)*%
X181000000Y-111087500D03*
%TO.P,C1,2*%
%TO.N,GND*%
X181000000Y-112637500D03*
%TD*%
%TO.P,C9,1*%
%TO.N,+5V*%
X180000000Y-124087500D03*
%TO.P,C9,2*%
%TO.N,GND*%
X180000000Y-125637500D03*
%TD*%
D25*
%TO.N,GND*%
X152000000Y-102000000D03*
X146000000Y-101000000D03*
X138000000Y-108000000D03*
X139000000Y-103000000D03*
X184000000Y-124000000D03*
X152000000Y-104000000D03*
X138000000Y-90000000D03*
X137000000Y-116000000D03*
X145000000Y-85000000D03*
X148000000Y-101000000D03*
X138000000Y-92000000D03*
X137000000Y-112000000D03*
%TO.N,Net-(J17-Pin_2)*%
X151000000Y-105000000D03*
X153000000Y-107000000D03*
%TO.N,Net-(J16-Pin_4)*%
X149000000Y-117000000D03*
X145000000Y-121000000D03*
%TO.N,+5V*%
X182000000Y-100000000D03*
X168000000Y-119000000D03*
X178000000Y-122000000D03*
X152400000Y-93472000D03*
X145000000Y-112000000D03*
X185000000Y-120000000D03*
X180000000Y-100000000D03*
%TO.N,-5V*%
X164000000Y-113000000D03*
X175000000Y-109000000D03*
X154000000Y-89000000D03*
X183000000Y-114000000D03*
X153000000Y-109000000D03*
%TO.N,Net-(C10-Pad1)*%
X160968524Y-90093201D03*
X160000000Y-88000000D03*
X159000000Y-85000000D03*
%TO.N,Net-(J16-Pin_3)*%
X143000000Y-119000000D03*
X145000000Y-116000000D03*
X148000000Y-116000000D03*
%TO.N,Net-(J16-Pin_2)*%
X150000000Y-112000000D03*
X147000000Y-113000000D03*
X161000000Y-121000000D03*
%TO.N,Net-(D1-A)*%
X179000000Y-98000000D03*
X174000000Y-100000000D03*
X172000000Y-98000000D03*
%TO.N,/pll_out*%
X169000000Y-100000000D03*
X170000000Y-91000000D03*
X169000000Y-104000000D03*
X170000000Y-88000000D03*
X145000000Y-126000000D03*
X155000000Y-121000000D03*
X171000000Y-110000000D03*
X172000000Y-118000000D03*
%TO.N,Net-(D3-K)*%
X174000000Y-108000000D03*
X176000000Y-107000000D03*
X176000000Y-114000000D03*
%TO.N,Net-(J5-Pin_2)*%
X146000000Y-104000000D03*
X149000000Y-103000000D03*
%TO.N,Net-(J11-Pin_4)*%
X148590000Y-99314000D03*
X149000000Y-89000000D03*
%TO.N,Net-(J18-Pin_2)*%
X160000000Y-109000000D03*
%TO.N,Net-(J19-Pin_2)*%
X145000000Y-91000000D03*
X150876000Y-95504000D03*
%TO.N,Net-(J20-Pin_2)*%
X151000000Y-90000000D03*
X154000000Y-85000000D03*
%TO.N,Net-(Q1-B)*%
X172000000Y-112000000D03*
X173000000Y-105000000D03*
%TO.N,Net-(Q1-C)*%
X180000000Y-104000000D03*
X184000000Y-102000000D03*
%TO.N,Net-(R9-Pad1)*%
X165000000Y-88000000D03*
%TD*%
D26*
%TO.N,Net-(D1-K)*%
X162582000Y-89430000D02*
X162052000Y-88900000D01*
X181000000Y-106000000D02*
X180000000Y-107000000D01*
X173430000Y-89430000D02*
X181000000Y-97000000D01*
X160662500Y-88900000D02*
X160562500Y-88800000D01*
X162052000Y-88900000D02*
X160662500Y-88900000D01*
X184000000Y-96000000D02*
X183000000Y-97000000D01*
X183000000Y-97000000D02*
X181000000Y-97000000D01*
X156505001Y-88800000D02*
X160562500Y-88800000D01*
X181000000Y-97000000D02*
X181000000Y-106000000D01*
X180000000Y-110087500D02*
X181000000Y-111087500D01*
X155730000Y-87050000D02*
X155730000Y-88024999D01*
X180000000Y-107000000D02*
X180000000Y-110087500D01*
X185000000Y-96000000D02*
X184000000Y-96000000D01*
X173430000Y-89430000D02*
X162582000Y-89430000D01*
X155730000Y-88024999D02*
X156505001Y-88800000D01*
%TO.N,GND*%
X186000000Y-112460000D02*
X190000000Y-112460000D01*
X138000000Y-90000000D02*
X134920000Y-86920000D01*
X155540000Y-103460000D02*
X157000000Y-103460000D01*
X185000000Y-98540000D02*
X189000000Y-98540000D01*
X174000000Y-125637500D02*
X172000000Y-125637500D01*
X149825000Y-101000000D02*
X148000000Y-101000000D01*
X153000000Y-105000000D02*
X154000000Y-105000000D01*
X172000000Y-125637500D02*
X170000000Y-125637500D01*
X138000000Y-102000000D02*
X139000000Y-103000000D01*
X162982500Y-125637500D02*
X162620000Y-126000000D01*
X137000000Y-116000000D02*
X137000000Y-116637500D01*
X153397000Y-98825000D02*
X152000000Y-98825000D01*
X153798000Y-98424000D02*
X153397000Y-98825000D01*
X146000000Y-96460000D02*
X143000000Y-93460000D01*
X146175000Y-80825000D02*
X147000000Y-80000000D01*
X162000000Y-94200000D02*
X166000000Y-98200000D01*
X137000000Y-116637500D02*
X141000000Y-120637500D01*
X136380000Y-111380000D02*
X137000000Y-112000000D01*
X181000000Y-112637500D02*
X185822500Y-112637500D01*
X162620000Y-126000000D02*
X162620000Y-123017500D01*
X183637500Y-124000000D02*
X182000000Y-125637500D01*
X157000000Y-103460000D02*
X161000000Y-103460000D01*
X154000000Y-105000000D02*
X155540000Y-103460000D01*
X134920000Y-86920000D02*
X134000000Y-86920000D01*
X146000000Y-101000000D02*
X146000000Y-96460000D01*
X162000000Y-80460000D02*
X155080000Y-80460000D01*
X146175000Y-84000000D02*
X146175000Y-80825000D01*
X185822500Y-112637500D02*
X186000000Y-112460000D01*
X145000000Y-85000000D02*
X145175000Y-85000000D01*
X141920000Y-94540000D02*
X143000000Y-93460000D01*
X152000000Y-98825000D02*
X152000000Y-102000000D01*
X162620000Y-123017500D02*
X162637500Y-123000000D01*
X138000000Y-94540000D02*
X141920000Y-94540000D01*
X138000000Y-94540000D02*
X138000000Y-102000000D01*
X152000000Y-104000000D02*
X153000000Y-105000000D01*
X152000000Y-98825000D02*
X149825000Y-101000000D01*
X134000000Y-111380000D02*
X136380000Y-111380000D01*
X141000000Y-120637500D02*
X141000000Y-121637500D01*
X178000000Y-125637500D02*
X180000000Y-125637500D01*
X184000000Y-124000000D02*
X183637500Y-124000000D01*
X145175000Y-85000000D02*
X146175000Y-84000000D01*
X170000000Y-125637500D02*
X162982500Y-125637500D01*
X137000000Y-109000000D02*
X137000000Y-112000000D01*
X180000000Y-125637500D02*
X182000000Y-125637500D01*
X162000000Y-92637500D02*
X162000000Y-94200000D01*
X141000000Y-121637500D02*
X143362500Y-124000000D01*
X134000000Y-94540000D02*
X138000000Y-94540000D01*
X155194000Y-98424000D02*
X153798000Y-98424000D01*
X174000000Y-125637500D02*
X178000000Y-125637500D01*
X138000000Y-94540000D02*
X138000000Y-92000000D01*
X138000000Y-108000000D02*
X137000000Y-109000000D01*
X155080000Y-80460000D02*
X154620000Y-80000000D01*
X181000000Y-116000000D02*
X181000000Y-112637500D01*
%TO.N,Net-(J17-Pin_2)*%
X151920000Y-87050000D02*
X151920000Y-84080000D01*
X148325000Y-85675000D02*
X147000000Y-87000000D01*
X150237500Y-85675000D02*
X148325000Y-85675000D01*
X153250000Y-107250000D02*
X153000000Y-107000000D01*
X147000000Y-102650000D02*
X150350000Y-106000000D01*
X151000000Y-105000000D02*
X151000000Y-105350000D01*
X161000000Y-106000000D02*
X159750000Y-107250000D01*
X151000000Y-105350000D02*
X150350000Y-106000000D01*
X151920000Y-84080000D02*
X152000000Y-84000000D01*
X151912500Y-84000000D02*
X150237500Y-85675000D01*
X147000000Y-87000000D02*
X147000000Y-102650000D01*
X159750000Y-107250000D02*
X153250000Y-107250000D01*
%TO.N,Net-(C2-Pad2)*%
X147825000Y-84000000D02*
X150362500Y-84000000D01*
%TO.N,Net-(J16-Pin_4)*%
X147000000Y-109525000D02*
X147000000Y-111448026D01*
X147000000Y-111448026D02*
X149540000Y-113988026D01*
X149540000Y-116460000D02*
X149000000Y-117000000D01*
X149540000Y-114475000D02*
X149540000Y-116460000D01*
X154195000Y-126805000D02*
X155000000Y-126000000D01*
X149540000Y-113988026D02*
X149540000Y-114475000D01*
X145000000Y-121000000D02*
X145000000Y-123912500D01*
X144912500Y-124000000D02*
X147717500Y-126805000D01*
X147717500Y-126805000D02*
X154195000Y-126805000D01*
X145000000Y-123912500D02*
X144912500Y-124000000D01*
%TO.N,+5V*%
X150000000Y-125555000D02*
X150000000Y-125000000D01*
X182000000Y-124087500D02*
X182000000Y-124000000D01*
X176593000Y-97418000D02*
X179175000Y-100000000D01*
X185000000Y-104825000D02*
X182000000Y-101825000D01*
X147000000Y-121000000D02*
X147000000Y-122555000D01*
X143190000Y-113810000D02*
X145000000Y-112000000D01*
X147000000Y-122555000D02*
X150000000Y-125555000D01*
X152400000Y-123190000D02*
X152365000Y-123190000D01*
X176593000Y-97028000D02*
X176593000Y-97418000D01*
X143190000Y-114475000D02*
X143190000Y-113810000D01*
X143190000Y-117190000D02*
X147000000Y-121000000D01*
X185000000Y-108920000D02*
X186000000Y-109920000D01*
X178000000Y-122000000D02*
X178000000Y-124087500D01*
X186000000Y-109920000D02*
X190000000Y-109920000D01*
X152365000Y-123190000D02*
X150000000Y-125555000D01*
X182000000Y-124087500D02*
X182000000Y-123000000D01*
X182000000Y-101825000D02*
X182000000Y-100000000D01*
X178000000Y-124087500D02*
X180000000Y-124087500D01*
X182000000Y-124000000D02*
X181912500Y-124087500D01*
X153190000Y-92682000D02*
X153190000Y-92000000D01*
X152400000Y-120904000D02*
X152400000Y-123190000D01*
X143190000Y-114475000D02*
X143190000Y-117190000D01*
X181912500Y-124087500D02*
X180000000Y-124087500D01*
X154304000Y-119000000D02*
X152400000Y-120904000D01*
X180000000Y-100000000D02*
X179175000Y-100000000D01*
X168000000Y-119000000D02*
X154304000Y-119000000D01*
X185000000Y-104825000D02*
X185000000Y-108920000D01*
X182000000Y-123000000D02*
X185000000Y-120000000D01*
X152400000Y-93472000D02*
X153190000Y-92682000D01*
%TO.N,-5V*%
X151510000Y-118965000D02*
X150000000Y-120475000D01*
X165335000Y-109665000D02*
X164000000Y-111000000D01*
X170000000Y-124087500D02*
X172000000Y-124087500D01*
X174350000Y-109650000D02*
X175000000Y-109000000D01*
X174000000Y-124087500D02*
X174475000Y-124087500D01*
X183562500Y-115000000D02*
X186000000Y-115000000D01*
X150810000Y-109525000D02*
X151510000Y-110225000D01*
X151510000Y-110225000D02*
X151510000Y-118965000D01*
X169483000Y-111000000D02*
X168148000Y-109665000D01*
X183000000Y-114000000D02*
X183000000Y-114437500D01*
X174350000Y-111000000D02*
X174350000Y-109650000D01*
X174475000Y-124087500D02*
X183562500Y-115000000D01*
X164000000Y-113000000D02*
X164000000Y-111000000D01*
X151335000Y-109000000D02*
X150810000Y-109525000D01*
X153190000Y-87050000D02*
X153190000Y-88190000D01*
X153190000Y-88190000D02*
X154000000Y-89000000D01*
X174350000Y-111000000D02*
X169483000Y-111000000D01*
X153000000Y-109000000D02*
X151335000Y-109000000D01*
X174000000Y-124087500D02*
X172000000Y-124087500D01*
X168148000Y-109665000D02*
X165335000Y-109665000D01*
X183000000Y-114437500D02*
X183562500Y-115000000D01*
X186000000Y-115000000D02*
X190000000Y-115000000D01*
%TO.N,Net-(C10-Pad1)*%
X160000000Y-88000000D02*
X161350000Y-88000000D01*
X158000000Y-84000000D02*
X159000000Y-85000000D01*
X160968524Y-90093201D02*
X161005701Y-90093201D01*
X161005701Y-90093201D02*
X162000000Y-91087500D01*
%TO.N,Net-(J16-Pin_3)*%
X143000000Y-119000000D02*
X141087500Y-119000000D01*
X145000000Y-115015000D02*
X144460000Y-114475000D01*
X141087500Y-119000000D02*
X141000000Y-119087500D01*
X148270000Y-115730000D02*
X148000000Y-116000000D01*
X148270000Y-114475000D02*
X148270000Y-115730000D01*
X145000000Y-116000000D02*
X145000000Y-115015000D01*
%TO.N,Net-(J16-Pin_2)*%
X161087500Y-124992500D02*
X160080000Y-126000000D01*
X149540000Y-109525000D02*
X149540000Y-111540000D01*
X161000000Y-122912500D02*
X161087500Y-123000000D01*
X161087500Y-123000000D02*
X161087500Y-124992500D01*
X161000000Y-121000000D02*
X161000000Y-122912500D01*
X149540000Y-111540000D02*
X150000000Y-112000000D01*
X147000000Y-114475000D02*
X147000000Y-113000000D01*
%TO.N,Net-(D1-A)*%
X179250000Y-97000000D02*
X179250000Y-97750000D01*
X179250000Y-97750000D02*
X179000000Y-98000000D01*
X176025000Y-100000000D02*
X177125000Y-101100000D01*
X172000000Y-97000000D02*
X172000000Y-98000000D01*
X174000000Y-100000000D02*
X176025000Y-100000000D01*
%TO.N,/pll_out*%
X172000000Y-118000000D02*
X172000000Y-118185000D01*
X169000000Y-104000000D02*
X169000000Y-104750000D01*
X170000000Y-92000000D02*
X170250000Y-92250000D01*
X184600000Y-91600000D02*
X189000000Y-96000000D01*
X173815000Y-120000000D02*
X174689000Y-119126000D01*
X155000000Y-121000000D02*
X156000000Y-120000000D01*
X180000000Y-91600000D02*
X184600000Y-91600000D01*
X170250000Y-98750000D02*
X169000000Y-100000000D01*
X176400000Y-88000000D02*
X180000000Y-91600000D01*
X169000000Y-104750000D02*
X171250000Y-107000000D01*
X171250000Y-107000000D02*
X171250000Y-109750000D01*
X134000000Y-119000000D02*
X141000000Y-126000000D01*
X170000000Y-88000000D02*
X176400000Y-88000000D01*
X169050000Y-87050000D02*
X170000000Y-88000000D01*
X156000000Y-120000000D02*
X173815000Y-120000000D01*
X170250000Y-92250000D02*
X170250000Y-97000000D01*
X170000000Y-91000000D02*
X170000000Y-92000000D01*
X171250000Y-109750000D02*
X171000000Y-110000000D01*
X170250000Y-97000000D02*
X170250000Y-98750000D01*
X141000000Y-126000000D02*
X145000000Y-126000000D01*
X157000000Y-87050000D02*
X169050000Y-87050000D01*
X172000000Y-118185000D02*
X173815000Y-120000000D01*
%TO.N,Net-(D3-K)*%
X176000000Y-114000000D02*
X176000000Y-114825000D01*
X176000000Y-114825000D02*
X175875000Y-114950000D01*
X178250000Y-107000000D02*
X176000000Y-107000000D01*
X174000000Y-108000000D02*
X173000000Y-107000000D01*
%TO.N,Net-(J2-Pin_2)*%
X145730000Y-109525000D02*
X145730000Y-108550001D01*
X145730000Y-108550001D02*
X147280001Y-107000000D01*
X147280001Y-107000000D02*
X151000000Y-107000000D01*
X152000000Y-106000000D02*
X157000000Y-106000000D01*
X151000000Y-107000000D02*
X152000000Y-106000000D01*
%TO.N,Net-(J5-Pin_2)*%
X153154070Y-103000000D02*
X149000000Y-103000000D01*
X157226000Y-94996000D02*
X157226000Y-98928070D01*
X143000000Y-101000000D02*
X143000000Y-96000000D01*
X146000000Y-104000000D02*
X143000000Y-101000000D01*
X157226000Y-93726000D02*
X157226000Y-94996000D01*
X157226000Y-98928070D02*
X153154070Y-103000000D01*
X157000000Y-93500000D02*
X157226000Y-93726000D01*
X157000000Y-92000000D02*
X157000000Y-93500000D01*
%TO.N,Net-(J11-Pin_4)*%
X149380000Y-92000000D02*
X148082000Y-93298000D01*
X148082000Y-93298000D02*
X148082000Y-97154000D01*
X148464000Y-97536000D02*
X148464000Y-99188000D01*
X148082000Y-97154000D02*
X148464000Y-97536000D01*
X148464000Y-99188000D02*
X148590000Y-99314000D01*
X149000000Y-91620000D02*
X149380000Y-92000000D01*
X149000000Y-89000000D02*
X149000000Y-91620000D01*
%TO.N,Net-(J11-Pin_2)*%
X134000000Y-101460000D02*
X134000000Y-104000000D01*
X137665000Y-104000000D02*
X134000000Y-104000000D01*
X143190000Y-109525000D02*
X137665000Y-104000000D01*
%TO.N,Net-(J14-Pin_2)*%
X144460000Y-110499999D02*
X141039999Y-113920000D01*
X144460000Y-109525000D02*
X144460000Y-110499999D01*
X134000000Y-113920000D02*
X134000000Y-116460000D01*
X141039999Y-113920000D02*
X134000000Y-113920000D01*
%TO.N,Net-(J15-Pin_2)*%
X148336000Y-118000000D02*
X147000000Y-118000000D01*
X146000000Y-117000000D02*
X146000000Y-116000000D01*
X150810000Y-113988026D02*
X150810000Y-114475000D01*
X148270000Y-111448026D02*
X150810000Y-113988026D01*
X150810000Y-117190000D02*
X150000000Y-118000000D01*
X147000000Y-118000000D02*
X146000000Y-117000000D01*
X146000000Y-116000000D02*
X145730000Y-115730000D01*
X148270000Y-109525000D02*
X148270000Y-111448026D01*
X150810000Y-114475000D02*
X150810000Y-117190000D01*
X148336000Y-121351000D02*
X150000000Y-123015000D01*
X148336000Y-118000000D02*
X148336000Y-121351000D01*
X150000000Y-118000000D02*
X148336000Y-118000000D01*
X145730000Y-115730000D02*
X145730000Y-114475000D01*
%TO.N,Net-(J18-Pin_2)*%
X160000000Y-109350000D02*
X159000000Y-110350000D01*
X160000000Y-109000000D02*
X160000000Y-109350000D01*
%TO.N,Net-(J18-Pin_4)*%
X150650000Y-87050000D02*
X150650000Y-88650000D01*
X163000000Y-103000000D02*
X164000000Y-104000000D01*
X150650000Y-88650000D02*
X151000000Y-89000000D01*
X163000000Y-100000000D02*
X163000000Y-103000000D01*
X154686000Y-90424000D02*
X153162000Y-90424000D01*
X159000000Y-96000000D02*
X163000000Y-100000000D01*
X159000000Y-90000000D02*
X155110000Y-90000000D01*
X164000000Y-104000000D02*
X164180000Y-104000000D01*
X153162000Y-90424000D02*
X151738000Y-89000000D01*
X164180000Y-104000000D02*
X166000000Y-105820000D01*
X151738000Y-89000000D02*
X151000000Y-89000000D01*
X149380000Y-87050000D02*
X150650000Y-87050000D01*
X159000000Y-90000000D02*
X159000000Y-96000000D01*
X155110000Y-90000000D02*
X154686000Y-90424000D01*
%TO.N,Net-(J19-Pin_2)*%
X153670000Y-95504000D02*
X154460000Y-94714000D01*
X135000000Y-91000000D02*
X145000000Y-91000000D01*
X134000000Y-92000000D02*
X135000000Y-91000000D01*
X150876000Y-95504000D02*
X153670000Y-95504000D01*
X134000000Y-89460000D02*
X134000000Y-92000000D01*
X154460000Y-94714000D02*
X154460000Y-92000000D01*
%TO.N,Net-(J20-Pin_2)*%
X150650000Y-90350000D02*
X151000000Y-90000000D01*
X153000000Y-80920000D02*
X152080000Y-80000000D01*
X155000000Y-84000000D02*
X156350000Y-84000000D01*
X155000000Y-84000000D02*
X153000000Y-82000000D01*
X154000000Y-85000000D02*
X155000000Y-84000000D01*
X153000000Y-82000000D02*
X153000000Y-80920000D01*
X149540000Y-80000000D02*
X152080000Y-80000000D01*
X150650000Y-92000000D02*
X150650000Y-90350000D01*
%TO.N,Net-(Q1-B)*%
X176175000Y-102050000D02*
X177125000Y-103000000D01*
X173000000Y-105000000D02*
X171000000Y-103000000D01*
X170000000Y-114000000D02*
X172000000Y-112000000D01*
X170000000Y-115050000D02*
X170000000Y-114000000D01*
X172875000Y-102050000D02*
X171950000Y-102050000D01*
X172875000Y-102050000D02*
X176175000Y-102050000D01*
X171950000Y-102050000D02*
X171000000Y-103000000D01*
%TO.N,Net-(Q1-C)*%
X185000000Y-103175000D02*
X185000000Y-103000000D01*
X180000000Y-104000000D02*
X180000000Y-103050000D01*
X185000000Y-103000000D02*
X184000000Y-102000000D01*
X180000000Y-103050000D02*
X179000000Y-102050000D01*
%TO.N,Net-(Q2-E)*%
X176000000Y-112000000D02*
X174000000Y-114000000D01*
X176000000Y-111000000D02*
X176000000Y-112000000D01*
%TO.N,Net-(Q2-B)*%
X174000000Y-115900000D02*
X168225000Y-115900000D01*
X168000000Y-116000000D02*
X167050000Y-115050000D01*
X164000000Y-115050000D02*
X163075000Y-115050000D01*
X159000000Y-112875000D02*
X162125000Y-116000000D01*
X159000000Y-112000000D02*
X159000000Y-112875000D01*
X168125000Y-116000000D02*
X168000000Y-116000000D01*
X167050000Y-115050000D02*
X164000000Y-115050000D01*
X168225000Y-115900000D02*
X168125000Y-116000000D01*
X163075000Y-115050000D02*
X162125000Y-116000000D01*
%TO.N,Net-(Q3-E)*%
X168148000Y-114077000D02*
X168125000Y-114100000D01*
X168148000Y-111315000D02*
X168148000Y-114077000D01*
%TO.N,Net-(Q4-E)*%
X162350000Y-113875000D02*
X162125000Y-114100000D01*
X162350000Y-111000000D02*
X162350000Y-113875000D01*
%TO.N,Net-(Q5-E)*%
X174943000Y-97157000D02*
X171000000Y-101100000D01*
X174943000Y-97028000D02*
X174943000Y-97157000D01*
%TO.N,Net-(U1A--)*%
X155730000Y-94842000D02*
X155576000Y-94996000D01*
X155576000Y-94996000D02*
X155576000Y-96392000D01*
X155730000Y-92000000D02*
X155730000Y-94842000D01*
X155576000Y-96392000D02*
X155194000Y-96774000D01*
%TO.N,Net-(U1B-+)*%
X151130000Y-93472000D02*
X149860000Y-93472000D01*
X149098000Y-96266000D02*
X150114000Y-97282000D01*
X151237000Y-97175000D02*
X152000000Y-97175000D01*
X151920000Y-92000000D02*
X151920000Y-92682000D01*
X149098000Y-94234000D02*
X149098000Y-96266000D01*
X150114000Y-97536000D02*
X150876000Y-97536000D01*
X150876000Y-97536000D02*
X151237000Y-97175000D01*
X150114000Y-97282000D02*
X150114000Y-97536000D01*
X151920000Y-92682000D02*
X151130000Y-93472000D01*
X149860000Y-93472000D02*
X149098000Y-94234000D01*
X152000000Y-97175000D02*
X152000000Y-97000000D01*
%TO.N,Net-(R9-Pad1)*%
X163000000Y-88000000D02*
X165000000Y-88000000D01*
%TO.N,Net-(U1D-+)*%
X179350000Y-116115000D02*
X176339000Y-119126000D01*
X161125000Y-95825000D02*
X161103000Y-95825000D01*
X155835001Y-89400000D02*
X154460000Y-88024999D01*
X172480526Y-106125000D02*
X169862500Y-103506974D01*
X169862500Y-103506974D02*
X169862500Y-102834733D01*
X159248528Y-89400000D02*
X155835001Y-89400000D01*
X173558142Y-106125000D02*
X172480526Y-106125000D01*
X160020000Y-90171472D02*
X159248528Y-89400000D01*
X179350000Y-116000000D02*
X179350000Y-116115000D01*
X161103000Y-95825000D02*
X160020000Y-94742000D01*
X154460000Y-88024999D02*
X154460000Y-87050000D01*
X166477767Y-99450000D02*
X164750000Y-99450000D01*
X164750000Y-99450000D02*
X161125000Y-95825000D01*
X169862500Y-102834733D02*
X166477767Y-99450000D01*
X179350000Y-111916858D02*
X173558142Y-106125000D01*
X179350000Y-116000000D02*
X179350000Y-111916858D01*
X160020000Y-94742000D02*
X160020000Y-90171472D01*
%TD*%
%TA.AperFunction,Conductor*%
%TO.N,GND*%
G36*
X142308833Y-113744335D02*
G01*
X142364767Y-113786206D01*
X142389184Y-113851671D01*
X142389500Y-113860517D01*
X142389500Y-115365701D01*
X142392401Y-115402567D01*
X142392402Y-115402573D01*
X142438254Y-115560393D01*
X142438255Y-115560396D01*
X142472232Y-115617848D01*
X142489500Y-115680969D01*
X142489500Y-117121006D01*
X142489500Y-117258994D01*
X142489500Y-117258996D01*
X142489499Y-117258996D01*
X142516418Y-117394322D01*
X142516421Y-117394332D01*
X142569222Y-117521807D01*
X142645887Y-117636545D01*
X142953839Y-117944497D01*
X142987324Y-118005820D01*
X142982340Y-118075512D01*
X142940468Y-118131445D01*
X142891939Y-118153468D01*
X142735733Y-118186670D01*
X142735728Y-118186672D01*
X142572408Y-118259388D01*
X142572403Y-118259390D01*
X142549793Y-118275818D01*
X142483986Y-118299298D01*
X142476908Y-118299500D01*
X141754371Y-118299500D01*
X141689274Y-118281038D01*
X141558705Y-118200501D01*
X141558699Y-118200498D01*
X141558697Y-118200497D01*
X141516970Y-118186670D01*
X141397709Y-118147151D01*
X141298346Y-118137000D01*
X140701662Y-118137000D01*
X140701644Y-118137001D01*
X140602292Y-118147150D01*
X140602289Y-118147151D01*
X140441305Y-118200496D01*
X140441294Y-118200501D01*
X140296959Y-118289529D01*
X140296955Y-118289532D01*
X140177032Y-118409455D01*
X140177029Y-118409459D01*
X140088001Y-118553794D01*
X140087996Y-118553805D01*
X140034651Y-118714790D01*
X140024500Y-118814147D01*
X140024500Y-119360837D01*
X140024501Y-119360855D01*
X140034650Y-119460207D01*
X140034651Y-119460210D01*
X140087996Y-119621194D01*
X140088001Y-119621205D01*
X140177029Y-119765540D01*
X140177032Y-119765544D01*
X140186660Y-119775172D01*
X140220145Y-119836495D01*
X140215161Y-119906187D01*
X140186663Y-119950531D01*
X140177428Y-119959765D01*
X140177424Y-119959771D01*
X140088457Y-120104007D01*
X140088452Y-120104018D01*
X140035144Y-120264893D01*
X140025000Y-120364177D01*
X140025000Y-120387500D01*
X141974999Y-120387500D01*
X141974999Y-120364192D01*
X141974998Y-120364177D01*
X141964855Y-120264892D01*
X141911547Y-120104018D01*
X141911542Y-120104007D01*
X141822575Y-119959771D01*
X141822572Y-119959767D01*
X141813339Y-119950534D01*
X141779854Y-119889211D01*
X141784838Y-119819519D01*
X141813343Y-119775168D01*
X141822968Y-119765544D01*
X141826755Y-119759403D01*
X141878701Y-119712680D01*
X141932294Y-119700500D01*
X142476907Y-119700500D01*
X142543946Y-119720185D01*
X142549792Y-119724182D01*
X142572402Y-119740609D01*
X142572404Y-119740610D01*
X142572407Y-119740612D01*
X142735733Y-119813329D01*
X142910609Y-119850500D01*
X142910610Y-119850500D01*
X143089389Y-119850500D01*
X143089391Y-119850500D01*
X143264267Y-119813329D01*
X143427593Y-119740612D01*
X143572230Y-119635526D01*
X143691859Y-119502665D01*
X143781250Y-119347835D01*
X143836497Y-119177803D01*
X143842672Y-119119047D01*
X143869255Y-119054436D01*
X143926552Y-119014450D01*
X143996371Y-119011790D01*
X144053673Y-119044330D01*
X144953840Y-119944497D01*
X144987325Y-120005820D01*
X144982341Y-120075512D01*
X144940469Y-120131445D01*
X144891940Y-120153468D01*
X144735733Y-120186670D01*
X144735728Y-120186672D01*
X144572408Y-120259387D01*
X144427768Y-120364475D01*
X144308140Y-120497336D01*
X144218750Y-120652164D01*
X144218747Y-120652170D01*
X144163504Y-120822192D01*
X144163503Y-120822194D01*
X144144815Y-121000000D01*
X144163503Y-121177805D01*
X144163504Y-121177807D01*
X144218747Y-121347829D01*
X144218750Y-121347835D01*
X144269116Y-121435072D01*
X144282887Y-121458923D01*
X144299500Y-121520923D01*
X144299500Y-123067705D01*
X144279815Y-123134744D01*
X144240601Y-123173241D01*
X144234458Y-123177029D01*
X144234453Y-123177033D01*
X144224824Y-123186663D01*
X144163500Y-123220146D01*
X144093808Y-123215159D01*
X144049465Y-123186660D01*
X144040232Y-123177427D01*
X144040228Y-123177424D01*
X143895992Y-123088457D01*
X143895981Y-123088452D01*
X143735106Y-123035144D01*
X143635822Y-123025000D01*
X143612500Y-123025000D01*
X143612500Y-124974999D01*
X143635808Y-124974999D01*
X143635822Y-124974998D01*
X143735107Y-124964855D01*
X143895981Y-124911547D01*
X143895992Y-124911542D01*
X144040231Y-124822573D01*
X144049459Y-124813345D01*
X144110779Y-124779856D01*
X144180471Y-124784835D01*
X144224827Y-124813339D01*
X144234455Y-124822967D01*
X144234459Y-124822970D01*
X144378794Y-124911998D01*
X144378797Y-124911999D01*
X144378803Y-124912003D01*
X144539792Y-124965349D01*
X144639155Y-124975500D01*
X144639158Y-124975499D01*
X144640411Y-124975628D01*
X144705103Y-125002024D01*
X144745254Y-125059204D01*
X144748118Y-125129015D01*
X144712784Y-125189292D01*
X144678246Y-125212265D01*
X144572405Y-125259389D01*
X144572403Y-125259390D01*
X144549793Y-125275818D01*
X144483986Y-125299298D01*
X144476908Y-125299500D01*
X141341519Y-125299500D01*
X141274480Y-125279815D01*
X141253838Y-125263181D01*
X140288979Y-124298322D01*
X142412501Y-124298322D01*
X142422644Y-124397607D01*
X142475952Y-124558481D01*
X142475957Y-124558492D01*
X142564924Y-124702728D01*
X142564927Y-124702732D01*
X142684767Y-124822572D01*
X142684771Y-124822575D01*
X142829007Y-124911542D01*
X142829018Y-124911547D01*
X142989893Y-124964855D01*
X143089183Y-124974999D01*
X143112500Y-124974998D01*
X143112500Y-124250000D01*
X142412501Y-124250000D01*
X142412501Y-124298322D01*
X140288979Y-124298322D01*
X139692334Y-123701677D01*
X142412500Y-123701677D01*
X142412500Y-123750000D01*
X143112500Y-123750000D01*
X143112500Y-123024999D01*
X143089193Y-123025000D01*
X143089174Y-123025001D01*
X142989892Y-123035144D01*
X142829018Y-123088452D01*
X142829007Y-123088457D01*
X142684771Y-123177424D01*
X142684767Y-123177427D01*
X142564927Y-123297267D01*
X142564924Y-123297271D01*
X142475957Y-123441507D01*
X142475952Y-123441518D01*
X142422644Y-123602393D01*
X142412500Y-123701677D01*
X139692334Y-123701677D01*
X136901479Y-120910822D01*
X140025001Y-120910822D01*
X140035144Y-121010107D01*
X140088452Y-121170981D01*
X140088457Y-121170992D01*
X140177424Y-121315228D01*
X140177427Y-121315232D01*
X140297267Y-121435072D01*
X140297271Y-121435075D01*
X140441507Y-121524042D01*
X140441518Y-121524047D01*
X140602393Y-121577355D01*
X140701683Y-121587499D01*
X141250000Y-121587499D01*
X141298308Y-121587499D01*
X141298322Y-121587498D01*
X141397607Y-121577355D01*
X141558481Y-121524047D01*
X141558492Y-121524042D01*
X141702728Y-121435075D01*
X141702732Y-121435072D01*
X141822572Y-121315232D01*
X141822575Y-121315228D01*
X141911542Y-121170992D01*
X141911547Y-121170981D01*
X141964855Y-121010106D01*
X141974999Y-120910822D01*
X141975000Y-120910809D01*
X141975000Y-120887500D01*
X141250000Y-120887500D01*
X141250000Y-121587499D01*
X140701683Y-121587499D01*
X140749999Y-121587498D01*
X140750000Y-121587498D01*
X140750000Y-120887500D01*
X140025001Y-120887500D01*
X140025001Y-120910822D01*
X136901479Y-120910822D01*
X135362651Y-119371994D01*
X135329166Y-119310671D01*
X135330558Y-119252217D01*
X135335063Y-119235408D01*
X135355659Y-119000000D01*
X135335063Y-118764592D01*
X135280617Y-118561393D01*
X135273905Y-118536344D01*
X135273904Y-118536343D01*
X135273903Y-118536337D01*
X135174035Y-118322171D01*
X135158020Y-118299298D01*
X135038494Y-118128597D01*
X134871402Y-117961506D01*
X134871396Y-117961501D01*
X134685842Y-117831575D01*
X134642217Y-117776998D01*
X134635023Y-117707500D01*
X134666546Y-117645145D01*
X134685842Y-117628425D01*
X134838102Y-117521811D01*
X134871401Y-117498495D01*
X135038495Y-117331401D01*
X135174035Y-117137830D01*
X135273903Y-116923663D01*
X135335063Y-116695408D01*
X135355659Y-116460000D01*
X135335063Y-116224592D01*
X135276225Y-116005003D01*
X135273905Y-115996344D01*
X135273904Y-115996343D01*
X135273903Y-115996337D01*
X135174035Y-115782171D01*
X135170877Y-115777660D01*
X135038494Y-115588597D01*
X134871404Y-115421508D01*
X134871401Y-115421505D01*
X134871396Y-115421501D01*
X134871393Y-115421499D01*
X134753376Y-115338861D01*
X134709751Y-115284284D01*
X134700500Y-115237287D01*
X134700500Y-115142711D01*
X134720185Y-115075672D01*
X134753377Y-115041136D01*
X134798782Y-115009343D01*
X134871401Y-114958495D01*
X135038495Y-114791401D01*
X135121136Y-114673376D01*
X135175713Y-114629752D01*
X135222711Y-114620500D01*
X141108995Y-114620500D01*
X141222961Y-114597830D01*
X141244327Y-114593580D01*
X141308068Y-114567177D01*
X141371806Y-114540777D01*
X141371807Y-114540776D01*
X141371810Y-114540775D01*
X141486542Y-114464114D01*
X142177819Y-113772835D01*
X142239142Y-113739351D01*
X142308833Y-113744335D01*
G37*
%TD.AperFunction*%
%TA.AperFunction,Conductor*%
G36*
X181905703Y-102721806D02*
G01*
X181912181Y-102727838D01*
X183988181Y-104803838D01*
X184021666Y-104865161D01*
X184024500Y-104891519D01*
X184024500Y-105081616D01*
X184024518Y-105081811D01*
X184030913Y-105152192D01*
X184030913Y-105152194D01*
X184030914Y-105152196D01*
X184081522Y-105314606D01*
X184169528Y-105460185D01*
X184263182Y-105553839D01*
X184296666Y-105615160D01*
X184299500Y-105641519D01*
X184299500Y-108851006D01*
X184299500Y-108988994D01*
X184299500Y-108988996D01*
X184299499Y-108988996D01*
X184326418Y-109124322D01*
X184326421Y-109124332D01*
X184379222Y-109251807D01*
X184423577Y-109318189D01*
X184455886Y-109366543D01*
X184613182Y-109523839D01*
X184646666Y-109585161D01*
X184649500Y-109611519D01*
X184649500Y-110817870D01*
X184649501Y-110817876D01*
X184655908Y-110877483D01*
X184706202Y-111012328D01*
X184706206Y-111012335D01*
X184792452Y-111127544D01*
X184792455Y-111127547D01*
X184907664Y-111213793D01*
X184907671Y-111213797D01*
X184969902Y-111237007D01*
X185039598Y-111263002D01*
X185095531Y-111304873D01*
X185119949Y-111370337D01*
X185105098Y-111438610D01*
X185083947Y-111466865D01*
X184961886Y-111588926D01*
X184826400Y-111782420D01*
X184826399Y-111782422D01*
X184726570Y-111996507D01*
X184726567Y-111996513D01*
X184669364Y-112209999D01*
X184669364Y-112210000D01*
X185566988Y-112210000D01*
X185534075Y-112267007D01*
X185500000Y-112394174D01*
X185500000Y-112525826D01*
X185534075Y-112652993D01*
X185566988Y-112710000D01*
X184669364Y-112710000D01*
X184726567Y-112923486D01*
X184726570Y-112923492D01*
X184826399Y-113137578D01*
X184961894Y-113331082D01*
X185128917Y-113498105D01*
X185314595Y-113628119D01*
X185358219Y-113682696D01*
X185365412Y-113752195D01*
X185333890Y-113814549D01*
X185314595Y-113831269D01*
X185128594Y-113961508D01*
X184961506Y-114128596D01*
X184878864Y-114246623D01*
X184824287Y-114290248D01*
X184777289Y-114299500D01*
X183961422Y-114299500D01*
X183894383Y-114279815D01*
X183848628Y-114227011D01*
X183838101Y-114162538D01*
X183838850Y-114155413D01*
X183855185Y-114000000D01*
X183836497Y-113822197D01*
X183794906Y-113694193D01*
X183781252Y-113652170D01*
X183781249Y-113652164D01*
X183777020Y-113644839D01*
X183691859Y-113497335D01*
X183632956Y-113431917D01*
X183572235Y-113364478D01*
X183572232Y-113364476D01*
X183572231Y-113364475D01*
X183572230Y-113364474D01*
X183427593Y-113259388D01*
X183264267Y-113186671D01*
X183264265Y-113186670D01*
X183136594Y-113159533D01*
X183089391Y-113149500D01*
X182910609Y-113149500D01*
X182891941Y-113153468D01*
X182735733Y-113186670D01*
X182735728Y-113186672D01*
X182572408Y-113259387D01*
X182427768Y-113364475D01*
X182308140Y-113497336D01*
X182218750Y-113652164D01*
X182218747Y-113652170D01*
X182163504Y-113822192D01*
X182163503Y-113822194D01*
X182144815Y-114000000D01*
X182163503Y-114177805D01*
X182163504Y-114177807D01*
X182218747Y-114347829D01*
X182218750Y-114347835D01*
X182283876Y-114460637D01*
X182296795Y-114500820D01*
X182298311Y-114500519D01*
X182326418Y-114641822D01*
X182326421Y-114641832D01*
X182379222Y-114769307D01*
X182455887Y-114884045D01*
X182484161Y-114912319D01*
X182517646Y-114973642D01*
X182512662Y-115043334D01*
X182484161Y-115087681D01*
X182057724Y-115514117D01*
X181996401Y-115547602D01*
X181926709Y-115542618D01*
X181870776Y-115500746D01*
X181851658Y-115463327D01*
X181843018Y-115435603D01*
X181755072Y-115290122D01*
X181634877Y-115169927D01*
X181489395Y-115081980D01*
X181489396Y-115081980D01*
X181327105Y-115031409D01*
X181327106Y-115031409D01*
X181256572Y-115025000D01*
X181250000Y-115025000D01*
X181250000Y-116126000D01*
X181230315Y-116193039D01*
X181177511Y-116238794D01*
X181126000Y-116250000D01*
X180874000Y-116250000D01*
X180806961Y-116230315D01*
X180761206Y-116177511D01*
X180750000Y-116126000D01*
X180750000Y-115025000D01*
X180749999Y-115024999D01*
X180743436Y-115025000D01*
X180743417Y-115025001D01*
X180672897Y-115031408D01*
X180672892Y-115031409D01*
X180510603Y-115081981D01*
X180365124Y-115169926D01*
X180263034Y-115272016D01*
X180201711Y-115305500D01*
X180132019Y-115300516D01*
X180087622Y-115271965D01*
X180086767Y-115271110D01*
X180053318Y-115209767D01*
X180050500Y-115183480D01*
X180050500Y-113487667D01*
X180070185Y-113420628D01*
X180122989Y-113374873D01*
X180192147Y-113364929D01*
X180255703Y-113393954D01*
X180262181Y-113399986D01*
X180297267Y-113435072D01*
X180297271Y-113435075D01*
X180441507Y-113524042D01*
X180441518Y-113524047D01*
X180602393Y-113577355D01*
X180701683Y-113587499D01*
X181250000Y-113587499D01*
X181298308Y-113587499D01*
X181298322Y-113587498D01*
X181397607Y-113577355D01*
X181558481Y-113524047D01*
X181558492Y-113524042D01*
X181702728Y-113435075D01*
X181702732Y-113435072D01*
X181822572Y-113315232D01*
X181822575Y-113315228D01*
X181911542Y-113170992D01*
X181911547Y-113170981D01*
X181964855Y-113010106D01*
X181974999Y-112910822D01*
X181975000Y-112910809D01*
X181975000Y-112887500D01*
X181250000Y-112887500D01*
X181250000Y-113587499D01*
X180701683Y-113587499D01*
X180749999Y-113587498D01*
X180750000Y-113587498D01*
X180750000Y-112511500D01*
X180769685Y-112444461D01*
X180822489Y-112398706D01*
X180874000Y-112387500D01*
X181974999Y-112387500D01*
X181974999Y-112364192D01*
X181974998Y-112364177D01*
X181964855Y-112264892D01*
X181911547Y-112104018D01*
X181911542Y-112104007D01*
X181822575Y-111959771D01*
X181822572Y-111959767D01*
X181813339Y-111950534D01*
X181779854Y-111889211D01*
X181784838Y-111819519D01*
X181813343Y-111775168D01*
X181822968Y-111765544D01*
X181912003Y-111621197D01*
X181965349Y-111460208D01*
X181975500Y-111360845D01*
X181975499Y-110814156D01*
X181965349Y-110714792D01*
X181912003Y-110553803D01*
X181911999Y-110553797D01*
X181911998Y-110553794D01*
X181822970Y-110409459D01*
X181822967Y-110409455D01*
X181703044Y-110289532D01*
X181703040Y-110289529D01*
X181558705Y-110200501D01*
X181558699Y-110200498D01*
X181558697Y-110200497D01*
X181507343Y-110183480D01*
X181397709Y-110147151D01*
X181298352Y-110137000D01*
X181298345Y-110137000D01*
X181091519Y-110137000D01*
X181024480Y-110117315D01*
X181003838Y-110100681D01*
X180736819Y-109833662D01*
X180703334Y-109772339D01*
X180700500Y-109745981D01*
X180700500Y-107918207D01*
X180720185Y-107851168D01*
X180743380Y-107825584D01*
X180743243Y-107825447D01*
X180746050Y-107822639D01*
X180747595Y-107820936D01*
X180748339Y-107820346D01*
X180748350Y-107820340D01*
X180870340Y-107698350D01*
X180960908Y-107551516D01*
X181015174Y-107387753D01*
X181025500Y-107286677D01*
X181025499Y-107016517D01*
X181045183Y-106949479D01*
X181061809Y-106928846D01*
X181544114Y-106446543D01*
X181620775Y-106331811D01*
X181623009Y-106326419D01*
X181655851Y-106247130D01*
X181673580Y-106204328D01*
X181696502Y-106089093D01*
X181700500Y-106068996D01*
X181700500Y-102815519D01*
X181720185Y-102748480D01*
X181772989Y-102702725D01*
X181842147Y-102692781D01*
X181905703Y-102721806D01*
G37*
%TD.AperFunction*%
%TA.AperFunction,Conductor*%
G36*
X188592540Y-110640185D02*
G01*
X188638295Y-110692989D01*
X188649501Y-110744500D01*
X188649501Y-110817876D01*
X188655908Y-110877483D01*
X188706202Y-111012328D01*
X188706206Y-111012335D01*
X188792452Y-111127544D01*
X188792455Y-111127547D01*
X188907664Y-111213793D01*
X188907671Y-111213797D01*
X188969902Y-111237007D01*
X189039598Y-111263002D01*
X189095531Y-111304873D01*
X189119949Y-111370337D01*
X189105098Y-111438610D01*
X189083947Y-111466865D01*
X188961886Y-111588926D01*
X188826400Y-111782420D01*
X188826399Y-111782422D01*
X188726570Y-111996507D01*
X188726567Y-111996513D01*
X188669364Y-112209999D01*
X188669364Y-112210000D01*
X189566988Y-112210000D01*
X189534075Y-112267007D01*
X189500000Y-112394174D01*
X189500000Y-112525826D01*
X189534075Y-112652993D01*
X189566988Y-112710000D01*
X188669364Y-112710000D01*
X188726567Y-112923486D01*
X188726570Y-112923492D01*
X188826399Y-113137578D01*
X188961894Y-113331082D01*
X189128917Y-113498105D01*
X189314595Y-113628119D01*
X189358219Y-113682696D01*
X189365412Y-113752195D01*
X189333890Y-113814549D01*
X189314595Y-113831269D01*
X189128594Y-113961508D01*
X188961506Y-114128596D01*
X188878864Y-114246623D01*
X188824287Y-114290248D01*
X188777289Y-114299500D01*
X187222711Y-114299500D01*
X187155672Y-114279815D01*
X187121136Y-114246623D01*
X187038494Y-114128597D01*
X186871402Y-113961506D01*
X186871401Y-113961505D01*
X186685405Y-113831269D01*
X186641781Y-113776692D01*
X186634588Y-113707193D01*
X186666110Y-113644839D01*
X186685405Y-113628119D01*
X186871082Y-113498105D01*
X187038105Y-113331082D01*
X187173600Y-113137578D01*
X187273429Y-112923492D01*
X187273432Y-112923486D01*
X187330636Y-112710000D01*
X186433012Y-112710000D01*
X186465925Y-112652993D01*
X186500000Y-112525826D01*
X186500000Y-112394174D01*
X186465925Y-112267007D01*
X186433012Y-112210000D01*
X187330636Y-112210000D01*
X187330635Y-112209999D01*
X187273432Y-111996513D01*
X187273429Y-111996507D01*
X187173600Y-111782422D01*
X187173599Y-111782420D01*
X187038113Y-111588926D01*
X187038108Y-111588920D01*
X186916053Y-111466865D01*
X186882568Y-111405542D01*
X186887552Y-111335850D01*
X186929424Y-111279917D01*
X186960400Y-111263002D01*
X187092331Y-111213796D01*
X187207546Y-111127546D01*
X187293796Y-111012331D01*
X187344091Y-110877483D01*
X187350500Y-110817873D01*
X187350500Y-110744500D01*
X187370185Y-110677461D01*
X187422989Y-110631706D01*
X187474500Y-110620500D01*
X188525501Y-110620500D01*
X188592540Y-110640185D01*
G37*
%TD.AperFunction*%
%TA.AperFunction,Conductor*%
G36*
X158254099Y-95529005D02*
G01*
X158293473Y-95586724D01*
X158299500Y-95624912D01*
X158299500Y-95931006D01*
X158299500Y-96068994D01*
X158299500Y-96068996D01*
X158299499Y-96068996D01*
X158326418Y-96204322D01*
X158326421Y-96204332D01*
X158379222Y-96331807D01*
X158455887Y-96446545D01*
X158455888Y-96446546D01*
X162263181Y-100253838D01*
X162296666Y-100315161D01*
X162299500Y-100341519D01*
X162299500Y-102074192D01*
X162279815Y-102141231D01*
X162227011Y-102186986D01*
X162157853Y-102196930D01*
X162101190Y-102173460D01*
X162092088Y-102166646D01*
X162092086Y-102166645D01*
X161957379Y-102116403D01*
X161957372Y-102116401D01*
X161897844Y-102110000D01*
X161250000Y-102110000D01*
X161250000Y-103026988D01*
X161192993Y-102994075D01*
X161065826Y-102960000D01*
X160934174Y-102960000D01*
X160807007Y-102994075D01*
X160750000Y-103026988D01*
X160750000Y-102110000D01*
X160102155Y-102110000D01*
X160042627Y-102116401D01*
X160042620Y-102116403D01*
X159907913Y-102166645D01*
X159907906Y-102166649D01*
X159792812Y-102252809D01*
X159792809Y-102252812D01*
X159706649Y-102367906D01*
X159706645Y-102367913D01*
X159656403Y-102502620D01*
X159656401Y-102502627D01*
X159650000Y-102562155D01*
X159650000Y-103210000D01*
X160566988Y-103210000D01*
X160534075Y-103267007D01*
X160500000Y-103394174D01*
X160500000Y-103525826D01*
X160534075Y-103652993D01*
X160566988Y-103710000D01*
X159650000Y-103710000D01*
X159650000Y-104357844D01*
X159656401Y-104417372D01*
X159656403Y-104417379D01*
X159706645Y-104552086D01*
X159706649Y-104552093D01*
X159792809Y-104667187D01*
X159792812Y-104667190D01*
X159907906Y-104753350D01*
X159907913Y-104753354D01*
X160039470Y-104802421D01*
X160095403Y-104844292D01*
X160119821Y-104909756D01*
X160104970Y-104978029D01*
X160083819Y-105006284D01*
X159961503Y-105128600D01*
X159825965Y-105322169D01*
X159825964Y-105322171D01*
X159726098Y-105536335D01*
X159726094Y-105536344D01*
X159664938Y-105764586D01*
X159664936Y-105764596D01*
X159644341Y-105999999D01*
X159644341Y-106000000D01*
X159664937Y-106235409D01*
X159664937Y-106235410D01*
X159669442Y-106252225D01*
X159667776Y-106322075D01*
X159637347Y-106371994D01*
X159496160Y-106513182D01*
X159434840Y-106546666D01*
X159408481Y-106549500D01*
X158412503Y-106549500D01*
X158345464Y-106529815D01*
X158299709Y-106477011D01*
X158289765Y-106407853D01*
X158292728Y-106393407D01*
X158312111Y-106321066D01*
X158335063Y-106235408D01*
X158355659Y-106000000D01*
X158335063Y-105764592D01*
X158284123Y-105574480D01*
X158273905Y-105536344D01*
X158273904Y-105536343D01*
X158273903Y-105536337D01*
X158174035Y-105322171D01*
X158153259Y-105292500D01*
X158038496Y-105128600D01*
X157991418Y-105081522D01*
X157916179Y-105006283D01*
X157882696Y-104944963D01*
X157887680Y-104875271D01*
X157929551Y-104819337D01*
X157960529Y-104802422D01*
X158092086Y-104753354D01*
X158092093Y-104753350D01*
X158207187Y-104667190D01*
X158207190Y-104667187D01*
X158293350Y-104552093D01*
X158293354Y-104552086D01*
X158343596Y-104417379D01*
X158343598Y-104417372D01*
X158349999Y-104357844D01*
X158350000Y-104357827D01*
X158350000Y-103710000D01*
X157433012Y-103710000D01*
X157465925Y-103652993D01*
X157500000Y-103525826D01*
X157500000Y-103394174D01*
X157465925Y-103267007D01*
X157433012Y-103210000D01*
X158350000Y-103210000D01*
X158350000Y-102562172D01*
X158349999Y-102562155D01*
X158343598Y-102502627D01*
X158343596Y-102502620D01*
X158293354Y-102367913D01*
X158293350Y-102367906D01*
X158207190Y-102252812D01*
X158207187Y-102252809D01*
X158092093Y-102166649D01*
X158092086Y-102166645D01*
X157957379Y-102116403D01*
X157957372Y-102116401D01*
X157897844Y-102110000D01*
X157250000Y-102110000D01*
X157250000Y-103026988D01*
X157192993Y-102994075D01*
X157065826Y-102960000D01*
X156934174Y-102960000D01*
X156807007Y-102994075D01*
X156750000Y-103026988D01*
X156750000Y-102110000D01*
X156102155Y-102110000D01*
X156042627Y-102116401D01*
X156042620Y-102116403D01*
X155907913Y-102166645D01*
X155907906Y-102166649D01*
X155792812Y-102252809D01*
X155792809Y-102252812D01*
X155706649Y-102367906D01*
X155706645Y-102367913D01*
X155656403Y-102502620D01*
X155656401Y-102502627D01*
X155650000Y-102562155D01*
X155650000Y-103210000D01*
X156566988Y-103210000D01*
X156534075Y-103267007D01*
X156500000Y-103394174D01*
X156500000Y-103525826D01*
X156534075Y-103652993D01*
X156566988Y-103710000D01*
X155650000Y-103710000D01*
X155650000Y-104357844D01*
X155656401Y-104417372D01*
X155656403Y-104417379D01*
X155706645Y-104552086D01*
X155706649Y-104552093D01*
X155792809Y-104667187D01*
X155792812Y-104667190D01*
X155907906Y-104753350D01*
X155907913Y-104753354D01*
X156039470Y-104802421D01*
X156095403Y-104844292D01*
X156119821Y-104909756D01*
X156104970Y-104978029D01*
X156083819Y-105006284D01*
X155961503Y-105128600D01*
X155878864Y-105246623D01*
X155824287Y-105290248D01*
X155777289Y-105299500D01*
X152816520Y-105299500D01*
X152749481Y-105279815D01*
X152728839Y-105263181D01*
X152635188Y-105169530D01*
X152606514Y-105152196D01*
X152489606Y-105081522D01*
X152327196Y-105030914D01*
X152327194Y-105030913D01*
X152327192Y-105030913D01*
X152277778Y-105026423D01*
X152256616Y-105024500D01*
X152256613Y-105024500D01*
X151969410Y-105024500D01*
X151902371Y-105004815D01*
X151856616Y-104952011D01*
X151846089Y-104913462D01*
X151836497Y-104822197D01*
X151790621Y-104681006D01*
X151781252Y-104652170D01*
X151781249Y-104652164D01*
X151777670Y-104645965D01*
X151691859Y-104497335D01*
X151645003Y-104445296D01*
X151572235Y-104364478D01*
X151572232Y-104364476D01*
X151572231Y-104364475D01*
X151572230Y-104364474D01*
X151427593Y-104259388D01*
X151264267Y-104186671D01*
X151264265Y-104186670D01*
X151136594Y-104159533D01*
X151089391Y-104149500D01*
X150910609Y-104149500D01*
X150901661Y-104151402D01*
X150735733Y-104186670D01*
X150735728Y-104186672D01*
X150572408Y-104259387D01*
X150427768Y-104364475D01*
X150308139Y-104497336D01*
X150216854Y-104655448D01*
X150166287Y-104703664D01*
X150097680Y-104716887D01*
X150032815Y-104690919D01*
X150021786Y-104681129D01*
X149315536Y-103974879D01*
X149282051Y-103913556D01*
X149287035Y-103843864D01*
X149328907Y-103787931D01*
X149352773Y-103773923D01*
X149427593Y-103740612D01*
X149429757Y-103739039D01*
X149450208Y-103724182D01*
X149516015Y-103700702D01*
X149523093Y-103700500D01*
X153223066Y-103700500D01*
X153314110Y-103682389D01*
X153358398Y-103673580D01*
X153422139Y-103647177D01*
X153485877Y-103620777D01*
X153485878Y-103620776D01*
X153485881Y-103620775D01*
X153600613Y-103544114D01*
X157770114Y-99374613D01*
X157846775Y-99259881D01*
X157846979Y-99259390D01*
X157883657Y-99170839D01*
X157899580Y-99132398D01*
X157913547Y-99062181D01*
X157926500Y-98997066D01*
X157926500Y-95812519D01*
X157946185Y-95745480D01*
X157962821Y-95724836D01*
X157981469Y-95706188D01*
X157981472Y-95706185D01*
X158069384Y-95560760D01*
X158120911Y-95513574D01*
X158189770Y-95501736D01*
X158254099Y-95529005D01*
G37*
%TD.AperFunction*%
%TA.AperFunction,Conductor*%
G36*
X156444334Y-95695837D02*
G01*
X156488681Y-95724338D01*
X156489181Y-95724838D01*
X156522666Y-95786161D01*
X156525500Y-95812519D01*
X156525500Y-98586551D01*
X156505815Y-98653590D01*
X156489185Y-98674227D01*
X156430420Y-98732993D01*
X156379795Y-98783618D01*
X156318472Y-98817102D01*
X156248780Y-98812118D01*
X156192847Y-98770246D01*
X156168430Y-98704781D01*
X156168624Y-98684705D01*
X156169000Y-98680570D01*
X156169000Y-98674000D01*
X155444000Y-98674000D01*
X155444000Y-99323999D01*
X155525573Y-99323999D01*
X155529708Y-99323623D01*
X155598254Y-99337157D01*
X155648603Y-99385601D01*
X155664768Y-99453575D01*
X155641617Y-99519498D01*
X155628617Y-99534795D01*
X152900232Y-102263181D01*
X152838909Y-102296666D01*
X152812551Y-102299500D01*
X149523093Y-102299500D01*
X149456054Y-102279815D01*
X149450208Y-102275818D01*
X149427597Y-102259390D01*
X149427593Y-102259388D01*
X149264267Y-102186671D01*
X149264265Y-102186670D01*
X149136594Y-102159533D01*
X149089391Y-102149500D01*
X148910609Y-102149500D01*
X148879954Y-102156015D01*
X148735733Y-102186670D01*
X148735728Y-102186672D01*
X148572408Y-102259387D01*
X148427768Y-102364475D01*
X148308139Y-102497336D01*
X148216854Y-102655448D01*
X148166287Y-102703664D01*
X148097680Y-102716887D01*
X148032815Y-102690919D01*
X148021786Y-102681129D01*
X147736819Y-102396162D01*
X147703334Y-102334839D01*
X147700500Y-102308481D01*
X147700500Y-99920193D01*
X147720185Y-99853154D01*
X147772989Y-99807399D01*
X147842147Y-99797455D01*
X147905703Y-99826480D01*
X147916650Y-99837221D01*
X148017764Y-99949521D01*
X148017767Y-99949523D01*
X148017770Y-99949526D01*
X148162407Y-100054612D01*
X148325733Y-100127329D01*
X148500609Y-100164500D01*
X148500610Y-100164500D01*
X148679389Y-100164500D01*
X148679391Y-100164500D01*
X148854267Y-100127329D01*
X149017593Y-100054612D01*
X149162230Y-99949526D01*
X149178908Y-99931004D01*
X149188642Y-99920193D01*
X149281859Y-99816665D01*
X149371250Y-99661835D01*
X149426497Y-99491803D01*
X149445185Y-99314000D01*
X149426497Y-99136197D01*
X149408751Y-99081582D01*
X151025001Y-99081582D01*
X151031408Y-99152102D01*
X151031409Y-99152107D01*
X151081981Y-99314396D01*
X151169927Y-99459877D01*
X151290122Y-99580072D01*
X151435604Y-99668019D01*
X151435603Y-99668019D01*
X151597894Y-99718590D01*
X151597892Y-99718590D01*
X151668418Y-99724999D01*
X152250000Y-99724999D01*
X152331581Y-99724999D01*
X152402102Y-99718591D01*
X152402107Y-99718590D01*
X152564396Y-99668018D01*
X152709877Y-99580072D01*
X152830072Y-99459877D01*
X152918019Y-99314395D01*
X152968590Y-99152106D01*
X152975000Y-99081572D01*
X152975000Y-99075000D01*
X152250000Y-99075000D01*
X152250000Y-99724999D01*
X151668418Y-99724999D01*
X151749999Y-99724998D01*
X151750000Y-99724998D01*
X151750000Y-99075000D01*
X151025001Y-99075000D01*
X151025001Y-99081582D01*
X149408751Y-99081582D01*
X149384169Y-99005925D01*
X149371252Y-98966170D01*
X149371249Y-98966164D01*
X149356200Y-98940099D01*
X149281859Y-98811335D01*
X149260713Y-98787850D01*
X149196350Y-98716367D01*
X149179177Y-98680582D01*
X154219001Y-98680582D01*
X154225408Y-98751102D01*
X154225409Y-98751107D01*
X154275981Y-98913396D01*
X154363927Y-99058877D01*
X154484122Y-99179072D01*
X154629604Y-99267019D01*
X154629603Y-99267019D01*
X154791894Y-99317590D01*
X154791892Y-99317590D01*
X154862418Y-99323999D01*
X154943999Y-99323998D01*
X154944000Y-99323998D01*
X154944000Y-98674000D01*
X154219001Y-98674000D01*
X154219001Y-98680582D01*
X149179177Y-98680582D01*
X149166120Y-98653375D01*
X149164500Y-98633395D01*
X149164500Y-98352519D01*
X149184185Y-98285480D01*
X149200731Y-98264926D01*
X149201232Y-98264424D01*
X149262520Y-98230879D01*
X149332216Y-98235794D01*
X149376680Y-98264338D01*
X149478811Y-98366469D01*
X149478813Y-98366470D01*
X149478815Y-98366472D01*
X149624394Y-98454478D01*
X149786804Y-98505086D01*
X149857384Y-98511500D01*
X149857387Y-98511500D01*
X150370613Y-98511500D01*
X150370616Y-98511500D01*
X150441196Y-98505086D01*
X150603606Y-98454478D01*
X150749185Y-98366472D01*
X150789657Y-98326000D01*
X150842839Y-98272819D01*
X150904162Y-98239334D01*
X150930520Y-98236500D01*
X150944342Y-98236500D01*
X151011381Y-98256185D01*
X151057136Y-98308989D01*
X151067080Y-98378147D01*
X151062728Y-98397390D01*
X151031408Y-98497898D01*
X151025000Y-98568427D01*
X151025000Y-98575000D01*
X152974999Y-98575000D01*
X152974999Y-98568417D01*
X152968591Y-98497897D01*
X152968590Y-98497892D01*
X152918018Y-98335603D01*
X152830072Y-98190122D01*
X152727984Y-98088034D01*
X152694499Y-98026711D01*
X152699483Y-97957019D01*
X152727983Y-97912673D01*
X152830472Y-97810185D01*
X152918478Y-97664606D01*
X152969086Y-97502196D01*
X152975500Y-97431616D01*
X152975500Y-96918384D01*
X152969086Y-96847804D01*
X152918478Y-96685394D01*
X152830472Y-96539815D01*
X152830470Y-96539813D01*
X152830469Y-96539811D01*
X152706839Y-96416181D01*
X152673354Y-96354858D01*
X152678338Y-96285166D01*
X152720210Y-96229233D01*
X152785674Y-96204816D01*
X152794520Y-96204500D01*
X153738996Y-96204500D01*
X153863886Y-96179657D01*
X153874328Y-96177580D01*
X153941991Y-96149553D01*
X154001807Y-96124777D01*
X154001808Y-96124776D01*
X154001811Y-96124775D01*
X154116543Y-96048114D01*
X154157587Y-96007070D01*
X154218910Y-95973584D01*
X154288601Y-95978568D01*
X154344535Y-96020438D01*
X154368953Y-96085903D01*
X154354102Y-96154176D01*
X154351386Y-96158900D01*
X154275522Y-96284393D01*
X154224913Y-96446807D01*
X154218500Y-96517386D01*
X154218500Y-97030613D01*
X154224913Y-97101192D01*
X154224913Y-97101194D01*
X154224914Y-97101196D01*
X154275522Y-97263606D01*
X154318719Y-97335063D01*
X154363530Y-97409188D01*
X154466015Y-97511673D01*
X154499500Y-97572996D01*
X154494516Y-97642688D01*
X154466015Y-97687035D01*
X154363928Y-97789121D01*
X154363927Y-97789122D01*
X154275980Y-97934604D01*
X154225409Y-98096893D01*
X154219000Y-98167427D01*
X154219000Y-98174000D01*
X156168999Y-98174000D01*
X156168999Y-98167417D01*
X156162591Y-98096897D01*
X156162590Y-98096892D01*
X156112018Y-97934603D01*
X156024072Y-97789122D01*
X155921984Y-97687034D01*
X155888499Y-97625711D01*
X155893483Y-97556019D01*
X155921983Y-97511673D01*
X156024472Y-97409185D01*
X156112478Y-97263606D01*
X156163086Y-97101196D01*
X156169500Y-97030616D01*
X156169500Y-96802246D01*
X156189185Y-96735207D01*
X156190400Y-96733352D01*
X156196772Y-96723815D01*
X156196775Y-96723811D01*
X156249580Y-96596328D01*
X156258389Y-96552040D01*
X156276500Y-96460996D01*
X156276500Y-95812519D01*
X156296185Y-95745480D01*
X156312819Y-95724838D01*
X156313319Y-95724338D01*
X156374642Y-95690853D01*
X156444334Y-95695837D01*
G37*
%TD.AperFunction*%
%TA.AperFunction,Conductor*%
G36*
X165431868Y-90150185D02*
G01*
X165477623Y-90202989D01*
X165487567Y-90272147D01*
X165480257Y-90299802D01*
X165399242Y-90506225D01*
X165399236Y-90506244D01*
X165343525Y-90750331D01*
X165343524Y-90750336D01*
X165324816Y-90999995D01*
X165324816Y-91000004D01*
X165343524Y-91249663D01*
X165343525Y-91249668D01*
X165399236Y-91493755D01*
X165399238Y-91493764D01*
X165399240Y-91493769D01*
X165490711Y-91726835D01*
X165615898Y-91943665D01*
X165741981Y-92101768D01*
X165772006Y-92139418D01*
X165916597Y-92273578D01*
X165955540Y-92309712D01*
X166162408Y-92450752D01*
X166162413Y-92450754D01*
X166162414Y-92450755D01*
X166162415Y-92450756D01*
X166270113Y-92502620D01*
X166387983Y-92559383D01*
X166387984Y-92559383D01*
X166387987Y-92559385D01*
X166627236Y-92633184D01*
X166627237Y-92633184D01*
X166627240Y-92633185D01*
X166874805Y-92670499D01*
X166874810Y-92670499D01*
X166874813Y-92670500D01*
X166874814Y-92670500D01*
X167125186Y-92670500D01*
X167125187Y-92670500D01*
X167125194Y-92670499D01*
X167372759Y-92633185D01*
X167372760Y-92633184D01*
X167372764Y-92633184D01*
X167612013Y-92559385D01*
X167837592Y-92450752D01*
X168044460Y-92309712D01*
X168227997Y-92139414D01*
X168384102Y-91943665D01*
X168509289Y-91726835D01*
X168600760Y-91493769D01*
X168656474Y-91249673D01*
X168656475Y-91249663D01*
X168675184Y-91000004D01*
X168675184Y-90999995D01*
X168656475Y-90750336D01*
X168656474Y-90750331D01*
X168656474Y-90750327D01*
X168600760Y-90506231D01*
X168519742Y-90299801D01*
X168513574Y-90230205D01*
X168546012Y-90168322D01*
X168606757Y-90133799D01*
X168635171Y-90130500D01*
X169368175Y-90130500D01*
X169435214Y-90150185D01*
X169480969Y-90202989D01*
X169490913Y-90272147D01*
X169461888Y-90335703D01*
X169441063Y-90354815D01*
X169434033Y-90359923D01*
X169427768Y-90364475D01*
X169308140Y-90497336D01*
X169218750Y-90652164D01*
X169218747Y-90652170D01*
X169163504Y-90822192D01*
X169163503Y-90822194D01*
X169144815Y-91000000D01*
X169163503Y-91177805D01*
X169163504Y-91177807D01*
X169218747Y-91347829D01*
X169218750Y-91347835D01*
X169282887Y-91458923D01*
X169299500Y-91520923D01*
X169299500Y-91931006D01*
X169299500Y-92068994D01*
X169299500Y-92068996D01*
X169299499Y-92068996D01*
X169326418Y-92204322D01*
X169326421Y-92204332D01*
X169379222Y-92331807D01*
X169455885Y-92446542D01*
X169513181Y-92503838D01*
X169546666Y-92565161D01*
X169549500Y-92591519D01*
X169549500Y-96081792D01*
X169529815Y-96148831D01*
X169506619Y-96174415D01*
X169506757Y-96174553D01*
X169503941Y-96177368D01*
X169502407Y-96179061D01*
X169501652Y-96179657D01*
X169379659Y-96301651D01*
X169289093Y-96448481D01*
X169289091Y-96448486D01*
X169284151Y-96463394D01*
X169234826Y-96612247D01*
X169234826Y-96612248D01*
X169234825Y-96612248D01*
X169224500Y-96713315D01*
X169224500Y-97286669D01*
X169224501Y-97286687D01*
X169234825Y-97387752D01*
X169254759Y-97447906D01*
X169289092Y-97551516D01*
X169379660Y-97698350D01*
X169501650Y-97820340D01*
X169501656Y-97820343D01*
X169502405Y-97820936D01*
X169502790Y-97821480D01*
X169506757Y-97825447D01*
X169506079Y-97826124D01*
X169542785Y-97877956D01*
X169549500Y-97918207D01*
X169549500Y-98408480D01*
X169529815Y-98475519D01*
X169513181Y-98496161D01*
X168872111Y-99137230D01*
X168810788Y-99170715D01*
X168810212Y-99170839D01*
X168735732Y-99186671D01*
X168735728Y-99186672D01*
X168572408Y-99259387D01*
X168427768Y-99364475D01*
X168308140Y-99497336D01*
X168218750Y-99652164D01*
X168218750Y-99652165D01*
X168163504Y-99822192D01*
X168163504Y-99822193D01*
X168163503Y-99822197D01*
X168159969Y-99855825D01*
X168133384Y-99920439D01*
X168076086Y-99960423D01*
X168006267Y-99963083D01*
X167948967Y-99930543D01*
X167354363Y-99335939D01*
X167320878Y-99274616D01*
X167325862Y-99204924D01*
X167325863Y-99204923D01*
X167343597Y-99157375D01*
X167343598Y-99157372D01*
X167349999Y-99097844D01*
X167350000Y-99097827D01*
X167350000Y-98450000D01*
X166433012Y-98450000D01*
X166465925Y-98392993D01*
X166500000Y-98265826D01*
X166500000Y-98134174D01*
X166465925Y-98007007D01*
X166433012Y-97950000D01*
X167350000Y-97950000D01*
X167350000Y-97302172D01*
X167349999Y-97302155D01*
X167343598Y-97242627D01*
X167343596Y-97242620D01*
X167293354Y-97107913D01*
X167293350Y-97107906D01*
X167207190Y-96992812D01*
X167207187Y-96992809D01*
X167092093Y-96906649D01*
X167092086Y-96906645D01*
X166957379Y-96856403D01*
X166957372Y-96856401D01*
X166897844Y-96850000D01*
X166250000Y-96850000D01*
X166250000Y-97766988D01*
X166192993Y-97734075D01*
X166065826Y-97700000D01*
X165934174Y-97700000D01*
X165807007Y-97734075D01*
X165750000Y-97766988D01*
X165750000Y-96850000D01*
X165102155Y-96850000D01*
X165042627Y-96856401D01*
X165042620Y-96856403D01*
X164907913Y-96906645D01*
X164907906Y-96906649D01*
X164792812Y-96992809D01*
X164792809Y-96992812D01*
X164706649Y-97107906D01*
X164706645Y-97107913D01*
X164656403Y-97242620D01*
X164656401Y-97242627D01*
X164650000Y-97302155D01*
X164650000Y-98059980D01*
X164630315Y-98127019D01*
X164577511Y-98172774D01*
X164508353Y-98182718D01*
X164444797Y-98153693D01*
X164438319Y-98147661D01*
X161571545Y-95280887D01*
X161553023Y-95268511D01*
X161515393Y-95243368D01*
X161496607Y-95227950D01*
X160756819Y-94488162D01*
X160723334Y-94426839D01*
X160720500Y-94400481D01*
X160720500Y-92910822D01*
X161025001Y-92910822D01*
X161035144Y-93010107D01*
X161088452Y-93170981D01*
X161088457Y-93170992D01*
X161177424Y-93315228D01*
X161177427Y-93315232D01*
X161297267Y-93435072D01*
X161297271Y-93435075D01*
X161441507Y-93524042D01*
X161441518Y-93524047D01*
X161602393Y-93577355D01*
X161701683Y-93587499D01*
X162250000Y-93587499D01*
X162298308Y-93587499D01*
X162298322Y-93587498D01*
X162397607Y-93577355D01*
X162558481Y-93524047D01*
X162558492Y-93524042D01*
X162702728Y-93435075D01*
X162702732Y-93435072D01*
X162822572Y-93315232D01*
X162822575Y-93315228D01*
X162911542Y-93170992D01*
X162911547Y-93170981D01*
X162964855Y-93010106D01*
X162974999Y-92910822D01*
X162975000Y-92910809D01*
X162975000Y-92887500D01*
X162250000Y-92887500D01*
X162250000Y-93587499D01*
X161701683Y-93587499D01*
X161749999Y-93587498D01*
X161750000Y-93587498D01*
X161750000Y-92887500D01*
X161025001Y-92887500D01*
X161025001Y-92910822D01*
X160720500Y-92910822D01*
X160720500Y-91098019D01*
X160740185Y-91030980D01*
X160792989Y-90985225D01*
X160862147Y-90975281D01*
X160925703Y-91004306D01*
X160932181Y-91010338D01*
X160988181Y-91066338D01*
X161021666Y-91127661D01*
X161024500Y-91154018D01*
X161024500Y-91360836D01*
X161024501Y-91360855D01*
X161034650Y-91460207D01*
X161034651Y-91460210D01*
X161087996Y-91621194D01*
X161088001Y-91621205D01*
X161177029Y-91765540D01*
X161177032Y-91765544D01*
X161186660Y-91775172D01*
X161220145Y-91836495D01*
X161215161Y-91906187D01*
X161186663Y-91950531D01*
X161177428Y-91959765D01*
X161177424Y-91959771D01*
X161088457Y-92104007D01*
X161088452Y-92104018D01*
X161035144Y-92264893D01*
X161025000Y-92364177D01*
X161025000Y-92387500D01*
X162974999Y-92387500D01*
X162974999Y-92364192D01*
X162974998Y-92364177D01*
X162964855Y-92264892D01*
X162911547Y-92104018D01*
X162911542Y-92104007D01*
X162822575Y-91959771D01*
X162822572Y-91959767D01*
X162813339Y-91950534D01*
X162779854Y-91889211D01*
X162784838Y-91819519D01*
X162813343Y-91775168D01*
X162822968Y-91765544D01*
X162912003Y-91621197D01*
X162965349Y-91460208D01*
X162975500Y-91360845D01*
X162975499Y-90814156D01*
X162965349Y-90714792D01*
X162912003Y-90553803D01*
X162911999Y-90553797D01*
X162911998Y-90553794D01*
X162822970Y-90409459D01*
X162822967Y-90409455D01*
X162755693Y-90342181D01*
X162722208Y-90280858D01*
X162727192Y-90211166D01*
X162769064Y-90155233D01*
X162834528Y-90130816D01*
X162843374Y-90130500D01*
X165364829Y-90130500D01*
X165431868Y-90150185D01*
G37*
%TD.AperFunction*%
%TA.AperFunction,Conductor*%
G36*
X191742539Y-78220185D02*
G01*
X191788294Y-78272989D01*
X191799500Y-78324500D01*
X191799500Y-127675500D01*
X191779815Y-127742539D01*
X191727011Y-127788294D01*
X191675500Y-127799500D01*
X132324500Y-127799500D01*
X132257461Y-127779815D01*
X132211706Y-127727011D01*
X132200500Y-127675500D01*
X132200500Y-101459999D01*
X132644341Y-101459999D01*
X132644341Y-101460000D01*
X132664936Y-101695403D01*
X132664938Y-101695413D01*
X132726094Y-101923655D01*
X132726096Y-101923659D01*
X132726097Y-101923663D01*
X132815973Y-102116403D01*
X132825965Y-102137830D01*
X132825967Y-102137834D01*
X132961501Y-102331395D01*
X132961506Y-102331402D01*
X133128597Y-102498494D01*
X133246623Y-102581136D01*
X133290248Y-102635713D01*
X133299500Y-102682711D01*
X133299500Y-102777288D01*
X133279815Y-102844327D01*
X133246624Y-102878863D01*
X133128594Y-102961508D01*
X132961505Y-103128597D01*
X132825965Y-103322169D01*
X132825964Y-103322171D01*
X132726098Y-103536335D01*
X132726094Y-103536344D01*
X132664938Y-103764586D01*
X132664936Y-103764596D01*
X132644341Y-103999999D01*
X132644341Y-104000000D01*
X132664936Y-104235403D01*
X132664938Y-104235413D01*
X132726094Y-104463655D01*
X132726096Y-104463659D01*
X132726097Y-104463663D01*
X132799360Y-104620775D01*
X132825965Y-104677830D01*
X132825967Y-104677834D01*
X132924809Y-104818994D01*
X132937890Y-104837676D01*
X132961501Y-104871395D01*
X132961506Y-104871402D01*
X133128597Y-105038493D01*
X133128603Y-105038498D01*
X133314158Y-105168425D01*
X133357783Y-105223002D01*
X133364977Y-105292500D01*
X133333454Y-105354855D01*
X133314158Y-105371575D01*
X133128597Y-105501505D01*
X132961505Y-105668597D01*
X132825965Y-105862169D01*
X132825964Y-105862171D01*
X132726098Y-106076335D01*
X132726094Y-106076344D01*
X132664938Y-106304586D01*
X132664936Y-106304596D01*
X132644341Y-106539999D01*
X132644341Y-106540000D01*
X132664936Y-106775403D01*
X132664938Y-106775413D01*
X132726094Y-107003655D01*
X132726096Y-107003659D01*
X132726097Y-107003663D01*
X132751295Y-107057700D01*
X132825965Y-107217830D01*
X132825967Y-107217834D01*
X132922474Y-107355659D01*
X132961505Y-107411401D01*
X133128599Y-107578495D01*
X133210043Y-107635523D01*
X133322165Y-107714032D01*
X133322167Y-107714033D01*
X133322170Y-107714035D01*
X133536337Y-107813903D01*
X133536343Y-107813904D01*
X133536344Y-107813905D01*
X133579420Y-107825447D01*
X133764592Y-107875063D01*
X133952918Y-107891539D01*
X133999999Y-107895659D01*
X134000000Y-107895659D01*
X134000001Y-107895659D01*
X134039234Y-107892226D01*
X134235408Y-107875063D01*
X134463663Y-107813903D01*
X134677830Y-107714035D01*
X134871401Y-107578495D01*
X135038495Y-107411401D01*
X135174035Y-107217830D01*
X135273903Y-107003663D01*
X135335063Y-106775408D01*
X135355659Y-106540000D01*
X135335063Y-106304592D01*
X135288626Y-106131285D01*
X135273905Y-106076344D01*
X135273904Y-106076343D01*
X135273903Y-106076337D01*
X135174035Y-105862171D01*
X135092805Y-105746161D01*
X135038494Y-105668597D01*
X134871402Y-105501506D01*
X134871396Y-105501501D01*
X134685842Y-105371575D01*
X134642217Y-105316998D01*
X134635023Y-105247500D01*
X134666546Y-105185145D01*
X134685842Y-105168425D01*
X134809545Y-105081807D01*
X134871401Y-105038495D01*
X135038495Y-104871401D01*
X135121136Y-104753376D01*
X135175713Y-104709752D01*
X135222711Y-104700500D01*
X137323481Y-104700500D01*
X137390520Y-104720185D01*
X137411162Y-104736819D01*
X142353181Y-109678838D01*
X142386666Y-109740161D01*
X142389500Y-109766519D01*
X142389500Y-110415701D01*
X142392401Y-110452567D01*
X142392402Y-110452573D01*
X142438254Y-110610393D01*
X142438255Y-110610396D01*
X142438256Y-110610398D01*
X142452592Y-110634639D01*
X142521917Y-110751862D01*
X142521923Y-110751870D01*
X142638129Y-110868076D01*
X142638133Y-110868079D01*
X142638135Y-110868081D01*
X142779353Y-110951597D01*
X142786317Y-110955715D01*
X142785462Y-110957159D01*
X142831962Y-110995843D01*
X142852989Y-111062473D01*
X142834655Y-111129894D01*
X142816695Y-111152645D01*
X140786161Y-113183181D01*
X140724838Y-113216666D01*
X140698480Y-113219500D01*
X135222711Y-113219500D01*
X135155672Y-113199815D01*
X135121136Y-113166623D01*
X135109146Y-113149500D01*
X135088684Y-113120276D01*
X135038496Y-113048600D01*
X134979294Y-112989398D01*
X134916179Y-112926283D01*
X134882696Y-112864963D01*
X134887680Y-112795271D01*
X134929551Y-112739337D01*
X134960529Y-112722422D01*
X135092086Y-112673354D01*
X135092093Y-112673350D01*
X135207187Y-112587190D01*
X135207190Y-112587187D01*
X135293350Y-112472093D01*
X135293354Y-112472086D01*
X135343596Y-112337379D01*
X135343598Y-112337372D01*
X135349999Y-112277844D01*
X135350000Y-112277827D01*
X135350000Y-111630000D01*
X134433012Y-111630000D01*
X134465925Y-111572993D01*
X134500000Y-111445826D01*
X134500000Y-111314174D01*
X134465925Y-111187007D01*
X134433012Y-111130000D01*
X135350000Y-111130000D01*
X135350000Y-110482172D01*
X135349999Y-110482155D01*
X135343598Y-110422627D01*
X135343596Y-110422620D01*
X135293354Y-110287913D01*
X135293350Y-110287906D01*
X135207190Y-110172812D01*
X135207187Y-110172809D01*
X135092093Y-110086649D01*
X135092086Y-110086645D01*
X134957379Y-110036403D01*
X134957372Y-110036401D01*
X134897844Y-110030000D01*
X134250000Y-110030000D01*
X134250000Y-110946988D01*
X134192993Y-110914075D01*
X134065826Y-110880000D01*
X133934174Y-110880000D01*
X133807007Y-110914075D01*
X133750000Y-110946988D01*
X133750000Y-110030000D01*
X133102155Y-110030000D01*
X133042627Y-110036401D01*
X133042620Y-110036403D01*
X132907913Y-110086645D01*
X132907906Y-110086649D01*
X132792812Y-110172809D01*
X132792809Y-110172812D01*
X132706649Y-110287906D01*
X132706645Y-110287913D01*
X132656403Y-110422620D01*
X132656401Y-110422627D01*
X132650000Y-110482155D01*
X132650000Y-111130000D01*
X133566988Y-111130000D01*
X133534075Y-111187007D01*
X133500000Y-111314174D01*
X133500000Y-111445826D01*
X133534075Y-111572993D01*
X133566988Y-111630000D01*
X132650000Y-111630000D01*
X132650000Y-112277844D01*
X132656401Y-112337372D01*
X132656403Y-112337379D01*
X132706645Y-112472086D01*
X132706649Y-112472093D01*
X132792809Y-112587187D01*
X132792812Y-112587190D01*
X132907906Y-112673350D01*
X132907913Y-112673354D01*
X133039470Y-112722421D01*
X133095403Y-112764292D01*
X133119821Y-112829756D01*
X133104970Y-112898029D01*
X133083819Y-112926284D01*
X132961503Y-113048600D01*
X132825965Y-113242169D01*
X132825964Y-113242171D01*
X132736013Y-113435072D01*
X132729925Y-113448129D01*
X132726098Y-113456335D01*
X132726094Y-113456344D01*
X132664938Y-113684586D01*
X132664936Y-113684596D01*
X132644341Y-113919999D01*
X132644341Y-113920000D01*
X132664936Y-114155403D01*
X132664938Y-114155413D01*
X132726094Y-114383655D01*
X132726096Y-114383659D01*
X132726097Y-114383663D01*
X132823982Y-114593578D01*
X132825965Y-114597830D01*
X132825967Y-114597834D01*
X132961501Y-114791395D01*
X132961506Y-114791402D01*
X133128597Y-114958494D01*
X133246623Y-115041136D01*
X133290248Y-115095713D01*
X133299500Y-115142711D01*
X133299500Y-115237288D01*
X133279815Y-115304327D01*
X133246624Y-115338863D01*
X133128594Y-115421508D01*
X132961505Y-115588597D01*
X132825965Y-115782169D01*
X132825964Y-115782171D01*
X132726098Y-115996335D01*
X132726094Y-115996344D01*
X132664938Y-116224586D01*
X132664936Y-116224596D01*
X132644341Y-116459999D01*
X132644341Y-116460000D01*
X132664936Y-116695403D01*
X132664938Y-116695413D01*
X132726094Y-116923655D01*
X132726096Y-116923659D01*
X132726097Y-116923663D01*
X132767205Y-117011819D01*
X132825965Y-117137830D01*
X132825967Y-117137834D01*
X132961501Y-117331395D01*
X132961506Y-117331402D01*
X133128597Y-117498493D01*
X133128603Y-117498498D01*
X133314158Y-117628425D01*
X133357783Y-117683002D01*
X133364977Y-117752500D01*
X133333454Y-117814855D01*
X133314158Y-117831575D01*
X133128597Y-117961505D01*
X132961505Y-118128597D01*
X132825965Y-118322169D01*
X132825964Y-118322171D01*
X132726098Y-118536335D01*
X132726094Y-118536344D01*
X132664938Y-118764586D01*
X132664936Y-118764596D01*
X132644341Y-118999999D01*
X132644341Y-119000000D01*
X132664936Y-119235403D01*
X132664938Y-119235413D01*
X132726094Y-119463655D01*
X132726096Y-119463659D01*
X132726097Y-119463663D01*
X132799555Y-119621194D01*
X132825965Y-119677830D01*
X132825967Y-119677834D01*
X132925177Y-119819519D01*
X132961505Y-119871401D01*
X133128599Y-120038495D01*
X133209419Y-120095086D01*
X133322165Y-120174032D01*
X133322167Y-120174033D01*
X133322170Y-120174035D01*
X133536337Y-120273903D01*
X133764592Y-120335063D01*
X133952918Y-120351539D01*
X133999999Y-120355659D01*
X134000000Y-120355659D01*
X134000001Y-120355659D01*
X134039234Y-120352226D01*
X134235408Y-120335063D01*
X134252216Y-120330559D01*
X134322064Y-120332218D01*
X134371994Y-120362651D01*
X135903889Y-121894546D01*
X135937374Y-121955869D01*
X135932390Y-122025561D01*
X135890518Y-122081494D01*
X135832394Y-122105166D01*
X135628437Y-122132017D01*
X135387792Y-122196498D01*
X135157638Y-122291830D01*
X135157623Y-122291837D01*
X134941873Y-122416400D01*
X134744225Y-122568060D01*
X134744218Y-122568066D01*
X134568066Y-122744218D01*
X134568060Y-122744225D01*
X134416400Y-122941873D01*
X134291837Y-123157623D01*
X134291830Y-123157638D01*
X134196498Y-123387792D01*
X134132017Y-123628438D01*
X134099501Y-123875424D01*
X134099500Y-123875441D01*
X134099500Y-124124558D01*
X134099501Y-124124575D01*
X134132017Y-124371561D01*
X134196498Y-124612207D01*
X134291830Y-124842361D01*
X134291837Y-124842376D01*
X134416400Y-125058126D01*
X134568060Y-125255774D01*
X134568066Y-125255781D01*
X134744218Y-125431933D01*
X134744225Y-125431939D01*
X134941873Y-125583599D01*
X135157623Y-125708162D01*
X135157638Y-125708169D01*
X135256825Y-125749253D01*
X135387793Y-125803502D01*
X135628435Y-125867982D01*
X135875435Y-125900500D01*
X135875442Y-125900500D01*
X136124558Y-125900500D01*
X136124565Y-125900500D01*
X136371565Y-125867982D01*
X136612207Y-125803502D01*
X136842373Y-125708164D01*
X137058127Y-125583599D01*
X137255776Y-125431938D01*
X137431938Y-125255776D01*
X137583599Y-125058127D01*
X137708164Y-124842373D01*
X137803502Y-124612207D01*
X137867982Y-124371565D01*
X137894833Y-124167604D01*
X137923099Y-124103709D01*
X137981424Y-124065238D01*
X138051288Y-124064406D01*
X138105453Y-124096110D01*
X140553453Y-126544111D01*
X140553454Y-126544112D01*
X140668192Y-126620777D01*
X140778690Y-126666546D01*
X140795672Y-126673580D01*
X140795676Y-126673580D01*
X140795677Y-126673581D01*
X140931003Y-126700500D01*
X140931006Y-126700500D01*
X140931007Y-126700500D01*
X144476907Y-126700500D01*
X144543946Y-126720185D01*
X144549792Y-126724182D01*
X144572402Y-126740609D01*
X144572404Y-126740610D01*
X144572407Y-126740612D01*
X144735733Y-126813329D01*
X144910609Y-126850500D01*
X144910610Y-126850500D01*
X145089389Y-126850500D01*
X145089391Y-126850500D01*
X145264267Y-126813329D01*
X145427593Y-126740612D01*
X145572230Y-126635526D01*
X145691859Y-126502665D01*
X145781250Y-126347835D01*
X145836497Y-126177803D01*
X145836497Y-126177799D01*
X145838501Y-126171633D01*
X145877938Y-126113958D01*
X145942297Y-126086759D01*
X146011143Y-126098673D01*
X146044113Y-126122270D01*
X147270953Y-127349111D01*
X147270954Y-127349112D01*
X147385692Y-127425777D01*
X147513167Y-127478578D01*
X147513172Y-127478580D01*
X147513176Y-127478580D01*
X147513177Y-127478581D01*
X147648503Y-127505500D01*
X147648506Y-127505500D01*
X154263996Y-127505500D01*
X154355040Y-127487389D01*
X154399328Y-127478580D01*
X154526811Y-127425775D01*
X154641543Y-127349114D01*
X154641544Y-127349112D01*
X154645058Y-127346765D01*
X154711736Y-127325887D01*
X154746042Y-127330092D01*
X154764592Y-127335063D01*
X154935319Y-127350000D01*
X154999999Y-127355659D01*
X155000000Y-127355659D01*
X155000001Y-127355659D01*
X155064681Y-127350000D01*
X155235408Y-127335063D01*
X155463663Y-127273903D01*
X155677830Y-127174035D01*
X155871401Y-127038495D01*
X156038495Y-126871401D01*
X156168425Y-126685842D01*
X156223002Y-126642217D01*
X156292500Y-126635023D01*
X156354855Y-126666546D01*
X156371575Y-126685842D01*
X156486869Y-126850500D01*
X156501505Y-126871401D01*
X156668599Y-127038495D01*
X156745135Y-127092086D01*
X156862165Y-127174032D01*
X156862167Y-127174033D01*
X156862170Y-127174035D01*
X157076337Y-127273903D01*
X157304592Y-127335063D01*
X157475319Y-127350000D01*
X157539999Y-127355659D01*
X157540000Y-127355659D01*
X157540001Y-127355659D01*
X157604681Y-127350000D01*
X157775408Y-127335063D01*
X158003663Y-127273903D01*
X158217830Y-127174035D01*
X158411401Y-127038495D01*
X158578495Y-126871401D01*
X158708425Y-126685842D01*
X158763002Y-126642217D01*
X158832500Y-126635023D01*
X158894855Y-126666546D01*
X158911575Y-126685842D01*
X159026869Y-126850500D01*
X159041505Y-126871401D01*
X159208599Y-127038495D01*
X159285135Y-127092086D01*
X159402165Y-127174032D01*
X159402167Y-127174033D01*
X159402170Y-127174035D01*
X159616337Y-127273903D01*
X159844592Y-127335063D01*
X160015319Y-127350000D01*
X160079999Y-127355659D01*
X160080000Y-127355659D01*
X160080001Y-127355659D01*
X160144681Y-127350000D01*
X160315408Y-127335063D01*
X160543663Y-127273903D01*
X160757830Y-127174035D01*
X160951401Y-127038495D01*
X161073717Y-126916178D01*
X161135036Y-126882696D01*
X161204728Y-126887680D01*
X161260662Y-126929551D01*
X161277577Y-126960528D01*
X161326646Y-127092088D01*
X161326649Y-127092093D01*
X161412809Y-127207187D01*
X161412812Y-127207190D01*
X161527906Y-127293350D01*
X161527913Y-127293354D01*
X161662620Y-127343596D01*
X161662627Y-127343598D01*
X161722155Y-127349999D01*
X161722172Y-127350000D01*
X162370000Y-127350000D01*
X162370000Y-126433012D01*
X162427007Y-126465925D01*
X162554174Y-126500000D01*
X162685826Y-126500000D01*
X162812993Y-126465925D01*
X162870000Y-126433012D01*
X162870000Y-127350000D01*
X163517828Y-127350000D01*
X163517844Y-127349999D01*
X163577372Y-127343598D01*
X163577379Y-127343596D01*
X163712086Y-127293354D01*
X163712093Y-127293350D01*
X163827187Y-127207190D01*
X163827190Y-127207187D01*
X163913350Y-127092093D01*
X163913354Y-127092086D01*
X163963596Y-126957379D01*
X163963598Y-126957372D01*
X163969999Y-126897844D01*
X163970000Y-126897827D01*
X163970000Y-126250000D01*
X163053012Y-126250000D01*
X163085925Y-126192993D01*
X163120000Y-126065826D01*
X163120000Y-125934174D01*
X163113743Y-125910822D01*
X169025001Y-125910822D01*
X169035144Y-126010107D01*
X169088452Y-126170981D01*
X169088457Y-126170992D01*
X169177424Y-126315228D01*
X169177427Y-126315232D01*
X169297267Y-126435072D01*
X169297271Y-126435075D01*
X169441507Y-126524042D01*
X169441518Y-126524047D01*
X169602393Y-126577355D01*
X169701683Y-126587499D01*
X170250000Y-126587499D01*
X170298308Y-126587499D01*
X170298322Y-126587498D01*
X170397607Y-126577355D01*
X170558481Y-126524047D01*
X170558492Y-126524042D01*
X170702728Y-126435075D01*
X170702732Y-126435072D01*
X170822572Y-126315232D01*
X170822575Y-126315228D01*
X170894462Y-126198683D01*
X170946410Y-126151958D01*
X171015372Y-126140737D01*
X171079454Y-126168580D01*
X171105538Y-126198683D01*
X171177424Y-126315228D01*
X171177427Y-126315232D01*
X171297267Y-126435072D01*
X171297271Y-126435075D01*
X171441507Y-126524042D01*
X171441518Y-126524047D01*
X171602393Y-126577355D01*
X171701683Y-126587499D01*
X172250000Y-126587499D01*
X172298308Y-126587499D01*
X172298322Y-126587498D01*
X172397607Y-126577355D01*
X172558481Y-126524047D01*
X172558492Y-126524042D01*
X172702728Y-126435075D01*
X172702732Y-126435072D01*
X172822572Y-126315232D01*
X172822575Y-126315228D01*
X172894462Y-126198683D01*
X172946410Y-126151958D01*
X173015372Y-126140737D01*
X173079454Y-126168580D01*
X173105538Y-126198683D01*
X173177424Y-126315228D01*
X173177427Y-126315232D01*
X173297267Y-126435072D01*
X173297271Y-126435075D01*
X173441507Y-126524042D01*
X173441518Y-126524047D01*
X173602393Y-126577355D01*
X173701683Y-126587499D01*
X174250000Y-126587499D01*
X174298308Y-126587499D01*
X174298322Y-126587498D01*
X174397607Y-126577355D01*
X174558481Y-126524047D01*
X174558492Y-126524042D01*
X174702728Y-126435075D01*
X174702732Y-126435072D01*
X174822572Y-126315232D01*
X174822575Y-126315228D01*
X174911542Y-126170992D01*
X174911547Y-126170981D01*
X174964855Y-126010106D01*
X174974999Y-125910822D01*
X177025001Y-125910822D01*
X177035144Y-126010107D01*
X177088452Y-126170981D01*
X177088457Y-126170992D01*
X177177424Y-126315228D01*
X177177427Y-126315232D01*
X177297267Y-126435072D01*
X177297271Y-126435075D01*
X177441507Y-126524042D01*
X177441518Y-126524047D01*
X177602393Y-126577355D01*
X177701683Y-126587499D01*
X178250000Y-126587499D01*
X178298308Y-126587499D01*
X178298322Y-126587498D01*
X178397607Y-126577355D01*
X178558481Y-126524047D01*
X178558492Y-126524042D01*
X178702728Y-126435075D01*
X178702732Y-126435072D01*
X178822572Y-126315232D01*
X178822575Y-126315228D01*
X178894462Y-126198683D01*
X178946410Y-126151958D01*
X179015372Y-126140737D01*
X179079454Y-126168580D01*
X179105538Y-126198683D01*
X179177424Y-126315228D01*
X179177427Y-126315232D01*
X179297267Y-126435072D01*
X179297271Y-126435075D01*
X179441507Y-126524042D01*
X179441518Y-126524047D01*
X179602393Y-126577355D01*
X179701683Y-126587499D01*
X180250000Y-126587499D01*
X180298308Y-126587499D01*
X180298322Y-126587498D01*
X180397607Y-126577355D01*
X180558481Y-126524047D01*
X180558492Y-126524042D01*
X180702728Y-126435075D01*
X180702732Y-126435072D01*
X180822572Y-126315232D01*
X180822575Y-126315228D01*
X180894462Y-126198683D01*
X180946410Y-126151958D01*
X181015372Y-126140737D01*
X181079454Y-126168580D01*
X181105538Y-126198683D01*
X181177424Y-126315228D01*
X181177427Y-126315232D01*
X181297267Y-126435072D01*
X181297271Y-126435075D01*
X181441507Y-126524042D01*
X181441518Y-126524047D01*
X181602393Y-126577355D01*
X181701683Y-126587499D01*
X182250000Y-126587499D01*
X182298308Y-126587499D01*
X182298322Y-126587498D01*
X182397607Y-126577355D01*
X182558481Y-126524047D01*
X182558492Y-126524042D01*
X182702728Y-126435075D01*
X182702732Y-126435072D01*
X182822572Y-126315232D01*
X182822575Y-126315228D01*
X182911542Y-126170992D01*
X182911547Y-126170981D01*
X182964855Y-126010106D01*
X182974999Y-125910822D01*
X182975000Y-125910809D01*
X182975000Y-125887500D01*
X182250000Y-125887500D01*
X182250000Y-126587499D01*
X181701683Y-126587499D01*
X181749999Y-126587498D01*
X181750000Y-126587498D01*
X181750000Y-125887500D01*
X180250000Y-125887500D01*
X180250000Y-126587499D01*
X179701683Y-126587499D01*
X179749999Y-126587498D01*
X179750000Y-126587498D01*
X179750000Y-125887500D01*
X178250000Y-125887500D01*
X178250000Y-126587499D01*
X177701683Y-126587499D01*
X177749999Y-126587498D01*
X177750000Y-126587498D01*
X177750000Y-125887500D01*
X177025001Y-125887500D01*
X177025001Y-125910822D01*
X174974999Y-125910822D01*
X174975000Y-125910809D01*
X174975000Y-125887500D01*
X174250000Y-125887500D01*
X174250000Y-126587499D01*
X173701683Y-126587499D01*
X173749999Y-126587498D01*
X173750000Y-126587498D01*
X173750000Y-125887500D01*
X172250000Y-125887500D01*
X172250000Y-126587499D01*
X171701683Y-126587499D01*
X171749999Y-126587498D01*
X171750000Y-126587498D01*
X171750000Y-125887500D01*
X170250000Y-125887500D01*
X170250000Y-126587499D01*
X169701683Y-126587499D01*
X169749999Y-126587498D01*
X169750000Y-126587498D01*
X169750000Y-125887500D01*
X169025001Y-125887500D01*
X169025001Y-125910822D01*
X163113743Y-125910822D01*
X163085925Y-125807007D01*
X163053012Y-125750000D01*
X163970000Y-125750000D01*
X163970000Y-125102172D01*
X163969999Y-125102155D01*
X163963598Y-125042627D01*
X163963596Y-125042620D01*
X163913354Y-124907913D01*
X163913350Y-124907906D01*
X163827190Y-124792812D01*
X163827187Y-124792809D01*
X163712093Y-124706649D01*
X163712086Y-124706645D01*
X163577379Y-124656403D01*
X163577372Y-124656401D01*
X163517844Y-124650000D01*
X162870000Y-124650000D01*
X162870000Y-125566988D01*
X162812993Y-125534075D01*
X162685826Y-125500000D01*
X162554174Y-125500000D01*
X162427007Y-125534075D01*
X162370000Y-125566988D01*
X162370000Y-124650000D01*
X161912000Y-124650000D01*
X161844961Y-124630315D01*
X161799206Y-124577511D01*
X161788000Y-124526000D01*
X161788000Y-123938800D01*
X161807685Y-123871761D01*
X161860489Y-123826006D01*
X161929647Y-123816062D01*
X161977097Y-123833262D01*
X162104007Y-123911542D01*
X162104018Y-123911547D01*
X162264893Y-123964855D01*
X162364183Y-123974999D01*
X162887500Y-123974999D01*
X162910808Y-123974999D01*
X162910822Y-123974998D01*
X163010107Y-123964855D01*
X163170981Y-123911547D01*
X163170992Y-123911542D01*
X163315228Y-123822575D01*
X163315232Y-123822572D01*
X163435072Y-123702732D01*
X163435075Y-123702728D01*
X163524042Y-123558492D01*
X163524047Y-123558481D01*
X163577355Y-123397606D01*
X163587499Y-123298322D01*
X163587500Y-123298309D01*
X163587500Y-123250000D01*
X162887500Y-123250000D01*
X162887500Y-123974999D01*
X162364183Y-123974999D01*
X162387500Y-123974998D01*
X162387500Y-122750000D01*
X162887500Y-122750000D01*
X163587499Y-122750000D01*
X163587499Y-122701692D01*
X163587498Y-122701677D01*
X163577355Y-122602392D01*
X163524047Y-122441518D01*
X163524042Y-122441507D01*
X163435075Y-122297271D01*
X163435072Y-122297267D01*
X163315232Y-122177427D01*
X163315228Y-122177424D01*
X163170992Y-122088457D01*
X163170981Y-122088452D01*
X163010106Y-122035144D01*
X162910822Y-122025000D01*
X162887500Y-122025000D01*
X162887500Y-122750000D01*
X162387500Y-122750000D01*
X162387500Y-122024999D01*
X162364193Y-122025000D01*
X162364174Y-122025001D01*
X162264892Y-122035144D01*
X162104018Y-122088452D01*
X162104007Y-122088457D01*
X161959771Y-122177424D01*
X161959765Y-122177428D01*
X161950531Y-122186663D01*
X161889207Y-122220146D01*
X161819515Y-122215159D01*
X161775172Y-122186660D01*
X161765541Y-122177029D01*
X161759399Y-122173241D01*
X161712676Y-122121291D01*
X161700500Y-122067705D01*
X161700500Y-121520923D01*
X161717113Y-121458923D01*
X161730882Y-121435075D01*
X161781250Y-121347835D01*
X161836497Y-121177803D01*
X161855185Y-121000000D01*
X161838101Y-120837460D01*
X161850670Y-120768732D01*
X161898402Y-120717708D01*
X161961422Y-120700500D01*
X173883996Y-120700500D01*
X173975042Y-120682389D01*
X174019329Y-120673580D01*
X174146812Y-120620775D01*
X174261543Y-120544114D01*
X174359114Y-120446543D01*
X174359115Y-120446542D01*
X174667838Y-120137819D01*
X174729161Y-120104334D01*
X174755519Y-120101500D01*
X174945613Y-120101500D01*
X174945616Y-120101500D01*
X175016196Y-120095086D01*
X175178606Y-120044478D01*
X175324185Y-119956472D01*
X175374954Y-119905703D01*
X175426319Y-119854339D01*
X175487642Y-119820854D01*
X175557334Y-119825838D01*
X175601681Y-119854339D01*
X175703811Y-119956469D01*
X175703813Y-119956470D01*
X175703815Y-119956472D01*
X175849394Y-120044478D01*
X176011804Y-120095086D01*
X176082384Y-120101500D01*
X176082387Y-120101500D01*
X176595613Y-120101500D01*
X176595616Y-120101500D01*
X176666196Y-120095086D01*
X176828606Y-120044478D01*
X176974185Y-119956472D01*
X177094472Y-119836185D01*
X177182478Y-119690606D01*
X177233086Y-119528196D01*
X177239500Y-119457616D01*
X177239500Y-119267519D01*
X177259185Y-119200480D01*
X177275819Y-119179838D01*
X179443838Y-117011819D01*
X179505161Y-116978334D01*
X179531519Y-116975500D01*
X179606613Y-116975500D01*
X179606616Y-116975500D01*
X179677196Y-116969086D01*
X179839606Y-116918478D01*
X179985185Y-116830472D01*
X180087673Y-116727983D01*
X180148994Y-116694499D01*
X180218685Y-116699483D01*
X180263034Y-116727984D01*
X180365122Y-116830072D01*
X180464415Y-116890097D01*
X180511603Y-116941625D01*
X180523441Y-117010484D01*
X180496172Y-117074813D01*
X180487946Y-117083895D01*
X174463855Y-123107986D01*
X174402532Y-123141471D01*
X174363572Y-123143663D01*
X174298347Y-123137000D01*
X173701662Y-123137000D01*
X173701644Y-123137001D01*
X173602292Y-123147150D01*
X173602289Y-123147151D01*
X173441305Y-123200496D01*
X173441294Y-123200501D01*
X173296959Y-123289529D01*
X173296955Y-123289532D01*
X173235807Y-123350681D01*
X173174484Y-123384166D01*
X173148126Y-123387000D01*
X172851874Y-123387000D01*
X172784835Y-123367315D01*
X172764193Y-123350681D01*
X172703044Y-123289532D01*
X172703040Y-123289529D01*
X172558705Y-123200501D01*
X172558699Y-123200498D01*
X172558697Y-123200497D01*
X172558694Y-123200496D01*
X172397709Y-123147151D01*
X172298346Y-123137000D01*
X171701662Y-123137000D01*
X171701644Y-123137001D01*
X171602292Y-123147150D01*
X171602289Y-123147151D01*
X171441305Y-123200496D01*
X171441294Y-123200501D01*
X171296959Y-123289529D01*
X171296955Y-123289532D01*
X171235807Y-123350681D01*
X171174484Y-123384166D01*
X171148126Y-123387000D01*
X170851874Y-123387000D01*
X170784835Y-123367315D01*
X170764193Y-123350681D01*
X170703044Y-123289532D01*
X170703040Y-123289529D01*
X170558705Y-123200501D01*
X170558699Y-123200498D01*
X170558697Y-123200497D01*
X170558694Y-123200496D01*
X170397709Y-123147151D01*
X170298346Y-123137000D01*
X169701662Y-123137000D01*
X169701644Y-123137001D01*
X169602292Y-123147150D01*
X169602289Y-123147151D01*
X169441305Y-123200496D01*
X169441294Y-123200501D01*
X169296959Y-123289529D01*
X169296955Y-123289532D01*
X169177032Y-123409455D01*
X169177029Y-123409459D01*
X169088001Y-123553794D01*
X169087996Y-123553805D01*
X169034651Y-123714790D01*
X169024500Y-123814147D01*
X169024500Y-124360837D01*
X169024501Y-124360855D01*
X169034650Y-124460207D01*
X169034651Y-124460210D01*
X169087996Y-124621194D01*
X169088001Y-124621205D01*
X169177029Y-124765540D01*
X169177032Y-124765544D01*
X169186660Y-124775172D01*
X169220145Y-124836495D01*
X169215161Y-124906187D01*
X169186663Y-124950531D01*
X169177428Y-124959765D01*
X169177424Y-124959771D01*
X169088457Y-125104007D01*
X169088452Y-125104018D01*
X169035144Y-125264893D01*
X169025000Y-125364177D01*
X169025000Y-125387500D01*
X174974999Y-125387500D01*
X174974999Y-125364192D01*
X174974998Y-125364177D01*
X174964855Y-125264892D01*
X174911547Y-125104018D01*
X174911542Y-125104007D01*
X174822575Y-124959771D01*
X174822572Y-124959767D01*
X174813339Y-124950534D01*
X174779854Y-124889211D01*
X174784838Y-124819519D01*
X174813343Y-124775168D01*
X174822968Y-124765544D01*
X174880201Y-124672753D01*
X174916851Y-124634748D01*
X174921543Y-124631614D01*
X177087819Y-122465336D01*
X177149142Y-122431852D01*
X177218834Y-122436836D01*
X177274767Y-122478708D01*
X177299184Y-122544172D01*
X177299500Y-122553018D01*
X177299500Y-123235625D01*
X177279815Y-123302664D01*
X177263182Y-123323306D01*
X177177029Y-123409459D01*
X177088001Y-123553794D01*
X177087996Y-123553805D01*
X177034651Y-123714790D01*
X177024500Y-123814147D01*
X177024500Y-124360837D01*
X177024501Y-124360855D01*
X177034650Y-124460207D01*
X177034651Y-124460210D01*
X177087996Y-124621194D01*
X177088001Y-124621205D01*
X177177029Y-124765540D01*
X177177032Y-124765544D01*
X177186660Y-124775172D01*
X177220145Y-124836495D01*
X177215161Y-124906187D01*
X177186663Y-124950531D01*
X177177428Y-124959765D01*
X177177424Y-124959771D01*
X177088457Y-125104007D01*
X177088452Y-125104018D01*
X177035144Y-125264893D01*
X177025000Y-125364177D01*
X177025000Y-125387500D01*
X182974999Y-125387500D01*
X182974999Y-125364192D01*
X182974998Y-125364177D01*
X182964855Y-125264892D01*
X182911547Y-125104018D01*
X182911542Y-125104007D01*
X182822575Y-124959771D01*
X182822572Y-124959767D01*
X182813339Y-124950534D01*
X182779854Y-124889211D01*
X182784838Y-124819519D01*
X182813343Y-124775168D01*
X182822968Y-124765544D01*
X182912003Y-124621197D01*
X182965349Y-124460208D01*
X182975500Y-124360845D01*
X182975499Y-123875441D01*
X186099500Y-123875441D01*
X186099500Y-124124558D01*
X186099501Y-124124575D01*
X186132017Y-124371561D01*
X186196498Y-124612207D01*
X186291830Y-124842361D01*
X186291837Y-124842376D01*
X186416400Y-125058126D01*
X186568060Y-125255774D01*
X186568066Y-125255781D01*
X186744218Y-125431933D01*
X186744225Y-125431939D01*
X186941873Y-125583599D01*
X187157623Y-125708162D01*
X187157638Y-125708169D01*
X187256825Y-125749253D01*
X187387793Y-125803502D01*
X187628435Y-125867982D01*
X187875435Y-125900500D01*
X187875442Y-125900500D01*
X188124558Y-125900500D01*
X188124565Y-125900500D01*
X188371565Y-125867982D01*
X188612207Y-125803502D01*
X188842373Y-125708164D01*
X189058127Y-125583599D01*
X189255776Y-125431938D01*
X189431938Y-125255776D01*
X189583599Y-125058127D01*
X189708164Y-124842373D01*
X189803502Y-124612207D01*
X189867982Y-124371565D01*
X189900500Y-124124565D01*
X189900500Y-123875435D01*
X189867982Y-123628435D01*
X189803502Y-123387793D01*
X189740472Y-123235625D01*
X189708169Y-123157638D01*
X189708162Y-123157623D01*
X189583599Y-122941873D01*
X189431939Y-122744225D01*
X189431933Y-122744218D01*
X189255781Y-122568066D01*
X189255774Y-122568060D01*
X189058126Y-122416400D01*
X188842376Y-122291837D01*
X188842361Y-122291830D01*
X188612207Y-122196498D01*
X188414786Y-122143599D01*
X188371565Y-122132018D01*
X188371564Y-122132017D01*
X188371561Y-122132017D01*
X188124575Y-122099501D01*
X188124570Y-122099500D01*
X188124565Y-122099500D01*
X187875435Y-122099500D01*
X187875429Y-122099500D01*
X187875424Y-122099501D01*
X187628438Y-122132017D01*
X187387792Y-122196498D01*
X187157638Y-122291830D01*
X187157623Y-122291837D01*
X186941873Y-122416400D01*
X186744225Y-122568060D01*
X186744218Y-122568066D01*
X186568066Y-122744218D01*
X186568060Y-122744225D01*
X186416400Y-122941873D01*
X186291837Y-123157623D01*
X186291830Y-123157638D01*
X186196498Y-123387792D01*
X186132017Y-123628438D01*
X186099501Y-123875424D01*
X186099500Y-123875441D01*
X182975499Y-123875441D01*
X182975499Y-123814156D01*
X182968945Y-123750000D01*
X182965349Y-123714792D01*
X182965348Y-123714789D01*
X182960992Y-123701644D01*
X182912003Y-123553803D01*
X182911999Y-123553797D01*
X182911998Y-123553794D01*
X182822970Y-123409459D01*
X182822967Y-123409454D01*
X182789764Y-123376251D01*
X182756279Y-123314928D01*
X182761265Y-123245236D01*
X182789763Y-123200892D01*
X185127889Y-120862766D01*
X185189210Y-120829283D01*
X185189401Y-120829241D01*
X185264267Y-120813329D01*
X185427593Y-120740612D01*
X185572230Y-120635526D01*
X185691859Y-120502665D01*
X185781250Y-120347835D01*
X185836497Y-120177803D01*
X185855185Y-120000000D01*
X185836497Y-119822197D01*
X185796955Y-119700500D01*
X185781252Y-119652170D01*
X185781249Y-119652164D01*
X185771643Y-119635526D01*
X185691859Y-119497335D01*
X185645003Y-119445296D01*
X185572235Y-119364478D01*
X185572232Y-119364476D01*
X185572231Y-119364475D01*
X185572230Y-119364474D01*
X185427593Y-119259388D01*
X185264267Y-119186671D01*
X185264265Y-119186670D01*
X185136594Y-119159533D01*
X185089391Y-119149500D01*
X184910609Y-119149500D01*
X184879954Y-119156015D01*
X184735733Y-119186670D01*
X184735728Y-119186672D01*
X184572408Y-119259387D01*
X184427768Y-119364475D01*
X184308140Y-119497336D01*
X184218750Y-119652164D01*
X184218747Y-119652170D01*
X184161495Y-119828377D01*
X184158752Y-119827485D01*
X184131433Y-119877907D01*
X184131148Y-119878193D01*
X181455887Y-122553454D01*
X181379223Y-122668192D01*
X181326421Y-122795668D01*
X181326418Y-122795680D01*
X181313984Y-122858190D01*
X181313984Y-122858191D01*
X181299500Y-122931004D01*
X181299500Y-123235625D01*
X181279815Y-123302664D01*
X181263183Y-123323305D01*
X181235806Y-123350681D01*
X181174486Y-123384166D01*
X181148126Y-123387000D01*
X180851874Y-123387000D01*
X180784835Y-123367315D01*
X180764193Y-123350681D01*
X180703044Y-123289532D01*
X180703040Y-123289529D01*
X180558705Y-123200501D01*
X180558699Y-123200498D01*
X180558697Y-123200497D01*
X180558694Y-123200496D01*
X180397709Y-123147151D01*
X180298346Y-123137000D01*
X179701662Y-123137000D01*
X179701644Y-123137001D01*
X179602292Y-123147150D01*
X179602289Y-123147151D01*
X179441305Y-123200496D01*
X179441294Y-123200501D01*
X179296959Y-123289529D01*
X179296955Y-123289532D01*
X179235807Y-123350681D01*
X179174484Y-123384166D01*
X179148126Y-123387000D01*
X178851874Y-123387000D01*
X178784835Y-123367315D01*
X178764196Y-123350684D01*
X178736817Y-123323305D01*
X178703333Y-123261981D01*
X178700500Y-123235625D01*
X178700500Y-122520923D01*
X178717113Y-122458923D01*
X178729865Y-122436836D01*
X178781250Y-122347835D01*
X178836497Y-122177803D01*
X178855185Y-122000000D01*
X178836497Y-121822197D01*
X178791122Y-121682547D01*
X178781252Y-121652170D01*
X178781249Y-121652164D01*
X178691859Y-121497335D01*
X178633465Y-121432482D01*
X178572235Y-121364478D01*
X178572232Y-121364476D01*
X178572231Y-121364475D01*
X178572230Y-121364474D01*
X178467536Y-121288408D01*
X178424873Y-121233081D01*
X178418894Y-121163468D01*
X178451500Y-121101673D01*
X178452672Y-121100483D01*
X183816338Y-115736819D01*
X183877661Y-115703334D01*
X183904019Y-115700500D01*
X184777289Y-115700500D01*
X184844328Y-115720185D01*
X184878863Y-115753376D01*
X184890633Y-115770185D01*
X184961505Y-115871402D01*
X185051810Y-115961706D01*
X185128599Y-116038495D01*
X185225384Y-116106265D01*
X185322165Y-116174032D01*
X185322167Y-116174033D01*
X185322170Y-116174035D01*
X185536337Y-116273903D01*
X185764592Y-116335063D01*
X185952918Y-116351539D01*
X185999999Y-116355659D01*
X186000000Y-116355659D01*
X186000001Y-116355659D01*
X186039234Y-116352226D01*
X186235408Y-116335063D01*
X186463663Y-116273903D01*
X186677830Y-116174035D01*
X186871401Y-116038495D01*
X187038495Y-115871401D01*
X187121136Y-115753376D01*
X187175713Y-115709752D01*
X187222711Y-115700500D01*
X188777289Y-115700500D01*
X188844328Y-115720185D01*
X188878863Y-115753376D01*
X188890633Y-115770185D01*
X188961505Y-115871402D01*
X189051810Y-115961706D01*
X189128599Y-116038495D01*
X189225384Y-116106265D01*
X189322165Y-116174032D01*
X189322167Y-116174033D01*
X189322170Y-116174035D01*
X189536337Y-116273903D01*
X189764592Y-116335063D01*
X189952918Y-116351539D01*
X189999999Y-116355659D01*
X190000000Y-116355659D01*
X190000001Y-116355659D01*
X190039234Y-116352226D01*
X190235408Y-116335063D01*
X190463663Y-116273903D01*
X190677830Y-116174035D01*
X190871401Y-116038495D01*
X191038495Y-115871401D01*
X191174035Y-115677830D01*
X191273903Y-115463663D01*
X191335063Y-115235408D01*
X191355659Y-115000000D01*
X191353515Y-114975500D01*
X191341162Y-114834306D01*
X191335063Y-114764592D01*
X191273903Y-114536337D01*
X191174035Y-114322171D01*
X191157289Y-114298254D01*
X191038494Y-114128597D01*
X190871402Y-113961506D01*
X190871401Y-113961505D01*
X190685405Y-113831269D01*
X190641781Y-113776692D01*
X190634588Y-113707193D01*
X190666110Y-113644839D01*
X190685405Y-113628119D01*
X190871082Y-113498105D01*
X191038105Y-113331082D01*
X191173600Y-113137578D01*
X191273429Y-112923492D01*
X191273432Y-112923486D01*
X191330636Y-112710000D01*
X190433012Y-112710000D01*
X190465925Y-112652993D01*
X190500000Y-112525826D01*
X190500000Y-112394174D01*
X190465925Y-112267007D01*
X190433012Y-112210000D01*
X191330636Y-112210000D01*
X191330635Y-112209999D01*
X191273432Y-111996513D01*
X191273429Y-111996507D01*
X191173600Y-111782422D01*
X191173599Y-111782420D01*
X191038113Y-111588926D01*
X191038108Y-111588920D01*
X190916053Y-111466865D01*
X190882568Y-111405542D01*
X190887552Y-111335850D01*
X190929424Y-111279917D01*
X190960400Y-111263002D01*
X191092331Y-111213796D01*
X191207546Y-111127546D01*
X191293796Y-111012331D01*
X191344091Y-110877483D01*
X191350500Y-110817873D01*
X191350499Y-109022128D01*
X191344091Y-108962517D01*
X191336023Y-108940886D01*
X191293797Y-108827671D01*
X191293793Y-108827664D01*
X191207547Y-108712455D01*
X191207544Y-108712452D01*
X191092335Y-108626206D01*
X191092328Y-108626202D01*
X190957482Y-108575908D01*
X190957483Y-108575908D01*
X190897883Y-108569501D01*
X190897881Y-108569500D01*
X190897873Y-108569500D01*
X190897864Y-108569500D01*
X189102129Y-108569500D01*
X189102123Y-108569501D01*
X189042516Y-108575908D01*
X188907671Y-108626202D01*
X188907664Y-108626206D01*
X188792455Y-108712452D01*
X188792452Y-108712455D01*
X188706206Y-108827664D01*
X188706202Y-108827671D01*
X188655908Y-108962517D01*
X188652801Y-108991420D01*
X188649501Y-109022123D01*
X188649500Y-109022135D01*
X188649500Y-109095500D01*
X188629815Y-109162539D01*
X188577011Y-109208294D01*
X188525500Y-109219500D01*
X187474499Y-109219500D01*
X187407460Y-109199815D01*
X187361705Y-109147011D01*
X187350499Y-109095500D01*
X187350499Y-109022129D01*
X187350498Y-109022123D01*
X187350497Y-109022116D01*
X187344091Y-108962517D01*
X187336023Y-108940886D01*
X187293797Y-108827671D01*
X187293793Y-108827664D01*
X187207547Y-108712455D01*
X187207544Y-108712452D01*
X187092335Y-108626206D01*
X187092328Y-108626202D01*
X186957482Y-108575908D01*
X186957483Y-108575908D01*
X186897883Y-108569501D01*
X186897881Y-108569500D01*
X186897873Y-108569500D01*
X186897865Y-108569500D01*
X185824500Y-108569500D01*
X185757461Y-108549815D01*
X185711706Y-108497011D01*
X185700500Y-108445500D01*
X185700500Y-105641519D01*
X185720185Y-105574480D01*
X185736814Y-105553842D01*
X185830472Y-105460185D01*
X185918478Y-105314606D01*
X185969086Y-105152196D01*
X185975500Y-105081616D01*
X185975500Y-104568384D01*
X185969086Y-104497804D01*
X185918478Y-104335394D01*
X185830472Y-104189815D01*
X185830470Y-104189813D01*
X185830469Y-104189811D01*
X185728339Y-104087681D01*
X185694854Y-104026358D01*
X185699838Y-103956666D01*
X185728339Y-103912319D01*
X185830468Y-103810189D01*
X185830469Y-103810188D01*
X185830472Y-103810185D01*
X185918478Y-103664606D01*
X185969086Y-103502196D01*
X185975500Y-103431616D01*
X185975500Y-102918384D01*
X185969086Y-102847804D01*
X185918478Y-102685394D01*
X185830472Y-102539815D01*
X185830470Y-102539813D01*
X185830469Y-102539811D01*
X185710188Y-102419530D01*
X185564606Y-102331522D01*
X185490663Y-102308481D01*
X185402196Y-102280914D01*
X185402194Y-102280913D01*
X185402192Y-102280913D01*
X185352778Y-102276423D01*
X185331616Y-102274500D01*
X185331613Y-102274500D01*
X185316519Y-102274500D01*
X185249480Y-102254815D01*
X185228838Y-102238181D01*
X184868851Y-101878194D01*
X184841175Y-101827510D01*
X184838505Y-101828378D01*
X184818913Y-101768081D01*
X184781250Y-101652165D01*
X184691859Y-101497335D01*
X184620276Y-101417834D01*
X184572235Y-101364478D01*
X184572232Y-101364476D01*
X184572231Y-101364475D01*
X184572230Y-101364474D01*
X184427593Y-101259388D01*
X184264267Y-101186671D01*
X184264265Y-101186670D01*
X184136594Y-101159533D01*
X184089391Y-101149500D01*
X183910609Y-101149500D01*
X183879954Y-101156015D01*
X183735733Y-101186670D01*
X183735728Y-101186672D01*
X183572408Y-101259387D01*
X183427768Y-101364475D01*
X183308140Y-101497336D01*
X183218750Y-101652164D01*
X183218748Y-101652168D01*
X183182956Y-101762325D01*
X183143518Y-101820000D01*
X183079159Y-101847198D01*
X183010313Y-101835283D01*
X182977344Y-101811687D01*
X182736819Y-101571162D01*
X182703334Y-101509839D01*
X182700500Y-101483481D01*
X182700500Y-100520923D01*
X182717113Y-100458923D01*
X182732701Y-100431924D01*
X182781250Y-100347835D01*
X182836497Y-100177803D01*
X182855185Y-100000000D01*
X182836497Y-99822197D01*
X182781250Y-99652165D01*
X182691859Y-99497335D01*
X182622226Y-99420000D01*
X182572235Y-99364478D01*
X182572232Y-99364476D01*
X182572231Y-99364475D01*
X182572230Y-99364474D01*
X182427593Y-99259388D01*
X182264267Y-99186671D01*
X182264265Y-99186670D01*
X182126426Y-99157372D01*
X182089391Y-99149500D01*
X181910609Y-99149500D01*
X181910608Y-99149500D01*
X181850280Y-99162323D01*
X181780613Y-99157007D01*
X181724880Y-99114870D01*
X181700775Y-99049290D01*
X181700500Y-99041033D01*
X181700500Y-97918207D01*
X181720185Y-97851168D01*
X181743380Y-97825584D01*
X181743243Y-97825447D01*
X181746050Y-97822639D01*
X181747595Y-97820936D01*
X181748339Y-97820346D01*
X181748350Y-97820340D01*
X181831871Y-97736819D01*
X181893194Y-97703334D01*
X181919552Y-97700500D01*
X183068996Y-97700500D01*
X183160040Y-97682389D01*
X183204328Y-97673580D01*
X183280195Y-97642155D01*
X183331807Y-97620777D01*
X183331808Y-97620776D01*
X183331811Y-97620775D01*
X183446543Y-97544114D01*
X183446544Y-97544112D01*
X183446548Y-97544110D01*
X183447331Y-97543468D01*
X183447821Y-97543259D01*
X183451609Y-97540729D01*
X183452088Y-97541446D01*
X183511639Y-97516151D01*
X183580507Y-97527939D01*
X183632070Y-97575089D01*
X183650000Y-97639317D01*
X183650000Y-98290000D01*
X184566988Y-98290000D01*
X184534075Y-98347007D01*
X184500000Y-98474174D01*
X184500000Y-98605826D01*
X184534075Y-98732993D01*
X184566988Y-98790000D01*
X183650000Y-98790000D01*
X183650000Y-99437844D01*
X183656401Y-99497372D01*
X183656403Y-99497379D01*
X183706645Y-99632086D01*
X183706649Y-99632093D01*
X183792809Y-99747187D01*
X183792812Y-99747190D01*
X183907906Y-99833350D01*
X183907913Y-99833354D01*
X184042620Y-99883596D01*
X184042627Y-99883598D01*
X184102155Y-99889999D01*
X184102172Y-99890000D01*
X184750000Y-99890000D01*
X184750000Y-98973012D01*
X184807007Y-99005925D01*
X184934174Y-99040000D01*
X185065826Y-99040000D01*
X185192993Y-99005925D01*
X185250000Y-98973012D01*
X185250000Y-99890000D01*
X185897828Y-99890000D01*
X185897844Y-99889999D01*
X185957372Y-99883598D01*
X185957379Y-99883596D01*
X186092086Y-99833354D01*
X186092093Y-99833350D01*
X186207187Y-99747190D01*
X186207190Y-99747187D01*
X186293350Y-99632093D01*
X186293354Y-99632086D01*
X186343596Y-99497379D01*
X186343598Y-99497372D01*
X186349999Y-99437844D01*
X186350000Y-99437827D01*
X186350000Y-98790000D01*
X185433012Y-98790000D01*
X185465925Y-98732993D01*
X185500000Y-98605826D01*
X185500000Y-98474174D01*
X185465925Y-98347007D01*
X185433012Y-98290000D01*
X186350000Y-98290000D01*
X186350000Y-97642172D01*
X186349999Y-97642155D01*
X186343598Y-97582627D01*
X186343596Y-97582620D01*
X186293354Y-97447913D01*
X186293350Y-97447906D01*
X186207190Y-97332812D01*
X186207187Y-97332809D01*
X186092093Y-97246649D01*
X186092088Y-97246646D01*
X185960528Y-97197577D01*
X185904595Y-97155705D01*
X185880178Y-97090241D01*
X185895030Y-97021968D01*
X185916175Y-96993720D01*
X186038495Y-96871401D01*
X186174035Y-96677830D01*
X186273903Y-96463663D01*
X186335063Y-96235408D01*
X186355659Y-96000000D01*
X186353545Y-95975843D01*
X186345835Y-95887710D01*
X186335063Y-95764592D01*
X186273903Y-95536337D01*
X186174035Y-95322171D01*
X186148024Y-95285022D01*
X186038494Y-95128597D01*
X185871402Y-94961506D01*
X185871395Y-94961501D01*
X185847776Y-94944963D01*
X185797496Y-94909756D01*
X185677834Y-94825967D01*
X185677830Y-94825965D01*
X185587439Y-94783815D01*
X185463663Y-94726097D01*
X185463659Y-94726096D01*
X185463655Y-94726094D01*
X185235413Y-94664938D01*
X185235403Y-94664936D01*
X185000001Y-94644341D01*
X184999999Y-94644341D01*
X184764596Y-94664936D01*
X184764586Y-94664938D01*
X184536344Y-94726094D01*
X184536335Y-94726098D01*
X184322171Y-94825964D01*
X184322169Y-94825965D01*
X184128597Y-94961505D01*
X183961505Y-95128598D01*
X183854877Y-95280877D01*
X183800756Y-95324314D01*
X183668190Y-95379224D01*
X183553454Y-95455887D01*
X183553453Y-95455888D01*
X182746162Y-96263181D01*
X182684839Y-96296666D01*
X182658481Y-96299500D01*
X181919552Y-96299500D01*
X181852513Y-96279815D01*
X181831871Y-96263181D01*
X181748351Y-96179661D01*
X181748350Y-96179660D01*
X181654935Y-96122041D01*
X181601518Y-96089093D01*
X181601513Y-96089091D01*
X181579486Y-96081792D01*
X181437753Y-96034826D01*
X181437751Y-96034825D01*
X181336684Y-96024500D01*
X181336677Y-96024500D01*
X181066519Y-96024500D01*
X180999480Y-96004815D01*
X180978838Y-95988181D01*
X173902839Y-88912181D01*
X173869354Y-88850858D01*
X173874338Y-88781166D01*
X173916210Y-88725233D01*
X173981674Y-88700816D01*
X173990520Y-88700500D01*
X176058481Y-88700500D01*
X176125520Y-88720185D01*
X176146162Y-88736819D01*
X179553453Y-92144111D01*
X179553454Y-92144112D01*
X179668192Y-92220777D01*
X179795667Y-92273578D01*
X179795672Y-92273580D01*
X179795676Y-92273580D01*
X179795677Y-92273581D01*
X179931003Y-92300500D01*
X179931006Y-92300500D01*
X179931007Y-92300500D01*
X184258481Y-92300500D01*
X184325520Y-92320185D01*
X184346162Y-92336819D01*
X187637348Y-95628005D01*
X187670833Y-95689328D01*
X187669442Y-95747778D01*
X187664939Y-95764584D01*
X187664936Y-95764597D01*
X187644341Y-95999999D01*
X187644341Y-96000000D01*
X187664936Y-96235403D01*
X187664938Y-96235413D01*
X187726094Y-96463655D01*
X187726096Y-96463659D01*
X187726097Y-96463663D01*
X187773732Y-96565816D01*
X187825965Y-96677830D01*
X187825967Y-96677834D01*
X187913082Y-96802246D01*
X187961501Y-96871396D01*
X187961506Y-96871402D01*
X188083818Y-96993714D01*
X188117303Y-97055037D01*
X188112319Y-97124729D01*
X188070447Y-97180662D01*
X188039471Y-97197577D01*
X187907912Y-97246646D01*
X187907906Y-97246649D01*
X187792812Y-97332809D01*
X187792809Y-97332812D01*
X187706649Y-97447906D01*
X187706645Y-97447913D01*
X187656403Y-97582620D01*
X187656401Y-97582627D01*
X187650000Y-97642155D01*
X187650000Y-98290000D01*
X188566988Y-98290000D01*
X188534075Y-98347007D01*
X188500000Y-98474174D01*
X188500000Y-98605826D01*
X188534075Y-98732993D01*
X188566988Y-98790000D01*
X187650000Y-98790000D01*
X187650000Y-99437844D01*
X187656401Y-99497372D01*
X187656403Y-99497379D01*
X187706645Y-99632086D01*
X187706649Y-99632093D01*
X187792809Y-99747187D01*
X187792812Y-99747190D01*
X187907906Y-99833350D01*
X187907913Y-99833354D01*
X188042620Y-99883596D01*
X188042627Y-99883598D01*
X188102155Y-99889999D01*
X188102172Y-99890000D01*
X188750000Y-99890000D01*
X188750000Y-98973012D01*
X188807007Y-99005925D01*
X188934174Y-99040000D01*
X189065826Y-99040000D01*
X189192993Y-99005925D01*
X189250000Y-98973012D01*
X189250000Y-99890000D01*
X189897828Y-99890000D01*
X189897844Y-99889999D01*
X189957372Y-99883598D01*
X189957379Y-99883596D01*
X190092086Y-99833354D01*
X190092093Y-99833350D01*
X190207187Y-99747190D01*
X190207190Y-99747187D01*
X190293350Y-99632093D01*
X190293354Y-99632086D01*
X190343596Y-99497379D01*
X190343598Y-99497372D01*
X190349999Y-99437844D01*
X190350000Y-99437827D01*
X190350000Y-98790000D01*
X189433012Y-98790000D01*
X189465925Y-98732993D01*
X189500000Y-98605826D01*
X189500000Y-98474174D01*
X189465925Y-98347007D01*
X189433012Y-98290000D01*
X190350000Y-98290000D01*
X190350000Y-97642172D01*
X190349999Y-97642155D01*
X190343598Y-97582627D01*
X190343596Y-97582620D01*
X190293354Y-97447913D01*
X190293350Y-97447906D01*
X190207190Y-97332812D01*
X190207187Y-97332809D01*
X190092093Y-97246649D01*
X190092088Y-97246646D01*
X189960528Y-97197577D01*
X189904595Y-97155705D01*
X189880178Y-97090241D01*
X189895030Y-97021968D01*
X189916175Y-96993720D01*
X190038495Y-96871401D01*
X190174035Y-96677830D01*
X190273903Y-96463663D01*
X190335063Y-96235408D01*
X190355659Y-96000000D01*
X190353545Y-95975843D01*
X190345835Y-95887710D01*
X190335063Y-95764592D01*
X190273903Y-95536337D01*
X190174035Y-95322171D01*
X190148024Y-95285022D01*
X190038494Y-95128597D01*
X189871402Y-94961506D01*
X189871395Y-94961501D01*
X189847776Y-94944963D01*
X189797496Y-94909756D01*
X189677834Y-94825967D01*
X189677830Y-94825965D01*
X189587439Y-94783815D01*
X189463663Y-94726097D01*
X189463659Y-94726096D01*
X189463655Y-94726094D01*
X189235413Y-94664938D01*
X189235403Y-94664936D01*
X189000001Y-94644341D01*
X188999999Y-94644341D01*
X188764597Y-94664936D01*
X188764593Y-94664936D01*
X188764592Y-94664937D01*
X188764587Y-94664938D01*
X188764584Y-94664939D01*
X188747778Y-94669442D01*
X188677928Y-94667778D01*
X188628005Y-94637348D01*
X185046546Y-91055888D01*
X185046545Y-91055887D01*
X184931807Y-90979222D01*
X184804332Y-90926421D01*
X184804322Y-90926418D01*
X184668996Y-90899500D01*
X184668994Y-90899500D01*
X184668993Y-90899500D01*
X180341519Y-90899500D01*
X180274480Y-90879815D01*
X180253838Y-90863181D01*
X176846546Y-87455888D01*
X176846545Y-87455887D01*
X176731807Y-87379222D01*
X176604332Y-87326421D01*
X176604322Y-87326418D01*
X176468996Y-87299500D01*
X176468994Y-87299500D01*
X176468993Y-87299500D01*
X170523093Y-87299500D01*
X170456054Y-87279815D01*
X170450208Y-87275818D01*
X170427597Y-87259390D01*
X170415127Y-87253838D01*
X170264267Y-87186671D01*
X170264265Y-87186670D01*
X170264266Y-87186670D01*
X170189786Y-87170839D01*
X170128305Y-87137646D01*
X170127887Y-87137230D01*
X169496546Y-86505888D01*
X169496545Y-86505887D01*
X169381807Y-86429222D01*
X169254332Y-86376421D01*
X169254322Y-86376418D01*
X169118996Y-86349500D01*
X169118994Y-86349500D01*
X169118993Y-86349500D01*
X157924500Y-86349500D01*
X157857461Y-86329815D01*
X157811706Y-86277011D01*
X157800500Y-86225500D01*
X157800500Y-86159313D01*
X157800499Y-86159298D01*
X157797598Y-86122432D01*
X157797597Y-86122426D01*
X157762027Y-85999995D01*
X177824816Y-85999995D01*
X177824816Y-86000004D01*
X177843524Y-86249663D01*
X177843525Y-86249668D01*
X177899236Y-86493755D01*
X177899238Y-86493764D01*
X177899240Y-86493769D01*
X177990711Y-86726835D01*
X178115898Y-86943665D01*
X178241981Y-87101768D01*
X178272006Y-87139418D01*
X178401306Y-87259390D01*
X178455540Y-87309712D01*
X178662408Y-87450752D01*
X178662413Y-87450754D01*
X178662414Y-87450755D01*
X178662415Y-87450756D01*
X178782218Y-87508449D01*
X178887983Y-87559383D01*
X178887984Y-87559383D01*
X178887987Y-87559385D01*
X179127236Y-87633184D01*
X179127237Y-87633184D01*
X179127240Y-87633185D01*
X179374805Y-87670499D01*
X179374810Y-87670499D01*
X179374813Y-87670500D01*
X179374814Y-87670500D01*
X179625186Y-87670500D01*
X179625187Y-87670500D01*
X179625194Y-87670499D01*
X179872759Y-87633185D01*
X179872760Y-87633184D01*
X179872764Y-87633184D01*
X180112013Y-87559385D01*
X180337592Y-87450752D01*
X180544460Y-87309712D01*
X180727997Y-87139414D01*
X180884102Y-86943665D01*
X181009289Y-86726835D01*
X181100760Y-86493769D01*
X181156474Y-86249673D01*
X181156475Y-86249663D01*
X181175184Y-86000004D01*
X181175184Y-85999995D01*
X181156475Y-85750336D01*
X181156474Y-85750331D01*
X181156474Y-85750327D01*
X181100760Y-85506231D01*
X181009289Y-85273165D01*
X180884102Y-85056335D01*
X180727997Y-84860586D01*
X180727996Y-84860585D01*
X180727993Y-84860581D01*
X180544460Y-84690288D01*
X180488551Y-84652170D01*
X180337592Y-84549248D01*
X180337588Y-84549246D01*
X180337585Y-84549244D01*
X180337584Y-84549243D01*
X180112015Y-84440616D01*
X180112017Y-84440616D01*
X179872765Y-84366816D01*
X179872759Y-84366814D01*
X179625194Y-84329500D01*
X179625187Y-84329500D01*
X179374813Y-84329500D01*
X179374805Y-84329500D01*
X179127240Y-84366814D01*
X179127234Y-84366816D01*
X178887983Y-84440616D01*
X178662415Y-84549243D01*
X178662414Y-84549244D01*
X178455539Y-84690288D01*
X178272006Y-84860581D01*
X178115898Y-85056335D01*
X177990711Y-85273164D01*
X177899242Y-85506225D01*
X177899236Y-85506244D01*
X177843525Y-85750331D01*
X177843524Y-85750336D01*
X177824816Y-85999995D01*
X157762027Y-85999995D01*
X157751745Y-85964606D01*
X157751744Y-85964603D01*
X157751744Y-85964602D01*
X157668081Y-85823135D01*
X157668079Y-85823133D01*
X157668076Y-85823129D01*
X157551870Y-85706923D01*
X157551862Y-85706917D01*
X157473681Y-85660681D01*
X157410398Y-85623256D01*
X157410397Y-85623255D01*
X157410396Y-85623255D01*
X157410393Y-85623254D01*
X157252573Y-85577402D01*
X157252567Y-85577401D01*
X157215701Y-85574500D01*
X157215694Y-85574500D01*
X156784306Y-85574500D01*
X156784298Y-85574500D01*
X156747432Y-85577401D01*
X156747426Y-85577402D01*
X156589606Y-85623254D01*
X156589603Y-85623255D01*
X156448137Y-85706917D01*
X156441969Y-85711702D01*
X156440072Y-85709256D01*
X156391358Y-85735857D01*
X156321666Y-85730873D01*
X156289296Y-85710069D01*
X156288031Y-85711702D01*
X156281862Y-85706917D01*
X156203681Y-85660681D01*
X156140398Y-85623256D01*
X156140397Y-85623255D01*
X156140396Y-85623255D01*
X156140393Y-85623254D01*
X155982573Y-85577402D01*
X155982567Y-85577401D01*
X155945701Y-85574500D01*
X155945694Y-85574500D01*
X155514306Y-85574500D01*
X155514298Y-85574500D01*
X155477432Y-85577401D01*
X155477426Y-85577402D01*
X155319606Y-85623254D01*
X155319603Y-85623255D01*
X155178137Y-85706917D01*
X155171969Y-85711702D01*
X155170072Y-85709256D01*
X155121358Y-85735857D01*
X155051666Y-85730873D01*
X155019296Y-85710069D01*
X155018031Y-85711702D01*
X155011862Y-85706917D01*
X154933681Y-85660681D01*
X154870398Y-85623256D01*
X154870397Y-85623255D01*
X154870396Y-85623255D01*
X154870393Y-85623254D01*
X154809745Y-85605634D01*
X154750859Y-85568028D01*
X154721653Y-85504555D01*
X154731399Y-85435369D01*
X154736940Y-85424582D01*
X154781250Y-85347835D01*
X154836497Y-85177803D01*
X154836497Y-85177801D01*
X154838505Y-85171622D01*
X154841310Y-85172533D01*
X154868304Y-85122354D01*
X154868656Y-85121999D01*
X155253838Y-84736819D01*
X155315161Y-84703334D01*
X155341519Y-84700500D01*
X155533480Y-84700500D01*
X155600519Y-84720185D01*
X155621161Y-84736819D01*
X155714811Y-84830469D01*
X155714813Y-84830470D01*
X155714815Y-84830472D01*
X155860394Y-84918478D01*
X156022804Y-84969086D01*
X156093384Y-84975500D01*
X156093387Y-84975500D01*
X156606613Y-84975500D01*
X156606616Y-84975500D01*
X156677196Y-84969086D01*
X156839606Y-84918478D01*
X156985185Y-84830472D01*
X157022645Y-84793012D01*
X157087319Y-84728339D01*
X157148642Y-84694854D01*
X157218334Y-84699838D01*
X157262681Y-84728339D01*
X157364811Y-84830469D01*
X157364813Y-84830470D01*
X157364815Y-84830472D01*
X157510394Y-84918478D01*
X157672804Y-84969086D01*
X157743384Y-84975500D01*
X157933481Y-84975500D01*
X158000520Y-84995185D01*
X158021162Y-85011819D01*
X158131148Y-85121805D01*
X158158824Y-85172490D01*
X158161495Y-85171623D01*
X158218747Y-85347829D01*
X158218748Y-85347830D01*
X158218750Y-85347835D01*
X158308141Y-85502665D01*
X158311364Y-85506244D01*
X158427764Y-85635521D01*
X158427767Y-85635523D01*
X158427770Y-85635526D01*
X158572407Y-85740612D01*
X158735733Y-85813329D01*
X158910609Y-85850500D01*
X158910610Y-85850500D01*
X159089389Y-85850500D01*
X159089391Y-85850500D01*
X159264267Y-85813329D01*
X159427593Y-85740612D01*
X159572230Y-85635526D01*
X159691859Y-85502665D01*
X159781250Y-85347835D01*
X159836497Y-85177803D01*
X159855185Y-85000000D01*
X159836497Y-84822197D01*
X159797782Y-84703044D01*
X159781252Y-84652170D01*
X159781249Y-84652164D01*
X159748345Y-84595172D01*
X159691859Y-84497335D01*
X159640788Y-84440615D01*
X159572235Y-84364478D01*
X159572232Y-84364476D01*
X159572231Y-84364475D01*
X159572230Y-84364474D01*
X159427593Y-84259388D01*
X159264267Y-84186671D01*
X159264265Y-84186670D01*
X159264266Y-84186670D01*
X159189786Y-84170839D01*
X159128305Y-84137646D01*
X159127887Y-84137230D01*
X158936819Y-83946162D01*
X158903334Y-83884839D01*
X158900500Y-83858481D01*
X158900500Y-83668386D01*
X158894494Y-83602292D01*
X158894086Y-83597804D01*
X158843478Y-83435394D01*
X158755472Y-83289815D01*
X158755470Y-83289813D01*
X158755469Y-83289811D01*
X158635188Y-83169530D01*
X158489606Y-83081522D01*
X158414524Y-83058126D01*
X158327196Y-83030914D01*
X158327194Y-83030913D01*
X158327192Y-83030913D01*
X158277778Y-83026423D01*
X158256616Y-83024500D01*
X157743384Y-83024500D01*
X157724145Y-83026248D01*
X157672807Y-83030913D01*
X157510393Y-83081522D01*
X157364811Y-83169530D01*
X157364810Y-83169531D01*
X157262681Y-83271661D01*
X157201358Y-83305146D01*
X157131666Y-83300162D01*
X157087319Y-83271661D01*
X156985188Y-83169530D01*
X156839606Y-83081522D01*
X156764524Y-83058126D01*
X156677196Y-83030914D01*
X156677194Y-83030913D01*
X156677192Y-83030913D01*
X156627778Y-83026423D01*
X156606616Y-83024500D01*
X156093384Y-83024500D01*
X156074145Y-83026248D01*
X156022807Y-83030913D01*
X155860393Y-83081522D01*
X155714811Y-83169530D01*
X155714810Y-83169531D01*
X155621161Y-83263181D01*
X155559838Y-83296666D01*
X155533480Y-83299500D01*
X155341519Y-83299500D01*
X155274480Y-83279815D01*
X155253838Y-83263181D01*
X154990656Y-82999999D01*
X160644341Y-82999999D01*
X160644341Y-83000000D01*
X160664936Y-83235403D01*
X160664938Y-83235413D01*
X160726094Y-83463655D01*
X160726096Y-83463659D01*
X160726097Y-83463663D01*
X160782024Y-83583599D01*
X160825965Y-83677830D01*
X160825967Y-83677834D01*
X160934281Y-83832521D01*
X160961505Y-83871401D01*
X161128599Y-84038495D01*
X161198844Y-84087681D01*
X161322165Y-84174032D01*
X161322167Y-84174033D01*
X161322170Y-84174035D01*
X161536337Y-84273903D01*
X161764592Y-84335063D01*
X161952918Y-84351539D01*
X161999999Y-84355659D01*
X162000000Y-84355659D01*
X162000001Y-84355659D01*
X162039234Y-84352226D01*
X162235408Y-84335063D01*
X162463663Y-84273903D01*
X162677830Y-84174035D01*
X162871401Y-84038495D01*
X163038495Y-83871401D01*
X163174035Y-83677830D01*
X163273903Y-83463663D01*
X163335063Y-83235408D01*
X163355659Y-83000000D01*
X163335063Y-82764592D01*
X163273903Y-82536337D01*
X163174035Y-82322171D01*
X163165311Y-82309712D01*
X163038496Y-82128600D01*
X162978890Y-82068994D01*
X162916179Y-82006283D01*
X162882696Y-81944963D01*
X162887680Y-81875271D01*
X162929551Y-81819337D01*
X162960529Y-81802422D01*
X163092086Y-81753354D01*
X163092093Y-81753350D01*
X163207187Y-81667190D01*
X163207190Y-81667187D01*
X163293350Y-81552093D01*
X163293354Y-81552086D01*
X163343596Y-81417379D01*
X163343598Y-81417372D01*
X163349999Y-81357844D01*
X163350000Y-81357827D01*
X163350000Y-80999995D01*
X165324816Y-80999995D01*
X165324816Y-81000004D01*
X165343524Y-81249663D01*
X165343525Y-81249668D01*
X165399236Y-81493755D01*
X165399238Y-81493764D01*
X165399240Y-81493769D01*
X165490711Y-81726835D01*
X165615898Y-81943665D01*
X165741981Y-82101768D01*
X165772006Y-82139418D01*
X165945264Y-82300177D01*
X165955540Y-82309712D01*
X166162408Y-82450752D01*
X166162413Y-82450754D01*
X166162414Y-82450755D01*
X166162415Y-82450756D01*
X166282218Y-82508449D01*
X166387983Y-82559383D01*
X166387984Y-82559383D01*
X166387987Y-82559385D01*
X166627236Y-82633184D01*
X166627237Y-82633184D01*
X166627240Y-82633185D01*
X166874805Y-82670499D01*
X166874810Y-82670499D01*
X166874813Y-82670500D01*
X166874814Y-82670500D01*
X167125186Y-82670500D01*
X167125187Y-82670500D01*
X167125194Y-82670499D01*
X167372759Y-82633185D01*
X167372760Y-82633184D01*
X167372764Y-82633184D01*
X167612013Y-82559385D01*
X167837592Y-82450752D01*
X168044460Y-82309712D01*
X168227997Y-82139414D01*
X168384102Y-81943665D01*
X168423491Y-81875441D01*
X186099500Y-81875441D01*
X186099500Y-82124558D01*
X186099501Y-82124575D01*
X186132017Y-82371561D01*
X186196498Y-82612207D01*
X186291830Y-82842361D01*
X186291837Y-82842376D01*
X186416400Y-83058126D01*
X186568060Y-83255774D01*
X186568066Y-83255781D01*
X186744218Y-83431933D01*
X186744225Y-83431939D01*
X186941873Y-83583599D01*
X187157623Y-83708162D01*
X187157638Y-83708169D01*
X187256825Y-83749253D01*
X187387793Y-83803502D01*
X187628435Y-83867982D01*
X187875435Y-83900500D01*
X187875442Y-83900500D01*
X188124558Y-83900500D01*
X188124565Y-83900500D01*
X188371565Y-83867982D01*
X188612207Y-83803502D01*
X188842373Y-83708164D01*
X189058127Y-83583599D01*
X189255776Y-83431938D01*
X189431938Y-83255776D01*
X189583599Y-83058127D01*
X189708164Y-82842373D01*
X189803502Y-82612207D01*
X189867982Y-82371565D01*
X189900500Y-82124565D01*
X189900500Y-81875435D01*
X189867982Y-81628435D01*
X189803502Y-81387793D01*
X189728694Y-81207190D01*
X189708169Y-81157638D01*
X189708162Y-81157623D01*
X189583599Y-80941873D01*
X189431939Y-80744225D01*
X189431933Y-80744218D01*
X189255781Y-80568066D01*
X189255774Y-80568060D01*
X189058126Y-80416400D01*
X188842376Y-80291837D01*
X188842361Y-80291830D01*
X188612207Y-80196498D01*
X188599126Y-80192993D01*
X188371565Y-80132018D01*
X188371564Y-80132017D01*
X188371561Y-80132017D01*
X188124575Y-80099501D01*
X188124570Y-80099500D01*
X188124565Y-80099500D01*
X187875435Y-80099500D01*
X187875429Y-80099500D01*
X187875424Y-80099501D01*
X187628438Y-80132017D01*
X187387792Y-80196498D01*
X187157638Y-80291830D01*
X187157623Y-80291837D01*
X186941873Y-80416400D01*
X186744225Y-80568060D01*
X186744218Y-80568066D01*
X186568066Y-80744218D01*
X186568060Y-80744225D01*
X186416400Y-80941873D01*
X186291837Y-81157623D01*
X186291830Y-81157638D01*
X186196498Y-81387792D01*
X186132017Y-81628438D01*
X186099501Y-81875424D01*
X186099500Y-81875441D01*
X168423491Y-81875441D01*
X168509289Y-81726835D01*
X168600760Y-81493769D01*
X168656474Y-81249673D01*
X168659658Y-81207187D01*
X168675184Y-81000004D01*
X168675184Y-80999995D01*
X168656475Y-80750336D01*
X168656474Y-80750331D01*
X168656474Y-80750327D01*
X168600760Y-80506231D01*
X168509289Y-80273165D01*
X168384102Y-80056335D01*
X168227997Y-79860586D01*
X168227996Y-79860585D01*
X168227993Y-79860581D01*
X168044460Y-79690288D01*
X167911886Y-79599901D01*
X167837592Y-79549248D01*
X167837588Y-79549246D01*
X167837585Y-79549244D01*
X167837584Y-79549243D01*
X167612015Y-79440616D01*
X167612017Y-79440616D01*
X167372765Y-79366816D01*
X167372759Y-79366814D01*
X167125194Y-79329500D01*
X167125187Y-79329500D01*
X166874813Y-79329500D01*
X166874805Y-79329500D01*
X166627240Y-79366814D01*
X166627234Y-79366816D01*
X166387983Y-79440616D01*
X166162415Y-79549243D01*
X166162414Y-79549244D01*
X165955539Y-79690288D01*
X165772006Y-79860581D01*
X165615898Y-80056335D01*
X165490711Y-80273164D01*
X165399242Y-80506225D01*
X165399236Y-80506244D01*
X165343525Y-80750331D01*
X165343524Y-80750336D01*
X165324816Y-80999995D01*
X163350000Y-80999995D01*
X163350000Y-80710000D01*
X162433012Y-80710000D01*
X162465925Y-80652993D01*
X162500000Y-80525826D01*
X162500000Y-80394174D01*
X162465925Y-80267007D01*
X162433012Y-80210000D01*
X163350000Y-80210000D01*
X163350000Y-79562172D01*
X163349999Y-79562155D01*
X163343598Y-79502627D01*
X163343596Y-79502620D01*
X163293354Y-79367913D01*
X163293350Y-79367906D01*
X163207190Y-79252812D01*
X163207187Y-79252809D01*
X163092093Y-79166649D01*
X163092086Y-79166645D01*
X162957379Y-79116403D01*
X162957372Y-79116401D01*
X162897844Y-79110000D01*
X162250000Y-79110000D01*
X162250000Y-80026988D01*
X162192993Y-79994075D01*
X162065826Y-79960000D01*
X161934174Y-79960000D01*
X161807007Y-79994075D01*
X161750000Y-80026988D01*
X161750000Y-79110000D01*
X161102155Y-79110000D01*
X161042627Y-79116401D01*
X161042620Y-79116403D01*
X160907913Y-79166645D01*
X160907906Y-79166649D01*
X160792812Y-79252809D01*
X160792809Y-79252812D01*
X160706649Y-79367906D01*
X160706645Y-79367913D01*
X160656403Y-79502620D01*
X160656401Y-79502627D01*
X160650000Y-79562155D01*
X160650000Y-80210000D01*
X161566988Y-80210000D01*
X161534075Y-80267007D01*
X161500000Y-80394174D01*
X161500000Y-80525826D01*
X161534075Y-80652993D01*
X161566988Y-80710000D01*
X160650000Y-80710000D01*
X160650000Y-81357844D01*
X160656401Y-81417372D01*
X160656403Y-81417379D01*
X160706645Y-81552086D01*
X160706649Y-81552093D01*
X160792809Y-81667187D01*
X160792812Y-81667190D01*
X160907906Y-81753350D01*
X160907913Y-81753354D01*
X161039470Y-81802421D01*
X161095403Y-81844292D01*
X161119821Y-81909756D01*
X161104970Y-81978029D01*
X161083819Y-82006284D01*
X160961503Y-82128600D01*
X160825965Y-82322169D01*
X160825964Y-82322171D01*
X160726098Y-82536335D01*
X160726094Y-82536344D01*
X160664938Y-82764586D01*
X160664936Y-82764596D01*
X160644341Y-82999999D01*
X154990656Y-82999999D01*
X153736819Y-81746162D01*
X153703334Y-81684839D01*
X153700500Y-81658481D01*
X153700500Y-81242406D01*
X153720185Y-81175367D01*
X153772989Y-81129612D01*
X153842147Y-81119668D01*
X153895625Y-81140832D01*
X153942420Y-81173599D01*
X154156507Y-81273429D01*
X154156516Y-81273433D01*
X154370000Y-81330634D01*
X154370000Y-80433012D01*
X154427007Y-80465925D01*
X154554174Y-80500000D01*
X154685826Y-80500000D01*
X154812993Y-80465925D01*
X154870000Y-80433012D01*
X154870000Y-81330633D01*
X155083483Y-81273433D01*
X155083492Y-81273429D01*
X155297578Y-81173600D01*
X155491082Y-81038105D01*
X155658105Y-80871082D01*
X155793600Y-80677578D01*
X155893429Y-80463492D01*
X155893432Y-80463486D01*
X155950636Y-80250000D01*
X155053012Y-80250000D01*
X155085925Y-80192993D01*
X155120000Y-80065826D01*
X155120000Y-79934174D01*
X155085925Y-79807007D01*
X155053012Y-79750000D01*
X155950636Y-79750000D01*
X155950635Y-79749999D01*
X155893432Y-79536513D01*
X155893429Y-79536507D01*
X155793600Y-79322422D01*
X155793599Y-79322420D01*
X155658113Y-79128926D01*
X155658108Y-79128920D01*
X155491082Y-78961894D01*
X155297578Y-78826399D01*
X155083492Y-78726570D01*
X155083486Y-78726567D01*
X154870000Y-78669364D01*
X154870000Y-79566988D01*
X154812993Y-79534075D01*
X154685826Y-79500000D01*
X154554174Y-79500000D01*
X154427007Y-79534075D01*
X154370000Y-79566988D01*
X154370000Y-78669364D01*
X154369999Y-78669364D01*
X154156513Y-78726567D01*
X154156507Y-78726570D01*
X153942422Y-78826399D01*
X153942420Y-78826400D01*
X153748926Y-78961886D01*
X153748920Y-78961891D01*
X153581891Y-79128920D01*
X153581890Y-79128922D01*
X153451880Y-79314595D01*
X153397303Y-79358219D01*
X153327804Y-79365412D01*
X153265450Y-79333890D01*
X153248730Y-79314594D01*
X153118494Y-79128597D01*
X152951402Y-78961506D01*
X152951395Y-78961501D01*
X152757834Y-78825967D01*
X152757830Y-78825965D01*
X152686727Y-78792809D01*
X152543663Y-78726097D01*
X152543659Y-78726096D01*
X152543655Y-78726094D01*
X152315413Y-78664938D01*
X152315403Y-78664936D01*
X152080001Y-78644341D01*
X152079999Y-78644341D01*
X151844596Y-78664936D01*
X151844586Y-78664938D01*
X151616344Y-78726094D01*
X151616335Y-78726098D01*
X151402171Y-78825964D01*
X151402169Y-78825965D01*
X151208597Y-78961505D01*
X151041506Y-79128596D01*
X150958864Y-79246623D01*
X150904287Y-79290248D01*
X150857289Y-79299500D01*
X150762711Y-79299500D01*
X150695672Y-79279815D01*
X150661136Y-79246623D01*
X150578494Y-79128597D01*
X150411402Y-78961506D01*
X150411395Y-78961501D01*
X150217834Y-78825967D01*
X150217830Y-78825965D01*
X150146727Y-78792809D01*
X150003663Y-78726097D01*
X150003659Y-78726096D01*
X150003655Y-78726094D01*
X149775413Y-78664938D01*
X149775403Y-78664936D01*
X149540001Y-78644341D01*
X149539999Y-78644341D01*
X149304596Y-78664936D01*
X149304586Y-78664938D01*
X149076344Y-78726094D01*
X149076335Y-78726098D01*
X148862171Y-78825964D01*
X148862169Y-78825965D01*
X148668600Y-78961503D01*
X148546284Y-79083819D01*
X148484961Y-79117303D01*
X148415269Y-79112319D01*
X148359336Y-79070447D01*
X148342421Y-79039470D01*
X148293354Y-78907913D01*
X148293350Y-78907906D01*
X148207190Y-78792812D01*
X148207187Y-78792809D01*
X148092093Y-78706649D01*
X148092086Y-78706645D01*
X147957379Y-78656403D01*
X147957372Y-78656401D01*
X147897844Y-78650000D01*
X147250000Y-78650000D01*
X147250000Y-79566988D01*
X147192993Y-79534075D01*
X147065826Y-79500000D01*
X146934174Y-79500000D01*
X146807007Y-79534075D01*
X146750000Y-79566988D01*
X146750000Y-78650000D01*
X146102155Y-78650000D01*
X146042627Y-78656401D01*
X146042620Y-78656403D01*
X145907913Y-78706645D01*
X145907906Y-78706649D01*
X145792812Y-78792809D01*
X145792809Y-78792812D01*
X145706649Y-78907906D01*
X145706645Y-78907913D01*
X145656403Y-79042620D01*
X145656401Y-79042627D01*
X145650000Y-79102155D01*
X145650000Y-79750000D01*
X146566988Y-79750000D01*
X146534075Y-79807007D01*
X146500000Y-79934174D01*
X146500000Y-80065826D01*
X146534075Y-80192993D01*
X146566988Y-80250000D01*
X145650000Y-80250000D01*
X145650000Y-80897844D01*
X145656401Y-80957372D01*
X145656403Y-80957379D01*
X145706645Y-81092086D01*
X145706649Y-81092093D01*
X145792809Y-81207187D01*
X145792812Y-81207190D01*
X145907906Y-81293350D01*
X145907913Y-81293354D01*
X146042620Y-81343596D01*
X146042627Y-81343598D01*
X146102155Y-81349999D01*
X146102172Y-81350000D01*
X146750000Y-81350000D01*
X146750000Y-80433012D01*
X146807007Y-80465925D01*
X146934174Y-80500000D01*
X147065826Y-80500000D01*
X147192993Y-80465925D01*
X147250000Y-80433012D01*
X147250000Y-81350000D01*
X147897828Y-81350000D01*
X147897844Y-81349999D01*
X147957372Y-81343598D01*
X147957379Y-81343596D01*
X148092086Y-81293354D01*
X148092093Y-81293350D01*
X148207187Y-81207190D01*
X148207190Y-81207187D01*
X148293350Y-81092093D01*
X148293354Y-81092086D01*
X148342422Y-80960529D01*
X148384293Y-80904595D01*
X148449757Y-80880178D01*
X148518030Y-80895030D01*
X148546285Y-80916181D01*
X148668599Y-81038495D01*
X148745135Y-81092086D01*
X148862165Y-81174032D01*
X148862167Y-81174033D01*
X148862170Y-81174035D01*
X149076337Y-81273903D01*
X149304592Y-81335063D01*
X149475319Y-81350000D01*
X149539999Y-81355659D01*
X149540000Y-81355659D01*
X149540001Y-81355659D01*
X149604681Y-81350000D01*
X149775408Y-81335063D01*
X150003663Y-81273903D01*
X150217830Y-81174035D01*
X150411401Y-81038495D01*
X150578495Y-80871401D01*
X150661136Y-80753376D01*
X150715713Y-80709752D01*
X150762711Y-80700500D01*
X150857289Y-80700500D01*
X150924328Y-80720185D01*
X150958864Y-80753377D01*
X151041505Y-80871402D01*
X151127476Y-80957372D01*
X151208599Y-81038495D01*
X151285135Y-81092086D01*
X151402165Y-81174032D01*
X151402167Y-81174033D01*
X151402170Y-81174035D01*
X151616337Y-81273903D01*
X151844592Y-81335063D01*
X152080000Y-81355659D01*
X152164694Y-81348248D01*
X152233191Y-81362014D01*
X152283375Y-81410628D01*
X152299500Y-81471776D01*
X152299500Y-81931006D01*
X152299500Y-82068994D01*
X152299500Y-82068996D01*
X152299499Y-82068996D01*
X152326418Y-82204322D01*
X152326421Y-82204332D01*
X152379222Y-82331807D01*
X152455887Y-82446545D01*
X152455888Y-82446546D01*
X153921661Y-83912318D01*
X153955146Y-83973641D01*
X153950162Y-84043333D01*
X153921660Y-84087681D01*
X153872109Y-84137231D01*
X153810786Y-84170715D01*
X153810212Y-84170839D01*
X153735730Y-84186671D01*
X153735728Y-84186672D01*
X153572408Y-84259387D01*
X153427768Y-84364475D01*
X153308140Y-84497336D01*
X153218750Y-84652164D01*
X153218747Y-84652170D01*
X153163504Y-84822192D01*
X153163503Y-84822194D01*
X153144815Y-85000000D01*
X153163503Y-85177805D01*
X153163504Y-85177807D01*
X153218747Y-85347829D01*
X153218750Y-85347835D01*
X153242228Y-85388500D01*
X153258701Y-85456401D01*
X153235848Y-85522428D01*
X153180927Y-85565618D01*
X153134841Y-85574500D01*
X152974298Y-85574500D01*
X152937432Y-85577401D01*
X152937426Y-85577402D01*
X152779095Y-85623402D01*
X152709225Y-85623203D01*
X152650555Y-85585261D01*
X152621712Y-85521622D01*
X152620500Y-85504326D01*
X152620500Y-84844374D01*
X152640185Y-84777335D01*
X152656819Y-84756693D01*
X152676693Y-84736819D01*
X152710468Y-84703044D01*
X152799503Y-84558697D01*
X152852849Y-84397708D01*
X152863000Y-84298345D01*
X152862999Y-83701656D01*
X152859600Y-83668386D01*
X152852849Y-83602292D01*
X152852848Y-83602289D01*
X152846655Y-83583599D01*
X152799503Y-83441303D01*
X152799499Y-83441297D01*
X152799498Y-83441294D01*
X152710470Y-83296959D01*
X152710467Y-83296955D01*
X152590544Y-83177032D01*
X152590540Y-83177029D01*
X152446205Y-83088001D01*
X152446199Y-83087998D01*
X152446197Y-83087997D01*
X152356055Y-83058127D01*
X152285209Y-83034651D01*
X152185846Y-83024500D01*
X151639162Y-83024500D01*
X151639144Y-83024501D01*
X151539792Y-83034650D01*
X151539789Y-83034651D01*
X151378805Y-83087996D01*
X151378794Y-83088001D01*
X151234459Y-83177029D01*
X151234455Y-83177032D01*
X151225181Y-83186307D01*
X151163858Y-83219792D01*
X151094166Y-83214808D01*
X151049819Y-83186307D01*
X151040544Y-83177032D01*
X151040540Y-83177029D01*
X150896205Y-83088001D01*
X150896199Y-83087998D01*
X150896197Y-83087997D01*
X150806055Y-83058127D01*
X150735209Y-83034651D01*
X150635846Y-83024500D01*
X150089162Y-83024500D01*
X150089144Y-83024501D01*
X149989792Y-83034650D01*
X149989789Y-83034651D01*
X149828805Y-83087996D01*
X149828794Y-83088001D01*
X149684459Y-83177029D01*
X149684455Y-83177032D01*
X149598307Y-83263181D01*
X149536984Y-83296666D01*
X149510626Y-83299500D01*
X148641520Y-83299500D01*
X148574481Y-83279815D01*
X148553839Y-83263181D01*
X148460188Y-83169530D01*
X148314606Y-83081522D01*
X148239524Y-83058126D01*
X148152196Y-83030914D01*
X148152194Y-83030913D01*
X148152192Y-83030913D01*
X148102778Y-83026423D01*
X148081616Y-83024500D01*
X147568384Y-83024500D01*
X147549145Y-83026248D01*
X147497807Y-83030913D01*
X147335393Y-83081522D01*
X147189811Y-83169530D01*
X147189810Y-83169531D01*
X147087327Y-83272015D01*
X147026004Y-83305500D01*
X146956312Y-83300516D01*
X146911965Y-83272015D01*
X146809877Y-83169927D01*
X146664395Y-83081980D01*
X146664396Y-83081980D01*
X146502105Y-83031409D01*
X146502106Y-83031409D01*
X146431572Y-83025000D01*
X146425000Y-83025000D01*
X146425000Y-84974999D01*
X146431581Y-84974999D01*
X146502102Y-84968591D01*
X146502107Y-84968590D01*
X146664396Y-84918018D01*
X146809877Y-84830072D01*
X146809878Y-84830071D01*
X146911963Y-84727985D01*
X146973286Y-84694499D01*
X147042977Y-84699483D01*
X147087326Y-84727984D01*
X147189811Y-84830469D01*
X147189813Y-84830470D01*
X147189815Y-84830472D01*
X147335394Y-84918478D01*
X147497804Y-84969086D01*
X147568384Y-84975500D01*
X147568387Y-84975500D01*
X147734480Y-84975500D01*
X147801519Y-84995185D01*
X147847274Y-85047989D01*
X147857218Y-85117147D01*
X147828193Y-85180703D01*
X147822161Y-85187181D01*
X146455890Y-86553451D01*
X146455884Y-86553458D01*
X146422477Y-86603457D01*
X146422477Y-86603458D01*
X146416106Y-86612993D01*
X146379225Y-86668188D01*
X146379221Y-86668195D01*
X146326421Y-86795667D01*
X146326418Y-86795677D01*
X146299500Y-86931004D01*
X146299500Y-86931007D01*
X146299500Y-102581006D01*
X146299500Y-102718994D01*
X146299500Y-102718996D01*
X146299499Y-102718996D01*
X146326418Y-102854322D01*
X146326421Y-102854332D01*
X146379223Y-102981808D01*
X146379224Y-102981810D01*
X146379225Y-102981811D01*
X146387419Y-102994075D01*
X146388351Y-102995469D01*
X146409229Y-103062147D01*
X146390744Y-103129527D01*
X146338766Y-103176217D01*
X146269796Y-103187393D01*
X146259468Y-103185650D01*
X146189787Y-103170839D01*
X146128305Y-103137647D01*
X146127887Y-103137230D01*
X143736819Y-100746162D01*
X143703334Y-100684839D01*
X143700500Y-100658481D01*
X143700500Y-97222711D01*
X143720185Y-97155672D01*
X143753377Y-97121136D01*
X143871401Y-97038495D01*
X144038495Y-96871401D01*
X144174035Y-96677830D01*
X144273903Y-96463663D01*
X144335063Y-96235408D01*
X144355659Y-96000000D01*
X144353545Y-95975843D01*
X144345835Y-95887710D01*
X144335063Y-95764592D01*
X144273903Y-95536337D01*
X144174035Y-95322171D01*
X144038495Y-95128599D01*
X143916179Y-95006283D01*
X143882696Y-94944963D01*
X143887680Y-94875271D01*
X143929551Y-94819337D01*
X143960529Y-94802422D01*
X144092086Y-94753354D01*
X144092093Y-94753350D01*
X144207187Y-94667190D01*
X144207190Y-94667187D01*
X144293350Y-94552093D01*
X144293354Y-94552086D01*
X144343596Y-94417379D01*
X144343598Y-94417372D01*
X144349999Y-94357844D01*
X144350000Y-94357827D01*
X144350000Y-93710000D01*
X143433012Y-93710000D01*
X143465925Y-93652993D01*
X143500000Y-93525826D01*
X143500000Y-93394174D01*
X143465925Y-93267007D01*
X143433012Y-93210000D01*
X144350000Y-93210000D01*
X144350000Y-92562172D01*
X144349999Y-92562155D01*
X144343598Y-92502627D01*
X144343596Y-92502620D01*
X144293354Y-92367913D01*
X144293350Y-92367906D01*
X144207190Y-92252812D01*
X144207187Y-92252809D01*
X144092093Y-92166649D01*
X144092086Y-92166645D01*
X143957379Y-92116403D01*
X143957372Y-92116401D01*
X143897844Y-92110000D01*
X143250000Y-92110000D01*
X143250000Y-93026988D01*
X143192993Y-92994075D01*
X143065826Y-92960000D01*
X142934174Y-92960000D01*
X142807007Y-92994075D01*
X142750000Y-93026988D01*
X142750000Y-92110000D01*
X142102155Y-92110000D01*
X142042627Y-92116401D01*
X142042620Y-92116403D01*
X141907913Y-92166645D01*
X141907906Y-92166649D01*
X141792812Y-92252809D01*
X141792809Y-92252812D01*
X141706649Y-92367906D01*
X141706645Y-92367913D01*
X141656403Y-92502620D01*
X141656401Y-92502627D01*
X141650000Y-92562155D01*
X141650000Y-93210000D01*
X142566988Y-93210000D01*
X142534075Y-93267007D01*
X142500000Y-93394174D01*
X142500000Y-93525826D01*
X142534075Y-93652993D01*
X142566988Y-93710000D01*
X141650000Y-93710000D01*
X141650000Y-94357844D01*
X141656401Y-94417372D01*
X141656403Y-94417379D01*
X141706645Y-94552086D01*
X141706649Y-94552093D01*
X141792809Y-94667187D01*
X141792812Y-94667190D01*
X141907906Y-94753350D01*
X141907913Y-94753354D01*
X142039470Y-94802421D01*
X142095403Y-94844292D01*
X142119821Y-94909756D01*
X142104970Y-94978029D01*
X142083819Y-95006284D01*
X141961503Y-95128600D01*
X141825965Y-95322169D01*
X141825964Y-95322171D01*
X141726098Y-95536335D01*
X141726094Y-95536344D01*
X141664938Y-95764586D01*
X141664936Y-95764596D01*
X141644341Y-95999999D01*
X141644341Y-96000000D01*
X141664936Y-96235403D01*
X141664938Y-96235413D01*
X141726094Y-96463655D01*
X141726096Y-96463659D01*
X141726097Y-96463663D01*
X141773732Y-96565816D01*
X141825965Y-96677830D01*
X141825967Y-96677834D01*
X141913082Y-96802246D01*
X141961501Y-96871396D01*
X141961506Y-96871402D01*
X142128597Y-97038494D01*
X142246623Y-97121136D01*
X142290248Y-97175713D01*
X142299500Y-97222711D01*
X142299500Y-100931006D01*
X142299500Y-101068994D01*
X142299500Y-101068996D01*
X142299499Y-101068996D01*
X142326418Y-101204322D01*
X142326421Y-101204332D01*
X142379222Y-101331807D01*
X142455887Y-101446545D01*
X142455888Y-101446546D01*
X145131148Y-104121805D01*
X145158824Y-104172490D01*
X145161495Y-104171623D01*
X145218747Y-104347829D01*
X145218750Y-104347835D01*
X145308141Y-104502665D01*
X145324581Y-104520923D01*
X145427764Y-104635521D01*
X145427767Y-104635523D01*
X145427770Y-104635526D01*
X145572407Y-104740612D01*
X145735733Y-104813329D01*
X145910609Y-104850500D01*
X145910610Y-104850500D01*
X146089389Y-104850500D01*
X146089391Y-104850500D01*
X146264267Y-104813329D01*
X146427593Y-104740612D01*
X146572230Y-104635526D01*
X146691859Y-104502665D01*
X146781250Y-104347835D01*
X146836497Y-104177803D01*
X146855185Y-104000000D01*
X146836497Y-103822197D01*
X146836495Y-103822193D01*
X146836495Y-103822190D01*
X146830033Y-103802303D01*
X146828036Y-103732462D01*
X146864116Y-103672628D01*
X146926817Y-103641799D01*
X146996231Y-103649763D01*
X147035644Y-103676302D01*
X149413181Y-106053837D01*
X149446666Y-106115160D01*
X149449500Y-106141518D01*
X149449500Y-106175500D01*
X149429815Y-106242539D01*
X149377011Y-106288294D01*
X149325500Y-106299500D01*
X147211004Y-106299500D01*
X147102591Y-106321065D01*
X147102590Y-106321065D01*
X147089132Y-106323742D01*
X147075674Y-106326419D01*
X147049269Y-106337356D01*
X147022867Y-106348292D01*
X147022865Y-106348293D01*
X147022864Y-106348292D01*
X146948192Y-106379223D01*
X146847446Y-106446539D01*
X146847447Y-106446540D01*
X146833454Y-106455889D01*
X146833452Y-106455891D01*
X145185888Y-108103454D01*
X145185885Y-108103458D01*
X145164223Y-108135878D01*
X145110610Y-108180683D01*
X145041285Y-108189390D01*
X144998000Y-108173719D01*
X144870396Y-108098255D01*
X144870393Y-108098254D01*
X144712573Y-108052402D01*
X144712567Y-108052401D01*
X144675701Y-108049500D01*
X144675694Y-108049500D01*
X144244306Y-108049500D01*
X144244298Y-108049500D01*
X144207432Y-108052401D01*
X144207426Y-108052402D01*
X144049606Y-108098254D01*
X144049603Y-108098255D01*
X143908137Y-108181917D01*
X143901969Y-108186702D01*
X143900072Y-108184256D01*
X143851358Y-108210857D01*
X143781666Y-108205873D01*
X143749296Y-108185069D01*
X143748031Y-108186702D01*
X143741862Y-108181917D01*
X143600396Y-108098255D01*
X143600393Y-108098254D01*
X143442573Y-108052402D01*
X143442567Y-108052401D01*
X143405701Y-108049500D01*
X143405694Y-108049500D01*
X142974306Y-108049500D01*
X142974298Y-108049500D01*
X142937432Y-108052401D01*
X142937426Y-108052402D01*
X142830117Y-108083579D01*
X142760247Y-108083380D01*
X142707841Y-108052184D01*
X138111546Y-103455888D01*
X138111545Y-103455887D01*
X137996807Y-103379222D01*
X137869332Y-103326421D01*
X137869322Y-103326418D01*
X137733996Y-103299500D01*
X137733994Y-103299500D01*
X137733993Y-103299500D01*
X135222711Y-103299500D01*
X135155672Y-103279815D01*
X135121136Y-103246623D01*
X135038494Y-103128597D01*
X134871404Y-102961508D01*
X134871401Y-102961505D01*
X134871396Y-102961501D01*
X134871393Y-102961499D01*
X134753376Y-102878861D01*
X134709751Y-102824284D01*
X134700500Y-102777287D01*
X134700500Y-102682711D01*
X134720185Y-102615672D01*
X134753377Y-102581136D01*
X134753563Y-102581006D01*
X134871401Y-102498495D01*
X135038495Y-102331401D01*
X135174035Y-102137830D01*
X135273903Y-101923663D01*
X135335063Y-101695408D01*
X135355659Y-101460000D01*
X135335063Y-101224592D01*
X135273903Y-100996337D01*
X135174035Y-100782171D01*
X135148821Y-100746162D01*
X135038496Y-100588600D01*
X134994010Y-100544114D01*
X134916179Y-100466283D01*
X134882696Y-100404963D01*
X134887680Y-100335271D01*
X134929551Y-100279337D01*
X134960529Y-100262422D01*
X135092086Y-100213354D01*
X135092093Y-100213350D01*
X135207187Y-100127190D01*
X135207190Y-100127187D01*
X135293350Y-100012093D01*
X135293354Y-100012086D01*
X135343596Y-99877379D01*
X135343598Y-99877372D01*
X135349999Y-99817844D01*
X135350000Y-99817827D01*
X135350000Y-99170000D01*
X134433012Y-99170000D01*
X134465925Y-99112993D01*
X134500000Y-98985826D01*
X134500000Y-98854174D01*
X134465925Y-98727007D01*
X134433012Y-98670000D01*
X135350000Y-98670000D01*
X135350000Y-98022172D01*
X135349999Y-98022155D01*
X135343598Y-97962627D01*
X135343596Y-97962620D01*
X135293354Y-97827913D01*
X135293350Y-97827906D01*
X135207190Y-97712812D01*
X135207187Y-97712809D01*
X135092093Y-97626649D01*
X135092086Y-97626645D01*
X134957379Y-97576403D01*
X134957372Y-97576401D01*
X134897844Y-97570000D01*
X134250000Y-97570000D01*
X134250000Y-98486988D01*
X134192993Y-98454075D01*
X134065826Y-98420000D01*
X133934174Y-98420000D01*
X133807007Y-98454075D01*
X133750000Y-98486988D01*
X133750000Y-97570000D01*
X133102155Y-97570000D01*
X133042627Y-97576401D01*
X133042620Y-97576403D01*
X132907913Y-97626645D01*
X132907906Y-97626649D01*
X132792812Y-97712809D01*
X132792809Y-97712812D01*
X132706649Y-97827906D01*
X132706645Y-97827913D01*
X132656403Y-97962620D01*
X132656401Y-97962627D01*
X132650000Y-98022155D01*
X132650000Y-98670000D01*
X133566988Y-98670000D01*
X133534075Y-98727007D01*
X133500000Y-98854174D01*
X133500000Y-98985826D01*
X133534075Y-99112993D01*
X133566988Y-99170000D01*
X132650000Y-99170000D01*
X132650000Y-99817844D01*
X132656401Y-99877372D01*
X132656403Y-99877379D01*
X132706645Y-100012086D01*
X132706649Y-100012093D01*
X132792809Y-100127187D01*
X132792812Y-100127190D01*
X132907906Y-100213350D01*
X132907913Y-100213354D01*
X133039470Y-100262421D01*
X133095403Y-100304292D01*
X133119821Y-100369756D01*
X133104970Y-100438029D01*
X133083819Y-100466284D01*
X132961503Y-100588600D01*
X132825965Y-100782169D01*
X132825964Y-100782171D01*
X132726098Y-100996335D01*
X132726094Y-100996344D01*
X132664938Y-101224586D01*
X132664936Y-101224596D01*
X132644341Y-101459999D01*
X132200500Y-101459999D01*
X132200500Y-89459999D01*
X132644341Y-89459999D01*
X132644341Y-89460000D01*
X132664936Y-89695403D01*
X132664938Y-89695413D01*
X132726094Y-89923655D01*
X132726096Y-89923659D01*
X132726097Y-89923663D01*
X132807198Y-90097585D01*
X132825965Y-90137830D01*
X132825967Y-90137834D01*
X132961501Y-90331395D01*
X132961506Y-90331402D01*
X133128597Y-90498494D01*
X133181398Y-90535465D01*
X133235557Y-90573388D01*
X133246623Y-90581136D01*
X133290248Y-90635713D01*
X133299500Y-90682711D01*
X133299500Y-90777288D01*
X133279815Y-90844327D01*
X133246624Y-90878863D01*
X133128594Y-90961508D01*
X132961505Y-91128597D01*
X132825965Y-91322169D01*
X132825964Y-91322171D01*
X132726098Y-91536335D01*
X132726094Y-91536344D01*
X132664938Y-91764586D01*
X132664936Y-91764596D01*
X132644341Y-91999999D01*
X132644341Y-92000000D01*
X132664936Y-92235403D01*
X132664938Y-92235413D01*
X132726094Y-92463655D01*
X132726096Y-92463659D01*
X132726097Y-92463663D01*
X132822547Y-92670500D01*
X132825965Y-92677830D01*
X132825967Y-92677834D01*
X132961501Y-92871395D01*
X132961506Y-92871402D01*
X133128597Y-93038493D01*
X133128603Y-93038498D01*
X133314594Y-93168730D01*
X133358219Y-93223307D01*
X133365413Y-93292805D01*
X133333890Y-93355160D01*
X133314595Y-93371880D01*
X133128922Y-93501890D01*
X133128920Y-93501891D01*
X132961891Y-93668920D01*
X132961886Y-93668926D01*
X132826400Y-93862420D01*
X132826399Y-93862422D01*
X132726570Y-94076507D01*
X132726567Y-94076513D01*
X132669364Y-94289999D01*
X132669364Y-94290000D01*
X133566988Y-94290000D01*
X133534075Y-94347007D01*
X133500000Y-94474174D01*
X133500000Y-94605826D01*
X133534075Y-94732993D01*
X133566988Y-94790000D01*
X132669364Y-94790000D01*
X132726567Y-95003486D01*
X132726570Y-95003492D01*
X132826399Y-95217578D01*
X132961894Y-95411082D01*
X133128917Y-95578105D01*
X133322421Y-95713600D01*
X133536507Y-95813429D01*
X133536516Y-95813433D01*
X133750000Y-95870634D01*
X133750000Y-94973012D01*
X133807007Y-95005925D01*
X133934174Y-95040000D01*
X134065826Y-95040000D01*
X134192993Y-95005925D01*
X134250000Y-94973012D01*
X134250000Y-95870633D01*
X134463483Y-95813433D01*
X134463492Y-95813429D01*
X134677578Y-95713600D01*
X134871082Y-95578105D01*
X135038105Y-95411082D01*
X135173600Y-95217578D01*
X135273429Y-95003492D01*
X135273432Y-95003486D01*
X135330636Y-94790000D01*
X134433012Y-94790000D01*
X134465925Y-94732993D01*
X134500000Y-94605826D01*
X134500000Y-94474174D01*
X134465925Y-94347007D01*
X134433012Y-94290000D01*
X135330636Y-94290000D01*
X135330635Y-94289999D01*
X135273432Y-94076513D01*
X135273429Y-94076507D01*
X135173600Y-93862422D01*
X135173599Y-93862420D01*
X135038113Y-93668926D01*
X135038108Y-93668920D01*
X134871078Y-93501890D01*
X134685405Y-93371879D01*
X134641780Y-93317302D01*
X134634588Y-93247804D01*
X134666110Y-93185449D01*
X134685406Y-93168730D01*
X134707881Y-93152993D01*
X134871401Y-93038495D01*
X135038495Y-92871401D01*
X135174035Y-92677830D01*
X135273903Y-92463663D01*
X135335063Y-92235408D01*
X135355659Y-92000000D01*
X135341250Y-91835308D01*
X135355017Y-91766808D01*
X135403632Y-91716625D01*
X135464778Y-91700500D01*
X144476907Y-91700500D01*
X144543946Y-91720185D01*
X144549792Y-91724182D01*
X144572402Y-91740609D01*
X144572404Y-91740610D01*
X144572407Y-91740612D01*
X144735733Y-91813329D01*
X144910609Y-91850500D01*
X144910610Y-91850500D01*
X145089389Y-91850500D01*
X145089391Y-91850500D01*
X145264267Y-91813329D01*
X145427593Y-91740612D01*
X145572230Y-91635526D01*
X145691859Y-91502665D01*
X145781250Y-91347835D01*
X145836497Y-91177803D01*
X145855185Y-91000000D01*
X145836497Y-90822197D01*
X145781250Y-90652165D01*
X145691859Y-90497335D01*
X145612735Y-90409459D01*
X145572235Y-90364478D01*
X145572232Y-90364476D01*
X145572231Y-90364475D01*
X145572230Y-90364474D01*
X145427593Y-90259388D01*
X145264267Y-90186671D01*
X145264265Y-90186670D01*
X145128689Y-90157853D01*
X145089391Y-90149500D01*
X144910609Y-90149500D01*
X144883637Y-90155233D01*
X144735733Y-90186670D01*
X144735728Y-90186672D01*
X144572408Y-90259388D01*
X144572403Y-90259390D01*
X144549793Y-90275818D01*
X144483986Y-90299298D01*
X144476908Y-90299500D01*
X135293288Y-90299500D01*
X135226249Y-90279815D01*
X135180494Y-90227011D01*
X135170550Y-90157853D01*
X135180906Y-90123095D01*
X135190006Y-90103580D01*
X135273903Y-89923663D01*
X135335063Y-89695408D01*
X135355659Y-89460000D01*
X135335063Y-89224592D01*
X135282548Y-89028602D01*
X135273905Y-88996344D01*
X135273904Y-88996343D01*
X135273903Y-88996337D01*
X135174035Y-88782171D01*
X135173331Y-88781166D01*
X135038496Y-88588600D01*
X135030902Y-88581006D01*
X134916179Y-88466283D01*
X134882696Y-88404963D01*
X134887680Y-88335271D01*
X134929551Y-88279337D01*
X134960529Y-88262422D01*
X135092086Y-88213354D01*
X135092093Y-88213350D01*
X135207187Y-88127190D01*
X135207190Y-88127187D01*
X135293350Y-88012093D01*
X135293354Y-88012086D01*
X135343596Y-87877379D01*
X135343598Y-87877372D01*
X135349999Y-87817844D01*
X135350000Y-87817827D01*
X135350000Y-87170000D01*
X134433012Y-87170000D01*
X134465925Y-87112993D01*
X134500000Y-86985826D01*
X134500000Y-86854174D01*
X134465925Y-86727007D01*
X134433012Y-86670000D01*
X135350000Y-86670000D01*
X135350000Y-86022172D01*
X135349999Y-86022155D01*
X135343598Y-85962627D01*
X135343596Y-85962620D01*
X135293354Y-85827913D01*
X135293350Y-85827906D01*
X135207190Y-85712812D01*
X135207187Y-85712809D01*
X135092093Y-85626649D01*
X135092086Y-85626645D01*
X134957379Y-85576403D01*
X134957372Y-85576401D01*
X134897844Y-85570000D01*
X134250000Y-85570000D01*
X134250000Y-86486988D01*
X134192993Y-86454075D01*
X134065826Y-86420000D01*
X133934174Y-86420000D01*
X133807007Y-86454075D01*
X133750000Y-86486988D01*
X133750000Y-85570000D01*
X133102155Y-85570000D01*
X133042627Y-85576401D01*
X133042620Y-85576403D01*
X132907913Y-85626645D01*
X132907906Y-85626649D01*
X132792812Y-85712809D01*
X132792809Y-85712812D01*
X132706649Y-85827906D01*
X132706645Y-85827913D01*
X132656403Y-85962620D01*
X132656401Y-85962627D01*
X132650000Y-86022155D01*
X132650000Y-86670000D01*
X133566988Y-86670000D01*
X133534075Y-86727007D01*
X133500000Y-86854174D01*
X133500000Y-86985826D01*
X133534075Y-87112993D01*
X133566988Y-87170000D01*
X132650000Y-87170000D01*
X132650000Y-87817844D01*
X132656401Y-87877372D01*
X132656403Y-87877379D01*
X132706645Y-88012086D01*
X132706649Y-88012093D01*
X132792809Y-88127187D01*
X132792812Y-88127190D01*
X132907906Y-88213350D01*
X132907913Y-88213354D01*
X133039470Y-88262421D01*
X133095403Y-88304292D01*
X133119821Y-88369756D01*
X133104970Y-88438029D01*
X133083819Y-88466284D01*
X132961503Y-88588600D01*
X132825965Y-88782169D01*
X132825964Y-88782171D01*
X132726098Y-88996335D01*
X132726094Y-88996344D01*
X132664938Y-89224586D01*
X132664936Y-89224596D01*
X132644341Y-89459999D01*
X132200500Y-89459999D01*
X132200500Y-84331582D01*
X145275001Y-84331582D01*
X145281408Y-84402102D01*
X145281409Y-84402107D01*
X145331981Y-84564396D01*
X145419927Y-84709877D01*
X145540122Y-84830072D01*
X145685604Y-84918019D01*
X145685603Y-84918019D01*
X145847894Y-84968590D01*
X145847893Y-84968590D01*
X145918408Y-84974998D01*
X145918426Y-84974999D01*
X145924999Y-84974998D01*
X145925000Y-84974998D01*
X145925000Y-84250000D01*
X145275001Y-84250000D01*
X145275001Y-84331582D01*
X132200500Y-84331582D01*
X132200500Y-81875441D01*
X134099500Y-81875441D01*
X134099500Y-82124558D01*
X134099501Y-82124575D01*
X134132017Y-82371561D01*
X134196498Y-82612207D01*
X134291830Y-82842361D01*
X134291837Y-82842376D01*
X134416400Y-83058126D01*
X134568060Y-83255774D01*
X134568066Y-83255781D01*
X134744218Y-83431933D01*
X134744225Y-83431939D01*
X134941873Y-83583599D01*
X135157623Y-83708162D01*
X135157638Y-83708169D01*
X135256825Y-83749253D01*
X135387793Y-83803502D01*
X135628435Y-83867982D01*
X135875435Y-83900500D01*
X135875442Y-83900500D01*
X136124558Y-83900500D01*
X136124565Y-83900500D01*
X136371565Y-83867982D01*
X136612207Y-83803502D01*
X136842373Y-83708164D01*
X136911200Y-83668427D01*
X145275000Y-83668427D01*
X145275000Y-83750000D01*
X145925000Y-83750000D01*
X145925000Y-83025000D01*
X145924999Y-83024999D01*
X145918436Y-83025000D01*
X145918417Y-83025001D01*
X145847897Y-83031408D01*
X145847892Y-83031409D01*
X145685603Y-83081981D01*
X145540122Y-83169927D01*
X145419927Y-83290122D01*
X145331980Y-83435604D01*
X145281409Y-83597893D01*
X145275000Y-83668427D01*
X136911200Y-83668427D01*
X137058127Y-83583599D01*
X137255776Y-83431938D01*
X137431938Y-83255776D01*
X137583599Y-83058127D01*
X137708164Y-82842373D01*
X137803502Y-82612207D01*
X137867982Y-82371565D01*
X137900500Y-82124565D01*
X137900500Y-81875435D01*
X137867982Y-81628435D01*
X137803502Y-81387793D01*
X137728694Y-81207190D01*
X137708169Y-81157638D01*
X137708162Y-81157623D01*
X137583599Y-80941873D01*
X137431939Y-80744225D01*
X137431933Y-80744218D01*
X137255781Y-80568066D01*
X137255774Y-80568060D01*
X137058126Y-80416400D01*
X136842376Y-80291837D01*
X136842361Y-80291830D01*
X136612207Y-80196498D01*
X136599126Y-80192993D01*
X136371565Y-80132018D01*
X136371564Y-80132017D01*
X136371561Y-80132017D01*
X136124575Y-80099501D01*
X136124570Y-80099500D01*
X136124565Y-80099500D01*
X135875435Y-80099500D01*
X135875429Y-80099500D01*
X135875424Y-80099501D01*
X135628438Y-80132017D01*
X135387792Y-80196498D01*
X135157638Y-80291830D01*
X135157623Y-80291837D01*
X134941873Y-80416400D01*
X134744225Y-80568060D01*
X134744218Y-80568066D01*
X134568066Y-80744218D01*
X134568060Y-80744225D01*
X134416400Y-80941873D01*
X134291837Y-81157623D01*
X134291830Y-81157638D01*
X134196498Y-81387792D01*
X134132017Y-81628438D01*
X134099501Y-81875424D01*
X134099500Y-81875441D01*
X132200500Y-81875441D01*
X132200500Y-78324500D01*
X132220185Y-78257461D01*
X132272989Y-78211706D01*
X132324500Y-78200500D01*
X191675500Y-78200500D01*
X191742539Y-78220185D01*
G37*
%TD.AperFunction*%
%TD*%
M02*
